# Lunar deep-space starfield mesh
o lunar_starfield
v -174.107 -97.971 65.021
v -174.107 -96.756 65.021
v -174.107 -97.364 66.236
v -174.714 -97.364 65.021
v -173.499 -97.364 65.021
v -174.107 -97.364 66.236
v 140.157 -73.051 138.037
v 140.157 -72.054 138.037
v 140.157 -72.553 139.035
v 139.658 -72.553 138.037
v 140.655 -72.553 138.037
v 140.157 -72.553 139.035
v 43.486 191.480 73.153
v 43.486 192.208 73.153
v 43.486 191.844 73.881
v 43.123 191.844 73.153
v 43.850 191.844 73.153
v 43.486 191.844 73.881
v -69.973 -185.518 70.191
v -69.973 -184.298 70.191
v -69.973 -184.908 71.411
v -70.583 -184.908 70.191
v -69.364 -184.908 70.191
v -69.973 -184.908 71.411
v 180.434 85.107 64.903
v 180.434 85.691 64.903
v 180.434 85.399 65.487
v 180.143 85.399 64.903
v 180.726 85.399 64.903
v 180.434 85.399 65.487
v 22.016 -175.659 113.193
v 22.016 -174.799 113.193
v 22.016 -175.229 114.052
v 21.586 -175.229 113.193
v 22.446 -175.229 113.193
v 22.016 -175.229 114.052
v -54.410 104.696 173.069
v -54.410 105.507 173.069
v -54.410 105.101 173.880
v -54.815 105.101 173.069
v -54.004 105.101 173.069
v -54.410 105.101 173.880
v 42.811 159.140 129.337
v 42.811 159.879 129.337
v 42.811 159.510 130.076
v 42.441 159.510 129.337
v 43.181 159.510 129.337
v 42.811 159.510 130.076
v 51.276 42.350 198.579
v 51.276 43.360 198.579
v 51.276 42.855 199.588
v 50.771 42.855 198.579
v 51.781 42.855 198.579
v 51.276 42.855 199.588
v -25.110 -42.733 203.749
v -25.110 -41.929 203.749
v -25.110 -42.331 204.553
v -25.512 -42.331 203.749
v -24.707 -42.331 203.749
v -25.110 -42.331 204.553
v -120.872 114.137 127.539
v -120.872 114.948 127.539
v -120.872 114.542 128.351
v -121.278 114.542 127.539
v -120.467 114.542 127.539
v -120.872 114.542 128.351
v -102.317 -183.627 7.894
v -102.317 -182.772 7.894
v -102.317 -183.199 8.748
v -102.744 -183.199 7.894
v -101.890 -183.199 7.894
v -102.317 -183.199 8.748
v -175.691 -39.636 107.819
v -175.691 -39.101 107.819
v -175.691 -39.368 108.355
v -175.959 -39.368 107.819
v -175.423 -39.368 107.819
v -175.691 -39.368 108.355
v -59.043 -201.781 8.765
v -59.043 -200.854 8.765
v -59.043 -201.317 9.691
v -59.507 -201.317 8.765
v -58.580 -201.317 8.765
v -59.043 -201.317 9.691
v 119.420 171.574 16.690
v 119.420 172.225 16.690
v 119.420 171.899 17.340
v 119.095 171.899 16.690
v 119.745 171.899 16.690
v 119.420 171.899 17.340
v 186.225 81.109 52.021
v 186.225 82.122 52.021
v 186.225 81.616 53.034
v 185.718 81.616 52.021
v 186.732 81.616 52.021
v 186.225 81.616 53.034
v -24.116 -176.077 112.152
v -24.116 -175.087 112.152
v -24.116 -175.582 113.142
v -24.611 -175.582 112.152
v -23.621 -175.582 112.152
v -24.116 -175.582 113.142
v -149.402 22.959 145.114
v -149.402 24.109 145.114
v -149.402 23.534 146.264
v -149.977 23.534 145.114
v -148.826 23.534 145.114
v -149.402 23.534 146.264
v -19.899 48.579 202.701
v -19.899 49.597 202.701
v -19.899 49.088 203.719
v -20.407 49.088 202.701
v -19.390 49.088 202.701
v -19.899 49.088 203.719
v -85.202 -192.057 7.854
v -85.202 -191.476 7.854
v -85.202 -191.766 8.434
v -85.492 -191.766 7.854
v -84.912 -191.766 7.854
v -85.202 -191.766 8.434
v 176.383 35.341 107.553
v 176.383 36.542 107.553
v 176.383 35.941 108.754
v 175.782 35.941 107.553
v 176.984 35.941 107.553
v 176.383 35.941 108.754
v 44.278 -44.189 200.230
v 44.278 -43.584 200.230
v 44.278 -43.886 200.836
v 43.975 -43.886 200.230
v 44.581 -43.886 200.230
v 44.278 -43.886 200.836
v -22.253 -78.467 193.185
v -22.253 -77.365 193.185
v -22.253 -77.916 194.288
v -22.804 -77.916 193.185
v -21.701 -77.916 193.185
v -22.253 -77.916 194.288
v 53.530 -197.291 49.059
v 53.530 -196.642 49.059
v 53.530 -196.966 49.708
v 53.206 -196.966 49.059
v 53.855 -196.966 49.059
v 53.530 -196.966 49.708
v 24.123 -88.630 188.537
v 24.123 -87.467 188.537
v 24.123 -88.049 189.699
v 23.542 -88.049 188.537
v 24.704 -88.049 188.537
v 24.123 -88.049 189.699
v -44.429 15.221 204.348
v -44.429 15.842 204.348
v -44.429 15.531 204.968
v -44.739 15.531 204.348
v -44.119 15.531 204.348
v -44.429 15.531 204.968
v 46.853 -13.318 203.916
v 46.853 -12.555 203.916
v 46.853 -12.937 204.679
v 46.471 -12.937 203.916
v 47.234 -12.937 203.916
v 46.853 -12.937 204.679
v 127.627 57.169 155.968
v 127.627 58.185 155.968
v 127.627 57.677 156.984
v 127.119 57.677 155.968
v 128.136 57.677 155.968
v 127.627 57.677 156.984
v -123.017 168.123 23.731
v -123.017 168.843 23.731
v -123.017 168.483 24.452
v -123.377 168.483 23.731
v -122.657 168.483 23.731
v -123.017 168.483 24.452
v 93.481 -185.493 33.677
v 93.481 -184.299 33.677
v 93.481 -184.896 34.872
v 92.884 -184.896 33.677
v 94.078 -184.896 33.677
v 93.481 -184.896 34.872
v -0.023 198.222 68.176
v -0.023 198.822 68.176
v -0.023 198.522 68.777
v -0.323 198.522 68.176
v 0.278 198.522 68.176
v -0.023 198.522 68.777
v 43.278 -5.557 205.052
v 43.278 -4.808 205.052
v 43.278 -5.183 205.802
v 42.903 -5.183 205.052
v 43.652 -5.183 205.052
v 43.278 -5.183 205.802
v 94.237 64.006 175.625
v 94.237 65.166 175.625
v 94.237 64.586 176.784
v 93.658 64.586 175.625
v 94.817 64.586 175.625
v 94.237 64.586 176.784
v 119.125 8.514 172.136
v 119.125 9.651 172.136
v 119.125 9.083 173.273
v 118.556 9.083 172.136
v 119.693 9.083 172.136
v 119.125 9.083 173.273
v -130.671 34.036 160.165
v -130.671 35.135 160.165
v -130.671 34.585 161.264
v -131.220 34.585 160.165
v -130.121 34.585 160.165
v -130.671 34.585 161.264
v 13.729 189.552 87.779
v 13.729 190.547 87.779
v 13.729 190.049 88.775
v 13.231 190.049 87.779
v 14.226 190.049 87.779
v 13.729 190.049 88.775
v -135.412 -46.587 153.336
v -135.412 -45.827 153.336
v -135.412 -46.207 154.096
v -135.792 -46.207 153.336
v -135.031 -46.207 153.336
v -135.412 -46.207 154.096
v 173.962 -73.236 91.948
v 173.962 -72.227 91.948
v 173.962 -72.731 92.957
v 173.457 -72.731 91.948
v 174.466 -72.731 91.948
v 173.962 -72.731 92.957
v 134.267 -105.567 122.141
v 134.267 -105.008 122.141
v 134.267 -105.288 122.701
v 133.987 -105.288 122.141
v 134.547 -105.288 122.141
v 134.267 -105.288 122.701
v 38.516 204.377 26.489
v 38.516 205.004 26.489
v 38.516 204.690 27.115
v 38.203 204.690 26.489
v 38.830 204.690 26.489
v 38.516 204.690 27.115
v 131.253 123.554 106.890
v 131.253 124.340 106.890
v 131.253 123.947 107.677
v 130.860 123.947 106.890
v 131.646 123.947 106.890
v 131.253 123.947 107.677
v -105.140 35.580 177.664
v -105.140 36.587 177.664
v -105.140 36.083 178.671
v -105.643 36.083 177.664
v -104.636 36.083 177.664
v -105.140 36.083 178.671
v -67.987 -163.887 112.559
v -67.987 -162.890 112.559
v -67.987 -163.389 113.556
v -68.486 -163.389 112.559
v -67.488 -163.389 112.559
v -67.987 -163.389 113.556
v -195.052 -63.569 45.059
v -195.052 -62.656 45.059
v -195.052 -63.113 45.972
v -195.508 -63.113 45.059
v -194.595 -63.113 45.059
v -195.052 -63.113 45.972
v -45.092 97.940 179.396
v -45.092 98.989 179.396
v -45.092 98.465 180.445
v -45.617 98.465 179.396
v -44.568 98.465 179.396
v -45.092 98.465 180.445
v 9.566 163.495 130.493
v 9.566 164.342 130.493
v 9.566 163.919 131.340
v 9.142 163.919 130.493
v 9.990 163.919 130.493
v 9.566 163.919 131.340
v -60.737 199.862 18.569
v -60.737 200.417 18.569
v -60.737 200.139 19.124
v -61.015 200.139 18.569
v -60.459 200.139 18.569
v -60.737 200.139 19.124
v 90.721 -4.514 188.931
v 90.721 -3.678 188.931
v 90.721 -4.096 189.767
v 90.303 -4.096 188.931
v 91.139 -4.096 188.931
v 90.721 -4.096 189.767
v -95.550 -166.009 86.560
v -95.550 -164.978 86.560
v -95.550 -165.493 87.591
v -96.066 -165.493 86.560
v -95.035 -165.493 86.560
v -95.550 -165.493 87.591
v 77.540 -25.174 193.158
v 77.540 -24.319 193.158
v 77.540 -24.747 194.012
v 77.112 -24.747 193.158
v 77.967 -24.747 193.158
v 77.540 -24.747 194.012
v 36.979 -4.114 206.402
v 36.979 -3.552 206.402
v 36.979 -3.833 206.964
v 36.698 -3.833 206.402
v 37.260 -3.833 206.402
v 36.979 -3.833 206.964
v -136.800 84.282 134.629
v -136.800 84.999 134.629
v -136.800 84.640 135.347
v -137.159 84.640 134.629
v -136.441 84.640 134.629
v -136.800 84.640 135.347
v -151.695 -136.748 49.799
v -151.695 -135.690 49.799
v -151.695 -136.219 50.857
v -152.224 -136.219 49.799
v -151.166 -136.219 49.799
v -151.695 -136.219 50.857
v 130.534 -163.046 24.842
v 130.534 -162.028 24.842
v 130.534 -162.537 25.860
v 130.025 -162.537 24.842
v 131.043 -162.537 24.842
v 130.534 -162.537 25.860
v -11.841 117.030 173.113
v -11.841 118.048 173.113
v -11.841 117.539 174.130
v -12.350 117.539 173.113
v -11.332 117.539 173.113
v -11.841 117.539 174.130
v 73.434 -11.218 196.062
v 73.434 -10.454 196.062
v 73.434 -10.836 196.826
v 73.052 -10.836 196.062
v 73.816 -10.836 196.062
v 73.434 -10.836 196.826
v -25.479 -202.545 50.821
v -25.479 -201.511 50.821
v -25.479 -202.028 51.855
v -25.995 -202.028 50.821
v -24.962 -202.028 50.821
v -25.479 -202.028 51.855
v -166.205 94.944 85.653
v -166.205 95.636 85.653
v -166.205 95.290 86.345
v -166.551 95.290 85.653
v -165.859 95.290 85.653
v -166.205 95.290 86.345
v 15.485 72.806 195.962
v 15.485 73.395 195.962
v 15.485 73.100 196.551
v 15.190 73.100 195.962
v 15.780 73.100 195.962
v 15.485 73.100 196.551
v 22.117 198.174 64.584
v 22.117 198.808 64.584
v 22.117 198.491 65.218
v 21.800 198.491 64.584
v 22.434 198.491 64.584
v 22.117 198.491 65.218
v -16.402 -130.325 163.746
v -16.402 -129.326 163.746
v -16.402 -129.825 164.744
v -16.901 -129.825 163.746
v -15.903 -129.825 163.746
v -16.402 -129.825 164.744
v 130.828 -95.019 133.918
v 130.828 -94.471 133.918
v 130.828 -94.745 134.466
v 130.554 -94.745 133.918
v 131.101 -94.745 133.918
v 130.828 -94.745 134.466
v 54.841 136.184 149.166
v 54.841 137.219 149.166
v 54.841 136.702 150.201
v 54.323 136.702 149.166
v 55.358 136.702 149.166
v 54.841 136.702 150.201
v 129.442 -73.066 148.171
v 129.442 -72.383 148.171
v 129.442 -72.724 148.854
v 129.100 -72.724 148.171
v 129.784 -72.724 148.171
v 129.442 -72.724 148.854
v -27.821 -18.697 206.962
v -27.821 -17.937 206.962
v -27.821 -18.317 207.721
v -28.201 -18.317 206.962
v -27.441 -18.317 206.962
v -27.821 -18.317 207.721
v 38.800 -18.412 205.135
v 38.800 -17.476 205.135
v 38.800 -17.944 206.071
v 38.332 -17.944 205.135
v 39.268 -17.944 205.135
v 38.800 -17.944 206.071
v -203.459 24.084 45.633
v -203.459 24.683 45.633
v -203.459 24.384 46.232
v -203.759 24.384 45.633
v -203.159 24.384 45.633
v -203.459 24.384 46.232
v 120.830 31.260 168.275
v 120.830 32.293 168.275
v 120.830 31.776 169.308
v 120.313 31.776 168.275
v 121.346 31.776 168.275
v 120.830 31.776 169.308
v 127.036 -5.909 166.516
v 127.036 -4.674 166.516
v 127.036 -5.291 167.752
v 126.419 -5.291 166.516
v 127.654 -5.291 166.516
v 127.036 -5.291 167.752
v -167.674 116.911 47.168
v -167.674 117.473 47.168
v -167.674 117.192 47.731
v -167.956 117.192 47.168
v -167.393 117.192 47.168
v -167.674 117.192 47.731
v -34.290 139.364 152.127
v -34.290 140.594 152.127
v -34.290 139.979 153.357
v -34.905 139.979 152.127
v -33.675 139.979 152.127
v -34.290 139.979 153.357
v -57.078 186.154 76.906
v -57.078 187.195 76.906
v -57.078 186.674 77.947
v -57.598 186.674 76.906
v -56.557 186.674 76.906
v -57.078 186.674 77.947
v -105.270 88.548 158.184
v -105.270 89.177 158.184
v -105.270 88.863 158.813
v -105.585 88.863 158.184
v -104.956 88.863 158.184
v -105.270 88.863 158.813
v 22.968 -30.819 205.999
v 22.968 -29.755 205.999
v 22.968 -30.287 207.063
v 22.436 -30.287 205.999
v 23.500 -30.287 205.999
v 22.968 -30.287 207.063
v 167.427 -71.854 104.342
v 167.427 -71.310 104.342
v 167.427 -71.582 104.886
v 167.156 -71.582 104.342
v 167.699 -71.582 104.342
v 167.427 -71.582 104.886
v -15.072 41.512 204.787
v -15.072 42.370 204.787
v -15.072 41.941 205.645
v -15.501 41.941 204.787
v -14.643 41.941 204.787
v -15.072 41.941 205.645
v 62.350 193.175 52.335
v 62.350 193.814 52.335
v 62.350 193.494 52.973
v 62.030 193.494 52.335
v 62.669 193.494 52.335
v 62.350 193.494 52.973
v -33.452 12.903 206.302
v -33.452 14.059 206.302
v -33.452 13.481 207.458
v -34.030 13.481 206.302
v -32.874 13.481 206.302
v -33.452 13.481 207.458
v 4.198 -86.485 191.138
v 4.198 -85.827 191.138
v 4.198 -86.156 191.795
v 3.869 -86.156 191.138
v 4.527 -86.156 191.138
v 4.198 -86.156 191.795
v 33.801 -193.977 73.743
v 33.801 -193.079 73.743
v 33.801 -193.528 74.641
v 33.352 -193.528 73.743
v 34.250 -193.528 73.743
v 33.801 -193.528 74.641
v 45.193 9.345 204.546
v 45.193 9.957 204.546
v 45.193 9.651 205.158
v 44.887 9.651 204.546
v 45.499 9.651 204.546
v 45.193 9.651 205.158
v -93.479 -62.030 177.201
v -93.479 -61.046 177.201
v -93.479 -61.538 178.185
v -93.970 -61.538 177.201
v -92.987 -61.538 177.201
v -93.479 -61.538 178.185
v -72.674 -160.989 113.807
v -72.674 -159.898 113.807
v -72.674 -160.444 114.897
v -73.219 -160.444 113.807
v -72.129 -160.444 113.807
v -72.674 -160.444 114.897
v 114.392 -47.187 169.227
v 114.392 -45.962 169.227
v 114.392 -46.575 170.452
v 113.779 -46.575 169.227
v 115.004 -46.575 169.227
v 114.392 -46.575 170.452
v 122.493 -169.451 22.985
v 122.493 -168.447 22.985
v 122.493 -168.949 23.989
v 121.992 -168.949 22.985
v 122.995 -168.949 22.985
v 122.493 -168.949 23.989
v 94.143 60.584 177.142
v 94.143 61.372 177.142
v 94.143 60.978 177.929
v 93.749 60.978 177.142
v 94.536 60.978 177.142
v 94.143 60.978 177.929
v 127.565 -166.195 19.543
v 127.565 -164.993 19.543
v 127.565 -165.594 20.744
v 126.964 -165.594 19.543
v 128.166 -165.594 19.543
v 127.565 -165.594 20.744
v 200.906 56.024 23.585
v 200.906 56.546 23.585
v 200.906 56.285 24.107
v 200.645 56.285 23.585
v 201.167 56.285 23.585
v 200.906 56.285 24.107
v 12.319 11.831 208.711
v 12.319 12.953 208.711
v 12.319 12.392 209.832
v 11.759 12.392 208.711
v 12.880 12.392 208.711
v 12.319 12.392 209.832
v 173.532 -100.507 62.635
v 173.532 -99.492 62.635
v 173.532 -99.999 63.650
v 173.024 -99.999 62.635
v 174.039 -99.999 62.635
v 173.532 -99.999 63.650
v 26.470 -91.007 187.211
v 26.470 -90.293 187.211
v 26.470 -90.650 187.926
v 26.113 -90.650 187.211
v 26.827 -90.650 187.211
v 26.470 -90.650 187.926
v 92.482 -17.630 187.254
v 92.482 -16.617 187.254
v 92.482 -17.123 188.266
v 91.976 -17.123 187.254
v 92.989 -17.123 187.254
v 92.482 -17.123 188.266
v -36.877 166.699 121.014
v -36.877 167.764 121.014
v -36.877 167.232 122.080
v -37.410 167.232 121.014
v -36.344 167.232 121.014
v -36.877 167.232 122.080
v -152.684 -16.317 142.728
v -152.684 -15.135 142.728
v -152.684 -15.726 143.910
v -153.275 -15.726 142.728
v -152.093 -15.726 142.728
v -152.684 -15.726 143.910
v -49.398 26.687 202.042
v -49.398 27.241 202.042
v -49.398 26.964 202.595
v -49.674 26.964 202.042
v -49.121 26.964 202.042
v -49.398 26.964 202.595
v -96.483 -18.954 185.321
v -96.483 -18.426 185.321
v -96.483 -18.690 185.849
v -96.747 -18.690 185.321
v -96.219 -18.690 185.321
v -96.483 -18.690 185.849
v -62.477 -178.694 91.374
v -62.477 -177.724 91.374
v -62.477 -178.209 92.345
v -62.962 -178.209 91.374
v -61.992 -178.209 91.374
v -62.477 -178.209 92.345
v -146.090 -143.546 47.610
v -146.090 -142.346 47.610
v -146.090 -142.946 48.809
v -146.690 -142.946 47.610
v -145.490 -142.946 47.610
v -146.090 -142.946 48.809
v 9.506 203.750 47.796
v 9.506 204.588 47.796
v 9.506 204.169 48.635
v 9.087 204.169 47.796
v 9.925 204.169 47.796
v 9.506 204.169 48.635
v 190.155 80.291 36.996
v 190.155 81.360 36.996
v 190.155 80.826 38.064
v 189.620 80.826 36.996
v 190.689 80.826 36.996
v 190.155 80.826 38.064
v 115.931 80.937 154.389
v 115.931 82.094 154.389
v 115.931 81.516 155.547
v 115.353 81.516 154.389
v 116.510 81.516 154.389
v 115.931 81.516 155.547
v -66.542 19.325 197.625
v -66.542 20.443 197.625
v -66.542 19.884 198.743
v -67.101 19.884 197.625
v -65.983 19.884 197.625
v -66.542 19.884 198.743
v 106.305 178.071 29.398
v 106.305 179.156 29.398
v 106.305 178.614 30.483
v 105.763 178.614 29.398
v 106.847 178.614 29.398
v 106.305 178.614 30.483
v 38.770 -43.744 201.295
v 38.770 -42.710 201.295
v 38.770 -43.227 202.330
v 38.253 -43.227 201.295
v 39.287 -43.227 201.295
v 38.770 -43.227 202.330
v -26.146 -2.154 207.833
v -26.146 -1.101 207.833
v -26.146 -1.628 208.886
v -26.672 -1.628 207.833
v -25.619 -1.628 207.833
v -26.146 -1.628 208.886
v 3.274 -40.523 205.802
v 3.274 -39.963 205.802
v 3.274 -40.243 206.362
v 2.994 -40.243 205.802
v 3.553 -40.243 205.802
v 3.274 -40.243 206.362
v -7.277 -131.669 163.382
v -7.277 -131.139 163.382
v -7.277 -131.404 163.911
v -7.542 -131.404 163.382
v -7.013 -131.404 163.382
v -7.277 -131.404 163.911
v -3.282 96.942 185.571
v -3.282 97.843 185.571
v -3.282 97.392 186.472
v -3.732 97.392 185.571
v -2.831 97.392 185.571
v -3.282 97.392 186.472
v -174.354 -72.559 91.748
v -174.354 -71.631 91.748
v -174.354 -72.095 92.676
v -174.818 -72.095 91.748
v -173.890 -72.095 91.748
v -174.354 -72.095 92.676
v 14.047 -13.837 208.643
v 14.047 -12.920 208.643
v 14.047 -13.379 209.561
v 13.588 -13.379 208.643
v 14.506 -13.379 208.643
v 14.047 -13.379 209.561
v -24.331 -206.228 32.946
v -24.331 -205.607 32.946
v -24.331 -205.917 33.567
v -24.642 -205.917 32.946
v -24.021 -205.917 32.946
v -24.331 -205.917 33.567
v -61.376 -24.351 199.083
v -61.376 -23.745 199.083
v -61.376 -24.048 199.689
v -61.679 -24.048 199.083
v -61.073 -24.048 199.083
v -61.376 -24.048 199.689
v 90.673 120.303 145.632
v 90.673 121.042 145.632
v 90.673 120.673 146.372
v 90.303 120.673 145.632
v 91.043 120.673 145.632
v 90.673 120.673 146.372
v 128.704 156.191 54.455
v 128.704 157.017 54.455
v 128.704 156.604 55.281
v 128.291 156.604 54.455
v 129.117 156.604 54.455
v 128.704 156.604 55.281
v 53.424 -194.979 58.130
v 53.424 -193.879 58.130
v 53.424 -194.429 59.231
v 52.874 -194.429 58.130
v 53.974 -194.429 58.130
v 53.424 -194.429 59.231
v 172.482 86.909 81.411
v 172.482 87.910 81.411
v 172.482 87.410 82.412
v 171.981 87.410 81.411
v 172.983 87.410 81.411
v 172.482 87.410 82.412
v 183.500 7.858 101.473
v 183.500 8.489 101.473
v 183.500 8.174 102.105
v 183.184 8.174 101.473
v 183.815 8.174 101.473
v 183.500 8.174 102.105
v 5.898 47.239 204.142
v 5.898 47.873 204.142
v 5.898 47.556 204.777
v 5.581 47.556 204.142
v 6.215 47.556 204.142
v 5.898 47.556 204.777
v -7.651 -40.424 205.650
v -7.651 -39.727 205.650
v -7.651 -40.076 206.347
v -7.999 -40.076 205.650
v -7.302 -40.076 205.650
v -7.651 -40.076 206.347
v 119.459 -140.377 100.825
v 119.459 -139.301 100.825
v 119.459 -139.839 101.902
v 118.921 -139.839 100.825
v 119.997 -139.839 100.825
v 119.459 -139.839 101.902
v -156.592 -87.820 108.820
v -156.592 -86.662 108.820
v -156.592 -87.241 109.978
v -157.171 -87.241 108.820
v -156.013 -87.241 108.820
v -156.592 -87.241 109.978
v -61.502 -174.005 100.538
v -61.502 -173.073 100.538
v -61.502 -173.539 101.470
v -61.968 -173.539 100.538
v -61.035 -173.539 100.538
v -61.502 -173.539 101.470
v -52.039 180.970 91.190
v -52.039 182.166 91.190
v -52.039 181.568 92.386
v -52.637 181.568 91.190
v -51.441 181.568 91.190
v -52.039 181.568 92.386
v 200.355 -31.722 54.080
v 200.355 -30.542 54.080
v 200.355 -31.132 55.260
v 199.765 -31.132 54.080
v 200.945 -31.132 54.080
v 200.355 -31.132 55.260
v -47.253 -204.682 9.442
v -47.253 -204.084 9.442
v -47.253 -204.383 10.040
v -47.552 -204.383 9.442
v -46.954 -204.383 9.442
v -47.253 -204.383 10.040
v -43.883 18.162 203.933
v -43.883 19.311 203.933
v -43.883 18.737 205.082
v -44.458 18.737 203.933
v -43.309 18.737 203.933
v -43.883 18.737 205.082
v -0.862 161.577 132.825
v -0.862 162.763 132.825
v -0.862 162.170 134.011
v -1.455 162.170 132.825
v -0.269 162.170 132.825
v -0.862 162.170 134.011
v 51.776 199.423 38.143
v 51.776 200.242 38.143
v 51.776 199.832 38.962
v 51.366 199.832 38.143
v 52.185 199.832 38.143
v 51.776 199.832 38.962
v -22.000 -47.850 202.848
v -22.000 -46.698 202.848
v -22.000 -47.274 203.999
v -22.576 -47.274 202.848
v -21.424 -47.274 202.848
v -22.000 -47.274 203.999
v 200.735 14.374 59.611
v 200.735 14.987 59.611
v 200.735 14.681 60.224
v 200.428 14.681 59.611
v 201.041 14.681 59.611
v 200.735 14.681 60.224
v -139.884 -96.694 123.088
v -139.884 -95.510 123.088
v -139.884 -96.102 124.272
v -140.476 -96.102 123.088
v -139.292 -96.102 123.088
v -139.884 -96.102 124.272
v -92.894 -82.781 168.909
v -92.894 -81.766 168.909
v -92.894 -82.274 169.923
v -93.401 -82.274 168.909
v -92.386 -82.274 168.909
v -92.894 -82.274 169.923
v 12.713 43.070 204.452
v 12.713 44.210 204.452
v 12.713 43.640 205.592
v 12.143 43.640 204.452
v 13.283 43.640 204.452
v 12.713 43.640 205.592
v 34.657 -71.021 194.359
v 34.657 -70.377 194.359
v 34.657 -70.699 195.003
v 34.335 -70.699 194.359
v 34.979 -70.699 194.359
v 34.657 -70.699 195.003
v 167.056 57.567 112.701
v 167.056 58.603 112.701
v 167.056 58.085 113.737
v 166.538 58.085 112.701
v 167.574 58.085 112.701
v 167.056 58.085 113.737
v 16.230 50.189 202.558
v 16.230 51.326 202.558
v 16.230 50.758 203.695
v 15.661 50.758 202.558
v 16.798 50.758 202.558
v 16.230 50.758 203.695
v -50.725 -146.036 142.136
v -50.725 -145.408 142.136
v -50.725 -145.722 142.764
v -51.040 -145.722 142.136
v -50.411 -145.722 142.136
v -50.725 -145.722 142.764
v 73.511 -188.069 58.647
v 73.511 -187.192 58.647
v 73.511 -187.630 59.524
v 73.072 -187.630 58.647
v 73.949 -187.630 58.647
v 73.511 -187.630 59.524
v 6.282 -119.017 172.795
v 6.282 -118.327 172.795
v 6.282 -118.672 173.485
v 5.937 -118.672 172.795
v 6.626 -118.672 172.795
v 6.282 -118.672 173.485
v 133.303 -127.106 100.974
v 133.303 -126.283 100.974
v 133.303 -126.694 101.796
v 132.891 -126.694 100.974
v 133.714 -126.694 100.974
v 133.303 -126.694 101.796
v -93.966 37.982 183.592
v -93.966 38.530 183.592
v -93.966 38.256 184.140
v -94.240 38.256 183.592
v -93.692 38.256 183.592
v -93.966 38.256 184.140
v -99.135 -117.798 142.716
v -99.135 -116.702 142.716
v -99.135 -117.250 143.813
v -99.683 -117.250 142.716
v -98.586 -117.250 142.716
v -99.135 -117.250 143.813
v -89.627 99.965 160.488
v -89.627 101.182 160.488
v -89.627 100.574 161.704
v -90.235 100.574 160.488
v -89.018 100.574 160.488
v -89.627 100.574 161.704
v 70.921 26.778 195.352
v 70.921 27.635 195.352
v 70.921 27.206 196.209
v 70.493 27.206 195.352
v 71.350 27.206 195.352
v 70.921 27.206 196.209
v -58.656 180.770 88.315
v -58.656 181.446 88.315
v -58.656 181.108 88.992
v -58.994 181.108 88.315
v -58.318 181.108 88.315
v -58.656 181.108 88.992
v 109.930 -166.137 67.329
v 109.930 -164.924 67.329
v 109.930 -165.530 68.541
v 109.323 -165.530 67.329
v 110.536 -165.530 67.329
v 109.930 -165.530 68.541
v -187.940 -20.157 91.075
v -187.940 -19.074 91.075
v -187.940 -19.615 92.159
v -188.482 -19.615 91.075
v -187.398 -19.615 91.075
v -187.940 -19.615 92.159
v -42.424 -24.068 203.982
v -42.424 -23.444 203.982
v -42.424 -23.756 204.605
v -42.736 -23.756 203.982
v -42.112 -23.756 203.982
v -42.424 -23.756 204.605
v -74.666 -196.035 14.603
v -74.666 -195.383 14.603
v -74.666 -195.709 15.255
v -74.993 -195.709 14.603
v -74.340 -195.709 14.603
v -74.666 -195.709 15.255
v -159.065 94.118 98.995
v -159.065 94.841 98.995
v -159.065 94.479 99.719
v -159.427 94.479 98.995
v -158.704 94.479 98.995
v -159.065 94.479 99.719
v -80.567 -37.895 189.863
v -80.567 -37.075 189.863
v -80.567 -37.485 190.683
v -80.976 -37.485 189.863
v -80.157 -37.485 189.863
v -80.567 -37.485 190.683
v -78.792 -4.611 194.270
v -78.792 -3.928 194.270
v -78.792 -4.270 194.953
v -79.133 -4.270 194.270
v -78.450 -4.270 194.270
v -78.792 -4.270 194.953
v 209.539 -3.173 13.237
v 209.539 -2.385 13.237
v 209.539 -2.779 14.024
v 209.145 -2.779 13.237
v 209.932 -2.779 13.237
v 209.539 -2.779 14.024
v 88.911 -174.156 77.058
v 88.911 -173.398 77.058
v 88.911 -173.777 77.816
v 88.532 -173.777 77.058
v 89.291 -173.777 77.058
v 88.911 -173.777 77.816
v 10.087 17.999 208.358
v 10.087 19.150 208.358
v 10.087 18.575 209.509
v 9.512 18.575 208.358
v 10.663 18.575 208.358
v 10.087 18.575 209.509
v 124.156 69.267 154.100
v 124.156 69.896 154.100
v 124.156 69.581 154.729
v 123.841 69.581 154.100
v 124.470 69.581 154.100
v 124.156 69.581 154.729
v 195.513 21.790 72.815
v 195.513 22.816 72.815
v 195.513 22.303 73.841
v 195.001 22.303 72.815
v 196.026 22.303 72.815
v 195.513 22.303 73.841
v -185.619 -34.200 91.769
v -185.619 -33.262 91.769
v -185.619 -33.731 92.706
v -186.088 -33.731 91.769
v -185.150 -33.731 91.769
v -185.619 -33.731 92.706
v 156.829 89.152 106.961
v 156.829 89.743 106.961
v 156.829 89.448 107.552
v 156.533 89.448 106.961
v 157.124 89.448 106.961
v 156.829 89.448 107.552
v 78.209 -155.770 117.296
v 78.209 -154.735 117.296
v 78.209 -155.252 118.332
v 77.691 -155.252 117.296
v 78.726 -155.252 117.296
v 78.209 -155.252 118.332
v -85.982 143.805 125.599
v -85.982 144.739 125.599
v -85.982 144.272 126.533
v -86.449 144.272 125.599
v -85.515 144.272 125.599
v -85.982 144.272 126.533
v -8.116 139.586 155.665
v -8.116 140.662 155.665
v -8.116 140.124 156.741
v -8.654 140.124 155.665
v -7.578 140.124 155.665
v -8.116 140.124 156.741
v 177.955 89.005 66.535
v 177.955 89.539 66.535
v 177.955 89.272 67.070
v 177.687 89.272 66.535
v 178.222 89.272 66.535
v 177.955 89.272 67.070
v -205.583 14.266 39.790
v -205.583 15.161 39.790
v -205.583 14.713 40.685
v -206.031 14.713 39.790
v -205.136 14.713 39.790
v -205.583 14.713 40.685
v 77.007 122.763 151.329
v 77.007 123.486 151.329
v 77.007 123.125 152.052
v 76.646 123.125 151.329
v 77.369 123.125 151.329
v 77.007 123.125 152.052
v -0.373 -69.762 197.680
v -0.373 -68.551 197.680
v -0.373 -69.156 198.891
v -0.978 -69.156 197.680
v 0.232 -69.156 197.680
v -0.373 -69.156 198.891
v -45.836 10.196 204.084
v -45.836 11.337 204.084
v -45.836 10.766 205.224
v -46.406 10.766 204.084
v -45.265 10.766 204.084
v -45.836 10.766 205.224
v -9.923 15.952 208.506
v -9.923 17.162 208.506
v -9.923 16.557 209.716
v -10.528 16.557 208.506
v -9.318 16.557 208.506
v -9.923 16.557 209.716
v 48.101 72.587 190.394
v 48.101 73.602 190.394
v 48.101 73.095 191.409
v 47.594 73.095 190.394
v 48.609 73.095 190.394
v 48.101 73.095 191.409
v -73.566 -66.357 184.930
v -73.566 -65.637 184.930
v -73.566 -65.997 185.650
v -73.927 -65.997 184.930
v -73.206 -65.997 184.930
v -73.566 -65.997 185.650
v 48.374 -83.048 186.535
v 48.374 -82.396 186.535
v 48.374 -82.722 187.187
v 48.048 -82.722 186.535
v 48.700 -82.722 186.535
v 48.374 -82.722 187.187
v 90.541 -20.008 188.169
v 90.541 -19.448 188.169
v 90.541 -19.728 188.729
v 90.261 -19.728 188.169
v 90.821 -19.728 188.169
v 90.541 -19.728 188.729
v 197.664 40.203 57.574
v 197.664 41.200 57.574
v 197.664 40.702 58.571
v 197.165 40.702 57.574
v 198.162 40.702 57.574
v 197.664 40.702 58.571
v -5.916 -34.447 206.588
v -5.916 -33.291 206.588
v -5.916 -33.869 207.744
v -6.494 -33.869 206.588
v -5.338 -33.869 206.588
v -5.916 -33.869 207.744
v 56.384 191.109 65.185
v 56.384 191.690 65.185
v 56.384 191.400 65.766
v 56.093 191.400 65.185
v 56.674 191.400 65.185
v 56.384 191.400 65.766
v -128.253 105.679 127.662
v -128.253 106.473 127.662
v -128.253 106.076 128.456
v -128.650 106.076 127.662
v -127.856 106.076 127.662
v -128.253 106.076 128.456
v 53.718 -112.907 168.537
v 53.718 -111.808 168.537
v 53.718 -112.358 169.636
v 53.169 -112.358 168.537
v 54.267 -112.358 168.537
v 53.718 -112.358 169.636
v 54.307 -64.098 192.166
v 54.307 -63.208 192.166
v 54.307 -63.653 193.056
v 53.862 -63.653 192.166
v 54.752 -63.653 192.166
v 54.307 -63.653 193.056
v -120.276 76.746 153.452
v -120.276 77.598 153.452
v -120.276 77.172 154.303
v -120.701 77.172 153.452
v -119.850 77.172 153.452
v -120.276 77.172 154.303
v -28.484 -51.380 201.240
v -28.484 -50.373 201.240
v -28.484 -50.876 202.246
v -28.988 -50.876 201.240
v -27.981 -50.876 201.240
v -28.484 -50.876 202.246
v -3.740 135.890 159.277
v -3.740 136.738 159.277
v -3.740 136.314 160.125
v -4.164 136.314 159.277
v -3.316 136.314 159.277
v -3.740 136.314 160.125
v 147.744 143.675 38.408
v 147.744 144.519 38.408
v 147.744 144.097 39.252
v 147.322 144.097 38.408
v 148.166 144.097 38.408
v 147.744 144.097 39.252
v 94.130 -36.936 183.828
v 94.130 -36.376 183.828
v 94.130 -36.656 184.388
v 93.850 -36.656 183.828
v 94.410 -36.656 183.828
v 94.130 -36.656 184.388
v 82.300 -47.997 186.789
v 82.300 -47.042 186.789
v 82.300 -47.519 187.743
v 81.823 -47.519 186.789
v 82.778 -47.519 186.789
v 82.300 -47.519 187.743
v 185.293 6.996 98.170
v 185.293 7.756 98.170
v 185.293 7.376 98.930
v 184.913 7.376 98.170
v 185.673 7.376 98.170
v 185.293 7.376 98.930
v -204.094 21.966 43.576
v -204.094 22.940 43.576
v -204.094 22.453 44.550
v -204.581 22.453 43.576
v -203.607 22.453 43.576
v -204.094 22.453 44.550
v -89.731 -76.349 173.590
v -89.731 -75.473 173.590
v -89.731 -75.911 174.466
v -90.169 -75.911 173.590
v -89.293 -75.911 173.590
v -89.731 -75.911 174.466
v -192.649 -73.314 40.589
v -192.649 -72.198 40.589
v -192.649 -72.756 41.704
v -193.206 -72.756 40.589
v -192.091 -72.756 40.589
v -192.649 -72.756 41.704
v 39.589 -43.667 201.138
v 39.589 -42.594 201.138
v 39.589 -43.131 202.210
v 39.053 -43.131 201.138
v 40.125 -43.131 201.138
v 39.589 -43.131 202.210
v 9.141 187.257 93.780
v 9.141 187.814 93.780
v 9.141 187.535 94.337
v 8.863 187.535 93.780
v 9.419 187.535 93.780
v 9.141 187.535 94.337
v 12.373 -55.251 201.788
v 12.373 -54.057 201.788
v 12.373 -54.654 202.983
v 11.776 -54.654 201.788
v 12.970 -54.654 201.788
v 12.373 -54.654 202.983
v -59.684 -44.238 195.982
v -59.684 -43.109 195.982
v -59.684 -43.674 197.111
v -60.249 -43.674 195.982
v -59.120 -43.674 195.982
v -59.684 -43.674 197.111
v 151.119 142.638 26.862
v 151.119 143.789 26.862
v 151.119 143.214 28.013
v 150.544 143.214 26.862
v 151.695 143.214 26.862
v 151.119 143.214 28.013
v 95.744 -18.397 185.560
v 95.744 -17.431 185.560
v 95.744 -17.914 186.526
v 95.261 -17.914 185.560
v 96.227 -17.914 185.560
v 95.744 -17.914 186.526
v -44.820 33.951 201.909
v -44.820 34.676 201.909
v -44.820 34.313 202.634
v -45.183 34.313 201.909
v -44.457 34.313 201.909
v -44.820 34.313 202.634
v 68.446 23.973 196.763
v 68.446 24.537 196.763
v 68.446 24.255 197.327
v 68.164 24.255 196.763
v 68.728 24.255 196.763
v 68.446 24.255 197.327
v -24.382 -112.762 175.364
v -24.382 -112.162 175.364
v -24.382 -112.462 175.964
v -24.681 -112.462 175.364
v -24.082 -112.462 175.364
v -24.382 -112.462 175.964
v -175.784 73.306 87.457
v -175.784 74.407 87.457
v -175.784 73.857 88.558
v -176.334 73.857 87.457
v -175.233 73.857 87.457
v -175.784 73.857 88.558
v 31.053 -180.261 103.392
v 31.053 -179.630 103.392
v 31.053 -179.946 104.023
v 30.738 -179.946 103.392
v 31.369 -179.946 103.392
v 31.053 -179.946 104.023
v -89.675 136.022 131.530
v -89.675 136.978 131.530
v -89.675 136.500 132.486
v -90.153 136.500 131.530
v -89.197 136.500 131.530
v -89.675 136.500 132.486
v 174.067 -59.498 101.165
v 174.067 -58.871 101.165
v 174.067 -59.185 101.792
v 173.754 -59.185 101.165
v 174.380 -59.185 101.165
v 174.067 -59.185 101.792
v -116.520 -118.841 128.022
v -116.520 -117.788 128.022
v -116.520 -118.314 129.075
v -117.047 -118.314 128.022
v -115.994 -118.314 128.022
v -116.520 -118.314 129.075
v -73.592 -120.088 155.638
v -73.592 -118.981 155.638
v -73.592 -119.534 156.745
v -74.145 -119.534 155.638
v -73.038 -119.534 155.638
v -73.592 -119.534 156.745
v 26.256 73.774 194.404
v 26.256 74.426 194.404
v 26.256 74.100 195.056
v 25.930 74.100 194.404
v 26.582 74.100 194.404
v 26.256 74.100 195.056
v -137.237 17.314 157.500
v -137.237 18.225 157.500
v -137.237 17.769 158.412
v -137.693 17.769 157.500
v -136.782 17.769 157.500
v -137.237 17.769 158.412
v 121.505 102.878 136.307
v 121.505 103.600 136.307
v 121.505 103.239 137.029
v 121.144 103.239 136.307
v 121.866 103.239 136.307
v 121.505 103.239 137.029
v -27.852 164.068 127.152
v -27.852 164.886 127.152
v -27.852 164.477 127.969
v -28.261 164.477 127.152
v -27.443 164.477 127.152
v -27.852 164.477 127.969
v 28.527 101.185 180.862
v 28.527 102.376 180.862
v 28.527 101.781 182.053
v 27.932 101.781 180.862
v 29.123 101.781 180.862
v 28.527 101.781 182.053
v 190.200 -64.839 61.011
v 190.200 -64.152 61.011
v 190.200 -64.495 61.698
v 189.856 -64.495 61.011
v 190.543 -64.495 61.011
v 190.200 -64.495 61.698
v -107.617 70.780 165.130
v -107.617 71.799 165.130
v -107.617 71.289 166.149
v -108.126 71.289 165.130
v -107.107 71.289 165.130
v -107.617 71.289 166.149
v -129.006 -81.773 143.850
v -129.006 -80.534 143.850
v -129.006 -81.153 145.089
v -129.626 -81.153 143.850
v -128.387 -81.153 143.850
v -129.006 -81.153 145.089
v 70.435 -17.861 196.709
v 70.435 -17.160 196.709
v 70.435 -17.510 197.410
v 70.084 -17.510 196.709
v 70.785 -17.510 196.709
v 70.435 -17.510 197.410
v 22.624 -208.647 16.869
v 22.624 -207.444 16.869
v 22.624 -208.046 18.071
v 22.023 -208.046 16.869
v 23.225 -208.046 16.869
v 22.624 -208.046 18.071
v -10.915 -34.924 206.445
v -10.915 -34.098 206.445
v -10.915 -34.511 207.270
v -11.328 -34.511 206.445
v -10.503 -34.511 206.445
v -10.915 -34.511 207.270
v -46.883 -188.227 81.232
v -46.883 -187.041 81.232
v -46.883 -187.634 82.418
v -47.476 -187.634 81.232
v -46.290 -187.634 81.232
v -46.883 -187.634 82.418
v 91.150 188.609 8.707
v 91.150 189.330 8.707
v 91.150 188.970 9.429
v 90.789 188.970 8.707
v 91.510 188.970 8.707
v 91.150 188.970 9.429
v -72.961 -123.114 153.576
v -72.961 -122.012 153.576
v -72.961 -122.563 154.677
v -73.512 -122.563 153.576
v -72.411 -122.563 153.576
v -72.961 -122.563 154.677
v -32.100 -73.121 193.849
v -32.100 -71.923 193.849
v -32.100 -72.522 195.048
v -32.699 -72.522 193.849
v -31.500 -72.522 193.849
v -32.100 -72.522 195.048
v 188.726 83.104 38.565
v 188.726 83.832 38.565
v 188.726 83.468 39.293
v 188.362 83.468 38.565
v 189.090 83.468 38.565
v 188.726 83.468 39.293
v 92.993 103.192 156.631
v 92.993 104.230 156.631
v 92.993 103.711 157.670
v 92.474 103.711 156.631
v 93.512 103.711 156.631
v 92.993 103.711 157.670
v 63.198 137.561 144.865
v 63.198 138.258 144.865
v 63.198 137.910 145.563
v 62.849 137.910 144.865
v 63.546 137.910 144.865
v 63.198 137.910 145.563
v 190.522 20.123 85.564
v 190.522 20.834 85.564
v 190.522 20.478 86.275
v 190.166 20.478 85.564
v 190.877 20.478 85.564
v 190.522 20.478 86.275
v -8.676 -21.368 208.474
v -8.676 -20.799 208.474
v -8.676 -21.084 209.043
v -8.960 -21.084 208.474
v -8.392 -21.084 208.474
v -8.676 -21.084 209.043
v -158.113 9.142 137.382
v -158.113 10.115 137.382
v -158.113 9.628 138.355
v -158.599 9.628 137.382
v -157.626 9.628 137.382
v -158.113 9.628 138.355
v 15.895 21.075 207.939
v 15.895 21.793 207.939
v 15.895 21.434 208.657
v 15.536 21.434 207.939
v 16.254 21.434 207.939
v 15.895 21.434 208.657
v -149.076 -80.637 123.829
v -149.076 -79.712 123.829
v -149.076 -80.175 124.754
v -149.538 -80.175 123.829
v -148.614 -80.175 123.829
v -149.076 -80.175 124.754
v 90.171 -84.551 169.573
v 90.171 -83.786 169.573
v 90.171 -84.169 170.338
v 89.788 -84.169 169.573
v 90.554 -84.169 169.573
v 90.171 -84.169 170.338
v 192.309 -59.891 59.414
v 192.309 -58.681 59.414
v 192.309 -59.286 60.624
v 191.704 -59.286 59.414
v 192.915 -59.286 59.414
v 192.309 -59.286 60.624
v -89.650 -172.775 79.533
v -89.650 -171.545 79.533
v -89.650 -172.160 80.762
v -90.265 -172.160 79.533
v -89.035 -172.160 79.533
v -89.650 -172.160 80.762
v 99.264 -111.753 147.370
v 99.264 -110.651 147.370
v 99.264 -111.202 148.473
v 98.713 -111.202 147.370
v 99.815 -111.202 147.370
v 99.264 -111.202 148.473
v 158.130 105.465 88.341
v 158.130 106.330 88.341
v 158.130 105.898 89.205
v 157.698 105.898 88.341
v 158.562 105.898 88.341
v 158.130 105.898 89.205
v 165.279 -61.424 113.775
v 165.279 -60.189 113.775
v 165.279 -60.806 115.009
v 164.662 -60.806 113.775
v 165.896 -60.806 113.775
v 165.279 -60.806 115.009
v -84.930 -47.148 185.778
v -84.930 -46.065 185.778
v -84.930 -46.606 186.860
v -85.471 -46.606 185.778
v -84.388 -46.606 185.778
v -84.930 -46.606 186.860
v 25.731 27.727 206.027
v 25.731 28.674 206.027
v 25.731 28.201 206.975
v 25.257 28.201 206.027
v 26.204 28.201 206.027
v 25.731 28.201 206.975
v 146.240 140.674 52.085
v 146.240 141.770 52.085
v 146.240 141.222 53.180
v 145.693 141.222 52.085
v 146.788 141.222 52.085
v 146.240 141.222 53.180
v -32.921 -14.003 206.398
v -32.921 -12.863 206.398
v -32.921 -13.433 207.538
v -33.491 -13.433 206.398
v -32.351 -13.433 206.398
v -32.921 -13.433 207.538
v -159.405 -51.336 126.388
v -159.405 -50.268 126.388
v -159.405 -50.802 127.457
v -159.939 -50.802 126.388
v -158.870 -50.802 126.388
v -159.405 -50.802 127.457
v 184.165 -26.217 97.119
v 184.165 -25.323 97.119
v 184.165 -25.770 98.013
v 183.718 -25.770 97.119
v 184.612 -25.770 97.119
v 184.165 -25.770 98.013
v 153.888 141.208 19.691
v 153.888 141.772 19.691
v 153.888 141.490 20.255
v 153.606 141.490 19.691
v 154.170 141.490 19.691
v 153.888 141.490 20.255
v -87.019 86.937 169.341
v -87.019 88.079 169.341
v -87.019 87.508 170.483
v -87.590 87.508 169.341
v -86.448 87.508 169.341
v -87.019 87.508 170.483
v 0.014 -24.703 208.232
v 0.014 -23.999 208.232
v 0.014 -24.351 208.935
v -0.337 -24.351 208.232
v 0.366 -24.351 208.232
v 0.014 -24.351 208.935
v 111.842 -146.350 101.037
v 111.842 -145.560 101.037
v 111.842 -145.955 101.827
v 111.447 -145.955 101.037
v 112.237 -145.955 101.037
v 111.842 -145.955 101.827
v -13.734 -4.274 209.088
v -13.734 -3.420 209.088
v -13.734 -3.847 209.942
v -14.161 -3.847 209.088
v -13.307 -3.847 209.088
v -13.734 -3.847 209.942
v 164.871 62.939 113.104
v 164.871 63.867 113.104
v 164.871 63.403 114.032
v 164.407 63.403 113.104
v 165.335 63.403 113.104
v 164.871 63.403 114.032
v -82.798 -185.825 53.004
v -82.798 -185.100 53.004
v -82.798 -185.463 53.729
v -83.161 -185.463 53.004
v -82.436 -185.463 53.004
v -82.798 -185.463 53.729
v 74.294 127.721 148.478
v 74.294 128.524 148.478
v 74.294 128.123 149.281
v 73.892 128.123 148.478
v 74.695 128.123 148.478
v 74.294 128.123 149.281
v -62.545 134.816 147.351
v -62.545 135.879 147.351
v -62.545 135.347 148.414
v -63.076 135.347 147.351
v -62.013 135.347 147.351
v -62.545 135.347 148.414
v -69.013 -62.069 188.102
v -69.013 -61.258 188.102
v -69.013 -61.663 188.912
v -69.418 -61.663 188.102
v -68.608 -61.663 188.102
v -69.013 -61.663 188.912
v 183.961 -92.332 41.973
v 183.961 -91.760 41.973
v 183.961 -92.046 42.545
v 183.675 -92.046 41.973
v 184.247 -92.046 41.973
v 183.961 -92.046 42.545
v 127.378 88.018 141.261
v 127.378 88.771 141.261
v 127.378 88.394 142.015
v 127.001 88.394 141.261
v 127.755 88.394 141.261
v 127.378 88.394 142.015
v 66.558 198.445 8.038
v 66.558 199.532 8.038
v 66.558 198.988 9.125
v 66.015 198.988 8.038
v 67.102 198.988 8.038
v 66.558 198.988 9.125
v 112.027 42.156 171.790
v 112.027 43.372 171.790
v 112.027 42.764 173.006
v 111.420 42.764 171.790
v 112.635 42.764 171.790
v 112.027 42.764 173.006
v -1.749 129.869 163.984
v -1.749 131.025 163.984
v -1.749 130.447 165.140
v -2.328 130.447 163.984
v -1.171 130.447 163.984
v -1.749 130.447 165.140
v -35.171 14.071 206.264
v -35.171 14.616 206.264
v -35.171 14.343 206.809
v -35.444 14.343 206.264
v -34.899 14.343 206.264
v -35.171 14.343 206.809
v -71.967 -35.573 193.692
v -71.967 -34.697 193.692
v -71.967 -35.135 194.567
v -72.405 -35.135 193.692
v -71.530 -35.135 193.692
v -71.967 -35.135 194.567
v 9.058 -17.225 208.580
v 9.058 -16.101 208.580
v 9.058 -16.663 209.703
v 8.496 -16.663 208.580
v 9.619 -16.663 208.580
v 9.058 -16.663 209.703
v -103.244 13.395 181.760
v -103.244 14.542 181.760
v -103.244 13.969 182.907
v -103.818 13.969 181.760
v -102.671 13.969 181.760
v -103.244 13.969 182.907
v -149.430 -146.428 20.339
v -149.430 -145.759 20.339
v -149.430 -146.093 21.007
v -149.764 -146.093 20.339
v -149.096 -146.093 20.339
v -149.430 -146.093 21.007
v -158.066 -132.090 41.527
v -158.066 -131.456 41.527
v -158.066 -131.773 42.162
v -158.383 -131.773 41.527
v -157.749 -131.773 41.527
v -158.066 -131.773 42.162
v 148.156 -27.013 145.852
v 148.156 -25.781 145.852
v 148.156 -26.397 147.084
v 147.540 -26.397 145.852
v 148.772 -26.397 145.852
v 148.156 -26.397 147.084
v 41.122 -67.421 194.316
v 41.122 -66.599 194.316
v 41.122 -67.010 195.138
v 40.711 -67.010 194.316
v 41.533 -67.010 194.316
v 41.122 -67.010 195.138
v 20.787 206.896 26.515
v 20.787 207.576 26.515
v 20.787 207.236 27.195
v 20.447 207.236 26.515
v 21.127 207.236 26.515
v 20.787 207.236 27.195
v -125.548 2.013 168.008
v -125.548 2.641 168.008
v -125.548 2.327 168.636
v -125.863 2.327 168.008
v -125.234 2.327 168.008
v -125.548 2.327 168.636
v -169.783 46.843 113.551
v -169.783 47.995 113.551
v -169.783 47.419 114.704
v -170.359 47.419 113.551
v -169.207 47.419 113.551
v -169.783 47.419 114.704
v -18.759 59.259 199.952
v -18.759 60.243 199.952
v -18.759 59.751 200.936
v -19.251 59.751 199.952
v -18.267 59.751 199.952
v -18.759 59.751 200.936
v 174.586 -74.635 89.656
v 174.586 -73.919 89.656
v 174.586 -74.277 90.372
v 174.229 -74.277 89.656
v 174.944 -74.277 89.656
v 174.586 -74.277 90.372
v -191.513 15.102 84.258
v -191.513 16.055 84.258
v -191.513 15.579 85.212
v -191.990 15.579 84.258
v -191.036 15.579 84.258
v -191.513 15.579 85.212
v 137.559 -42.448 152.652
v 137.559 -41.789 152.652
v 137.559 -42.119 153.311
v 137.230 -42.119 152.652
v 137.889 -42.119 152.652
v 137.559 -42.119 153.311
v 113.724 38.873 171.692
v 113.724 39.715 171.692
v 113.724 39.294 172.534
v 113.303 39.294 171.692
v 114.145 39.294 171.692
v 113.724 39.294 172.534
v 176.043 9.889 113.470
v 176.043 10.984 113.470
v 176.043 10.436 114.564
v 175.496 10.436 113.470
v 176.590 10.436 113.470
v 176.043 10.436 114.564
v -127.250 -130.329 104.652
v -127.250 -129.118 104.652
v -127.250 -129.724 105.864
v -127.856 -129.724 104.652
v -126.644 -129.724 104.652
v -127.250 -129.724 105.864
v 208.120 -24.264 14.287
v 208.120 -23.580 14.287
v 208.120 -23.922 14.971
v 207.778 -23.922 14.287
v 208.461 -23.922 14.287
v 208.120 -23.922 14.971
v -139.361 -115.722 106.269
v -139.361 -115.049 106.269
v -139.361 -115.385 106.942
v -139.697 -115.385 106.269
v -139.024 -115.385 106.269
v -139.361 -115.385 106.942
v 14.179 -40.979 205.124
v 14.179 -40.104 205.124
v 14.179 -40.542 205.998
v 13.741 -40.542 205.124
v 14.616 -40.542 205.124
v 14.179 -40.542 205.998
v 130.313 -30.241 161.480
v 130.313 -29.268 161.480
v 130.313 -29.754 162.453
v 129.827 -29.754 161.480
v 130.800 -29.754 161.480
v 130.313 -29.754 162.453
v -74.567 -7.579 195.606
v -74.567 -6.410 195.606
v -74.567 -6.994 196.775
v -75.152 -6.994 195.606
v -73.982 -6.994 195.606
v -74.567 -6.994 196.775
v -155.657 -1.702 140.413
v -155.657 -0.610 140.413
v -155.657 -1.156 141.505
v -156.203 -1.156 140.413
v -155.112 -1.156 140.413
v -155.657 -1.156 141.505
v 61.386 -95.180 176.693
v 61.386 -94.545 176.693
v 61.386 -94.863 177.328
v 61.069 -94.863 176.693
v 61.704 -94.863 176.693
v 61.386 -94.863 177.328
v 121.989 127.953 112.754
v 121.989 128.506 112.754
v 121.989 128.230 113.307
v 121.713 128.230 112.754
v 122.265 128.230 112.754
v 121.989 128.230 113.307
v -106.900 141.248 112.102
v -106.900 141.857 112.102
v -106.900 141.553 112.711
v -107.205 141.553 112.102
v -106.595 141.553 112.102
v -106.900 141.553 112.711
v 73.165 92.321 172.959
v 73.165 93.483 172.959
v 73.165 92.902 174.121
v 72.584 92.902 172.959
v 73.745 92.902 172.959
v 73.165 92.902 174.121
v 18.056 93.528 186.540
v 18.056 94.345 186.540
v 18.056 93.936 187.358
v 17.647 93.936 186.540
v 18.465 93.936 186.540
v 18.056 93.936 187.358
v 33.866 1.957 206.939
v 33.866 2.557 206.939
v 33.866 2.257 207.539
v 33.566 2.257 206.939
v 34.166 2.257 206.939
v 33.866 2.257 207.539
v -208.245 24.107 11.263
v -208.245 24.831 11.263
v -208.245 24.469 11.987
v -208.607 24.469 11.263
v -207.883 24.469 11.263
v -208.245 24.469 11.987
v -105.523 138.440 116.493
v -105.523 139.335 116.493
v -105.523 138.887 117.389
v -105.970 138.887 116.493
v -105.075 138.887 116.493
v -105.523 138.887 117.389
v 121.939 -25.860 168.645
v 121.939 -25.015 168.645
v 121.939 -25.438 169.490
v 121.517 -25.438 168.645
v 122.362 -25.438 168.645
v 121.939 -25.438 169.490
v 79.862 -139.426 135.227
v 79.862 -138.402 135.227
v 79.862 -138.914 136.250
v 79.350 -138.914 135.227
v 80.374 -138.914 135.227
v 79.862 -138.914 136.250
v -83.648 29.031 190.082
v -83.648 29.619 190.082
v -83.648 29.325 190.670
v -83.942 29.325 190.082
v -83.354 29.325 190.082
v -83.648 29.325 190.670
v 47.688 90.169 182.777
v 47.688 91.222 182.777
v 47.688 90.695 183.830
v 47.161 90.695 182.777
v 48.214 90.695 182.777
v 47.688 90.695 183.830
v -133.919 160.151 18.576
v -133.919 161.112 18.576
v -133.919 160.632 19.537
v -134.399 160.632 18.576
v -133.439 160.632 18.576
v -133.919 160.632 19.537
v 136.874 105.381 118.378
v 136.874 106.482 118.378
v 136.874 105.932 119.480
v 136.323 105.932 118.378
v 137.424 105.932 118.378
v 136.874 105.932 119.480
v 21.094 -64.186 198.633
v 21.094 -63.590 198.633
v 21.094 -63.888 199.228
v 20.797 -63.888 198.633
v 21.392 -63.888 198.633
v 21.094 -63.888 199.228
v -23.583 -208.701 14.991
v -23.583 -207.473 14.991
v -23.583 -208.087 16.219
v -24.197 -208.087 14.991
v -22.969 -208.087 14.991
v -23.583 -208.087 16.219
v -3.475 -81.951 192.989
v -3.475 -80.813 192.989
v -3.475 -81.382 194.128
v -4.044 -81.382 192.989
v -2.906 -81.382 192.989
v -3.475 -81.382 194.128
v 36.271 -77.149 191.561
v 36.271 -75.959 191.561
v 36.271 -76.554 192.751
v 35.676 -76.554 191.561
v 36.866 -76.554 191.561
v 36.271 -76.554 192.751
v 190.530 82.227 30.343
v 190.530 83.255 30.343
v 190.530 82.741 31.370
v 190.017 82.741 30.343
v 191.044 82.741 30.343
v 190.530 82.741 31.370
v 53.668 48.782 196.567
v 53.668 49.601 196.567
v 53.668 49.191 197.386
v 53.259 49.191 196.567
v 54.078 49.191 196.567
v 53.668 49.191 197.386
v 4.614 -206.780 38.398
v 4.614 -205.864 38.398
v 4.614 -206.322 39.314
v 4.156 -206.322 38.398
v 5.072 -206.322 38.398
v 4.614 -206.322 39.314
v -18.036 -89.820 188.792
v -18.036 -89.170 188.792
v -18.036 -89.495 189.442
v -18.361 -89.495 188.792
v -17.711 -89.495 188.792
v -18.036 -89.495 189.442
v 3.322 58.778 200.875
v 3.322 59.866 200.875
v 3.322 59.322 201.964
v 2.778 59.322 200.875
v 3.867 59.322 200.875
v 3.322 59.322 201.964
v -209.315 -12.369 11.598
v -209.315 -11.331 11.598
v -209.315 -11.850 12.635
v -209.834 -11.850 11.598
v -208.796 -11.850 11.598
v -209.315 -11.850 12.635
v 3.679 -116.175 174.693
v 3.679 -114.955 174.693
v 3.679 -115.565 175.913
v 3.069 -115.565 174.693
v 4.290 -115.565 174.693
v 3.679 -115.565 175.913
v -46.215 -51.601 197.988
v -46.215 -50.902 197.988
v -46.215 -51.251 198.686
v -46.564 -51.251 197.988
v -45.866 -51.251 197.988
v -46.215 -51.251 198.686
v -4.625 18.205 208.484
v -4.625 19.444 208.484
v -4.625 18.825 209.723
v -5.244 18.825 208.484
v -4.005 18.825 208.484
v -4.625 18.825 209.723
v 95.187 75.718 170.458
v 95.187 76.732 170.458
v 95.187 76.225 171.472
v 94.680 76.225 170.458
v 95.694 76.225 170.458
v 95.187 76.225 171.472
v -133.134 -110.656 118.844
v -133.134 -109.882 118.844
v -133.134 -110.269 119.618
v -133.521 -110.269 118.844
v -132.747 -110.269 118.844
v -133.134 -110.269 119.618
v 180.152 -96.329 48.923
v 180.152 -95.745 48.923
v 180.152 -96.037 49.508
v 179.860 -96.037 48.923
v 180.444 -96.037 48.923
v 180.152 -96.037 49.508
v -3.299 -210.097 10.363
v -3.299 -209.299 10.363
v -3.299 -209.698 11.161
v -3.697 -209.698 10.363
v -2.900 -209.698 10.363
v -3.299 -209.698 11.161
v -100.163 -39.707 179.976
v -100.163 -39.002 179.976
v -100.163 -39.354 180.681
v -100.516 -39.354 179.976
v -99.811 -39.354 179.976
v -100.163 -39.354 180.681
v -74.019 -86.449 176.203
v -74.019 -85.339 176.203
v -74.019 -85.894 177.313
v -74.574 -85.894 176.203
v -73.464 -85.894 176.203
v -74.019 -85.894 177.313
v -33.620 5.640 206.780
v -33.620 6.485 206.780
v -33.620 6.062 207.625
v -34.043 6.062 206.780
v -33.198 6.062 206.780
v -33.620 6.062 207.625
v 148.069 -86.559 121.023
v 148.069 -85.515 121.023
v 148.069 -86.037 122.067
v 147.547 -86.037 121.023
v 148.591 -86.037 121.023
v 148.069 -86.037 122.067
v -31.257 116.210 171.210
v -31.257 117.271 171.210
v -31.257 116.740 172.270
v -31.787 116.740 171.210
v -30.727 116.740 171.210
v -31.257 116.740 172.270
v 75.084 30.347 193.420
v 75.084 30.927 193.420
v 75.084 30.637 194.000
v 74.794 30.637 193.420
v 75.374 30.637 193.420
v 75.084 30.637 194.000
v 50.349 -197.910 49.987
v 50.349 -197.218 49.987
v 50.349 -197.564 50.680
v 50.003 -197.564 49.987
v 50.695 -197.564 49.987
v 50.349 -197.564 50.680
v -76.106 175.680 84.821
v -76.106 176.637 84.821
v -76.106 176.159 85.778
v -76.585 176.159 84.821
v -75.627 176.159 84.821
v -76.106 176.159 85.778
v -39.167 54.160 198.574
v -39.167 54.953 198.574
v -39.167 54.556 199.368
v -39.564 54.556 198.574
v -38.770 54.556 198.574
v -39.167 54.556 199.368
v 32.311 -182.169 99.721
v 32.311 -181.267 99.721
v 32.311 -181.718 100.623
v 31.860 -181.718 99.721
v 32.762 -181.718 99.721
v 32.311 -181.718 100.623
v -152.723 -94.145 109.067
v -152.723 -93.059 109.067
v -152.723 -93.602 110.153
v -153.266 -93.602 109.067
v -152.180 -93.602 109.067
v -152.723 -93.602 110.153
v -97.210 -99.446 157.171
v -97.210 -98.449 157.171
v -97.210 -98.947 158.168
v -97.709 -98.947 157.171
v -96.712 -98.947 157.171
v -97.210 -98.947 158.168
v 24.631 181.607 100.928
v 24.631 182.758 100.928
v 24.631 182.183 102.078
v 24.056 182.183 100.928
v 25.206 182.183 100.928
v 24.631 182.183 102.078
v -55.347 -148.912 137.388
v -55.347 -147.674 137.388
v -55.347 -148.293 138.626
v -55.966 -148.293 137.388
v -54.728 -148.293 137.388
v -55.347 -148.293 138.626
v 93.103 -35.054 184.695
v 93.103 -34.447 184.695
v 93.103 -34.751 185.301
v 92.800 -34.751 184.695
v 93.406 -34.751 184.695
v 93.103 -34.751 185.301
v -132.989 108.474 120.150
v -132.989 109.396 120.150
v -132.989 108.935 121.073
v -133.450 108.935 120.150
v -132.528 108.935 120.150
v -132.989 108.935 121.073
v -46.014 151.039 137.243
v -46.014 152.196 137.243
v -46.014 151.617 138.401
v -46.593 151.617 137.243
v -45.435 151.617 137.243
v -46.014 151.617 138.401
v 158.819 132.851 32.821
v 158.819 133.753 32.821
v 158.819 133.302 33.723
v 158.368 133.302 32.821
v 159.270 133.302 32.821
v 158.819 133.302 33.723
v 176.125 18.015 112.534
v 176.125 18.714 112.534
v 176.125 18.365 113.233
v 175.775 18.365 112.534
v 176.475 18.365 112.534
v 176.125 18.365 113.233
v 26.336 -199.179 62.103
v 26.336 -198.281 62.103
v 26.336 -198.730 63.001
v 25.887 -198.730 62.103
v 26.785 -198.730 62.103
v 26.336 -198.730 63.001
v 73.882 -79.939 179.363
v 73.882 -79.137 179.363
v 73.882 -79.538 180.165
v 73.481 -79.538 179.363
v 74.283 -79.538 179.363
v 73.882 -79.538 180.165
v 11.209 27.234 207.317
v 11.209 28.307 207.317
v 11.209 27.770 208.390
v 10.672 27.770 207.317
v 11.745 27.770 207.317
v 11.209 27.770 208.390
v -72.192 -179.051 83.039
v -72.192 -178.358 83.039
v -72.192 -178.704 83.732
v -72.539 -178.704 83.039
v -71.846 -178.704 83.039
v -72.192 -178.704 83.732
v 44.806 -46.942 199.293
v 44.806 -45.823 199.293
v 44.806 -46.382 200.412
v 44.246 -46.382 199.293
v 45.365 -46.382 199.293
v 44.806 -46.382 200.412
v -32.597 91.391 185.414
v -32.597 92.497 185.414
v -32.597 91.944 186.520
v -33.151 91.944 185.414
v -32.044 91.944 185.414
v -32.597 91.944 186.520
v 78.064 -59.968 185.307
v 78.064 -59.400 185.307
v 78.064 -59.684 185.874
v 77.781 -59.684 185.307
v 78.348 -59.684 185.307
v 78.064 -59.684 185.874
v 178.861 61.572 90.281
v 178.861 62.667 90.281
v 178.861 62.120 91.376
v 178.314 62.120 90.281
v 179.409 62.120 90.281
v 178.861 62.120 91.376
v -108.402 178.121 21.232
v -108.402 178.978 21.232
v -108.402 178.549 22.089
v -108.831 178.549 21.232
v -107.974 178.549 21.232
v -108.402 178.549 22.089
v 88.310 142.850 124.977
v 88.310 143.878 124.977
v 88.310 143.364 126.006
v 87.795 143.364 124.977
v 88.824 143.364 124.977
v 88.310 143.364 126.006
v -141.492 -2.928 154.713
v -141.492 -2.039 154.713
v -141.492 -2.484 155.602
v -141.936 -2.484 154.713
v -141.047 -2.484 154.713
v -141.492 -2.484 155.602
v 34.365 -8.634 206.563
v 34.365 -7.746 206.563
v 34.365 -8.190 207.451
v 33.921 -8.190 206.563
v 34.809 -8.190 206.563
v 34.365 -8.190 207.451
v 75.587 69.272 182.840
v 75.587 69.897 182.840
v 75.587 69.584 183.464
v 75.275 69.584 182.840
v 75.899 69.584 182.840
v 75.587 69.584 183.464
f 1 2 3
f 2 1 3
f 4 5 6
f 5 4 6
f 7 8 9
f 8 7 9
f 10 11 12
f 11 10 12
f 13 14 15
f 14 13 15
f 16 17 18
f 17 16 18
f 19 20 21
f 20 19 21
f 22 23 24
f 23 22 24
f 25 26 27
f 26 25 27
f 28 29 30
f 29 28 30
f 31 32 33
f 32 31 33
f 34 35 36
f 35 34 36
f 37 38 39
f 38 37 39
f 40 41 42
f 41 40 42
f 43 44 45
f 44 43 45
f 46 47 48
f 47 46 48
f 49 50 51
f 50 49 51
f 52 53 54
f 53 52 54
f 55 56 57
f 56 55 57
f 58 59 60
f 59 58 60
f 61 62 63
f 62 61 63
f 64 65 66
f 65 64 66
f 67 68 69
f 68 67 69
f 70 71 72
f 71 70 72
f 73 74 75
f 74 73 75
f 76 77 78
f 77 76 78
f 79 80 81
f 80 79 81
f 82 83 84
f 83 82 84
f 85 86 87
f 86 85 87
f 88 89 90
f 89 88 90
f 91 92 93
f 92 91 93
f 94 95 96
f 95 94 96
f 97 98 99
f 98 97 99
f 100 101 102
f 101 100 102
f 103 104 105
f 104 103 105
f 106 107 108
f 107 106 108
f 109 110 111
f 110 109 111
f 112 113 114
f 113 112 114
f 115 116 117
f 116 115 117
f 118 119 120
f 119 118 120
f 121 122 123
f 122 121 123
f 124 125 126
f 125 124 126
f 127 128 129
f 128 127 129
f 130 131 132
f 131 130 132
f 133 134 135
f 134 133 135
f 136 137 138
f 137 136 138
f 139 140 141
f 140 139 141
f 142 143 144
f 143 142 144
f 145 146 147
f 146 145 147
f 148 149 150
f 149 148 150
f 151 152 153
f 152 151 153
f 154 155 156
f 155 154 156
f 157 158 159
f 158 157 159
f 160 161 162
f 161 160 162
f 163 164 165
f 164 163 165
f 166 167 168
f 167 166 168
f 169 170 171
f 170 169 171
f 172 173 174
f 173 172 174
f 175 176 177
f 176 175 177
f 178 179 180
f 179 178 180
f 181 182 183
f 182 181 183
f 184 185 186
f 185 184 186
f 187 188 189
f 188 187 189
f 190 191 192
f 191 190 192
f 193 194 195
f 194 193 195
f 196 197 198
f 197 196 198
f 199 200 201
f 200 199 201
f 202 203 204
f 203 202 204
f 205 206 207
f 206 205 207
f 208 209 210
f 209 208 210
f 211 212 213
f 212 211 213
f 214 215 216
f 215 214 216
f 217 218 219
f 218 217 219
f 220 221 222
f 221 220 222
f 223 224 225
f 224 223 225
f 226 227 228
f 227 226 228
f 229 230 231
f 230 229 231
f 232 233 234
f 233 232 234
f 235 236 237
f 236 235 237
f 238 239 240
f 239 238 240
f 241 242 243
f 242 241 243
f 244 245 246
f 245 244 246
f 247 248 249
f 248 247 249
f 250 251 252
f 251 250 252
f 253 254 255
f 254 253 255
f 256 257 258
f 257 256 258
f 259 260 261
f 260 259 261
f 262 263 264
f 263 262 264
f 265 266 267
f 266 265 267
f 268 269 270
f 269 268 270
f 271 272 273
f 272 271 273
f 274 275 276
f 275 274 276
f 277 278 279
f 278 277 279
f 280 281 282
f 281 280 282
f 283 284 285
f 284 283 285
f 286 287 288
f 287 286 288
f 289 290 291
f 290 289 291
f 292 293 294
f 293 292 294
f 295 296 297
f 296 295 297
f 298 299 300
f 299 298 300
f 301 302 303
f 302 301 303
f 304 305 306
f 305 304 306
f 307 308 309
f 308 307 309
f 310 311 312
f 311 310 312
f 313 314 315
f 314 313 315
f 316 317 318
f 317 316 318
f 319 320 321
f 320 319 321
f 322 323 324
f 323 322 324
f 325 326 327
f 326 325 327
f 328 329 330
f 329 328 330
f 331 332 333
f 332 331 333
f 334 335 336
f 335 334 336
f 337 338 339
f 338 337 339
f 340 341 342
f 341 340 342
f 343 344 345
f 344 343 345
f 346 347 348
f 347 346 348
f 349 350 351
f 350 349 351
f 352 353 354
f 353 352 354
f 355 356 357
f 356 355 357
f 358 359 360
f 359 358 360
f 361 362 363
f 362 361 363
f 364 365 366
f 365 364 366
f 367 368 369
f 368 367 369
f 370 371 372
f 371 370 372
f 373 374 375
f 374 373 375
f 376 377 378
f 377 376 378
f 379 380 381
f 380 379 381
f 382 383 384
f 383 382 384
f 385 386 387
f 386 385 387
f 388 389 390
f 389 388 390
f 391 392 393
f 392 391 393
f 394 395 396
f 395 394 396
f 397 398 399
f 398 397 399
f 400 401 402
f 401 400 402
f 403 404 405
f 404 403 405
f 406 407 408
f 407 406 408
f 409 410 411
f 410 409 411
f 412 413 414
f 413 412 414
f 415 416 417
f 416 415 417
f 418 419 420
f 419 418 420
f 421 422 423
f 422 421 423
f 424 425 426
f 425 424 426
f 427 428 429
f 428 427 429
f 430 431 432
f 431 430 432
f 433 434 435
f 434 433 435
f 436 437 438
f 437 436 438
f 439 440 441
f 440 439 441
f 442 443 444
f 443 442 444
f 445 446 447
f 446 445 447
f 448 449 450
f 449 448 450
f 451 452 453
f 452 451 453
f 454 455 456
f 455 454 456
f 457 458 459
f 458 457 459
f 460 461 462
f 461 460 462
f 463 464 465
f 464 463 465
f 466 467 468
f 467 466 468
f 469 470 471
f 470 469 471
f 472 473 474
f 473 472 474
f 475 476 477
f 476 475 477
f 478 479 480
f 479 478 480
f 481 482 483
f 482 481 483
f 484 485 486
f 485 484 486
f 487 488 489
f 488 487 489
f 490 491 492
f 491 490 492
f 493 494 495
f 494 493 495
f 496 497 498
f 497 496 498
f 499 500 501
f 500 499 501
f 502 503 504
f 503 502 504
f 505 506 507
f 506 505 507
f 508 509 510
f 509 508 510
f 511 512 513
f 512 511 513
f 514 515 516
f 515 514 516
f 517 518 519
f 518 517 519
f 520 521 522
f 521 520 522
f 523 524 525
f 524 523 525
f 526 527 528
f 527 526 528
f 529 530 531
f 530 529 531
f 532 533 534
f 533 532 534
f 535 536 537
f 536 535 537
f 538 539 540
f 539 538 540
f 541 542 543
f 542 541 543
f 544 545 546
f 545 544 546
f 547 548 549
f 548 547 549
f 550 551 552
f 551 550 552
f 553 554 555
f 554 553 555
f 556 557 558
f 557 556 558
f 559 560 561
f 560 559 561
f 562 563 564
f 563 562 564
f 565 566 567
f 566 565 567
f 568 569 570
f 569 568 570
f 571 572 573
f 572 571 573
f 574 575 576
f 575 574 576
f 577 578 579
f 578 577 579
f 580 581 582
f 581 580 582
f 583 584 585
f 584 583 585
f 586 587 588
f 587 586 588
f 589 590 591
f 590 589 591
f 592 593 594
f 593 592 594
f 595 596 597
f 596 595 597
f 598 599 600
f 599 598 600
f 601 602 603
f 602 601 603
f 604 605 606
f 605 604 606
f 607 608 609
f 608 607 609
f 610 611 612
f 611 610 612
f 613 614 615
f 614 613 615
f 616 617 618
f 617 616 618
f 619 620 621
f 620 619 621
f 622 623 624
f 623 622 624
f 625 626 627
f 626 625 627
f 628 629 630
f 629 628 630
f 631 632 633
f 632 631 633
f 634 635 636
f 635 634 636
f 637 638 639
f 638 637 639
f 640 641 642
f 641 640 642
f 643 644 645
f 644 643 645
f 646 647 648
f 647 646 648
f 649 650 651
f 650 649 651
f 652 653 654
f 653 652 654
f 655 656 657
f 656 655 657
f 658 659 660
f 659 658 660
f 661 662 663
f 662 661 663
f 664 665 666
f 665 664 666
f 667 668 669
f 668 667 669
f 670 671 672
f 671 670 672
f 673 674 675
f 674 673 675
f 676 677 678
f 677 676 678
f 679 680 681
f 680 679 681
f 682 683 684
f 683 682 684
f 685 686 687
f 686 685 687
f 688 689 690
f 689 688 690
f 691 692 693
f 692 691 693
f 694 695 696
f 695 694 696
f 697 698 699
f 698 697 699
f 700 701 702
f 701 700 702
f 703 704 705
f 704 703 705
f 706 707 708
f 707 706 708
f 709 710 711
f 710 709 711
f 712 713 714
f 713 712 714
f 715 716 717
f 716 715 717
f 718 719 720
f 719 718 720
f 721 722 723
f 722 721 723
f 724 725 726
f 725 724 726
f 727 728 729
f 728 727 729
f 730 731 732
f 731 730 732
f 733 734 735
f 734 733 735
f 736 737 738
f 737 736 738
f 739 740 741
f 740 739 741
f 742 743 744
f 743 742 744
f 745 746 747
f 746 745 747
f 748 749 750
f 749 748 750
f 751 752 753
f 752 751 753
f 754 755 756
f 755 754 756
f 757 758 759
f 758 757 759
f 760 761 762
f 761 760 762
f 763 764 765
f 764 763 765
f 766 767 768
f 767 766 768
f 769 770 771
f 770 769 771
f 772 773 774
f 773 772 774
f 775 776 777
f 776 775 777
f 778 779 780
f 779 778 780
f 781 782 783
f 782 781 783
f 784 785 786
f 785 784 786
f 787 788 789
f 788 787 789
f 790 791 792
f 791 790 792
f 793 794 795
f 794 793 795
f 796 797 798
f 797 796 798
f 799 800 801
f 800 799 801
f 802 803 804
f 803 802 804
f 805 806 807
f 806 805 807
f 808 809 810
f 809 808 810
f 811 812 813
f 812 811 813
f 814 815 816
f 815 814 816
f 817 818 819
f 818 817 819
f 820 821 822
f 821 820 822
f 823 824 825
f 824 823 825
f 826 827 828
f 827 826 828
f 829 830 831
f 830 829 831
f 832 833 834
f 833 832 834
f 835 836 837
f 836 835 837
f 838 839 840
f 839 838 840
f 841 842 843
f 842 841 843
f 844 845 846
f 845 844 846
f 847 848 849
f 848 847 849
f 850 851 852
f 851 850 852
f 853 854 855
f 854 853 855
f 856 857 858
f 857 856 858
f 859 860 861
f 860 859 861
f 862 863 864
f 863 862 864
f 865 866 867
f 866 865 867
f 868 869 870
f 869 868 870
f 871 872 873
f 872 871 873
f 874 875 876
f 875 874 876
f 877 878 879
f 878 877 879
f 880 881 882
f 881 880 882
f 883 884 885
f 884 883 885
f 886 887 888
f 887 886 888
f 889 890 891
f 890 889 891
f 892 893 894
f 893 892 894
f 895 896 897
f 896 895 897
f 898 899 900
f 899 898 900
f 901 902 903
f 902 901 903
f 904 905 906
f 905 904 906
f 907 908 909
f 908 907 909
f 910 911 912
f 911 910 912
f 913 914 915
f 914 913 915
f 916 917 918
f 917 916 918
f 919 920 921
f 920 919 921
f 922 923 924
f 923 922 924
f 925 926 927
f 926 925 927
f 928 929 930
f 929 928 930
f 931 932 933
f 932 931 933
f 934 935 936
f 935 934 936
f 937 938 939
f 938 937 939
f 940 941 942
f 941 940 942
f 943 944 945
f 944 943 945
f 946 947 948
f 947 946 948
f 949 950 951
f 950 949 951
f 952 953 954
f 953 952 954
f 955 956 957
f 956 955 957
f 958 959 960
f 959 958 960
f 961 962 963
f 962 961 963
f 964 965 966
f 965 964 966
f 967 968 969
f 968 967 969
f 970 971 972
f 971 970 972
f 973 974 975
f 974 973 975
f 976 977 978
f 977 976 978
f 979 980 981
f 980 979 981
f 982 983 984
f 983 982 984
f 985 986 987
f 986 985 987
f 988 989 990
f 989 988 990
f 991 992 993
f 992 991 993
f 994 995 996
f 995 994 996
f 997 998 999
f 998 997 999
f 1000 1001 1002
f 1001 1000 1002
f 1003 1004 1005
f 1004 1003 1005
f 1006 1007 1008
f 1007 1006 1008
f 1009 1010 1011
f 1010 1009 1011
f 1012 1013 1014
f 1013 1012 1014
f 1015 1016 1017
f 1016 1015 1017
f 1018 1019 1020
f 1019 1018 1020
f 1021 1022 1023
f 1022 1021 1023
f 1024 1025 1026
f 1025 1024 1026
f 1027 1028 1029
f 1028 1027 1029
f 1030 1031 1032
f 1031 1030 1032
f 1033 1034 1035
f 1034 1033 1035
f 1036 1037 1038
f 1037 1036 1038
f 1039 1040 1041
f 1040 1039 1041
f 1042 1043 1044
f 1043 1042 1044
f 1045 1046 1047
f 1046 1045 1047
f 1048 1049 1050
f 1049 1048 1050
f 1051 1052 1053
f 1052 1051 1053
f 1054 1055 1056
f 1055 1054 1056
f 1057 1058 1059
f 1058 1057 1059
f 1060 1061 1062
f 1061 1060 1062
f 1063 1064 1065
f 1064 1063 1065
f 1066 1067 1068
f 1067 1066 1068
f 1069 1070 1071
f 1070 1069 1071
f 1072 1073 1074
f 1073 1072 1074
f 1075 1076 1077
f 1076 1075 1077
f 1078 1079 1080
f 1079 1078 1080
f 1081 1082 1083
f 1082 1081 1083
f 1084 1085 1086
f 1085 1084 1086
f 1087 1088 1089
f 1088 1087 1089
f 1090 1091 1092
f 1091 1090 1092
f 1093 1094 1095
f 1094 1093 1095
f 1096 1097 1098
f 1097 1096 1098
f 1099 1100 1101
f 1100 1099 1101
f 1102 1103 1104
f 1103 1102 1104
f 1105 1106 1107
f 1106 1105 1107
f 1108 1109 1110
f 1109 1108 1110
f 1111 1112 1113
f 1112 1111 1113
f 1114 1115 1116
f 1115 1114 1116
f 1117 1118 1119
f 1118 1117 1119
f 1120 1121 1122
f 1121 1120 1122
f 1123 1124 1125
f 1124 1123 1125
f 1126 1127 1128
f 1127 1126 1128
f 1129 1130 1131
f 1130 1129 1131
f 1132 1133 1134
f 1133 1132 1134
f 1135 1136 1137
f 1136 1135 1137
f 1138 1139 1140
f 1139 1138 1140
f 1141 1142 1143
f 1142 1141 1143
f 1144 1145 1146
f 1145 1144 1146
f 1147 1148 1149
f 1148 1147 1149
f 1150 1151 1152
f 1151 1150 1152
f 1153 1154 1155
f 1154 1153 1155
f 1156 1157 1158
f 1157 1156 1158
f 1159 1160 1161
f 1160 1159 1161
f 1162 1163 1164
f 1163 1162 1164
f 1165 1166 1167
f 1166 1165 1167
f 1168 1169 1170
f 1169 1168 1170
f 1171 1172 1173
f 1172 1171 1173
f 1174 1175 1176
f 1175 1174 1176
f 1177 1178 1179
f 1178 1177 1179
f 1180 1181 1182
f 1181 1180 1182
f 1183 1184 1185
f 1184 1183 1185
f 1186 1187 1188
f 1187 1186 1188
f 1189 1190 1191
f 1190 1189 1191
f 1192 1193 1194
f 1193 1192 1194
f 1195 1196 1197
f 1196 1195 1197
f 1198 1199 1200
f 1199 1198 1200
f 1201 1202 1203
f 1202 1201 1203
f 1204 1205 1206
f 1205 1204 1206
f 1207 1208 1209
f 1208 1207 1209
f 1210 1211 1212
f 1211 1210 1212
f 1213 1214 1215
f 1214 1213 1215
f 1216 1217 1218
f 1217 1216 1218
f 1219 1220 1221
f 1220 1219 1221
f 1222 1223 1224
f 1223 1222 1224
f 1225 1226 1227
f 1226 1225 1227
f 1228 1229 1230
f 1229 1228 1230
f 1231 1232 1233
f 1232 1231 1233
f 1234 1235 1236
f 1235 1234 1236
f 1237 1238 1239
f 1238 1237 1239
f 1240 1241 1242
f 1241 1240 1242
f 1243 1244 1245
f 1244 1243 1245
f 1246 1247 1248
f 1247 1246 1248
f 1249 1250 1251
f 1250 1249 1251
f 1252 1253 1254
f 1253 1252 1254
f 1255 1256 1257
f 1256 1255 1257
f 1258 1259 1260
f 1259 1258 1260
f 1261 1262 1263
f 1262 1261 1263
f 1264 1265 1266
f 1265 1264 1266
f 1267 1268 1269
f 1268 1267 1269
f 1270 1271 1272
f 1271 1270 1272
f 1273 1274 1275
f 1274 1273 1275
f 1276 1277 1278
f 1277 1276 1278
f 1279 1280 1281
f 1280 1279 1281
f 1282 1283 1284
f 1283 1282 1284
f 1285 1286 1287
f 1286 1285 1287
f 1288 1289 1290
f 1289 1288 1290
f 1291 1292 1293
f 1292 1291 1293
f 1294 1295 1296
f 1295 1294 1296
f 1297 1298 1299
f 1298 1297 1299
f 1300 1301 1302
f 1301 1300 1302
f 1303 1304 1305
f 1304 1303 1305
f 1306 1307 1308
f 1307 1306 1308
f 1309 1310 1311
f 1310 1309 1311
f 1312 1313 1314
f 1313 1312 1314
f 1315 1316 1317
f 1316 1315 1317
f 1318 1319 1320
f 1319 1318 1320
f 1321 1322 1323
f 1322 1321 1323
f 1324 1325 1326
f 1325 1324 1326
f 1327 1328 1329
f 1328 1327 1329
f 1330 1331 1332
f 1331 1330 1332
f 1333 1334 1335
f 1334 1333 1335
f 1336 1337 1338
f 1337 1336 1338
f 1339 1340 1341
f 1340 1339 1341
f 1342 1343 1344
f 1343 1342 1344
f 1345 1346 1347
f 1346 1345 1347
f 1348 1349 1350
f 1349 1348 1350
f 1351 1352 1353
f 1352 1351 1353
f 1354 1355 1356
f 1355 1354 1356
f 1357 1358 1359
f 1358 1357 1359
f 1360 1361 1362
f 1361 1360 1362
f 1363 1364 1365
f 1364 1363 1365
f 1366 1367 1368
f 1367 1366 1368
f 1369 1370 1371
f 1370 1369 1371
f 1372 1373 1374
f 1373 1372 1374
f 1375 1376 1377
f 1376 1375 1377
f 1378 1379 1380
f 1379 1378 1380
f 1381 1382 1383
f 1382 1381 1383
f 1384 1385 1386
f 1385 1384 1386
f 1387 1388 1389
f 1388 1387 1389
f 1390 1391 1392
f 1391 1390 1392
f 1393 1394 1395
f 1394 1393 1395
f 1396 1397 1398
f 1397 1396 1398
f 1399 1400 1401
f 1400 1399 1401
f 1402 1403 1404
f 1403 1402 1404
f 1405 1406 1407
f 1406 1405 1407
f 1408 1409 1410
f 1409 1408 1410
f 1411 1412 1413
f 1412 1411 1413
f 1414 1415 1416
f 1415 1414 1416
f 1417 1418 1419
f 1418 1417 1419
f 1420 1421 1422
f 1421 1420 1422
f 1423 1424 1425
f 1424 1423 1425
f 1426 1427 1428
f 1427 1426 1428
f 1429 1430 1431
f 1430 1429 1431
f 1432 1433 1434
f 1433 1432 1434
f 1435 1436 1437
f 1436 1435 1437
f 1438 1439 1440
f 1439 1438 1440
f 1441 1442 1443
f 1442 1441 1443
f 1444 1445 1446
f 1445 1444 1446
f 1447 1448 1449
f 1448 1447 1449
f 1450 1451 1452
f 1451 1450 1452
f 1453 1454 1455
f 1454 1453 1455
f 1456 1457 1458
f 1457 1456 1458
f 1459 1460 1461
f 1460 1459 1461
f 1462 1463 1464
f 1463 1462 1464
f 1465 1466 1467
f 1466 1465 1467
f 1468 1469 1470
f 1469 1468 1470
f 1471 1472 1473
f 1472 1471 1473
f 1474 1475 1476
f 1475 1474 1476
f 1477 1478 1479
f 1478 1477 1479
f 1480 1481 1482
f 1481 1480 1482
f 1483 1484 1485
f 1484 1483 1485
f 1486 1487 1488
f 1487 1486 1488
f 1489 1490 1491
f 1490 1489 1491
f 1492 1493 1494
f 1493 1492 1494
f 1495 1496 1497
f 1496 1495 1497
f 1498 1499 1500
f 1499 1498 1500
f 1501 1502 1503
f 1502 1501 1503
f 1504 1505 1506
f 1505 1504 1506
f 1507 1508 1509
f 1508 1507 1509
f 1510 1511 1512
f 1511 1510 1512
f 1513 1514 1515
f 1514 1513 1515
f 1516 1517 1518
f 1517 1516 1518
f 1519 1520 1521
f 1520 1519 1521
f 1522 1523 1524
f 1523 1522 1524
f 1525 1526 1527
f 1526 1525 1527
f 1528 1529 1530
f 1529 1528 1530
f 1531 1532 1533
f 1532 1531 1533
f 1534 1535 1536
f 1535 1534 1536
f 1537 1538 1539
f 1538 1537 1539
f 1540 1541 1542
f 1541 1540 1542
f 1543 1544 1545
f 1544 1543 1545
f 1546 1547 1548
f 1547 1546 1548
f 1549 1550 1551
f 1550 1549 1551
f 1552 1553 1554
f 1553 1552 1554
f 1555 1556 1557
f 1556 1555 1557
f 1558 1559 1560
f 1559 1558 1560
f 1561 1562 1563
f 1562 1561 1563
f 1564 1565 1566
f 1565 1564 1566
f 1567 1568 1569
f 1568 1567 1569
f 1570 1571 1572
f 1571 1570 1572
f 1573 1574 1575
f 1574 1573 1575
f 1576 1577 1578
f 1577 1576 1578
f 1579 1580 1581
f 1580 1579 1581
f 1582 1583 1584
f 1583 1582 1584
f 1585 1586 1587
f 1586 1585 1587
f 1588 1589 1590
f 1589 1588 1590
f 1591 1592 1593
f 1592 1591 1593
f 1594 1595 1596
f 1595 1594 1596
f 1597 1598 1599
f 1598 1597 1599
f 1600 1601 1602
f 1601 1600 1602
f 1603 1604 1605
f 1604 1603 1605
f 1606 1607 1608
f 1607 1606 1608
f 1609 1610 1611
f 1610 1609 1611
f 1612 1613 1614
f 1613 1612 1614
f 1615 1616 1617
f 1616 1615 1617
f 1618 1619 1620
f 1619 1618 1620
f 1621 1622 1623
f 1622 1621 1623
f 1624 1625 1626
f 1625 1624 1626
f 1627 1628 1629
f 1628 1627 1629
f 1630 1631 1632
f 1631 1630 1632
f 1633 1634 1635
f 1634 1633 1635
f 1636 1637 1638
f 1637 1636 1638
f 1639 1640 1641
f 1640 1639 1641
f 1642 1643 1644
f 1643 1642 1644
f 1645 1646 1647
f 1646 1645 1647
f 1648 1649 1650
f 1649 1648 1650
f 1651 1652 1653
f 1652 1651 1653
f 1654 1655 1656
f 1655 1654 1656
f 1657 1658 1659
f 1658 1657 1659
f 1660 1661 1662
f 1661 1660 1662
f 1663 1664 1665
f 1664 1663 1665
f 1666 1667 1668
f 1667 1666 1668
f 1669 1670 1671
f 1670 1669 1671
f 1672 1673 1674
f 1673 1672 1674
f 1675 1676 1677
f 1676 1675 1677
f 1678 1679 1680
f 1679 1678 1680
f 1681 1682 1683
f 1682 1681 1683
f 1684 1685 1686
f 1685 1684 1686
f 1687 1688 1689
f 1688 1687 1689
f 1690 1691 1692
f 1691 1690 1692
f 1693 1694 1695
f 1694 1693 1695
f 1696 1697 1698
f 1697 1696 1698
f 1699 1700 1701
f 1700 1699 1701
f 1702 1703 1704
f 1703 1702 1704
f 1705 1706 1707
f 1706 1705 1707
f 1708 1709 1710
f 1709 1708 1710
f 1711 1712 1713
f 1712 1711 1713
f 1714 1715 1716
f 1715 1714 1716
f 1717 1718 1719
f 1718 1717 1719
f 1720 1721 1722
f 1721 1720 1722
f 1723 1724 1725
f 1724 1723 1725
f 1726 1727 1728
f 1727 1726 1728
f 1729 1730 1731
f 1730 1729 1731
f 1732 1733 1734
f 1733 1732 1734
f 1735 1736 1737
f 1736 1735 1737
f 1738 1739 1740
f 1739 1738 1740
f 1741 1742 1743
f 1742 1741 1743
f 1744 1745 1746
f 1745 1744 1746
f 1747 1748 1749
f 1748 1747 1749
f 1750 1751 1752
f 1751 1750 1752
f 1753 1754 1755
f 1754 1753 1755
f 1756 1757 1758
f 1757 1756 1758
f 1759 1760 1761
f 1760 1759 1761
f 1762 1763 1764
f 1763 1762 1764
f 1765 1766 1767
f 1766 1765 1767
f 1768 1769 1770
f 1769 1768 1770
f 1771 1772 1773
f 1772 1771 1773
f 1774 1775 1776
f 1775 1774 1776
f 1777 1778 1779
f 1778 1777 1779
f 1780 1781 1782
f 1781 1780 1782
f 1783 1784 1785
f 1784 1783 1785
f 1786 1787 1788
f 1787 1786 1788
f 1789 1790 1791
f 1790 1789 1791
f 1792 1793 1794
f 1793 1792 1794
f 1795 1796 1797
f 1796 1795 1797
f 1798 1799 1800
f 1799 1798 1800
f 1801 1802 1803
f 1802 1801 1803
f 1804 1805 1806
f 1805 1804 1806
f 1807 1808 1809
f 1808 1807 1809
f 1810 1811 1812
f 1811 1810 1812
f 1813 1814 1815
f 1814 1813 1815
f 1816 1817 1818
f 1817 1816 1818
f 1819 1820 1821
f 1820 1819 1821
f 1822 1823 1824
f 1823 1822 1824
f 1825 1826 1827
f 1826 1825 1827
f 1828 1829 1830
f 1829 1828 1830
f 1831 1832 1833
f 1832 1831 1833
f 1834 1835 1836
f 1835 1834 1836
f 1837 1838 1839
f 1838 1837 1839
f 1840 1841 1842
f 1841 1840 1842
f 1843 1844 1845
f 1844 1843 1845
f 1846 1847 1848
f 1847 1846 1848
f 1849 1850 1851
f 1850 1849 1851
f 1852 1853 1854
f 1853 1852 1854
f 1855 1856 1857
f 1856 1855 1857
f 1858 1859 1860
f 1859 1858 1860
f 1861 1862 1863
f 1862 1861 1863
f 1864 1865 1866
f 1865 1864 1866
f 1867 1868 1869
f 1868 1867 1869
f 1870 1871 1872
f 1871 1870 1872
f 1873 1874 1875
f 1874 1873 1875
f 1876 1877 1878
f 1877 1876 1878
f 1879 1880 1881
f 1880 1879 1881
f 1882 1883 1884
f 1883 1882 1884
f 1885 1886 1887
f 1886 1885 1887
f 1888 1889 1890
f 1889 1888 1890
f 1891 1892 1893
f 1892 1891 1893
f 1894 1895 1896
f 1895 1894 1896
f 1897 1898 1899
f 1898 1897 1899
f 1900 1901 1902
f 1901 1900 1902
f 1903 1904 1905
f 1904 1903 1905
f 1906 1907 1908
f 1907 1906 1908
f 1909 1910 1911
f 1910 1909 1911
f 1912 1913 1914
f 1913 1912 1914
f 1915 1916 1917
f 1916 1915 1917
f 1918 1919 1920
f 1919 1918 1920
f 1921 1922 1923
f 1922 1921 1923
f 1924 1925 1926
f 1925 1924 1926
f 1927 1928 1929
f 1928 1927 1929
f 1930 1931 1932
f 1931 1930 1932
f 1933 1934 1935
f 1934 1933 1935
f 1936 1937 1938
f 1937 1936 1938
f 1939 1940 1941
f 1940 1939 1941
f 1942 1943 1944
f 1943 1942 1944
f 1945 1946 1947
f 1946 1945 1947
f 1948 1949 1950
f 1949 1948 1950
f 1951 1952 1953
f 1952 1951 1953
f 1954 1955 1956
f 1955 1954 1956
f 1957 1958 1959
f 1958 1957 1959
f 1960 1961 1962
f 1961 1960 1962
f 1963 1964 1965
f 1964 1963 1965
f 1966 1967 1968
f 1967 1966 1968
f 1969 1970 1971
f 1970 1969 1971
f 1972 1973 1974
f 1973 1972 1974
f 1975 1976 1977
f 1976 1975 1977
f 1978 1979 1980
f 1979 1978 1980
f 1981 1982 1983
f 1982 1981 1983
f 1984 1985 1986
f 1985 1984 1986
f 1987 1988 1989
f 1988 1987 1989
f 1990 1991 1992
f 1991 1990 1992
f 1993 1994 1995
f 1994 1993 1995
f 1996 1997 1998
f 1997 1996 1998
f 1999 2000 2001
f 2000 1999 2001
f 2002 2003 2004
f 2003 2002 2004
f 2005 2006 2007
f 2006 2005 2007
f 2008 2009 2010
f 2009 2008 2010
f 2011 2012 2013
f 2012 2011 2013
f 2014 2015 2016
f 2015 2014 2016
f 2017 2018 2019
f 2018 2017 2019
f 2020 2021 2022
f 2021 2020 2022
f 2023 2024 2025
f 2024 2023 2025
f 2026 2027 2028
f 2027 2026 2028
f 2029 2030 2031
f 2030 2029 2031
f 2032 2033 2034
f 2033 2032 2034
f 2035 2036 2037
f 2036 2035 2037
f 2038 2039 2040
f 2039 2038 2040
