# Angular faceted lunar boulder (lunar_boulder_outcrop_right.obj)
o lunar_boulder_outcrop_right
v -0.0809 0.0698 0.5800 0.2169 0.2169 0.2314
v 0.0999 0.0029 0.4646 0.3835 0.3835 0.4091
v 0.1229 0.0732 0.4713 0.2590 0.2590 0.2762
v 0.0604 0.1248 0.5252 0.2985 0.2985 0.3184
v -0.0190 0.0916 0.5143 0.3164 0.3164 0.3375
v -0.0784 0.0727 0.5444 0.2515 0.2515 0.2683
v -0.1137 0.0252 0.5489 0.0835 0.0835 0.0891
v -0.1154 -0.0329 0.5207 0.0757 0.0757 0.0807
v -0.0929 -0.0989 0.4466 0.0763 0.0763 0.0814
v -0.0153 -0.1206 0.5073 0.1906 0.1906 0.2034
v 0.0451 -0.0780 0.4634 0.2018 0.2018 0.2153
v 0.1139 -0.0585 0.5306 0.2935 0.2935 0.3131
v 0.2070 -0.0244 0.4286 0.2679 0.2679 0.2858
v 0.2683 0.1074 0.4409 0.2730 0.2730 0.2912
v 0.1799 0.2446 0.4128 0.3116 0.3116 0.3324
v -0.0012 0.1631 0.4202 0.2628 0.2628 0.2803
v -0.1306 0.1725 0.3617 0.2300 0.2300 0.2454
v -0.1945 0.0752 0.4141 0.1083 0.1083 0.1155
v -0.2394 -0.0310 0.4119 0.0484 0.0484 0.0516
v -0.2230 -0.1686 0.3575 0.0434 0.0434 0.0463
v -0.0800 -0.2405 0.4334 0.0706 0.0706 0.0753
v 0.0530 -0.1517 0.4434 0.1494 0.1494 0.1593
v 0.1757 -0.1294 0.4069 0.1951 0.1951 0.2081
v 0.2843 -0.0096 0.2853 0.2835 0.2835 0.3024
v 0.3961 0.2008 0.3007 0.3027 0.3027 0.3228
v 0.2078 0.3544 0.3181 0.3587 0.3587 0.3826
v -0.0317 0.2622 0.2916 0.3169 0.3169 0.3380
v -0.2081 0.2239 0.3034 0.2377 0.2377 0.2535
v -0.2972 0.0862 0.2931 0.1481 0.1481 0.1580
v -0.3280 -0.0710 0.3162 0.0791 0.0791 0.0843
v -0.3106 -0.2852 0.2807 0.0840 0.0840 0.0896
v -0.0763 -0.3570 0.2896 0.0500 0.0500 0.0533
v 0.1256 -0.2638 0.3208 0.0781 0.0781 0.0834
v 0.3331 -0.2006 0.3039 0.2824 0.2824 0.3012
v 0.3510 -0.0008 0.2269 0.2853 0.2853 0.3044
v 0.5148 0.2833 0.2197 0.3034 0.3034 0.3236
v 0.2605 0.4879 0.2020 0.3556 0.3556 0.3793
v -0.0615 0.3751 0.1871 0.2761 0.2761 0.2945
v -0.3258 0.3254 0.1899 0.2314 0.2314 0.2468
v -0.4106 0.1048 0.1871 0.1167 0.1167 0.1245
v -0.4754 -0.1191 0.2293 0.0695 0.0695 0.0741
v -0.4103 -0.4056 0.2315 0.0998 0.0998 0.1065
v -0.0787 -0.4628 0.2018 0.0964 0.0964 0.1028
v 0.1753 -0.3329 0.2221 0.0723 0.0723 0.0771
v 0.4526 -0.2519 0.2226 0.2475 0.2475 0.2640
v 0.4699 0.0623 0.1211 0.3452 0.3452 0.3682
v 0.6248 0.4756 0.1227 0.2614 0.2614 0.2789
v 0.1910 0.5814 0.1045 0.3916 0.3916 0.4177
v -0.1427 0.4036 0.1083 0.3320 0.3320 0.3542
v -0.4665 0.3412 0.1102 0.2660 0.2660 0.2837
v -0.5520 0.0636 0.1187 0.0937 0.0937 0.0999
v -0.5375 -0.2169 0.1106 0.0611 0.0611 0.0652
v -0.3510 -0.4806 0.1215 0.0467 0.0467 0.0498
v 0.0075 -0.6580 0.1121 0.0991 0.0991 0.1058
v 0.3034 -0.3979 0.1182 0.1132 0.1132 0.1207
v 0.5274 -0.2020 0.1232 0.2583 0.2583 0.2755
v 0.6535 0.0656 0.0000 0.3891 0.3891 0.3984
v 0.8073 0.5706 0.0000 0.3686 0.3686 0.3774
v 0.2871 0.7657 0.0000 0.3961 0.3961 0.4056
v -0.1597 0.5194 0.0000 0.3457 0.3457 0.3540
v -0.5736 0.4516 0.0000 0.3042 0.3042 0.3114
v -0.6876 0.1014 0.0000 0.0300 0.0300 0.0300
v -0.6861 -0.2509 0.0000 0.0300 0.0300 0.0300
v -0.5264 -0.6656 0.0000 0.0300 0.0300 0.0300
v -0.0274 -0.8839 0.0000 0.0330 0.0330 0.0338
v 0.3195 -0.4543 0.0000 0.0346 0.0346 0.0355
v 0.7695 -0.3243 0.0000 0.2314 0.2314 0.2369
v 0.6478 -0.0770 0.1430 0.2494 0.2494 0.2660
v 0.7301 -0.0904 0.1007 0.3709 0.3709 0.3956
v 0.6988 -0.0646 0.1054 0.4419 0.4419 0.4714
v 0.6576 -0.0390 0.1017 0.3146 0.3146 0.3355
v 0.6074 -0.0629 0.1011 0.1451 0.1451 0.1547
v 0.5917 -0.1066 0.0935 0.0550 0.0550 0.0587
v 0.6507 -0.1234 0.1089 0.0535 0.0535 0.0570
v 0.6952 -0.1147 0.1088 0.1501 0.1501 0.1601
v 0.7834 -0.0834 0.0462 0.2974 0.2974 0.3172
v 0.7220 -0.0364 0.0534 0.4242 0.4242 0.4525
v 0.6343 -0.0048 0.0540 0.3630 0.3630 0.3872
v 0.5372 -0.0491 0.0568 0.2321 0.2321 0.2476
v 0.5301 -0.1370 0.0521 0.0792 0.0792 0.0845
v 0.6501 -0.1528 0.0499 0.0519 0.0519 0.0554
v 0.7362 -0.1399 0.0546 0.1305 0.1305 0.1392
v 0.8660 -0.0837 0.0000 0.3218 0.3218 0.3295
v 0.7739 0.0076 0.0000 0.4698 0.4698 0.4810
v 0.6163 0.0507 0.0000 0.4236 0.4236 0.4337
v 0.4682 -0.0258 0.0000 0.0763 0.0763 0.0781
v 0.4100 -0.1760 0.0000 0.0326 0.0326 0.0334
v 0.6294 -0.2143 0.0000 0.0300 0.0300 0.0300
v 0.7793 -0.1771 0.0000 0.0300 0.0300 0.0300
v 0.2827 0.4743 0.1046 0.2331 0.2331 0.2487
v 0.3566 0.4686 0.0682 0.3106 0.3106 0.3313
v 0.3434 0.5173 0.0760 0.3945 0.3945 0.4208
v 0.2692 0.5247 0.0641 0.2916 0.2916 0.3110
v 0.2231 0.4928 0.0636 0.1715 0.1715 0.1829
v 0.2271 0.4541 0.0787 0.1150 0.1150 0.1226
v 0.2583 0.4074 0.0648 0.0924 0.0924 0.0986
v 0.3164 0.4403 0.0712 0.1826 0.1826 0.1948
v 0.4156 0.4695 0.0386 0.2897 0.2897 0.3090
v 0.3910 0.5596 0.0357 0.3317 0.3317 0.3538
v 0.2505 0.5763 0.0392 0.3133 0.3133 0.3342
v 0.1375 0.5202 0.0391 0.1789 0.1789 0.1908
v 0.1667 0.4337 0.0417 0.0795 0.0795 0.0848
v 0.2370 0.3394 0.0378 0.0923 0.0923 0.0985
v 0.3563 0.4072 0.0422 0.1647 0.1647 0.1756
v 0.5039 0.4577 0.0000 0.2812 0.2812 0.2879
v 0.4815 0.6121 0.0000 0.3892 0.3892 0.3984
v 0.2445 0.6634 0.0000 0.3693 0.3693 0.3781
v 0.0856 0.5506 0.0000 0.0672 0.0672 0.0688
v 0.0754 0.4170 0.0000 0.0300 0.0300 0.0300
v 0.1879 0.2680 0.0000 0.0300 0.0300 0.0300
v 0.3923 0.3597 0.0000 0.0430 0.0430 0.0441
v -0.5336 0.3010 0.1572 0.2269 0.2269 0.2421
v -0.4734 0.3000 0.1123 0.2319 0.2319 0.2474
v -0.4979 0.3382 0.1170 0.3453 0.3453 0.3683
v -0.5582 0.3648 0.0978 0.3258 0.3258 0.3475
v -0.6267 0.3405 0.1068 0.2102 0.2102 0.2242
v -0.6205 0.2977 0.1112 0.0647 0.0647 0.0690
v -0.5767 0.2768 0.1151 0.0417 0.0417 0.0445
v -0.5218 0.2728 0.1122 0.0581 0.0581 0.0619
v -0.3927 0.3036 0.0542 0.3057 0.3057 0.3260
v -0.4420 0.3845 0.0544 0.4755 0.4755 0.5072
v -0.5860 0.4198 0.0566 0.3546 0.3546 0.3782
v -0.7037 0.3580 0.0586 0.2119 0.2119 0.2260
v -0.6881 0.2751 0.0621 0.0453 0.0453 0.0483
v -0.5871 0.2389 0.0518 0.0423 0.0423 0.0451
v -0.4704 0.2385 0.0531 0.1161 0.1161 0.1238
v -0.2788 0.2995 0.0000 0.2706 0.2706 0.2770
v -0.3828 0.4238 0.0000 0.4601 0.4601 0.4710
v -0.6081 0.4999 0.0000 0.4121 0.4121 0.4219
v -0.7979 0.3897 0.0000 0.0662 0.0662 0.0677
v -0.7792 0.2527 0.0000 0.0300 0.0300 0.0300
v -0.6089 0.1941 0.0000 0.0300 0.0300 0.0300
v -0.4206 0.1959 0.0000 0.0300 0.0300 0.0300
v -0.4474 -0.3097 0.1521 0.2379 0.2379 0.2538
v -0.3593 -0.3258 0.0968 0.3628 0.3628 0.3870
v -0.3827 -0.2761 0.1164 0.3558 0.3558 0.3795
v -0.4376 -0.2814 0.1155 0.3232 0.3232 0.3448
v -0.4777 -0.2994 0.0972 0.1526 0.1526 0.1627
v -0.5008 -0.3491 0.1125 0.0635 0.0635 0.0678
v -0.4492 -0.3846 0.1094 0.0614 0.0614 0.0655
v -0.4019 -0.3565 0.1170 0.1756 0.1756 0.1873
v -0.2841 -0.3092 0.0518 0.2682 0.2682 0.2861
v -0.3578 -0.2239 0.0578 0.3573 0.3573 0.3811
v -0.4591 -0.2459 0.0593 0.3062 0.3062 0.3266
v -0.5280 -0.2914 0.0527 0.1912 0.1912 0.2039
v -0.5705 -0.3995 0.0519 0.0847 0.0847 0.0903
v -0.4452 -0.4382 0.0508 0.0550 0.0550 0.0586
v -0.3591 -0.3857 0.0565 0.1194 0.1194 0.1273
v -0.1773 -0.3571 0.0000 0.2701 0.2701 0.2765
v -0.2770 -0.1988 0.0000 0.4543 0.4543 0.4651
v -0.4399 -0.1928 0.0000 0.3955 0.3955 0.4049
v -0.5699 -0.2375 0.0000 0.2714 0.2714 0.2779
v -0.6534 -0.3828 0.0000 0.0380 0.0380 0.0389
v -0.5107 -0.5033 0.0000 0.0300 0.0300 0.0300
v -0.3520 -0.4421 0.0000 0.0300 0.0300 0.0300
v 0.3358 -0.4862 0.1288 0.2431 0.2431 0.2593
v 0.3719 -0.4786 0.0798 0.3660 0.3660 0.3904
v 0.3585 -0.4169 0.0955 0.3026 0.3026 0.3228
v 0.2812 -0.4313 0.0813 0.2651 0.2651 0.2827
v 0.2373 -0.4698 0.0869 0.1801 0.1801 0.1921
v 0.2419 -0.5248 0.0860 0.0811 0.0811 0.0865
v 0.3040 -0.5592 0.0836 0.0819 0.0819 0.0874
v 0.3525 -0.5177 0.0941 0.2394 0.2394 0.2553
v 0.4457 -0.4806 0.0513 0.2913 0.2913 0.3108
v 0.4168 -0.3659 0.0488 0.4005 0.4005 0.4272
v 0.2713 -0.3811 0.0424 0.3552 0.3552 0.3789
v 0.1768 -0.4429 0.0455 0.2108 0.2108 0.2248
v 0.1605 -0.5527 0.0490 0.0868 0.0868 0.0926
v 0.2833 -0.6107 0.0461 0.0881 0.0881 0.0940
v 0.3864 -0.5553 0.0492 0.1559 0.1559 0.1663
v 0.5509 -0.4574 0.0000 0.3133 0.3133 0.3207
v 0.4653 -0.2707 0.0000 0.4013 0.4013 0.4109
v 0.2285 -0.3225 0.0000 0.3486 0.3486 0.3569
v 0.0802 -0.4306 0.0000 0.0712 0.0712 0.0729
v 0.0694 -0.6180 0.0000 0.0328 0.0328 0.0335
v 0.2873 -0.7288 0.0000 0.0353 0.0353 0.0362
v 0.4718 -0.6066 0.0000 0.2222 0.2222 0.2275
vn 0.4605 -0.2334 0.8564
vn 0.4492 -0.3246 0.8324
vn -0.3796 0.9238 -0.0501
vn -0.2746 0.9596 0.0607
vn -0.8029 0.5961 -0.0080
vn -0.2597 -0.4164 0.8713
vn 0.5219 -0.5517 0.6506
vn -0.6243 -0.4570 0.6336
vn 0.6232 -0.0821 0.7777
vn -0.3455 -0.7450 0.5706
vn 0.5616 0.6621 0.4962
vn 0.2624 -0.2099 0.9419
vn 0.2402 -0.1709 0.9556
vn 0.1330 0.2806 0.9506
vn 0.6676 0.0321 0.7438
vn -0.3404 0.8016 0.4915
vn -0.3912 0.7670 0.5086
vn -0.1989 0.7982 0.5686
vn -0.0313 0.8734 0.4859
vn -0.5635 0.6466 0.5143
vn -0.6311 0.5236 0.5723
vn -0.7605 0.3100 0.5706
vn -0.6262 -0.3260 0.7082
vn -0.6204 -0.3514 0.7012
vn -0.0463 -0.7528 0.6567
vn -0.5137 -0.1259 0.8487
vn -0.6335 -0.1287 0.7629
vn 0.3641 -0.6233 0.6920
vn 0.6434 -0.1359 0.7533
vn 0.3145 -0.2173 0.9240
vn -0.1649 -0.8889 0.4273
vn 0.7483 -0.3409 0.5691
vn 0.3794 0.7164 0.5855
vn 0.8026 -0.4547 0.3862
vn 0.7933 -0.4113 0.4489
vn 0.4627 0.4829 0.7435
vn 0.5180 0.4791 0.7086
vn -0.3297 0.6630 0.6721
vn -0.2984 0.7205 0.6259
vn -0.1254 0.7712 0.6241
vn -0.3471 0.4248 0.8361
vn -0.4745 0.2437 0.8458
vn -0.5518 0.6460 0.5274
vn -0.7298 0.2370 0.6413
vn -0.7589 0.3093 0.5731
vn -0.6857 -0.1731 0.7070
vn -0.2675 -0.3817 0.8847
vn -0.1710 -0.4491 0.8770
vn -0.5864 -0.6367 0.5008
vn 0.2512 -0.7488 0.6134
vn 0.3366 -0.5872 0.7362
vn 0.2527 -0.6349 0.7301
vn 0.3291 -0.4627 0.8231
vn 0.6033 0.2283 0.7641
vn 0.8424 -0.3380 0.4198
vn 0.6422 -0.3529 0.6805
vn 0.6913 -0.4108 0.5944
vn 0.2859 0.4295 0.8566
vn 0.4566 0.4744 0.7527
vn -0.2728 0.6904 0.6700
vn -0.3124 0.5994 0.7370
vn -0.1158 0.6580 0.7441
vn -0.1008 0.6874 0.7192
vn -0.5775 0.2120 0.7884
vn -0.6112 0.3421 0.7137
vn -0.6201 0.3150 0.7185
vn -0.5481 0.2255 0.8054
vn -0.4800 -0.1026 0.8713
vn -0.2541 -0.1782 0.9506
vn 0.0151 -0.3891 0.9211
vn -0.2187 -0.6200 0.7535
vn 0.2581 -0.6202 0.7408
vn 0.2408 -0.7337 0.6354
vn 0.2166 -0.7449 0.6310
vn 0.2476 -0.6129 0.7503
vn 0.6136 0.2351 0.7538
vn 0.6231 0.2317 0.7471
vn 0.7161 -0.2707 0.6433
vn 0.8662 -0.4996 -0.0078
vn 0.0646 0.4200 0.9052
vn 0.5840 0.7521 0.3055
vn -0.2973 0.5742 0.7628
vn -0.2935 0.7616 0.5778
vn -0.1633 0.8619 0.4800
vn -0.1598 0.8757 0.4557
vn -0.4709 0.1713 0.8654
vn -0.4690 0.1692 0.8668
vn -0.4239 -0.0478 0.9045
vn -0.9232 0.3100 0.2273
vn -0.6220 -0.4126 0.6654
vn -0.9132 -0.2102 -0.3490
vn -0.4072 -0.8418 0.3544
vn 0.0099 -0.4141 0.9102
vn 0.2532 -0.3095 0.9166
vn 0.2666 -0.6344 0.7256
vn 0.3970 -0.4740 0.7859
vn 0.2712 -0.9265 -0.2608
vn 0.7455 0.1672 0.6451
vn 0.5803 0.2211 0.7838
vn 0.5452 -0.1661 0.8217
vn 0.6238 -0.2365 0.7449
vn 0.2197 0.5856 0.7803
vn 0.0757 0.4618 0.8838
vn -0.3247 0.5890 0.7400
vn -0.3227 0.6209 0.7144
vn -0.1097 0.6704 0.7338
vn -0.1191 0.6412 0.7581
vn -0.5987 0.1950 0.7769
vn -0.6096 0.2108 0.7642
vn -0.6588 -0.0030 0.7523
vn -0.5884 -0.0535 0.8068
vn -0.5518 -0.2125 0.8065
vn -0.3779 -0.2304 0.8967
vn -0.1812 -0.4140 0.8921
vn -0.1818 -0.4144 0.8917
vn 0.5439 -0.4391 0.7151
vn 0.5974 -0.6892 0.4099
vn 0.2486 -0.8606 0.4444
vn 0.2816 -0.3448 0.8954
vn 0.5079 0.1512 0.8480
vn 0.5449 0.1251 0.8291
vn 0.4677 0.4231 0.7760
vn 0.3420 0.6490 0.6796
vn -0.3538 0.7284 0.5867
vn -0.6927 0.1250 0.7103
vn -0.3552 -0.5678 0.7426
vn 0.1161 -0.5836 0.8037
vn 0.4009 -0.2855 0.8705
vn 0.5301 0.6020 0.5972
vn 0.5722 0.5870 0.5728
vn 0.2857 0.7835 0.5518
vn 0.4721 0.8098 0.3484
vn -0.3005 0.6996 0.6483
vn -0.3144 0.6431 0.6983
vn -0.5338 -0.0020 0.8456
vn -0.5784 0.0660 0.8131
vn -0.0847 -0.7386 0.6688
vn -0.3480 -0.8375 0.4212
vn 0.1087 -0.8900 0.4429
vn 0.1654 -0.8398 0.5170
vn 0.6192 -0.4191 0.6640
vn 0.5740 -0.6655 0.4770
vn 0.4395 0.4433 0.7812
vn 0.4315 0.4444 0.7850
vn 0.1818 0.6651 0.7243
vn 0.2618 0.7154 0.6479
vn -0.3138 0.6078 0.7294
vn -0.2996 0.6977 0.6508
vn -0.5738 0.2223 0.7882
vn -0.3933 -0.0172 0.9192
vn -0.1137 -0.6519 0.7497
vn -0.0663 -0.6152 0.7856
vn 0.1622 -0.6540 0.7388
vn 0.0851 -0.7910 0.6058
vn 0.5075 -0.4710 0.7215
vn 0.4700 -0.2682 0.8410
vn 0.4408 -0.0255 0.8972
vn -0.0654 0.6152 0.7857
vn -0.3690 0.5208 0.7698
vn -0.4868 0.2734 0.8296
vn -0.2513 -0.4262 0.8690
vn 0.2284 -0.5584 0.7975
vn 0.3701 -0.4387 0.8188
vn 0.4407 0.1490 0.8852
vn 0.6232 0.0428 0.7809
vn 0.0940 0.6294 0.7714
vn -0.1071 0.3997 0.9104
vn -0.1851 0.3712 0.9099
vn -0.1884 0.2581 0.9476
vn -0.2954 -0.0706 0.9528
vn -0.5650 0.2487 0.7867
vn -0.4052 -0.3373 0.8497
vn -0.0947 -0.3411 0.9352
vn 0.2035 -0.4155 0.8865
vn 0.1930 -0.5044 0.8416
vn 0.3774 -0.3097 0.8727
vn 0.3979 -0.4824 0.7804
vn 0.4068 0.0591 0.9116
vn 0.3069 0.1143 0.9448
vn 0.0957 0.4422 0.8918
vn 0.0716 0.4136 0.9076
vn -0.2696 0.3799 0.8849
vn -0.2734 0.5492 0.7897
vn -0.5842 0.0449 0.8104
vn -0.3971 -0.1062 0.9116
vn -0.3588 -0.2708 0.8933
vn -0.3104 -0.2693 0.9117
vn 0.2630 -0.5864 0.7661
vn 0.2655 -0.5197 0.8120
vn 0.3818 -0.4346 0.8157
vn 0.3522 -0.2846 0.8916
vn 0.5773 0.2758 0.7686
vn 0.0789 0.6955 0.7142
vn -0.1307 0.6482 0.7502
vn -0.4682 0.0215 0.8834
vn -0.3536 -0.6069 0.7118
vn -0.0338 -0.8508 0.5243
vn 0.4041 -0.7237 0.5594
vn 0.5422 0.3287 0.7733
vn 0.5969 0.2909 0.7478
vn 0.1832 0.7051 0.6850
vn 0.0114 0.6030 0.7977
vn -0.2466 0.4978 0.8315
vn -0.1966 0.7774 0.5975
vn -0.5403 -0.0668 0.8388
vn -0.5869 -0.0032 0.8096
vn -0.2048 -0.7505 0.6283
vn -0.4058 -0.7532 0.5177
vn -0.0087 -0.8572 0.5149
vn -0.0383 -0.8781 0.4770
vn 0.4482 -0.5464 0.7075
vn 0.4141 -0.7413 0.5281
vn 0.4135 0.3457 0.8423
vn 0.5199 0.3151 0.7940
vn 0.2225 0.6588 0.7187
vn 0.1585 0.5982 0.7855
vn -0.2891 0.4976 0.8178
vn -0.2866 0.5717 0.7688
vn -0.5448 -0.0743 0.8352
vn -0.5500 -0.0689 0.8323
vn -0.2515 -0.7320 0.6331
vn -0.1825 -0.7048 0.6855
vn 0.0069 -0.7583 0.6519
vn -0.0096 -0.7843 0.6204
vn 0.3775 -0.5165 0.7685
vn 0.3694 -0.4542 0.8107
vn 0.5172 -0.0916 0.8510
vn -0.0870 0.7992 0.5947
vn -0.5266 0.7350 0.4272
vn -0.7234 0.4871 0.4893
vn -0.2735 -0.4718 0.8382
vn 0.1545 -0.4925 0.8565
vn 0.5067 -0.1449 0.8498
vn 0.4352 0.3167 0.8428
vn 0.8329 0.1877 0.5206
vn -0.1583 0.7701 0.6180
vn -0.0890 0.8268 0.5554
vn -0.4830 0.6457 0.5915
vn -0.5350 0.4846 0.6920
vn -0.6217 0.2389 0.7460
vn -0.7464 0.4868 0.4538
vn -0.1902 -0.6364 0.7475
vn -0.4315 -0.6798 0.5931
vn 0.3687 -0.6728 0.6413
vn 0.3390 -0.7312 0.5920
vn 0.5639 -0.5142 0.6462
vn 0.5359 -0.2061 0.8187
vn 0.5277 0.3324 0.7817
vn 0.4704 0.3495 0.8103
vn 0.0330 0.8991 0.4366
vn -0.1560 0.7604 0.6304
vn -0.2609 0.7596 0.5958
vn -0.3876 0.4723 0.7917
vn -0.5553 0.3191 0.7680
vn -0.4938 0.1879 0.8490
vn -0.5077 -0.6011 0.6172
vn -0.1502 -0.5100 0.8470
vn 0.2904 -0.7530 0.5905
vn 0.3465 -0.6410 0.6849
vn 0.3165 -0.6504 0.6905
vn 0.3234 -0.2619 0.9093
vn 0.8034 0.0237 0.5949
vn -0.2437 0.4835 0.8407
vn -0.2861 0.4472 0.8474
vn -0.3975 -0.0472 0.9164
vn -0.2132 -0.4449 0.8698
vn 0.3579 -0.5989 0.7164
vn 0.8045 -0.1926 0.5619
vn 0.3602 0.1110 0.9263
vn 0.6504 -0.0509 0.7579
vn -0.1065 0.7345 0.6702
vn -0.2489 0.5627 0.7883
vn -0.3269 0.5384 0.7767
vn -0.3314 0.4927 0.8046
vn -0.5291 0.1057 0.8420
vn -0.4000 -0.0474 0.9153
vn -0.2135 -0.4944 0.8426
vn -0.2475 -0.5039 0.8276
vn 0.3222 -0.6390 0.6985
vn 0.3371 -0.5808 0.7409
vn 0.5123 -0.4277 0.7448
vn 0.3590 0.1589 0.9197
vn 0.3986 0.1827 0.8987
vn 0.5356 0.1532 0.8304
vn -0.1087 0.4969 0.8609
vn -0.0934 0.5376 0.8380
vn -0.2970 0.4073 0.8636
vn -0.3105 0.5145 0.7993
vn -0.4234 0.0245 0.9056
vn -0.5287 0.1057 0.8422
vn -0.2003 -0.3940 0.8970
vn -0.1501 -0.3640 0.9192
vn 0.2299 -0.3472 0.9092
vn 0.2204 -0.4588 0.8607
vn 0.3918 -0.2077 0.8963
vn 0.4718 -0.3968 0.7874
f 1//1 2//1 3//1
f 1//2 3//2 4//2
f 1//3 4//3 5//3
f 1//4 5//4 6//4
f 1//5 6//5 7//5
f 1//6 7//6 8//6
f 1//7 8//7 9//7
f 1//8 9//8 10//8
f 1//9 10//9 11//9
f 1//10 11//10 12//10
f 1//11 12//11 2//11
f 2//12 13//12 14//12
f 2//13 14//13 3//13
f 3//14 14//14 15//14
f 3//15 15//15 4//15
f 4//16 15//16 16//16
f 4//17 16//17 5//17
f 5//18 16//18 17//18
f 5//19 17//19 6//19
f 6//20 17//20 18//20
f 6//21 18//21 7//21
f 7//22 18//22 19//22
f 7//23 19//23 8//23
f 8//24 19//24 20//24
f 8//25 20//25 9//25
f 9//26 20//26 21//26
f 9//27 21//27 10//27
f 10//28 21//28 22//28
f 10//29 22//29 11//29
f 11//30 22//30 23//30
f 11//31 23//31 12//31
f 12//32 23//32 13//32
f 12//33 13//33 2//33
f 13//34 24//34 25//34
f 13//35 25//35 14//35
f 14//36 25//36 26//36
f 14//37 26//37 15//37
f 15//38 26//38 27//38
f 15//39 27//39 16//39
f 16//40 27//40 28//40
f 16//41 28//41 17//41
f 17//42 28//42 29//42
f 17//43 29//43 18//43
f 18//44 29//44 30//44
f 18//45 30//45 19//45
f 19//46 30//46 31//46
f 19//47 31//47 20//47
f 20//48 31//48 32//48
f 20//49 32//49 21//49
f 21//50 32//50 33//50
f 21//51 33//51 22//51
f 22//52 33//52 34//52
f 22//53 34//53 23//53
f 23//54 34//54 24//54
f 23//55 24//55 13//55
f 24//56 35//56 36//56
f 24//57 36//57 25//57
f 25//58 36//58 37//58
f 25//59 37//59 26//59
f 26//60 37//60 38//60
f 26//61 38//61 27//61
f 27//62 38//62 39//62
f 27//63 39//63 28//63
f 28//64 39//64 40//64
f 28//65 40//65 29//65
f 29//66 40//66 41//66
f 29//67 41//67 30//67
f 30//68 41//68 42//68
f 30//69 42//69 31//69
f 31//70 42//70 43//70
f 31//71 43//71 32//71
f 32//72 43//72 44//72
f 32//73 44//73 33//73
f 33//74 44//74 45//74
f 33//75 45//75 34//75
f 34//76 45//76 35//76
f 34//77 35//77 24//77
f 35//78 46//78 47//78
f 35//79 47//79 36//79
f 36//80 47//80 48//80
f 36//81 48//81 37//81
f 37//82 48//82 49//82
f 37//83 49//83 38//83
f 38//84 49//84 50//84
f 38//85 50//85 39//85
f 39//86 50//86 51//86
f 39//87 51//87 40//87
f 40//88 51//88 52//88
f 40//89 52//89 41//89
f 41//90 52//90 53//90
f 41//91 53//91 42//91
f 42//92 53//92 54//92
f 42//93 54//93 43//93
f 43//94 54//94 55//94
f 43//95 55//95 44//95
f 44//96 55//96 56//96
f 44//97 56//97 45//97
f 45//98 56//98 46//98
f 45//99 46//99 35//99
f 46//100 57//100 58//100
f 46//101 58//101 47//101
f 47//102 58//102 59//102
f 47//103 59//103 48//103
f 48//104 59//104 60//104
f 48//105 60//105 49//105
f 49//106 60//106 61//106
f 49//107 61//107 50//107
f 50//108 61//108 62//108
f 50//109 62//109 51//109
f 51//110 62//110 63//110
f 51//111 63//111 52//111
f 52//112 63//112 64//112
f 52//113 64//113 53//113
f 53//114 64//114 65//114
f 53//115 65//115 54//115
f 54//116 65//116 66//116
f 54//117 66//117 55//117
f 55//118 66//118 67//118
f 55//119 67//119 56//119
f 56//120 67//120 57//120
f 56//121 57//121 46//121
f 68//122 69//122 70//122
f 68//123 70//123 71//123
f 68//124 71//124 72//124
f 68//125 72//125 73//125
f 68//126 73//126 74//126
f 68//127 74//127 75//127
f 68//128 75//128 69//128
f 69//129 76//129 77//129
f 69//130 77//130 70//130
f 70//131 77//131 78//131
f 70//132 78//132 71//132
f 71//133 78//133 79//133
f 71//134 79//134 72//134
f 72//135 79//135 80//135
f 72//136 80//136 73//136
f 73//137 80//137 81//137
f 73//138 81//138 74//138
f 74//139 81//139 82//139
f 74//140 82//140 75//140
f 75//141 82//141 76//141
f 75//142 76//142 69//142
f 76//143 83//143 84//143
f 76//144 84//144 77//144
f 77//145 84//145 85//145
f 77//146 85//146 78//146
f 78//147 85//147 86//147
f 78//148 86//148 79//148
f 79//149 86//149 87//149
f 79//150 87//150 80//150
f 80//151 87//151 88//151
f 80//152 88//152 81//152
f 81//153 88//153 89//153
f 81//154 89//154 82//154
f 82//155 89//155 83//155
f 82//156 83//156 76//156
f 90//157 91//157 92//157
f 90//158 92//158 93//158
f 90//159 93//159 94//159
f 90//160 94//160 95//160
f 90//161 95//161 96//161
f 90//162 96//162 97//162
f 90//163 97//163 91//163
f 91//164 98//164 99//164
f 91//165 99//165 92//165
f 92//166 99//166 100//166
f 92//167 100//167 93//167
f 93//168 100//168 101//168
f 93//169 101//169 94//169
f 94//170 101//170 102//170
f 94//171 102//171 95//171
f 95//172 102//172 103//172
f 95//173 103//173 96//173
f 96//174 103//174 104//174
f 96//175 104//175 97//175
f 97//176 104//176 98//176
f 97//177 98//177 91//177
f 98//178 105//178 106//178
f 98//179 106//179 99//179
f 99//180 106//180 107//180
f 99//181 107//181 100//181
f 100//182 107//182 108//182
f 100//183 108//183 101//183
f 101//184 108//184 109//184
f 101//185 109//185 102//185
f 102//186 109//186 110//186
f 102//187 110//187 103//187
f 103//188 110//188 111//188
f 103//189 111//189 104//189
f 104//190 111//190 105//190
f 104//191 105//191 98//191
f 112//192 113//192 114//192
f 112//193 114//193 115//193
f 112//194 115//194 116//194
f 112//195 116//195 117//195
f 112//196 117//196 118//196
f 112//197 118//197 119//197
f 112//198 119//198 113//198
f 113//199 120//199 121//199
f 113//200 121//200 114//200
f 114//201 121//201 122//201
f 114//202 122//202 115//202
f 115//203 122//203 123//203
f 115//204 123//204 116//204
f 116//205 123//205 124//205
f 116//206 124//206 117//206
f 117//207 124//207 125//207
f 117//208 125//208 118//208
f 118//209 125//209 126//209
f 118//210 126//210 119//210
f 119//211 126//211 120//211
f 119//212 120//212 113//212
f 120//213 127//213 128//213
f 120//214 128//214 121//214
f 121//215 128//215 129//215
f 121//216 129//216 122//216
f 122//217 129//217 130//217
f 122//218 130//218 123//218
f 123//219 130//219 131//219
f 123//220 131//220 124//220
f 124//221 131//221 132//221
f 124//222 132//222 125//222
f 125//223 132//223 133//223
f 125//224 133//224 126//224
f 126//225 133//225 127//225
f 126//226 127//226 120//226
f 134//227 135//227 136//227
f 134//228 136//228 137//228
f 134//229 137//229 138//229
f 134//230 138//230 139//230
f 134//231 139//231 140//231
f 134//232 140//232 141//232
f 134//233 141//233 135//233
f 135//234 142//234 143//234
f 135//235 143//235 136//235
f 136//236 143//236 144//236
f 136//237 144//237 137//237
f 137//238 144//238 145//238
f 137//239 145//239 138//239
f 138//240 145//240 146//240
f 138//241 146//241 139//241
f 139//242 146//242 147//242
f 139//243 147//243 140//243
f 140//244 147//244 148//244
f 140//245 148//245 141//245
f 141//246 148//246 142//246
f 141//247 142//247 135//247
f 142//248 149//248 150//248
f 142//249 150//249 143//249
f 143//250 150//250 151//250
f 143//251 151//251 144//251
f 144//252 151//252 152//252
f 144//253 152//253 145//253
f 145//254 152//254 153//254
f 145//255 153//255 146//255
f 146//256 153//256 154//256
f 146//257 154//257 147//257
f 147//258 154//258 155//258
f 147//259 155//259 148//259
f 148//260 155//260 149//260
f 148//261 149//261 142//261
f 156//262 157//262 158//262
f 156//263 158//263 159//263
f 156//264 159//264 160//264
f 156//265 160//265 161//265
f 156//266 161//266 162//266
f 156//267 162//267 163//267
f 156//268 163//268 157//268
f 157//269 164//269 165//269
f 157//270 165//270 158//270
f 158//271 165//271 166//271
f 158//272 166//272 159//272
f 159//273 166//273 167//273
f 159//274 167//274 160//274
f 160//275 167//275 168//275
f 160//276 168//276 161//276
f 161//277 168//277 169//277
f 161//278 169//278 162//278
f 162//279 169//279 170//279
f 162//280 170//280 163//280
f 163//281 170//281 164//281
f 163//282 164//282 157//282
f 164//283 171//283 172//283
f 164//284 172//284 165//284
f 165//285 172//285 173//285
f 165//286 173//286 166//286
f 166//287 173//287 174//287
f 166//288 174//288 167//288
f 167//289 174//289 175//289
f 167//290 175//290 168//290
f 168//291 175//291 176//291
f 168//292 176//292 169//292
f 169//293 176//293 177//293
f 169//294 177//294 170//294
f 170//295 177//295 171//295
f 170//296 171//296 164//296
