# Angular faceted lunar boulder (lunar_boulder_crater_fragment.obj)
o lunar_boulder_crater_fragment
v -0.0634 -0.0122 0.5400 0.2623 0.2623 0.2701
v 0.0691 0.0053 0.4068 0.2230 0.2230 0.2296
v 0.0662 0.0435 0.4617 0.2602 0.2602 0.2678
v 0.0342 0.0821 0.4121 0.4931 0.4931 0.5076
v -0.0231 0.0823 0.4678 0.3011 0.3011 0.3099
v -0.0767 0.0624 0.4139 0.2340 0.2340 0.2409
v -0.0830 0.0139 0.4343 0.2170 0.2170 0.2234
v -0.1191 -0.0396 0.4745 0.1128 0.1128 0.1161
v -0.0648 -0.0760 0.5097 0.1014 0.1014 0.1044
v -0.0053 -0.0841 0.4301 0.1512 0.1512 0.1556
v 0.0507 -0.0749 0.4065 0.1884 0.1884 0.1939
v 0.0745 -0.0328 0.4030 0.4259 0.4259 0.4385
v 0.1334 -0.0129 0.3731 0.4067 0.4067 0.4187
v 0.1499 0.0622 0.4065 0.3750 0.3750 0.3861
v 0.1210 0.1695 0.3765 0.4378 0.4378 0.4507
v -0.0053 0.1537 0.4110 0.3523 0.3523 0.3627
v -0.1172 0.1445 0.3439 0.1565 0.1565 0.1611
v -0.1477 0.0526 0.4148 0.2327 0.2327 0.2396
v -0.2487 -0.0364 0.3637 0.1394 0.1394 0.1435
v -0.1645 -0.1275 0.3639 0.0571 0.0571 0.0587
v -0.0508 -0.1633 0.3693 0.0766 0.0766 0.0788
v 0.0716 -0.1857 0.3358 0.1387 0.1387 0.1427
v 0.1289 -0.0888 0.3951 0.3061 0.3061 0.3151
v 0.2351 -0.0258 0.2807 0.3136 0.3136 0.3228
v 0.2146 0.0857 0.3024 0.4061 0.4061 0.4180
v 0.1862 0.2520 0.2833 0.4479 0.4479 0.4610
v -0.0042 0.2610 0.2778 0.4180 0.4180 0.4303
v -0.1643 0.2094 0.3180 0.2256 0.2256 0.2322
v -0.2120 0.0788 0.2817 0.1415 0.1415 0.1457
v -0.3627 -0.0483 0.2801 0.1182 0.1182 0.1217
v -0.2573 -0.1934 0.2863 0.0473 0.0473 0.0487
v -0.0917 -0.2775 0.2991 0.0493 0.0493 0.0507
v 0.0925 -0.2530 0.2997 0.2272 0.2272 0.2339
v 0.1978 -0.1406 0.2564 0.2990 0.2990 0.3078
v 0.2639 0.0005 0.1796 0.3509 0.3509 0.3612
v 0.2720 0.1482 0.1888 0.3676 0.3676 0.3785
v 0.1869 0.3474 0.2073 0.3942 0.3942 0.4058
v -0.0583 0.3366 0.1732 0.3975 0.3975 0.4092
v -0.2361 0.2289 0.2065 0.2009 0.2009 0.2068
v -0.3296 0.0810 0.2112 0.1483 0.1483 0.1526
v -0.4601 -0.1149 0.1796 0.1356 0.1356 0.1395
v -0.3076 -0.3009 0.2132 0.0609 0.0609 0.0627
v -0.0562 -0.3351 0.2051 0.0542 0.0542 0.0558
v 0.1845 -0.3389 0.1895 0.1136 0.1136 0.1169
v 0.3130 -0.1689 0.2067 0.3108 0.3108 0.3200
v 0.3539 -0.0397 0.1016 0.3583 0.3583 0.3689
v 0.3697 0.1464 0.1069 0.4458 0.4458 0.4589
v 0.3196 0.4295 0.0954 0.4614 0.4614 0.4750
v -0.0051 0.4092 0.1030 0.4671 0.4671 0.4809
v -0.3000 0.3850 0.1061 0.2402 0.2402 0.2473
v -0.3329 0.1247 0.1062 0.1608 0.1608 0.1655
v -0.6630 -0.0864 0.1158 0.1870 0.1870 0.1925
v -0.4117 -0.3074 0.0963 0.0774 0.0774 0.0797
v -0.1331 -0.3980 0.0953 0.0537 0.0537 0.0553
v 0.1583 -0.4380 0.1040 0.1417 0.1417 0.1458
v 0.2975 -0.2130 0.1053 0.2313 0.2313 0.2381
v 0.4659 -0.0130 0.0000 0.3621 0.3621 0.3707
v 0.4945 0.2491 0.0000 0.3925 0.3925 0.4018
v 0.3727 0.6325 0.0000 0.4057 0.4057 0.4153
v -0.0633 0.4846 0.0000 0.3998 0.3998 0.4093
v -0.4499 0.4684 0.0000 0.3272 0.3272 0.3350
v -0.5245 0.1460 0.0000 0.0521 0.0521 0.0533
v -0.9461 -0.2061 0.0000 0.0591 0.0591 0.0605
v -0.5602 -0.5105 0.0000 0.0300 0.0300 0.0306
v -0.1191 -0.5658 0.0000 0.0300 0.0300 0.0300
v 0.2837 -0.5735 0.0000 0.0388 0.0388 0.0398
v 0.4723 -0.2751 0.0000 0.3129 0.3129 0.3203
v 0.5721 0.0770 0.1285 0.3062 0.3062 0.3153
v 0.6312 0.0596 0.0799 0.4664 0.4664 0.4801
v 0.6050 0.0992 0.0941 0.4658 0.4658 0.4795
v 0.5589 0.1088 0.0896 0.4107 0.4107 0.4228
v 0.5053 0.0920 0.0900 0.2097 0.2097 0.2159
v 0.5151 0.0412 0.0967 0.0811 0.0811 0.0834
v 0.5498 -0.0002 0.0839 0.0841 0.0841 0.0866
v 0.6067 0.0156 0.0943 0.2743 0.2743 0.2823
v 0.6862 0.0674 0.0504 0.4179 0.4179 0.4302
v 0.6267 0.1343 0.0489 0.5273 0.5273 0.5429
v 0.5443 0.1383 0.0500 0.3887 0.3887 0.4001
v 0.4441 0.1083 0.0420 0.2291 0.2291 0.2359
v 0.4675 0.0124 0.0432 0.0527 0.0527 0.0542
v 0.5409 -0.0810 0.0478 0.1154 0.1154 0.1188
v 0.6469 -0.0168 0.0520 0.1824 0.1824 0.1878
v 0.7894 0.0848 0.0000 0.3480 0.3480 0.3563
v 0.6678 0.2038 0.0000 0.4342 0.4342 0.4445
v 0.5156 0.1954 0.0000 0.3893 0.3893 0.3986
v 0.3703 0.1230 0.0000 0.0689 0.0689 0.0706
v 0.4104 -0.0276 0.0000 0.0300 0.0300 0.0300
v 0.5397 -0.1755 0.0000 0.0300 0.0300 0.0300
v 0.7102 -0.0634 0.0000 0.2080 0.2080 0.2129
v 0.3190 0.4910 0.1416 0.2811 0.2811 0.2893
v 0.3608 0.4861 0.0918 0.5127 0.5127 0.5278
v 0.3492 0.5178 0.0883 0.4967 0.4967 0.5113
v 0.3124 0.5479 0.0864 0.3163 0.3163 0.3256
v 0.2824 0.5091 0.0895 0.1334 0.1334 0.1373
v 0.2816 0.4664 0.0990 0.0624 0.0624 0.0642
v 0.3146 0.4457 0.1041 0.0508 0.0508 0.0523
v 0.3595 0.4392 0.0904 0.2361 0.2361 0.2430
v 0.3938 0.4936 0.0510 0.4445 0.4445 0.4575
v 0.3663 0.5533 0.0504 0.4189 0.4189 0.4312
v 0.2898 0.5968 0.0513 0.3632 0.3632 0.3739
v 0.2188 0.5278 0.0491 0.1303 0.1303 0.1341
v 0.2421 0.4352 0.0553 0.0574 0.0574 0.0591
v 0.3130 0.3960 0.0523 0.0620 0.0620 0.0638
v 0.3970 0.4084 0.0561 0.2721 0.2721 0.2801
v 0.4541 0.4746 0.0000 0.4221 0.4221 0.4322
v 0.3994 0.5684 0.0000 0.4897 0.4897 0.5014
v 0.2985 0.6880 0.0000 0.4018 0.4018 0.4113
v 0.1815 0.5760 0.0000 0.0521 0.0521 0.0534
v 0.1741 0.4282 0.0000 0.0300 0.0300 0.0300
v 0.2807 0.3468 0.0000 0.0300 0.0300 0.0300
v 0.4321 0.3169 0.0000 0.0477 0.0477 0.0489
v -0.4708 0.1564 0.1041 0.2773 0.2773 0.2855
v -0.4221 0.1616 0.0737 0.3723 0.3723 0.3833
v -0.4292 0.1973 0.0714 0.4659 0.4659 0.4796
v -0.4838 0.2024 0.0737 0.3480 0.3480 0.3582
v -0.5307 0.1807 0.0683 0.1623 0.1623 0.1670
v -0.5089 0.1468 0.0724 0.0540 0.0540 0.0556
v -0.4811 0.1200 0.0799 0.0755 0.0755 0.0777
v -0.4189 0.1189 0.0672 0.2516 0.2516 0.2590
v -0.3908 0.1701 0.0419 0.3947 0.3947 0.4063
v -0.4025 0.2447 0.0413 0.4676 0.4676 0.4813
v -0.5112 0.2325 0.0377 0.4089 0.4089 0.4209
v -0.6001 0.1875 0.0408 0.2088 0.2088 0.2150
v -0.5358 0.1279 0.0348 0.0494 0.0494 0.0509
v -0.4759 0.0773 0.0345 0.0585 0.0585 0.0603
v -0.3563 0.0903 0.0366 0.2969 0.2969 0.3057
v -0.3317 0.1685 0.0000 0.4234 0.4234 0.4335
v -0.3410 0.2933 0.0000 0.4061 0.4061 0.4157
v -0.5249 0.2859 0.0000 0.3836 0.3836 0.3927
v -0.6937 0.2219 0.0000 0.0693 0.0693 0.0709
v -0.6067 0.1048 0.0000 0.0300 0.0300 0.0300
v -0.4944 0.0397 0.0000 0.0300 0.0300 0.0300
v -0.2996 0.0343 0.0000 0.0539 0.0539 0.0552
v -0.4553 -0.1717 0.1112 0.2727 0.2727 0.2807
v -0.4067 -0.1630 0.0716 0.4655 0.4655 0.4792
v -0.4371 -0.1114 0.0746 0.4722 0.4722 0.4861
v -0.4965 -0.1036 0.0714 0.2870 0.2870 0.2955
v -0.5271 -0.1555 0.0803 0.1092 0.1092 0.1124
v -0.5083 -0.2021 0.0737 0.0462 0.0462 0.0476
v -0.4734 -0.2256 0.0679 0.0584 0.0584 0.0602
v -0.4277 -0.2152 0.0847 0.2242 0.2242 0.2308
v -0.3364 -0.1540 0.0376 0.4152 0.4152 0.4274
v -0.4000 -0.0474 0.0422 0.3693 0.3693 0.3802
v -0.5180 -0.0387 0.0449 0.2645 0.2645 0.2722
v -0.5658 -0.1409 0.0384 0.1271 0.1271 0.1308
v -0.5420 -0.2248 0.0373 0.0514 0.0514 0.0529
v -0.4787 -0.2794 0.0376 0.0874 0.0874 0.0900
v -0.3875 -0.2578 0.0421 0.1923 0.1923 0.1979
v -0.2445 -0.1984 0.0000 0.3258 0.3258 0.3336
v -0.3003 0.0117 0.0000 0.3992 0.3992 0.4087
v -0.4968 0.0573 0.0000 0.3609 0.3609 0.3695
v -0.6385 -0.0633 0.0000 0.0493 0.0493 0.0505
v -0.6085 -0.2274 0.0000 0.0300 0.0300 0.0300
v -0.5225 -0.3397 0.0000 0.0300 0.0300 0.0300
v -0.3593 -0.3581 0.0000 0.0458 0.0458 0.0469
v 0.3449 -0.4759 0.1235 0.3090 0.3090 0.3181
v 0.3909 -0.4832 0.0837 0.3490 0.3490 0.3592
v 0.3516 -0.4519 0.0904 0.5400 0.5400 0.5559
v 0.3110 -0.4398 0.0809 0.3053 0.3053 0.3143
v 0.2781 -0.4711 0.0877 0.2006 0.2006 0.2065
v 0.2782 -0.5192 0.0926 0.0871 0.0871 0.0897
v 0.3202 -0.5447 0.0891 0.1287 0.1287 0.1325
v 0.3629 -0.5262 0.0789 0.2163 0.2163 0.2226
v 0.4679 -0.4779 0.0458 0.3528 0.3528 0.3632
v 0.3800 -0.4108 0.0492 0.5016 0.5016 0.5163
v 0.2981 -0.3960 0.0463 0.4177 0.4177 0.4300
v 0.2252 -0.4498 0.0477 0.2297 0.2297 0.2364
v 0.2243 -0.5499 0.0400 0.0602 0.0602 0.0619
v 0.3107 -0.6052 0.0481 0.1202 0.1202 0.1238
v 0.3886 -0.5548 0.0436 0.2278 0.2278 0.2345
v 0.5549 -0.4821 0.0000 0.3070 0.3070 0.3143
v 0.4269 -0.3555 0.0000 0.4557 0.4557 0.4666
v 0.2884 -0.3397 0.0000 0.3900 0.3900 0.3993
v 0.1721 -0.4202 0.0000 0.0652 0.0652 0.0668
v 0.1290 -0.5931 0.0000 0.0300 0.0300 0.0305
v 0.2915 -0.6735 0.0000 0.0300 0.0300 0.0300
v 0.4340 -0.6152 0.0000 0.0513 0.0513 0.0525
vn 0.5764 -0.6559 0.4874
vn 0.0240 0.7958 0.6051
vn 0.6760 0.2433 0.6955
vn -0.6620 0.6122 0.4324
vn -0.9484 0.2186 0.2298
vn -0.6763 0.6762 0.2922
vn -0.6557 -0.3114 0.6879
vn 0.7495 -0.2979 0.5912
vn 0.3792 -0.6696 0.6387
vn 0.6468 -0.3084 0.6975
vn 0.7067 0.0297 0.7069
vn 0.3154 -0.4429 0.8393
vn 0.4956 -0.7001 0.5140
vn 0.4583 0.3524 0.8159
vn -0.3383 0.6236 0.7048
vn 0.2437 0.1492 0.9583
vn 0.6483 0.3680 0.6665
vn -0.4389 0.6240 0.6466
vn -0.7305 0.1973 0.6538
vn -0.0763 0.6248 0.7770
vn -0.0424 0.3910 0.9194
vn -0.3552 -0.1285 0.9259
vn -0.4469 0.7105 0.5436
vn -0.5626 -0.5193 0.6433
vn -0.6751 -0.4173 0.6084
vn -0.2840 -0.8266 0.4858
vn 0.5487 -0.6842 0.4804
vn 0.0920 -0.6392 0.7636
vn 0.4097 -0.4345 0.8021
vn 0.0287 -0.5340 0.8450
vn 0.1446 -0.0003 0.9895
vn 0.3752 0.2368 0.8962
vn 0.4592 -0.0235 0.8880
vn 0.6712 -0.0214 0.7410
vn 0.8238 -0.3715 0.4282
vn 0.8110 0.2013 0.5493
vn 0.5826 0.3612 0.7281
vn 0.0156 0.7428 0.6693
vn 0.0743 0.7763 0.6259
vn -0.0934 0.7757 0.6241
vn -0.5124 -0.0290 0.8583
vn -0.5268 -0.0432 0.8489
vn -0.6889 0.5722 0.4450
vn -0.5877 0.6918 0.4196
vn -0.5914 0.2268 0.7738
vn -0.5297 -0.3517 0.7718
vn -0.4164 -0.3837 0.8243
vn -0.3168 -0.5014 0.8051
vn -0.1880 -0.4649 0.8652
vn 0.0690 -0.5406 0.8385
vn 0.1654 -0.4261 0.8894
vn 0.5769 -0.2399 0.7808
vn 0.5580 -0.6474 0.5192
vn 0.7744 -0.3610 0.5197
vn 0.6749 0.1676 0.7187
vn 0.9638 -0.0687 0.2576
vn 0.8752 0.0671 0.4791
vn 0.7840 0.2836 0.5521
vn 0.9500 0.1905 0.2474
vn -0.1348 0.6184 0.7742
vn 0.0217 0.8155 0.5783
vn -0.2978 0.6940 0.6555
vn -0.2221 0.9263 0.3045
vn -0.7060 0.4638 0.5353
vn -0.5142 -0.0499 0.8562
vn -0.5012 0.1978 0.8424
vn -0.6408 0.7586 0.1181
vn -0.5627 -0.3241 0.7605
vn -0.4904 -0.3215 0.8100
vn -0.0476 -0.5465 0.8361
vn -0.4465 -0.8280 0.3392
vn 0.0210 -0.8487 0.5285
vn 0.0966 -0.7444 0.6607
vn 0.4866 -0.4441 0.7523
vn 0.3932 -0.0147 0.9193
vn 0.4361 0.2638 0.8604
vn 0.9246 -0.3375 0.1766
vn 0.6338 -0.0757 0.7698
vn 0.6392 -0.0822 0.7647
vn 0.6371 0.1436 0.7573
vn 0.5719 0.1697 0.8026
vn -0.0384 0.8269 0.5611
vn -0.1249 0.7354 0.6660
vn -0.0513 0.7134 0.6989
vn -0.1391 0.4947 0.8578
vn -0.7644 0.0969 0.6375
vn -0.8161 0.5240 0.2437
vn -0.4983 0.7948 0.3466
vn -0.2943 0.0419 0.9548
vn -0.3248 -0.4433 0.8354
vn -0.6616 -0.4318 0.6131
vn -0.2928 -0.9041 0.3112
vn -0.0961 -0.8335 0.5442
vn -0.1292 -0.8190 0.5591
vn 0.0384 -0.6584 0.7517
vn 0.8014 -0.4976 0.3319
vn 0.7822 -0.6061 0.1441
vn 0.9508 -0.3095 -0.0105
vn 0.6981 0.3057 0.6474
vn 0.6799 -0.0742 0.7296
vn 0.6852 -0.0788 0.7241
vn 0.5532 0.1757 0.8143
vn 0.6914 0.1511 0.7065
vn -0.1536 0.4527 0.8783
vn -0.0355 0.7967 0.6033
vn -0.0335 0.7973 0.6026
vn -0.0544 0.7462 0.6635
vn -0.5274 0.1221 0.8408
vn -0.4788 0.0609 0.8758
vn -0.3890 0.4659 0.7948
vn -0.4888 0.7818 0.3871
vn -0.2447 -0.3102 0.9186
vn -0.1927 -0.3017 0.9337
vn -0.0499 -0.3979 0.9161
vn -0.1586 -0.4975 0.8528
vn -0.0095 -0.4943 0.8692
vn -0.1140 -0.6692 0.7343
vn 0.4259 -0.2692 0.8638
vn 0.4256 -0.2681 0.8643
vn 0.5194 0.0127 0.8544
vn 0.6842 -0.2077 0.6991
vn 0.6554 0.1703 0.7359
vn 0.1039 0.7866 0.6086
vn -0.2204 0.7166 0.6617
vn -0.4961 0.0187 0.8681
vn -0.2081 -0.4435 0.8718
vn -0.0206 -0.4957 0.8683
vn 0.6173 -0.0880 0.7818
vn 0.3963 0.3716 0.8395
vn 0.7551 0.2892 0.5883
vn 0.0455 0.7781 0.6265
vn 0.1143 0.8166 0.5658
vn -0.2675 0.7230 0.6369
vn -0.2417 0.7823 0.5741
vn -0.6346 -0.1453 0.7591
vn -0.7322 -0.0519 0.6791
vn -0.5626 -0.4070 0.7196
vn -0.1333 -0.3926 0.9100
vn 0.2184 -0.4185 0.8816
vn 0.0880 -0.7490 0.6567
vn 0.5911 -0.2621 0.7628
vn 0.4684 0.0281 0.8831
vn 0.3581 0.3662 0.8589
vn 0.3892 0.3654 0.8455
vn -0.0323 0.5882 0.8080
vn 0.0417 0.6696 0.7416
vn -0.2748 0.5512 0.7878
vn -0.2577 0.6763 0.6901
vn -0.5101 -0.1358 0.8493
vn -0.5428 -0.1220 0.8309
vn -0.3980 -0.3481 0.8488
vn -0.5281 -0.3778 0.7605
vn 0.2862 -0.4351 0.8537
vn 0.2818 -0.5183 0.8075
vn 0.4902 -0.2621 0.8313
vn 0.4572 -0.1975 0.8671
vn 0.7377 0.3352 0.5860
vn 0.4903 0.6353 0.5966
vn -0.6065 0.5155 0.6053
vn -0.7837 0.1492 0.6029
vn -0.4500 -0.5427 0.7093
vn 0.1377 -0.6389 0.7569
vn 0.7632 -0.0405 0.6449
vn 0.7024 0.3311 0.6301
vn 0.7069 0.3284 0.6264
vn 0.3495 0.6000 0.7196
vn 0.5002 0.6461 0.5764
vn -0.4122 0.3995 0.8188
vn -0.4118 0.3824 0.8271
vn -0.5508 -0.0837 0.8304
vn -0.7844 0.1491 0.6020
vn -0.3105 -0.6178 0.7225
vn -0.4856 -0.6232 0.6130
vn 0.0744 -0.7210 0.6889
vn 0.1278 -0.6643 0.7364
vn 0.7032 0.0684 0.7077
vn 0.7800 -0.0404 0.6245
vn 0.6639 0.3869 0.6400
vn 0.7333 0.3449 0.5859
vn 0.6271 0.5293 0.5714
vn 0.2671 0.4526 0.8508
vn -0.4494 0.4693 0.7601
vn -0.4513 0.4412 0.7757
vn -0.7773 0.0386 0.6280
vn -0.6208 -0.1050 0.7769
vn -0.4628 -0.6066 0.6464
vn -0.2977 -0.5964 0.7454
vn -0.1343 -0.6787 0.7220
vn 0.0360 -0.5124 0.8580
vn 0.7567 -0.1056 0.6451
vn 0.6574 0.0692 0.7504
vn 0.5100 0.1563 0.8458
vn 0.0869 0.5657 0.8200
vn -0.3086 0.4618 0.8315
vn -0.5721 -0.2744 0.7729
vn -0.5433 -0.3524 0.7620
vn 0.1540 -0.5765 0.8025
vn 0.5335 -0.0896 0.8411
vn 0.6925 0.1143 0.7123
vn 0.5896 0.1688 0.7899
vn -0.0909 0.5695 0.8169
vn 0.0993 0.7984 0.5938
vn -0.2864 0.6153 0.7344
vn -0.2962 0.4298 0.8530
vn -0.3651 -0.4731 0.8018
vn -0.6689 -0.3509 0.6554
vn -0.4900 -0.5859 0.6455
vn -0.6758 -0.5742 0.4621
vn 0.0665 -0.7234 0.6873
vn 0.1601 -0.5365 0.8286
vn 0.4894 0.1540 0.8584
vn 0.7188 -0.0535 0.6931
vn 0.5787 0.0432 0.8144
vn 0.5078 0.0864 0.8572
vn -0.0267 0.6671 0.7445
vn -0.0899 0.5592 0.8242
vn -0.2012 0.5302 0.8236
vn -0.2052 0.4635 0.8620
vn -0.4801 -0.3572 0.8012
vn -0.2949 -0.4038 0.8660
vn -0.2670 -0.4603 0.8467
vn -0.4136 -0.4962 0.7634
vn -0.0187 -0.6707 0.7415
vn 0.0411 -0.5168 0.8551
vn 0.6375 0.1526 0.7552
vn 0.5711 0.1934 0.7978
vn 0.5723 0.2916 0.7664
vn 0.0216 0.5136 0.8577
vn -0.3081 0.3336 0.8909
vn -0.4329 -0.2957 0.8516
vn -0.2426 -0.5569 0.7944
vn -0.1588 -0.5855 0.7950
vn 0.6372 -0.0648 0.7680
vn 0.4053 0.2038 0.8912
vn 0.4278 0.2000 0.8815
vn 0.0526 0.4278 0.9023
vn 0.0001 0.3788 0.9255
vn -0.5009 0.1806 0.8464
vn -0.5706 0.4528 0.6851
vn -0.7536 -0.2217 0.6188
vn -0.5760 -0.3379 0.7443
vn -0.4458 -0.5132 0.7334
vn -0.1726 -0.4701 0.8655
vn 0.0747 -0.4948 0.8658
vn -0.0768 -0.7402 0.6679
vn 0.5692 -0.2460 0.7845
vn 0.4298 0.0521 0.9014
vn 0.4221 0.1121 0.8996
vn 0.3108 0.1454 0.9393
vn 0.1052 0.4534 0.8851
vn 0.0517 0.4136 0.9090
vn -0.3907 0.4591 0.7979
vn -0.3668 0.1129 0.9234
vn -0.5456 -0.0999 0.8320
vn -0.4797 -0.1471 0.8650
vn -0.4495 -0.3440 0.8244
vn -0.2973 -0.3402 0.8921
vn -0.0562 -0.4987 0.8650
vn 0.0436 -0.3761 0.9256
vn 0.3728 -0.2679 0.8884
vn 0.3258 -0.1197 0.9378
vn 0.5752 0.6011 0.5548
vn 0.0955 0.7955 0.5984
vn -0.3635 0.5480 0.7534
vn -0.4652 0.0877 0.8809
vn -0.1639 -0.3935 0.9046
vn 0.4049 -0.5210 0.7514
vn 0.5492 -0.4354 0.7133
vn 0.3707 0.4442 0.8156
vn 0.4787 0.4352 0.7626
vn 0.0955 0.6716 0.7347
vn -0.0011 0.6191 0.7853
vn -0.3610 0.5096 0.7810
vn -0.3568 0.5426 0.7604
vn -0.6165 -0.0542 0.7855
vn -0.7157 0.0683 0.6950
vn -0.4123 -0.5361 0.7366
vn -0.2456 -0.5164 0.8204
vn 0.4021 -0.5560 0.7275
vn 0.4094 -0.5406 0.7350
vn 0.4607 -0.4959 0.7361
vn 0.4304 -0.3706 0.8231
vn 0.4346 0.4396 0.7861
vn 0.3606 0.4303 0.8275
vn 0.0718 0.6283 0.7746
vn 0.0891 0.6417 0.7618
vn -0.3790 0.5478 0.7458
vn -0.3799 0.5345 0.7550
vn -0.6116 0.1523 0.7764
vn -0.3602 -0.0678 0.9304
vn -0.1966 -0.3972 0.8964
vn -0.3719 -0.4629 0.8046
vn 0.2468 -0.6034 0.7583
vn 0.3060 -0.3948 0.8663
vn 0.3747 -0.3404 0.8624
vn 0.4019 -0.4372 0.8046
f 1//1 2//1 3//1
f 1//2 3//2 4//2
f 1//3 4//3 5//3
f 1//4 5//4 6//4
f 1//5 6//5 7//5
f 1//6 7//6 8//6
f 1//7 8//7 9//7
f 1//8 9//8 10//8
f 1//9 10//9 11//9
f 1//10 11//10 12//10
f 1//11 12//11 2//11
f 2//12 13//12 14//12
f 2//13 14//13 3//13
f 3//14 14//14 15//14
f 3//15 15//15 4//15
f 4//16 15//16 16//16
f 4//17 16//17 5//17
f 5//18 16//18 17//18
f 5//19 17//19 6//19
f 6//20 17//20 18//20
f 6//21 18//21 7//21
f 7//22 18//22 19//22
f 7//23 19//23 8//23
f 8//24 19//24 20//24
f 8//25 20//25 9//25
f 9//26 20//26 21//26
f 9//27 21//27 10//27
f 10//28 21//28 22//28
f 10//29 22//29 11//29
f 11//30 22//30 23//30
f 11//31 23//31 12//31
f 12//32 23//32 13//32
f 12//33 13//33 2//33
f 13//34 24//34 25//34
f 13//35 25//35 14//35
f 14//36 25//36 26//36
f 14//37 26//37 15//37
f 15//38 26//38 27//38
f 15//39 27//39 16//39
f 16//40 27//40 28//40
f 16//41 28//41 17//41
f 17//42 28//42 29//42
f 17//43 29//43 18//43
f 18//44 29//44 30//44
f 18//45 30//45 19//45
f 19//46 30//46 31//46
f 19//47 31//47 20//47
f 20//48 31//48 32//48
f 20//49 32//49 21//49
f 21//50 32//50 33//50
f 21//51 33//51 22//51
f 22//52 33//52 34//52
f 22//53 34//53 23//53
f 23//54 34//54 24//54
f 23//55 24//55 13//55
f 24//56 35//56 36//56
f 24//57 36//57 25//57
f 25//58 36//58 37//58
f 25//59 37//59 26//59
f 26//60 37//60 38//60
f 26//61 38//61 27//61
f 27//62 38//62 39//62
f 27//63 39//63 28//63
f 28//64 39//64 40//64
f 28//65 40//65 29//65
f 29//66 40//66 41//66
f 29//67 41//67 30//67
f 30//68 41//68 42//68
f 30//69 42//69 31//69
f 31//70 42//70 43//70
f 31//71 43//71 32//71
f 32//72 43//72 44//72
f 32//73 44//73 33//73
f 33//74 44//74 45//74
f 33//75 45//75 34//75
f 34//76 45//76 35//76
f 34//77 35//77 24//77
f 35//78 46//78 47//78
f 35//79 47//79 36//79
f 36//80 47//80 48//80
f 36//81 48//81 37//81
f 37//82 48//82 49//82
f 37//83 49//83 38//83
f 38//84 49//84 50//84
f 38//85 50//85 39//85
f 39//86 50//86 51//86
f 39//87 51//87 40//87
f 40//88 51//88 52//88
f 40//89 52//89 41//89
f 41//90 52//90 53//90
f 41//91 53//91 42//91
f 42//92 53//92 54//92
f 42//93 54//93 43//93
f 43//94 54//94 55//94
f 43//95 55//95 44//95
f 44//96 55//96 56//96
f 44//97 56//97 45//97
f 45//98 56//98 46//98
f 45//99 46//99 35//99
f 46//100 57//100 58//100
f 46//101 58//101 47//101
f 47//102 58//102 59//102
f 47//103 59//103 48//103
f 48//104 59//104 60//104
f 48//105 60//105 49//105
f 49//106 60//106 61//106
f 49//107 61//107 50//107
f 50//108 61//108 62//108
f 50//109 62//109 51//109
f 51//110 62//110 63//110
f 51//111 63//111 52//111
f 52//112 63//112 64//112
f 52//113 64//113 53//113
f 53//114 64//114 65//114
f 53//115 65//115 54//115
f 54//116 65//116 66//116
f 54//117 66//117 55//117
f 55//118 66//118 67//118
f 55//119 67//119 56//119
f 56//120 67//120 57//120
f 56//121 57//121 46//121
f 68//122 69//122 70//122
f 68//123 70//123 71//123
f 68//124 71//124 72//124
f 68//125 72//125 73//125
f 68//126 73//126 74//126
f 68//127 74//127 75//127
f 68//128 75//128 69//128
f 69//129 76//129 77//129
f 69//130 77//130 70//130
f 70//131 77//131 78//131
f 70//132 78//132 71//132
f 71//133 78//133 79//133
f 71//134 79//134 72//134
f 72//135 79//135 80//135
f 72//136 80//136 73//136
f 73//137 80//137 81//137
f 73//138 81//138 74//138
f 74//139 81//139 82//139
f 74//140 82//140 75//140
f 75//141 82//141 76//141
f 75//142 76//142 69//142
f 76//143 83//143 84//143
f 76//144 84//144 77//144
f 77//145 84//145 85//145
f 77//146 85//146 78//146
f 78//147 85//147 86//147
f 78//148 86//148 79//148
f 79//149 86//149 87//149
f 79//150 87//150 80//150
f 80//151 87//151 88//151
f 80//152 88//152 81//152
f 81//153 88//153 89//153
f 81//154 89//154 82//154
f 82//155 89//155 83//155
f 82//156 83//156 76//156
f 90//157 91//157 92//157
f 90//158 92//158 93//158
f 90//159 93//159 94//159
f 90//160 94//160 95//160
f 90//161 95//161 96//161
f 90//162 96//162 97//162
f 90//163 97//163 91//163
f 91//164 98//164 99//164
f 91//165 99//165 92//165
f 92//166 99//166 100//166
f 92//167 100//167 93//167
f 93//168 100//168 101//168
f 93//169 101//169 94//169
f 94//170 101//170 102//170
f 94//171 102//171 95//171
f 95//172 102//172 103//172
f 95//173 103//173 96//173
f 96//174 103//174 104//174
f 96//175 104//175 97//175
f 97//176 104//176 98//176
f 97//177 98//177 91//177
f 98//178 105//178 106//178
f 98//179 106//179 99//179
f 99//180 106//180 107//180
f 99//181 107//181 100//181
f 100//182 107//182 108//182
f 100//183 108//183 101//183
f 101//184 108//184 109//184
f 101//185 109//185 102//185
f 102//186 109//186 110//186
f 102//187 110//187 103//187
f 103//188 110//188 111//188
f 103//189 111//189 104//189
f 104//190 111//190 105//190
f 104//191 105//191 98//191
f 112//192 113//192 114//192
f 112//193 114//193 115//193
f 112//194 115//194 116//194
f 112//195 116//195 117//195
f 112//196 117//196 118//196
f 112//197 118//197 119//197
f 112//198 119//198 113//198
f 113//199 120//199 121//199
f 113//200 121//200 114//200
f 114//201 121//201 122//201
f 114//202 122//202 115//202
f 115//203 122//203 123//203
f 115//204 123//204 116//204
f 116//205 123//205 124//205
f 116//206 124//206 117//206
f 117//207 124//207 125//207
f 117//208 125//208 118//208
f 118//209 125//209 126//209
f 118//210 126//210 119//210
f 119//211 126//211 120//211
f 119//212 120//212 113//212
f 120//213 127//213 128//213
f 120//214 128//214 121//214
f 121//215 128//215 129//215
f 121//216 129//216 122//216
f 122//217 129//217 130//217
f 122//218 130//218 123//218
f 123//219 130//219 131//219
f 123//220 131//220 124//220
f 124//221 131//221 132//221
f 124//222 132//222 125//222
f 125//223 132//223 133//223
f 125//224 133//224 126//224
f 126//225 133//225 127//225
f 126//226 127//226 120//226
f 134//227 135//227 136//227
f 134//228 136//228 137//228
f 134//229 137//229 138//229
f 134//230 138//230 139//230
f 134//231 139//231 140//231
f 134//232 140//232 141//232
f 134//233 141//233 135//233
f 135//234 142//234 143//234
f 135//235 143//235 136//235
f 136//236 143//236 144//236
f 136//237 144//237 137//237
f 137//238 144//238 145//238
f 137//239 145//239 138//239
f 138//240 145//240 146//240
f 138//241 146//241 139//241
f 139//242 146//242 147//242
f 139//243 147//243 140//243
f 140//244 147//244 148//244
f 140//245 148//245 141//245
f 141//246 148//246 142//246
f 141//247 142//247 135//247
f 142//248 149//248 150//248
f 142//249 150//249 143//249
f 143//250 150//250 151//250
f 143//251 151//251 144//251
f 144//252 151//252 152//252
f 144//253 152//253 145//253
f 145//254 152//254 153//254
f 145//255 153//255 146//255
f 146//256 153//256 154//256
f 146//257 154//257 147//257
f 147//258 154//258 155//258
f 147//259 155//259 148//259
f 148//260 155//260 149//260
f 148//261 149//261 142//261
f 156//262 157//262 158//262
f 156//263 158//263 159//263
f 156//264 159//264 160//264
f 156//265 160//265 161//265
f 156//266 161//266 162//266
f 156//267 162//267 163//267
f 156//268 163//268 157//268
f 157//269 164//269 165//269
f 157//270 165//270 158//270
f 158//271 165//271 166//271
f 158//272 166//272 159//272
f 159//273 166//273 167//273
f 159//274 167//274 160//274
f 160//275 167//275 168//275
f 160//276 168//276 161//276
f 161//277 168//277 169//277
f 161//278 169//278 162//278
f 162//279 169//279 170//279
f 162//280 170//280 163//280
f 163//281 170//281 164//281
f 163//282 164//282 157//282
f 164//283 171//283 172//283
f 164//284 172//284 165//284
f 165//285 172//285 173//285
f 165//286 173//286 166//286
f 166//287 173//287 174//287
f 166//288 174//288 167//288
f 167//289 174//289 175//289
f 167//290 175//290 168//290
f 168//291 175//291 176//291
f 168//292 176//292 169//292
f 169//293 176//293 177//293
f 169//294 177//294 170//294
f 170//295 177//295 171//295
f 170//296 171//296 164//296
