# Angular faceted lunar boulder (lunar_boulder_monolith.obj)
o lunar_boulder_monolith
v 0.0440 -0.0703 0.7400 0.2023 0.2095 0.2240
v 0.1335 -0.0035 0.6152 0.2233 0.2313 0.2472
v 0.1185 0.0602 0.6635 0.2746 0.2844 0.3040
v 0.0475 0.0813 0.6371 0.3290 0.3408 0.3643
v -0.0144 0.1083 0.6989 0.2115 0.2191 0.2342
v -0.0590 0.0613 0.6046 0.1806 0.1871 0.2000
v -0.1408 0.0390 0.6672 0.2451 0.2539 0.2714
v -0.1334 -0.0294 0.6950 0.0907 0.0940 0.1004
v -0.0587 -0.0539 0.6483 0.0510 0.0528 0.0565
v -0.0267 -0.1290 0.6415 0.0442 0.0457 0.0489
v 0.0430 -0.0866 0.6794 0.1438 0.1490 0.1593
v 0.0832 -0.0483 0.6400 0.1819 0.1884 0.2014
v 0.2745 0.0382 0.4568 0.2497 0.2586 0.2765
v 0.2145 0.1639 0.5534 0.2624 0.2718 0.2905
v 0.0550 0.1711 0.4769 0.3998 0.4141 0.4426
v -0.0817 0.2188 0.4489 0.3413 0.3535 0.3779
v -0.1633 0.1149 0.5057 0.2196 0.2274 0.2431
v -0.3152 0.0328 0.4995 0.1370 0.1419 0.1517
v -0.2628 -0.1070 0.5460 0.0428 0.0444 0.0474
v -0.0927 -0.1276 0.5599 0.0489 0.0506 0.0541
v 0.0056 -0.2335 0.4921 0.0594 0.0615 0.0658
v 0.1339 -0.1687 0.5327 0.1380 0.1429 0.1528
v 0.1828 -0.0669 0.5296 0.2600 0.2692 0.2878
v 0.4613 -0.0610 0.3452 0.1919 0.1988 0.2125
v 0.4210 0.1574 0.4285 0.2716 0.2813 0.3007
v 0.1545 0.1980 0.3906 0.3208 0.3323 0.3552
v 0.0048 0.3328 0.3624 0.3213 0.3328 0.3557
v -0.1483 0.2006 0.3914 0.2656 0.2751 0.2941
v -0.4066 0.1622 0.3951 0.1794 0.1859 0.1987
v -0.4504 -0.0500 0.3712 0.0476 0.0493 0.0527
v -0.2113 -0.1512 0.3943 0.0477 0.0494 0.0528
v -0.1402 -0.3865 0.4147 0.0615 0.0637 0.0681
v 0.1023 -0.3087 0.3973 0.1214 0.1257 0.1344
v 0.2050 -0.1541 0.3587 0.1614 0.1671 0.1787
v 0.5982 -0.0522 0.2740 0.2567 0.2659 0.2842
v 0.4910 0.2102 0.2400 0.3713 0.3846 0.4111
v 0.2211 0.3184 0.2693 0.4257 0.4409 0.4713
v -0.0222 0.4705 0.2936 0.2962 0.3068 0.3280
v -0.2534 0.3060 0.2637 0.2722 0.2819 0.3014
v -0.5876 0.2035 0.2598 0.1810 0.1875 0.2004
v -0.5646 -0.0883 0.2777 0.0494 0.0512 0.0547
v -0.2806 -0.2230 0.2799 0.0480 0.0497 0.0531
v -0.1338 -0.4515 0.2680 0.0501 0.0519 0.0555
v 0.1557 -0.3902 0.2525 0.1014 0.1050 0.1123
v 0.2990 -0.2021 0.2880 0.1359 0.1407 0.1504
v 0.7757 0.0650 0.1297 0.2093 0.2168 0.2318
v 0.5157 0.3457 0.1457 0.4467 0.4627 0.4946
v 0.1740 0.4303 0.1317 0.4008 0.4151 0.4437
v -0.1440 0.4944 0.1285 0.3192 0.3306 0.3534
v -0.3664 0.2935 0.1266 0.2341 0.2425 0.2592
v -0.8102 0.1296 0.1553 0.1805 0.1869 0.1998
v -0.6658 -0.2279 0.1589 0.0490 0.0507 0.0542
v -0.2823 -0.3380 0.1535 0.0437 0.0453 0.0484
v -0.0320 -0.6146 0.1417 0.0583 0.0604 0.0646
v 0.3354 -0.4875 0.1443 0.1649 0.1707 0.1825
v 0.4558 -0.1971 0.1440 0.1886 0.1953 0.2088
v 1.0450 0.0196 0.0000 0.2469 0.2469 0.2527
v 0.7478 0.4267 0.0000 0.4575 0.4575 0.4684
v 0.2896 0.5696 0.0000 0.4575 0.4575 0.4683
v -0.1415 0.7193 0.0000 0.3792 0.3792 0.3882
v -0.4580 0.4277 0.0000 0.2968 0.2968 0.3039
v -1.0581 0.2415 0.0000 0.0739 0.0739 0.0756
v -0.9144 -0.2459 0.0000 0.0300 0.0300 0.0300
v -0.4169 -0.4258 0.0000 0.0300 0.0300 0.0300
v -0.1159 -0.8088 0.0000 0.0300 0.0300 0.0300
v 0.3377 -0.5907 0.0000 0.0324 0.0324 0.0332
v 0.5302 -0.2745 0.0000 0.1867 0.1867 0.1912
v 0.6066 -0.0456 0.1518 0.2041 0.2114 0.2260
v 0.7050 -0.0381 0.1023 0.2696 0.2792 0.2984
v 0.6544 -0.0017 0.1135 0.4427 0.4585 0.4902
v 0.5867 0.0249 0.1086 0.2900 0.3004 0.3211
v 0.5243 -0.0086 0.0978 0.1659 0.1718 0.1836
v 0.5212 -0.0535 0.1092 0.0744 0.0771 0.0824
v 0.5797 -0.0801 0.0924 0.0487 0.0505 0.0540
v 0.6369 -0.0621 0.1083 0.0537 0.0557 0.0595
v 0.8175 -0.0495 0.0504 0.2360 0.2444 0.2613
v 0.7134 0.0281 0.0548 0.3469 0.3593 0.3840
v 0.5841 0.0736 0.0495 0.3086 0.3196 0.3416
v 0.4516 0.0220 0.0588 0.1932 0.2001 0.2139
v 0.4311 -0.0680 0.0488 0.0901 0.0933 0.0998
v 0.5486 -0.1219 0.0574 0.0374 0.0387 0.0414
v 0.6613 -0.0889 0.0572 0.0455 0.0472 0.0504
v 0.9684 -0.0468 0.0000 0.1810 0.1810 0.1853
v 0.7894 0.0854 0.0000 0.4428 0.4428 0.4533
v 0.5517 0.1445 0.0000 0.4138 0.4138 0.4236
v 0.3367 0.0515 0.0000 0.0834 0.0834 0.0854
v 0.2874 -0.1093 0.0000 0.0381 0.0381 0.0390
v 0.5295 -0.1808 0.0000 0.0300 0.0300 0.0300
v 0.7075 -0.1198 0.0000 0.0300 0.0300 0.0300
v 0.3821 0.4845 0.1941 0.2219 0.2298 0.2457
v 0.4289 0.4963 0.1180 0.3578 0.3706 0.3962
v 0.4281 0.5381 0.1453 0.3621 0.3751 0.4009
v 0.3719 0.5716 0.1427 0.3094 0.3204 0.3425
v 0.3302 0.5255 0.1356 0.0947 0.0981 0.1048
v 0.3128 0.4752 0.1407 0.0686 0.0711 0.0760
v 0.3643 0.4428 0.1480 0.0441 0.0457 0.0488
v 0.4230 0.4523 0.1421 0.2168 0.2245 0.2400
v 0.4771 0.4951 0.0688 0.3523 0.3649 0.3900
v 0.4710 0.5808 0.0709 0.3472 0.3596 0.3844
v 0.3562 0.6363 0.0682 0.3030 0.3138 0.3354
v 0.2700 0.5516 0.0700 0.1218 0.1262 0.1349
v 0.2452 0.4496 0.0665 0.0636 0.0658 0.0704
v 0.3452 0.3806 0.0779 0.0406 0.0420 0.0449
v 0.4599 0.4115 0.0763 0.1680 0.1740 0.1860
v 0.5495 0.5102 0.0000 0.4026 0.4026 0.4121
v 0.5008 0.6434 0.0000 0.4455 0.4455 0.4561
v 0.3056 0.7106 0.0000 0.4038 0.4038 0.4134
v 0.1764 0.5666 0.0000 0.0567 0.0567 0.0580
v 0.1377 0.3776 0.0000 0.0300 0.0300 0.0300
v 0.3544 0.3220 0.0000 0.0300 0.0300 0.0300
v 0.5382 0.3619 0.0000 0.1618 0.1618 0.1657
v -0.5062 0.4404 0.1924 0.2207 0.2286 0.2443
v -0.4473 0.4350 0.1359 0.3811 0.3947 0.4219
v -0.4746 0.4722 0.1392 0.3884 0.4023 0.4300
v -0.5133 0.5105 0.1340 0.2346 0.2430 0.2597
v -0.5573 0.4737 0.1219 0.1022 0.1059 0.1132
v -0.5467 0.4263 0.1431 0.0427 0.0442 0.0473
v -0.5262 0.3798 0.1282 0.0470 0.0487 0.0520
v -0.4689 0.3840 0.1346 0.1878 0.1945 0.2080
v -0.3905 0.4597 0.0667 0.3266 0.3382 0.3615
v -0.4544 0.5316 0.0741 0.4046 0.4190 0.4479
v -0.5648 0.5891 0.0672 0.2516 0.2606 0.2786
v -0.6333 0.4794 0.0698 0.1218 0.1262 0.1349
v -0.5864 0.3844 0.0772 0.0464 0.0481 0.0514
v -0.5135 0.3118 0.0620 0.0632 0.0655 0.0700
v -0.4102 0.3545 0.0654 0.1801 0.1865 0.1994
v -0.3137 0.4082 0.0000 0.3808 0.3808 0.3899
v -0.3943 0.5403 0.0000 0.5011 0.5011 0.5130
v -0.5179 0.6761 0.0000 0.4008 0.4008 0.4103
v -0.6688 0.5582 0.0000 0.1604 0.1604 0.1642
v -0.6454 0.4009 0.0000 0.0300 0.0300 0.0300
v -0.5878 0.2421 0.0000 0.0300 0.0300 0.0300
v -0.3923 0.2352 0.0000 0.0467 0.0467 0.0478
v -0.5029 -0.3392 0.1215 0.2243 0.2323 0.2483
v -0.4337 -0.3332 0.0760 0.2983 0.3089 0.3302
v -0.4310 -0.2796 0.0745 0.3925 0.4065 0.4345
v -0.4964 -0.2818 0.0927 0.3487 0.3612 0.3861
v -0.5642 -0.2833 0.0829 0.1498 0.1551 0.1658
v -0.5551 -0.3384 0.0863 0.0462 0.0479 0.0512
v -0.5176 -0.3701 0.0919 0.0513 0.0532 0.0568
v -0.4544 -0.3834 0.0794 0.2094 0.2169 0.2319
v -0.3607 -0.3370 0.0401 0.2924 0.3028 0.3237
v -0.3878 -0.2389 0.0487 0.2923 0.3028 0.3237
v -0.5059 -0.2353 0.0452 0.3095 0.3206 0.3427
v -0.6219 -0.2588 0.0412 0.1760 0.1823 0.1949
v -0.6058 -0.3560 0.0429 0.0593 0.0614 0.0656
v -0.5330 -0.4147 0.0475 0.0440 0.0455 0.0487
v -0.4027 -0.4429 0.0455 0.1616 0.1673 0.1789
v -0.2613 -0.3277 0.0000 0.3471 0.3471 0.3554
v -0.3196 -0.1533 0.0000 0.3912 0.3912 0.4005
v -0.5304 -0.1836 0.0000 0.3989 0.3989 0.4084
v -0.7469 -0.2213 0.0000 0.0848 0.0848 0.0868
v -0.7030 -0.4027 0.0000 0.0331 0.0331 0.0339
v -0.5431 -0.4868 0.0000 0.0300 0.0300 0.0300
v -0.3142 -0.5138 0.0000 0.0405 0.0405 0.0414
v 0.0869 -0.6565 0.1561 0.2189 0.2267 0.2423
v 0.1384 -0.6428 0.0998 0.3635 0.3765 0.4024
v 0.1302 -0.5874 0.1078 0.3217 0.3332 0.3562
v 0.0800 -0.5947 0.1039 0.2565 0.2656 0.2839
v 0.0397 -0.6243 0.0989 0.0949 0.0983 0.1050
v 0.0507 -0.6780 0.1058 0.0445 0.0461 0.0492
v 0.0880 -0.7120 0.0999 0.0661 0.0684 0.0731
v 0.1366 -0.6954 0.1132 0.2163 0.2241 0.2395
v 0.1833 -0.6333 0.0614 0.3616 0.3745 0.4003
v 0.1616 -0.5203 0.0627 0.3258 0.3374 0.3607
v 0.0596 -0.5420 0.0584 0.2870 0.2973 0.3178
v -0.0280 -0.6034 0.0508 0.1560 0.1616 0.1727
v 0.0094 -0.7126 0.0539 0.0383 0.0397 0.0424
v 0.0852 -0.7872 0.0597 0.0752 0.0779 0.0832
v 0.1876 -0.7454 0.0597 0.1906 0.1974 0.2110
v 0.2243 -0.6710 0.0000 0.3566 0.3566 0.3651
v 0.2591 -0.4800 0.0000 0.3986 0.3986 0.4081
v 0.0859 -0.4782 0.0000 0.4017 0.4017 0.4112
v -0.0774 -0.5114 0.0000 0.2388 0.2388 0.2445
v -0.0539 -0.6974 0.0000 0.0300 0.0300 0.0300
v 0.0149 -0.8716 0.0000 0.0300 0.0300 0.0300
v 0.1865 -0.8300 0.0000 0.0447 0.0447 0.0457
vn 0.8429 -0.1853 0.5051
vn -0.1382 0.5583 0.8180
vn 0.7316 0.3712 0.5718
vn -0.8563 -0.1678 0.4884
vn 0.2319 0.7799 0.5814
vn -0.1514 0.3580 0.9213
vn -0.2488 -0.9626 0.1074
vn -0.6556 -0.3411 0.6737
vn 0.4108 -0.8821 0.2306
vn 0.7576 -0.6334 0.1578
vn 0.6921 -0.7126 0.1148
vn 0.7573 -0.1305 0.6399
vn 0.8252 -0.2054 0.5261
vn -0.2291 0.8005 0.5538
vn 0.0760 0.8683 0.4901
vn 0.1977 0.8512 0.4862
vn 0.5561 0.8051 0.2065
vn -0.5614 0.6903 0.4564
vn -0.7298 -0.4083 0.5484
vn -0.3578 0.6091 0.7078
vn -0.1636 0.9773 0.1344
vn -0.6925 -0.0203 0.7211
vn -0.7849 0.1582 0.5991
vn -0.1447 -0.8205 0.5530
vn 0.1224 -0.7848 0.6076
vn -0.2718 -0.6851 0.6758
vn -0.9139 -0.3978 0.0809
vn 0.2073 -0.7799 0.5906
vn 0.1830 -0.8053 0.5640
vn 0.7123 -0.3239 0.6226
vn 0.7337 -0.0752 0.6753
vn 0.7193 -0.1588 0.6764
vn 0.7022 -0.5173 0.4892
vn 0.3868 -0.2655 0.8831
vn 0.4685 -0.3870 0.7942
vn 0.1265 0.9792 0.1588
vn -0.0650 0.9715 0.2278
vn 0.4203 0.6076 0.6739
vn 0.0388 0.5855 0.8097
vn -0.5511 0.7279 0.4079
vn -0.5713 0.6908 0.4431
vn -0.1108 0.8021 0.5868
vn -0.2879 0.4701 0.8343
vn -0.7082 0.0671 0.7028
vn -0.6838 -0.0142 0.7295
vn -0.3968 -0.9087 0.1297
vn -0.1357 -0.9627 0.2340
vn -0.7859 -0.1864 0.5896
vn 0.0619 -0.4968 0.8656
vn 0.2515 -0.6169 0.7458
vn 0.1355 -0.7043 0.6969
vn 0.8276 -0.4754 0.2986
vn 0.8583 -0.4033 0.3172
vn 0.3241 -0.8250 0.4629
vn 0.5482 0.0973 0.8306
vn 0.4273 0.2857 0.8578
vn 0.9335 0.0361 0.3568
vn 0.3795 0.8447 0.3774
vn 0.0073 0.7078 0.7064
vn 0.4049 0.5281 0.7465
vn 0.2667 0.4718 0.8404
vn -0.3657 0.3572 0.8595
vn -0.3453 0.5645 0.7497
vn -0.2114 0.6615 0.7196
vn -0.1259 0.8895 0.4392
vn -0.5986 0.0023 0.8011
vn -0.6419 0.0463 0.7653
vn -0.3228 -0.6699 0.6686
vn -0.3507 -0.6828 0.6410
vn -0.6234 -0.4344 0.6502
vn -0.9559 -0.2818 0.0830
vn 0.2103 -0.8903 0.4039
vn 0.2908 -0.7840 0.5484
vn 0.6129 -0.5703 0.5469
vn 0.5425 -0.1543 0.8258
vn 0.3089 -0.5441 0.7801
vn 0.3171 -0.7984 0.5118
vn 0.4359 0.3569 0.8262
vn 0.6477 0.3522 0.6756
vn 0.1038 0.5556 0.8250
vn 0.3674 0.7791 0.5080
vn 0.1536 0.7916 0.5914
vn 0.4962 0.8328 -0.2453
vn -0.5765 0.6333 0.5164
vn -0.5654 0.7212 0.4004
vn -0.3295 0.9254 0.1874
vn -0.2923 0.9549 -0.0521
vn -0.3804 -0.1445 0.9135
vn -0.7505 -0.0183 0.6607
vn -0.1534 -0.5737 0.8046
vn -0.3343 -0.6947 0.6369
vn -0.6147 -0.5792 0.5355
vn -0.8406 -0.5412 0.0216
vn 0.1779 -0.5307 0.8287
vn 0.1657 -0.5807 0.7971
vn 0.4344 -0.1796 0.8826
vn 0.5736 -0.5515 0.6057
vn 0.5382 -0.6258 0.5646
vn 0.4334 -0.8822 -0.1840
vn 0.4543 0.3316 0.8268
vn 0.4140 0.3355 0.8462
vn 0.2099 0.6733 0.7089
vn 0.1235 0.6258 0.7701
vn 0.2014 0.5796 0.7896
vn 0.0906 0.4932 0.8652
vn -0.4182 0.4539 0.7868
vn -0.4182 0.4555 0.7859
vn -0.1872 0.6032 0.7753
vn -0.1851 0.6332 0.7515
vn -0.5773 -0.1703 0.7986
vn -0.5173 -0.2007 0.8319
vn -0.2866 -0.7926 0.5382
vn -0.2092 -0.7586 0.6170
vn -0.5443 -0.4277 0.7216
vn -0.4165 -0.4115 0.8107
vn 0.3098 -0.6441 0.6994
vn 0.2667 -0.7819 0.5635
vn 0.7970 -0.4852 0.3597
vn 0.7632 -0.3162 0.5635
vn 0.4021 -0.7040 0.5854
vn 0.3489 -0.3789 0.8571
vn 0.4089 0.3059 0.8598
vn 0.1565 0.5478 0.8218
vn -0.3643 0.4096 0.8364
vn -0.4503 0.2489 0.8575
vn -0.2047 -0.8026 0.5603
vn 0.1548 -0.8826 0.4439
vn 0.3240 -0.7869 0.5251
vn 0.4045 0.4986 0.7666
vn 0.4951 0.4641 0.7345
vn 0.2374 0.7479 0.6199
vn 0.2524 0.7523 0.6086
vn -0.2454 0.7428 0.6229
vn -0.3319 0.3346 0.8820
vn -0.4697 0.0083 0.8828
vn -0.5673 0.2393 0.7880
vn -0.3477 -0.6511 0.6747
vn -0.0563 -0.6175 0.7846
vn 0.2101 -0.7162 0.6655
vn 0.1274 -0.8520 0.5077
vn 0.2287 -0.8128 0.5357
vn 0.2803 -0.6100 0.7412
vn 0.2857 0.3872 0.8766
vn 0.3275 0.3900 0.8606
vn 0.1438 0.5784 0.8030
vn 0.1860 0.6185 0.7634
vn -0.2129 0.4923 0.8440
vn -0.2041 0.6555 0.7271
vn -0.4251 0.1302 0.8957
vn -0.3122 -0.0349 0.9494
vn -0.1470 -0.4980 0.8546
vn -0.3289 -0.6018 0.7278
vn 0.2454 -0.7159 0.6536
vn 0.2257 -0.7698 0.5970
vn 0.2169 -0.7755 0.5930
vn 0.2185 -0.7588 0.6135
vn 0.8346 -0.2887 0.4691
vn 0.2688 0.5127 0.8154
vn -0.5450 0.3776 0.7486
vn -0.6087 0.2851 0.7404
vn -0.4538 -0.5667 0.6877
vn 0.1859 -0.7632 0.6188
vn 0.8250 0.1806 0.5356
vn 0.7147 0.0341 0.6986
vn 0.8944 -0.2314 0.3828
vn 0.3345 0.7211 0.6068
vn 0.4101 0.7297 0.5472
vn -0.5485 0.5708 0.6111
vn -0.5809 0.4179 0.6985
vn -0.6996 0.1464 0.6994
vn -0.7529 0.3183 0.5761
vn -0.4828 -0.5930 0.6444
vn -0.4665 -0.5945 0.6549
vn 0.2129 -0.7589 0.6154
vn 0.1866 -0.7844 0.5915
vn 0.8311 -0.1225 0.5425
vn 0.6909 0.2722 0.6698
vn 0.6433 0.2355 0.7285
vn 0.9027 0.0541 0.4269
vn 0.2335 0.6781 0.6969
vn 0.3504 0.7516 0.5589
vn -0.4584 0.4112 0.7879
vn -0.4692 0.4928 0.7328
vn -0.5823 0.1193 0.8042
vn -0.5763 0.1126 0.8095
vn -0.1410 -0.5497 0.8234
vn -0.5382 -0.7029 0.4651
vn 0.1691 -0.7780 0.6052
vn 0.2016 -0.7140 0.6705
vn 0.6798 -0.0517 0.7316
vn 0.6953 -0.0791 0.7144
vn 0.6474 0.4195 0.6363
vn 0.4925 0.5857 0.6437
vn -0.5845 0.4833 0.6517
vn -0.7826 0.1007 0.6143
vn -0.6102 -0.4728 0.6357
vn -0.0244 -0.7234 0.6900
vn 0.6472 -0.2929 0.7038
vn 0.5968 0.4631 0.6552
vn 0.6663 0.4361 0.6049
vn 0.2991 0.6567 0.6922
vn 0.6430 0.6945 0.3229
vn -0.5107 0.3375 0.7907
vn -0.5110 0.3516 0.7844
vn -0.5632 -0.2156 0.7977
vn -0.8651 0.0314 0.5007
vn -0.4587 -0.5983 0.6570
vn -0.8244 -0.4663 0.3209
vn 0.2459 -0.6522 0.7171
vn 0.0216 -0.9131 0.4072
vn 0.7235 -0.1437 0.6752
vn 0.7824 -0.3457 0.5180
vn 0.7382 0.4504 0.5022
vn 0.6386 0.5083 0.5777
vn 0.6119 0.5568 0.5618
vn 0.2193 0.5198 0.8257
vn -0.5300 0.6785 0.5087
vn -0.5789 0.3786 0.7222
vn -0.9372 -0.1395 0.3196
vn -0.7799 -0.3442 0.5227
vn -0.7897 -0.2866 0.5425
vn -0.2776 -0.4560 0.8456
vn -0.0229 -0.6505 0.7591
vn 0.1595 -0.4560 0.8756
vn 0.6424 -0.2919 0.7086
vn 0.6025 -0.1224 0.7887
vn 0.5502 -0.0050 0.8350
vn 0.2309 0.4154 0.8798
vn -0.1369 0.4566 0.8791
vn -0.5591 -0.0420 0.8280
vn -0.4999 -0.4648 0.7308
vn -0.0047 -0.6921 0.7217
vn 0.5521 -0.1715 0.8159
vn 0.4428 0.0434 0.8956
vn 0.5145 -0.0026 0.8575
vn -0.0087 0.5419 0.8404
vn 0.1633 0.7218 0.6726
vn -0.1639 0.6889 0.7061
vn -0.1055 0.7872 0.6076
vn -0.6082 -0.0866 0.7890
vn -0.6373 -0.0586 0.7684
vn -0.4534 -0.5048 0.7346
vn -0.5246 -0.5017 0.6879
vn -0.1352 -0.6744 0.7259
vn 0.0833 -0.4376 0.8953
vn 0.4370 -0.1273 0.8904
vn 0.4334 -0.1174 0.8935
vn 0.3616 0.1209 0.9244
vn 0.5214 0.0691 0.8505
vn -0.0775 0.5391 0.8387
vn -0.0026 0.6571 0.7538
vn -0.1086 0.6243 0.7736
vn -0.1311 0.5014 0.8552
vn -0.3336 -0.0807 0.9393
vn -0.3842 -0.0472 0.9220
vn -0.2066 -0.3929 0.8961
vn -0.4188 -0.4580 0.7841
vn -0.0639 -0.5426 0.8376
vn -0.1283 -0.6446 0.7537
vn 0.3844 -0.1093 0.9167
vn 0.3804 -0.1034 0.9190
vn 0.7362 0.0116 0.6767
vn -0.1505 0.6280 0.7635
vn -0.4794 0.5343 0.6963
vn -0.7914 -0.0833 0.6056
vn -0.4772 -0.6296 0.6131
vn 0.0498 -0.7097 0.7027
vn 0.7109 0.1502 0.6871
vn 0.6325 0.1124 0.7663
vn 0.7975 0.0314 0.6025
vn -0.1607 0.6018 0.7823
vn -0.1492 0.6128 0.7760
vn -0.4149 0.4976 0.7618
vn -0.4242 0.4435 0.7895
vn -0.6065 -0.1855 0.7731
vn -0.7570 -0.0707 0.6495
vn -0.5140 -0.4665 0.7199
vn -0.2728 -0.4461 0.8524
vn 0.1915 -0.4686 0.8624
vn 0.0481 -0.7071 0.7055
vn 0.7318 0.0181 0.6813
vn 0.6191 0.1734 0.7659
vn 0.7807 -0.1422 0.6085
vn 0.5129 0.0884 0.8539
vn 0.0085 0.8349 0.5504
vn -0.1784 0.7034 0.6881
vn -0.1420 0.6996 0.7003
vn -0.3075 0.3279 0.8933
vn -0.7981 -0.1008 0.5940
vn -0.6626 -0.2062 0.7200
vn -0.6614 -0.2613 0.7030
vn -0.3715 -0.3096 0.8753
vn 0.1588 -0.6551 0.7387
vn 0.2300 -0.5631 0.7938
vn 0.9296 -0.2207 0.2953
vn 0.8384 0.0242 0.5446
f 1//1 2//1 3//1
f 1//2 3//2 4//2
f 1//3 4//3 5//3
f 1//4 5//4 6//4
f 1//5 6//5 7//5
f 1//6 7//6 8//6
f 1//7 8//7 9//7
f 1//8 9//8 10//8
f 1//9 10//9 11//9
f 1//10 11//10 12//10
f 1//11 12//11 2//11
f 2//12 13//12 14//12
f 2//13 14//13 3//13
f 3//14 14//14 15//14
f 3//15 15//15 4//15
f 4//16 15//16 16//16
f 4//17 16//17 5//17
f 5//18 16//18 17//18
f 5//19 17//19 6//19
f 6//20 17//20 18//20
f 6//21 18//21 7//21
f 7//22 18//22 19//22
f 7//23 19//23 8//23
f 8//24 19//24 20//24
f 8//25 20//25 9//25
f 9//26 20//26 21//26
f 9//27 21//27 10//27
f 10//28 21//28 22//28
f 10//29 22//29 11//29
f 11//30 22//30 23//30
f 11//31 23//31 12//31
f 12//32 23//32 13//32
f 12//33 13//33 2//33
f 13//34 24//34 25//34
f 13//35 25//35 14//35
f 14//36 25//36 26//36
f 14//37 26//37 15//37
f 15//38 26//38 27//38
f 15//39 27//39 16//39
f 16//40 27//40 28//40
f 16//41 28//41 17//41
f 17//42 28//42 29//42
f 17//43 29//43 18//43
f 18//44 29//44 30//44
f 18//45 30//45 19//45
f 19//46 30//46 31//46
f 19//47 31//47 20//47
f 20//48 31//48 32//48
f 20//49 32//49 21//49
f 21//50 32//50 33//50
f 21//51 33//51 22//51
f 22//52 33//52 34//52
f 22//53 34//53 23//53
f 23//54 34//54 24//54
f 23//55 24//55 13//55
f 24//56 35//56 36//56
f 24//57 36//57 25//57
f 25//58 36//58 37//58
f 25//59 37//59 26//59
f 26//60 37//60 38//60
f 26//61 38//61 27//61
f 27//62 38//62 39//62
f 27//63 39//63 28//63
f 28//64 39//64 40//64
f 28//65 40//65 29//65
f 29//66 40//66 41//66
f 29//67 41//67 30//67
f 30//68 41//68 42//68
f 30//69 42//69 31//69
f 31//70 42//70 43//70
f 31//71 43//71 32//71
f 32//72 43//72 44//72
f 32//73 44//73 33//73
f 33//74 44//74 45//74
f 33//75 45//75 34//75
f 34//76 45//76 35//76
f 34//77 35//77 24//77
f 35//78 46//78 47//78
f 35//79 47//79 36//79
f 36//80 47//80 48//80
f 36//81 48//81 37//81
f 37//82 48//82 49//82
f 37//83 49//83 38//83
f 38//84 49//84 50//84
f 38//85 50//85 39//85
f 39//86 50//86 51//86
f 39//87 51//87 40//87
f 40//88 51//88 52//88
f 40//89 52//89 41//89
f 41//90 52//90 53//90
f 41//91 53//91 42//91
f 42//92 53//92 54//92
f 42//93 54//93 43//93
f 43//94 54//94 55//94
f 43//95 55//95 44//95
f 44//96 55//96 56//96
f 44//97 56//97 45//97
f 45//98 56//98 46//98
f 45//99 46//99 35//99
f 46//100 57//100 58//100
f 46//101 58//101 47//101
f 47//102 58//102 59//102
f 47//103 59//103 48//103
f 48//104 59//104 60//104
f 48//105 60//105 49//105
f 49//106 60//106 61//106
f 49//107 61//107 50//107
f 50//108 61//108 62//108
f 50//109 62//109 51//109
f 51//110 62//110 63//110
f 51//111 63//111 52//111
f 52//112 63//112 64//112
f 52//113 64//113 53//113
f 53//114 64//114 65//114
f 53//115 65//115 54//115
f 54//116 65//116 66//116
f 54//117 66//117 55//117
f 55//118 66//118 67//118
f 55//119 67//119 56//119
f 56//120 67//120 57//120
f 56//121 57//121 46//121
f 68//122 69//122 70//122
f 68//123 70//123 71//123
f 68//124 71//124 72//124
f 68//125 72//125 73//125
f 68//126 73//126 74//126
f 68//127 74//127 75//127
f 68//128 75//128 69//128
f 69//129 76//129 77//129
f 69//130 77//130 70//130
f 70//131 77//131 78//131
f 70//132 78//132 71//132
f 71//133 78//133 79//133
f 71//134 79//134 72//134
f 72//135 79//135 80//135
f 72//136 80//136 73//136
f 73//137 80//137 81//137
f 73//138 81//138 74//138
f 74//139 81//139 82//139
f 74//140 82//140 75//140
f 75//141 82//141 76//141
f 75//142 76//142 69//142
f 76//143 83//143 84//143
f 76//144 84//144 77//144
f 77//145 84//145 85//145
f 77//146 85//146 78//146
f 78//147 85//147 86//147
f 78//148 86//148 79//148
f 79//149 86//149 87//149
f 79//150 87//150 80//150
f 80//151 87//151 88//151
f 80//152 88//152 81//152
f 81//153 88//153 89//153
f 81//154 89//154 82//154
f 82//155 89//155 83//155
f 82//156 83//156 76//156
f 90//157 91//157 92//157
f 90//158 92//158 93//158
f 90//159 93//159 94//159
f 90//160 94//160 95//160
f 90//161 95//161 96//161
f 90//162 96//162 97//162
f 90//163 97//163 91//163
f 91//164 98//164 99//164
f 91//165 99//165 92//165
f 92//166 99//166 100//166
f 92//167 100//167 93//167
f 93//168 100//168 101//168
f 93//169 101//169 94//169
f 94//170 101//170 102//170
f 94//171 102//171 95//171
f 95//172 102//172 103//172
f 95//173 103//173 96//173
f 96//174 103//174 104//174
f 96//175 104//175 97//175
f 97//176 104//176 98//176
f 97//177 98//177 91//177
f 98//178 105//178 106//178
f 98//179 106//179 99//179
f 99//180 106//180 107//180
f 99//181 107//181 100//181
f 100//182 107//182 108//182
f 100//183 108//183 101//183
f 101//184 108//184 109//184
f 101//185 109//185 102//185
f 102//186 109//186 110//186
f 102//187 110//187 103//187
f 103//188 110//188 111//188
f 103//189 111//189 104//189
f 104//190 111//190 105//190
f 104//191 105//191 98//191
f 112//192 113//192 114//192
f 112//193 114//193 115//193
f 112//194 115//194 116//194
f 112//195 116//195 117//195
f 112//196 117//196 118//196
f 112//197 118//197 119//197
f 112//198 119//198 113//198
f 113//199 120//199 121//199
f 113//200 121//200 114//200
f 114//201 121//201 122//201
f 114//202 122//202 115//202
f 115//203 122//203 123//203
f 115//204 123//204 116//204
f 116//205 123//205 124//205
f 116//206 124//206 117//206
f 117//207 124//207 125//207
f 117//208 125//208 118//208
f 118//209 125//209 126//209
f 118//210 126//210 119//210
f 119//211 126//211 120//211
f 119//212 120//212 113//212
f 120//213 127//213 128//213
f 120//214 128//214 121//214
f 121//215 128//215 129//215
f 121//216 129//216 122//216
f 122//217 129//217 130//217
f 122//218 130//218 123//218
f 123//219 130//219 131//219
f 123//220 131//220 124//220
f 124//221 131//221 132//221
f 124//222 132//222 125//222
f 125//223 132//223 133//223
f 125//224 133//224 126//224
f 126//225 133//225 127//225
f 126//226 127//226 120//226
f 134//227 135//227 136//227
f 134//228 136//228 137//228
f 134//229 137//229 138//229
f 134//230 138//230 139//230
f 134//231 139//231 140//231
f 134//232 140//232 141//232
f 134//233 141//233 135//233
f 135//234 142//234 143//234
f 135//235 143//235 136//235
f 136//236 143//236 144//236
f 136//237 144//237 137//237
f 137//238 144//238 145//238
f 137//239 145//239 138//239
f 138//240 145//240 146//240
f 138//241 146//241 139//241
f 139//242 146//242 147//242
f 139//243 147//243 140//243
f 140//244 147//244 148//244
f 140//245 148//245 141//245
f 141//246 148//246 142//246
f 141//247 142//247 135//247
f 142//248 149//248 150//248
f 142//249 150//249 143//249
f 143//250 150//250 151//250
f 143//251 151//251 144//251
f 144//252 151//252 152//252
f 144//253 152//253 145//253
f 145//254 152//254 153//254
f 145//255 153//255 146//255
f 146//256 153//256 154//256
f 146//257 154//257 147//257
f 147//258 154//258 155//258
f 147//259 155//259 148//259
f 148//260 155//260 149//260
f 148//261 149//261 142//261
f 156//262 157//262 158//262
f 156//263 158//263 159//263
f 156//264 159//264 160//264
f 156//265 160//265 161//265
f 156//266 161//266 162//266
f 156//267 162//267 163//267
f 156//268 163//268 157//268
f 157//269 164//269 165//269
f 157//270 165//270 158//270
f 158//271 165//271 166//271
f 158//272 166//272 159//272
f 159//273 166//273 167//273
f 159//274 167//274 160//274
f 160//275 167//275 168//275
f 160//276 168//276 161//276
f 161//277 168//277 169//277
f 161//278 169//278 162//278
f 162//279 169//279 170//279
f 162//280 170//280 163//280
f 163//281 170//281 164//281
f 163//282 164//282 157//282
f 164//283 171//283 172//283
f 164//284 172//284 165//284
f 165//285 172//285 173//285
f 165//286 173//286 166//286
f 166//287 173//287 174//287
f 166//288 174//288 167//288
f 167//289 174//289 175//289
f 167//290 175//290 168//290
f 168//291 175//291 176//291
f 168//292 176//292 169//292
f 169//293 176//293 177//293
f 169//294 177//294 170//294
f 170//295 177//295 171//295
f 170//296 171//296 164//296
