# Deep Lunar South-Pole Umbra Shadows
o lunar_deep_shadows
v 3.1742 1.4370 0.1898 0.0100 0.0100 0.0150
v 4.2622 1.4370 0.3066 0.0100 0.0100 0.0150
v 4.2732 1.5608 0.3217 0.0100 0.0100 0.0150
v 4.2680 1.6866 0.3354 0.0100 0.0100 0.0150
v 4.2446 1.8115 0.3469 0.0100 0.0100 0.0150
v 4.2022 1.9321 0.3579 0.0100 0.0100 0.0150
v 4.1412 2.0446 0.3684 0.0100 0.0100 0.0150
v 4.0631 2.1459 0.3762 0.0100 0.0100 0.0150
v 3.9707 2.2335 0.3813 0.0100 0.0100 0.0150
v 3.8673 2.3061 0.3837 0.0100 0.0100 0.0150
v 3.7563 2.3634 0.3835 0.0100 0.0100 0.0150
v 3.6410 2.4063 0.3811 0.0100 0.0100 0.0150
v 3.5240 2.4366 0.3767 0.0100 0.0100 0.0150
v 3.4068 2.4562 0.3706 0.0100 0.0100 0.0150
v 3.2903 2.4671 0.3631 0.0100 0.0100 0.0150
v 3.1742 2.4706 0.3543 0.0100 0.0100 0.0150
v 3.0581 2.4671 0.3387 0.0100 0.0100 0.0150
v 2.9416 2.4562 0.3177 0.0100 0.0100 0.0150
v 2.8244 2.4366 0.2949 0.0100 0.0100 0.0150
v 2.7074 2.4063 0.2703 0.0100 0.0100 0.0150
v 2.5921 2.3634 0.2436 0.0100 0.0100 0.0150
v 2.4811 2.3061 0.2152 0.0100 0.0100 0.0150
v 2.3777 2.2335 0.1854 0.0100 0.0100 0.0150
v 2.2852 2.1459 0.1549 0.0100 0.0100 0.0150
v 2.2072 2.0446 0.1245 0.0100 0.0100 0.0150
v 2.1462 1.9321 0.0949 0.0100 0.0100 0.0150
v 2.1038 1.8115 0.0761 0.0100 0.0100 0.0150
v 2.0804 1.6866 0.0683 0.0100 0.0100 0.0150
v 2.0752 1.5608 0.0632 0.0100 0.0100 0.0150
v 2.0862 1.4370 0.0602 0.0100 0.0100 0.0150
v 2.1109 1.3172 0.0588 0.0100 0.0100 0.0150
v 2.1465 1.2024 0.0583 0.0100 0.0100 0.0150
v 2.1907 1.0929 0.0583 0.0100 0.0100 0.0150
v 2.2417 0.9879 0.0586 0.0100 0.0100 0.0150
v 2.2987 0.8869 0.0588 0.0100 0.0100 0.0150
v 2.3619 0.7892 0.0590 0.0100 0.0100 0.0150
v 2.4321 0.6949 0.0591 0.0100 0.0100 0.0150
v 2.5106 0.6048 0.0597 0.0100 0.0100 0.0150
v 2.5986 0.5209 0.0623 0.0100 0.0100 0.0150
v 2.6969 0.4458 0.0651 0.0100 0.0100 0.0150
v 2.8053 0.3827 0.0682 0.0100 0.0100 0.0150
v 2.9226 0.3348 0.0720 0.0100 0.0100 0.0150
v 3.0466 0.3048 0.0765 0.0100 0.0100 0.0150
v 3.1742 0.2946 0.0848 0.0100 0.0100 0.0150
v 3.3018 0.3048 0.0984 0.0100 0.0100 0.0150
v 3.4258 0.3348 0.1130 0.0100 0.0100 0.0150
v 3.5431 0.3827 0.1280 0.0100 0.0100 0.0150
v 3.6515 0.4458 0.1430 0.0100 0.0100 0.0150
v 3.7498 0.5209 0.1576 0.0100 0.0100 0.0150
v 3.8378 0.6048 0.1717 0.0100 0.0100 0.0150
v 3.9163 0.6949 0.1884 0.0100 0.0100 0.0150
v 3.9865 0.7892 0.2058 0.0100 0.0100 0.0150
v 4.0497 0.8869 0.2230 0.0100 0.0100 0.0150
v 4.1067 0.9879 0.2400 0.0100 0.0100 0.0150
v 4.1577 1.0929 0.2570 0.0100 0.0100 0.0150
v 4.2018 1.2024 0.2738 0.0100 0.0100 0.0150
v 4.2375 1.3172 0.2905 0.0100 0.0100 0.0150
v 6.8672 -4.7212 0.4035 0.0100 0.0100 0.0150
v 7.8532 -4.7212 0.5170 0.0100 0.0100 0.0150
v 7.8632 -4.6090 0.5044 0.0100 0.0100 0.0150
v 7.8585 -4.4949 0.4898 0.0100 0.0100 0.0150
v 7.8373 -4.3817 0.4737 0.0100 0.0100 0.0150
v 7.7989 -4.2725 0.4516 0.0100 0.0100 0.0150
v 7.7436 -4.1705 0.4292 0.0100 0.0100 0.0150
v 7.6728 -4.0787 0.4075 0.0100 0.0100 0.0150
v 7.5891 -3.9993 0.3873 0.0100 0.0100 0.0150
v 7.4953 -3.9336 0.3689 0.0100 0.0100 0.0150
v 7.3948 -3.8816 0.3526 0.0100 0.0100 0.0150
v 7.2903 -3.8427 0.3384 0.0100 0.0100 0.0150
v 7.1842 -3.8153 0.3260 0.0100 0.0100 0.0150
v 7.0781 -3.7975 0.3152 0.0100 0.0100 0.0150
v 6.9724 -3.7876 0.3056 0.0100 0.0100 0.0150
v 6.8672 -3.7845 0.2968 0.0100 0.0100 0.0150
v 6.7620 -3.7876 0.2862 0.0100 0.0100 0.0150
v 6.6564 -3.7975 0.2763 0.0100 0.0100 0.0150
v 6.5502 -3.8153 0.2670 0.0100 0.0100 0.0150
v 6.4442 -3.8427 0.2584 0.0100 0.0100 0.0150
v 6.3397 -3.8816 0.2507 0.0100 0.0100 0.0150
v 6.2391 -3.9336 0.2440 0.0100 0.0100 0.0150
v 6.1454 -3.9993 0.2386 0.0100 0.0100 0.0150
v 6.0616 -4.0787 0.2346 0.0100 0.0100 0.0150
v 5.9909 -4.1705 0.2323 0.0100 0.0100 0.0150
v 5.9356 -4.2725 0.2319 0.0100 0.0100 0.0150
v 5.8972 -4.3817 0.2336 0.0100 0.0100 0.0150
v 5.8760 -4.4949 0.2363 0.0100 0.0100 0.0150
v 5.8713 -4.6090 0.2414 0.0100 0.0100 0.0150
v 5.8812 -4.7212 0.2486 0.0100 0.0100 0.0150
v 5.9036 -4.8297 0.2577 0.0100 0.0100 0.0150
v 5.9359 -4.9337 0.2686 0.0100 0.0100 0.0150
v 5.9760 -5.0330 0.2808 0.0100 0.0100 0.0150
v 6.0222 -5.1281 0.2943 0.0100 0.0100 0.0150
v 6.0738 -5.2197 0.3089 0.0100 0.0100 0.0150
v 6.1311 -5.3082 0.3249 0.0100 0.0100 0.0150
v 6.1947 -5.3937 0.3424 0.0100 0.0100 0.0150
v 6.2658 -5.4753 0.3616 0.0100 0.0100 0.0150
v 6.3456 -5.5514 0.3827 0.0100 0.0100 0.0150
v 6.4347 -5.6194 0.4056 0.0100 0.0100 0.0150
v 6.5329 -5.6766 0.4271 0.0100 0.0100 0.0150
v 6.6393 -5.7200 0.4499 0.0100 0.0100 0.0150
v 6.7516 -5.7472 0.4736 0.0100 0.0100 0.0150
v 6.8672 -5.7565 0.4975 0.0100 0.0100 0.0150
v 6.9828 -5.7472 0.5129 0.0100 0.0100 0.0150
v 7.0952 -5.7200 0.5269 0.0100 0.0100 0.0150
v 7.2016 -5.6766 0.5402 0.0100 0.0100 0.0150
v 7.2998 -5.6194 0.5520 0.0100 0.0100 0.0150
v 7.3889 -5.5514 0.5566 0.0100 0.0100 0.0150
v 7.4687 -5.4753 0.5587 0.0100 0.0100 0.0150
v 7.5398 -5.3937 0.5587 0.0100 0.0100 0.0150
v 7.6034 -5.3082 0.5571 0.0100 0.0100 0.0150
v 7.6606 -5.2197 0.5540 0.0100 0.0100 0.0150
v 7.7123 -5.1281 0.5495 0.0100 0.0100 0.0150
v 7.7585 -5.0330 0.5438 0.0100 0.0100 0.0150
v 7.7985 -4.9337 0.5366 0.0100 0.0100 0.0150
v 7.8309 -4.8297 0.5278 0.0100 0.0100 0.0150
v 7.2696 4.2815 0.2079 0.0100 0.0100 0.0150
v 8.2896 4.2815 -0.0040 0.0100 0.0100 0.0150
v 8.2999 4.3976 0.0119 0.0100 0.0100 0.0150
v 8.2950 4.5156 0.0271 0.0100 0.0100 0.0150
v 8.2731 4.6327 0.0453 0.0100 0.0100 0.0150
v 8.2333 4.7457 0.0663 0.0100 0.0100 0.0150
v 8.1761 4.8512 0.0895 0.0100 0.0100 0.0150
v 8.1029 4.9462 0.1148 0.0100 0.0100 0.0150
v 8.0163 5.0283 0.1421 0.0100 0.0100 0.0150
v 7.9193 5.0963 0.1694 0.0100 0.0100 0.0150
v 7.8153 5.1500 0.1963 0.0100 0.0100 0.0150
v 7.7072 5.1903 0.2222 0.0100 0.0100 0.0150
v 7.5975 5.2187 0.2470 0.0100 0.0100 0.0150
v 7.4877 5.2371 0.2705 0.0100 0.0100 0.0150
v 7.3784 5.2473 0.2930 0.0100 0.0100 0.0150
v 7.2696 5.2505 0.3147 0.0100 0.0100 0.0150
v 7.1607 5.2473 0.3356 0.0100 0.0100 0.0150
v 7.0515 5.2371 0.3560 0.0100 0.0100 0.0150
v 6.9416 5.2187 0.3758 0.0100 0.0100 0.0150
v 6.8319 5.1903 0.3923 0.0100 0.0100 0.0150
v 6.7238 5.1500 0.4040 0.0100 0.0100 0.0150
v 6.6198 5.0963 0.4144 0.0100 0.0100 0.0150
v 6.5228 5.0283 0.4229 0.0100 0.0100 0.0150
v 6.4362 4.9462 0.4292 0.0100 0.0100 0.0150
v 6.3630 4.8512 0.4329 0.0100 0.0100 0.0150
v 6.3058 4.7457 0.4339 0.0100 0.0100 0.0150
v 6.2660 4.6327 0.4319 0.0100 0.0100 0.0150
v 6.2441 4.5156 0.4269 0.0100 0.0100 0.0150
v 6.2392 4.3976 0.4192 0.0100 0.0100 0.0150
v 6.2496 4.2815 0.4025 0.0100 0.0100 0.0150
v 6.2727 4.1692 0.3826 0.0100 0.0100 0.0150
v 6.3061 4.0617 0.3613 0.0100 0.0100 0.0150
v 6.3476 3.9589 0.3390 0.0100 0.0100 0.0150
v 6.3954 3.8606 0.3160 0.0100 0.0100 0.0150
v 6.4488 3.7658 0.2922 0.0100 0.0100 0.0150
v 6.5080 3.6742 0.2675 0.0100 0.0100 0.0150
v 6.5738 3.5858 0.2417 0.0100 0.0100 0.0150
v 6.6474 3.5014 0.2147 0.0100 0.0100 0.0150
v 6.7299 3.4227 0.1865 0.0100 0.0100 0.0150
v 6.8221 3.3523 0.1573 0.0100 0.0100 0.0150
v 6.9237 3.2932 0.1268 0.0100 0.0100 0.0150
v 7.0337 3.2482 0.0957 0.0100 0.0100 0.0150
v 7.1500 3.2201 0.0658 0.0100 0.0100 0.0150
v 7.2696 3.2105 0.0381 0.0100 0.0100 0.0150
v 7.3891 3.2201 0.0135 0.0100 0.0100 0.0150
v 7.5054 3.2482 -0.0074 0.0100 0.0100 0.0150
v 7.6154 3.2932 -0.0242 0.0100 0.0100 0.0150
v 7.7170 3.3523 -0.0369 0.0100 0.0100 0.0150
v 7.8092 3.4227 -0.0456 0.0100 0.0100 0.0150
v 7.8917 3.5014 -0.0508 0.0100 0.0100 0.0150
v 7.9653 3.5858 -0.0531 0.0100 0.0100 0.0150
v 8.0311 3.6742 -0.0529 0.0100 0.0100 0.0150
v 8.0903 3.7658 -0.0508 0.0100 0.0100 0.0150
v 8.1437 3.8606 -0.0462 0.0100 0.0100 0.0150
v 8.1916 3.9589 -0.0386 0.0100 0.0100 0.0150
v 8.2330 4.0617 -0.0294 0.0100 0.0100 0.0150
v 8.2664 4.1692 -0.0180 0.0100 0.0100 0.0150
v 14.7411 11.7827 -0.1119 0.0100 0.0100 0.0150
v 18.2771 11.7827 -0.0764 0.0100 0.0100 0.0150
v 18.3129 12.1851 -0.0519 0.0100 0.0100 0.0150
v 18.2959 12.5941 -0.0269 0.0100 0.0100 0.0150
v 18.2200 13.0000 -0.0074 0.0100 0.0100 0.0150
v 18.0822 13.3917 0.0133 0.0100 0.0100 0.0150
v 17.8839 13.7574 0.0332 0.0100 0.0100 0.0150
v 17.6302 14.0867 0.0471 0.0100 0.0100 0.0150
v 17.3299 14.3714 0.0552 0.0100 0.0100 0.0150
v 16.9936 14.6072 0.0564 0.0100 0.0100 0.0150
v 16.6329 14.7935 0.0628 0.0100 0.0100 0.0150
v 16.2583 14.9331 0.0689 0.0100 0.0100 0.0150
v 15.8779 15.0315 0.0711 0.0100 0.0100 0.0150
v 15.4972 15.0953 0.0741 0.0100 0.0100 0.0150
v 15.1183 15.1306 0.0823 0.0100 0.0100 0.0150
v 14.7411 15.1419 0.0879 0.0100 0.0100 0.0150
v 14.3639 15.1306 0.0915 0.0100 0.0100 0.0150
v 13.9850 15.0953 0.0971 0.0100 0.0100 0.0150
v 13.6043 15.0315 0.1012 0.0100 0.0100 0.0150
v 13.2240 14.9331 0.1043 0.0100 0.0100 0.0150
v 12.8493 14.7935 0.1021 0.0100 0.0100 0.0150
v 12.4886 14.6072 0.0971 0.0100 0.0100 0.0150
v 12.1524 14.3714 0.0912 0.0100 0.0100 0.0150
v 11.8520 14.0867 0.0869 0.0100 0.0100 0.0150
v 11.5983 13.7574 0.0760 0.0100 0.0100 0.0150
v 11.4000 13.3917 0.0649 0.0100 0.0100 0.0150
v 11.2623 13.0000 0.0550 0.0100 0.0100 0.0150
v 11.1863 12.5941 0.0479 0.0100 0.0100 0.0150
v 11.1693 12.1851 0.0406 0.0100 0.0100 0.0150
v 11.2051 11.7827 0.0340 0.0100 0.0100 0.0150
v 11.2854 11.3933 0.0300 0.0100 0.0100 0.0150
v 11.4012 11.0204 0.0261 0.0100 0.0100 0.0150
v 11.5449 10.6643 0.0221 0.0100 0.0100 0.0150
v 11.7106 10.3233 0.0203 0.0100 0.0100 0.0150
v 11.8959 9.9949 0.0185 0.0100 0.0100 0.0150
v 12.1011 9.6774 0.0144 0.0100 0.0100 0.0150
v 12.3292 9.3708 0.0113 0.0100 0.0100 0.0150
v 12.5843 9.0781 0.0093 0.0100 0.0100 0.0150
v 12.8704 8.8054 0.0082 0.0100 0.0100 0.0150
v 13.1898 8.5614 0.0071 0.0100 0.0100 0.0150
v 13.5422 8.3563 0.0044 0.0100 0.0100 0.0150
v 13.9235 8.2006 0.0026 0.0100 0.0100 0.0150
v 14.3265 8.1031 0.0003 0.0100 0.0100 0.0150
v 14.7411 8.0699 -0.0034 0.0100 0.0100 0.0150
v 15.1557 8.1031 -0.0083 0.0100 0.0100 0.0150
v 15.5587 8.2006 -0.0168 0.0100 0.0100 0.0150
v 15.9401 8.3563 -0.0249 0.0100 0.0100 0.0150
v 16.2924 8.5614 -0.0359 0.0100 0.0100 0.0150
v 16.6119 8.8054 -0.0505 0.0100 0.0100 0.0150
v 16.8980 9.0781 -0.0672 0.0100 0.0100 0.0150
v 17.1531 9.3708 -0.0772 0.0100 0.0100 0.0150
v 17.3811 9.6774 -0.0852 0.0100 0.0100 0.0150
v 17.5864 9.9949 -0.0933 0.0100 0.0100 0.0150
v 17.7717 10.3233 -0.1013 0.0100 0.0100 0.0150
v 17.9374 10.6643 -0.1076 0.0100 0.0100 0.0150
v 18.0810 11.0204 -0.0989 0.0100 0.0100 0.0150
v 18.1969 11.3933 -0.0874 0.0100 0.0100 0.0150
v 24.2040 -6.7608 0.3124 0.0100 0.0100 0.0150
v 27.1960 -6.7608 -0.4027 0.0100 0.0100 0.0150
v 27.2263 -6.4203 -0.3559 0.0100 0.0100 0.0150
v 27.2119 -6.0743 -0.2924 0.0100 0.0100 0.0150
v 27.1477 -5.7308 -0.2106 0.0100 0.0100 0.0150
v 27.0311 -5.3993 -0.1080 0.0100 0.0100 0.0150
v 26.8633 -5.0899 0.0109 0.0100 0.0100 0.0150
v 26.6486 -4.8113 0.1208 0.0100 0.0100 0.0150
v 26.3945 -4.5703 0.2314 0.0100 0.0100 0.0150
v 26.1100 -4.3708 0.3398 0.0100 0.0100 0.0150
v 25.8048 -4.2132 0.4379 0.0100 0.0100 0.0150
v 25.4878 -4.0951 0.5016 0.0100 0.0100 0.0150
v 25.1659 -4.0118 0.5220 0.0100 0.0100 0.0150
v 24.8438 -3.9578 0.5376 0.0100 0.0100 0.0150
v 24.5232 -3.9279 0.5501 0.0100 0.0100 0.0150
v 24.2040 -3.9184 0.5345 0.0100 0.0100 0.0150
v 23.8848 -3.9279 0.4955 0.0100 0.0100 0.0150
v 23.5643 -3.9578 0.4563 0.0100 0.0100 0.0150
v 23.2421 -4.0118 0.4174 0.0100 0.0100 0.0150
v 22.9203 -4.0951 0.3672 0.0100 0.0100 0.0150
v 22.6033 -4.2132 0.3104 0.0100 0.0100 0.0150
v 22.2981 -4.3708 0.2550 0.0100 0.0100 0.0150
v 22.0136 -4.5703 0.1966 0.0100 0.0100 0.0150
v 21.7594 -4.8113 0.1458 0.0100 0.0100 0.0150
v 21.5448 -5.0899 0.1030 0.0100 0.0100 0.0150
v 21.3769 -5.3993 0.0652 0.0100 0.0100 0.0150
v 21.2604 -5.7308 0.0321 0.0100 0.0100 0.0150
v 21.1961 -6.0743 0.0027 0.0100 0.0100 0.0150
v 21.1817 -6.4203 -0.0190 0.0100 0.0100 0.0150
v 21.2120 -6.7608 -0.0334 0.0100 0.0100 0.0150
v 21.2799 -7.0903 -0.0419 0.0100 0.0100 0.0150
v 21.3780 -7.4058 -0.0450 0.0100 0.0100 0.0150
v 21.4995 -7.7072 -0.0435 0.0100 0.0100 0.0150
v 21.6397 -7.9957 -0.0381 0.0100 0.0100 0.0150
v 21.7965 -8.2735 -0.0287 0.0100 0.0100 0.0150
v 21.9702 -8.5422 -0.0156 0.0100 0.0100 0.0150
v 22.1632 -8.8017 0.0011 0.0100 0.0100 0.0150
v 22.3790 -9.0493 0.0223 0.0100 0.0100 0.0150
v 22.6211 -9.2800 0.0487 0.0100 0.0100 0.0150
v 22.8914 -9.4865 0.0820 0.0100 0.0100 0.0150
v 23.1895 -9.6600 0.1130 0.0100 0.0100 0.0150
v 23.5122 -9.7918 0.1123 0.0100 0.0100 0.0150
v 23.8532 -9.8743 0.1149 0.0100 0.0100 0.0150
v 24.2040 -9.9024 0.1200 0.0100 0.0100 0.0150
v 24.5548 -9.8743 0.0867 0.0100 0.0100 0.0150
v 24.8958 -9.7918 0.0180 0.0100 0.0100 0.0150
v 25.2185 -9.6600 -0.0479 0.0100 0.0100 0.0150
v 25.5167 -9.4865 -0.1106 0.0100 0.0100 0.0150
v 25.7870 -9.2800 -0.1856 0.0100 0.0100 0.0150
v 26.0290 -9.0493 -0.2567 0.0100 0.0100 0.0150
v 26.2449 -8.8017 -0.3165 0.0100 0.0100 0.0150
v 26.4379 -8.5422 -0.3666 0.0100 0.0100 0.0150
v 26.6116 -8.2735 -0.4084 0.0100 0.0100 0.0150
v 26.7683 -7.9957 -0.4337 0.0100 0.0100 0.0150
v 26.9086 -7.7072 -0.4403 0.0100 0.0100 0.0150
v 27.0301 -7.4058 -0.4395 0.0100 0.0100 0.0150
v 27.1281 -7.0903 -0.4288 0.0100 0.0100 0.0150
v 46.2689 -15.6847 0.6789 0.0100 0.0100 0.0150
v 50.2129 -15.6847 0.3967 0.0100 0.0100 0.0150
v 50.2529 -15.2358 0.4042 0.0100 0.0100 0.0150
v 50.2339 -14.7797 0.4153 0.0100 0.0100 0.0150
v 50.1492 -14.3269 0.4310 0.0100 0.0100 0.0150
v 49.9956 -13.8900 0.4582 0.0100 0.0100 0.0150
v 49.7743 -13.4821 0.4900 0.0100 0.0100 0.0150
v 49.4914 -13.1149 0.5265 0.0100 0.0100 0.0150
v 49.1564 -12.7973 0.5734 0.0100 0.0100 0.0150
v 48.7813 -12.5342 0.6235 0.0100 0.0100 0.0150
v 48.3790 -12.3265 0.6725 0.0100 0.0100 0.0150
v 47.9611 -12.1708 0.7119 0.0100 0.0100 0.0150
v 47.5369 -12.0610 0.7349 0.0100 0.0100 0.0150
v 47.1123 -11.9899 0.7543 0.0100 0.0100 0.0150
v 46.6897 -11.9504 0.7440 0.0100 0.0100 0.0150
v 46.2689 -11.9379 0.6976 0.0100 0.0100 0.0150
v 45.8482 -11.9504 0.6515 0.0100 0.0100 0.0150
v 45.4256 -11.9899 0.5706 0.0100 0.0100 0.0150
v 45.0010 -12.0610 0.4529 0.0100 0.0100 0.0150
v 44.5767 -12.1708 0.3437 0.0100 0.0100 0.0150
v 44.1589 -12.3265 0.2239 0.0100 0.0100 0.0150
v 43.7566 -12.5342 0.1013 0.0100 0.0100 0.0150
v 43.3815 -12.7973 0.0061 0.0100 0.0100 0.0150
v 43.0465 -13.1149 -0.0579 0.0100 0.0100 0.0150
v 42.7635 -13.4821 -0.0851 0.0100 0.0100 0.0150
v 42.5423 -13.8900 -0.0742 0.0100 0.0100 0.0150
v 42.3887 -14.3269 -0.0276 0.0100 0.0100 0.0150
v 42.3040 -14.7797 0.0495 0.0100 0.0100 0.0150
v 42.2850 -15.2358 0.1511 0.0100 0.0100 0.0150
v 42.3249 -15.6847 0.2641 0.0100 0.0100 0.0150
v 42.4145 -16.1190 0.3615 0.0100 0.0100 0.0150
v 42.5437 -16.5349 0.4570 0.0100 0.0100 0.0150
v 42.7039 -16.9322 0.5399 0.0100 0.0100 0.0150
v 42.8887 -17.3125 0.5808 0.0100 0.0100 0.0150
v 43.0954 -17.6788 0.6143 0.0100 0.0100 0.0150
v 43.3243 -18.0330 0.6279 0.0100 0.0100 0.0150
v 43.5787 -18.3749 0.6165 0.0100 0.0100 0.0150
v 43.8632 -18.7013 0.5985 0.0100 0.0100 0.0150
v 44.1824 -19.0055 0.5814 0.0100 0.0100 0.0150
v 44.5387 -19.2776 0.5606 0.0100 0.0100 0.0150
v 44.9317 -19.5064 0.5353 0.0100 0.0100 0.0150
v 45.3570 -19.6801 0.5157 0.0100 0.0100 0.0150
v 45.8065 -19.7888 0.4991 0.0100 0.0100 0.0150
v 46.2689 -19.8259 0.4825 0.0100 0.0100 0.0150
v 46.7314 -19.7888 0.4703 0.0100 0.0100 0.0150
v 47.1809 -19.6801 0.4596 0.0100 0.0100 0.0150
v 47.6062 -19.5064 0.4495 0.0100 0.0100 0.0150
v 47.9992 -19.2776 0.4391 0.0100 0.0100 0.0150
v 48.3555 -19.0055 0.4319 0.0100 0.0100 0.0150
v 48.6746 -18.7013 0.4260 0.0100 0.0100 0.0150
v 48.9592 -18.3749 0.4191 0.0100 0.0100 0.0150
v 49.2136 -18.0330 0.4114 0.0100 0.0100 0.0150
v 49.4425 -17.6788 0.4049 0.0100 0.0100 0.0150
v 49.6491 -17.3125 0.4021 0.0100 0.0100 0.0150
v 49.8340 -16.9322 0.3986 0.0100 0.0100 0.0150
v 49.9942 -16.5349 0.3975 0.0100 0.0100 0.0150
v 50.1234 -16.1190 0.3968 0.0100 0.0100 0.0150
v -31.7774 26.2610 1.5658 0.0100 0.0100 0.0150
v -28.5134 26.2610 1.2917 0.0100 0.0100 0.0150
v -28.4804 26.6324 1.2590 0.0100 0.0100 0.0150
v -28.4961 27.0099 1.2340 0.0100 0.0100 0.0150
v -28.5662 27.3846 1.2195 0.0100 0.0100 0.0150
v -28.6933 27.7462 1.2111 0.0100 0.0100 0.0150
v -28.8764 28.0838 1.2088 0.0100 0.0100 0.0150
v -29.1106 28.3877 1.2218 0.0100 0.0100 0.0150
v -29.3878 28.6505 1.2404 0.0100 0.0100 0.0150
v -29.6982 28.8682 1.2561 0.0100 0.0100 0.0150
v -30.0312 29.0401 1.2742 0.0100 0.0100 0.0150
v -30.3770 29.1690 1.2941 0.0100 0.0100 0.0150
v -30.7281 29.2598 1.3148 0.0100 0.0100 0.0150
v -31.0795 29.3187 1.3351 0.0100 0.0100 0.0150
v -31.4292 29.3514 1.3562 0.0100 0.0100 0.0150
v -31.7774 29.3618 1.3779 0.0100 0.0100 0.0150
v -32.1256 29.3514 1.3986 0.0100 0.0100 0.0150
v -32.4753 29.3187 1.4194 0.0100 0.0100 0.0150
v -32.8268 29.2598 1.4412 0.0100 0.0100 0.0150
v -33.1779 29.1690 1.4622 0.0100 0.0100 0.0150
v -33.5237 29.0401 1.4739 0.0100 0.0100 0.0150
v -33.8566 28.8682 1.4861 0.0100 0.0100 0.0150
v -34.1670 28.6505 1.4985 0.0100 0.0100 0.0150
v -34.4443 28.3877 1.5084 0.0100 0.0100 0.0150
v -34.6784 28.0838 1.5141 0.0100 0.0100 0.0150
v -34.8615 27.7462 1.5406 0.0100 0.0100 0.0150
v -34.9887 27.3846 1.5710 0.0100 0.0100 0.0150
v -35.0588 27.0099 1.6041 0.0100 0.0100 0.0150
v -35.0745 26.6324 1.6407 0.0100 0.0100 0.0150
v -35.0414 26.2610 1.6784 0.0100 0.0100 0.0150
v -34.9673 25.9015 1.7145 0.0100 0.0100 0.0150
v -34.8604 25.5573 1.7424 0.0100 0.0100 0.0150
v -34.7278 25.2286 1.7449 0.0100 0.0100 0.0150
v -34.5748 24.9138 1.7460 0.0100 0.0100 0.0150
v -34.4038 24.6107 1.7457 0.0100 0.0100 0.0150
v -34.2144 24.3176 1.7331 0.0100 0.0100 0.0150
v -34.0038 24.0346 1.6856 0.0100 0.0100 0.0150
v -33.7683 23.7644 1.6404 0.0100 0.0100 0.0150
v -33.5043 23.5127 1.5983 0.0100 0.0100 0.0150
v -33.2094 23.2875 1.5605 0.0100 0.0100 0.0150
v -32.8841 23.0982 1.5291 0.0100 0.0100 0.0150
v -32.5321 22.9544 1.4912 0.0100 0.0100 0.0150
v -32.1601 22.8644 1.4694 0.0100 0.0100 0.0150
v -31.7774 22.8338 1.4646 0.0100 0.0100 0.0150
v -31.3947 22.8644 1.4766 0.0100 0.0100 0.0150
v -31.0227 22.9544 1.5004 0.0100 0.0100 0.0150
v -30.6707 23.0982 1.5323 0.0100 0.0100 0.0150
v -30.3455 23.2875 1.5396 0.0100 0.0100 0.0150
v -30.0506 23.5127 1.5397 0.0100 0.0100 0.0150
v -29.7865 23.7644 1.5370 0.0100 0.0100 0.0150
v -29.5510 24.0346 1.5312 0.0100 0.0100 0.0150
v -29.3405 24.3176 1.5209 0.0100 0.0100 0.0150
v -29.1510 24.6107 1.4844 0.0100 0.0100 0.0150
v -28.9800 24.9138 1.4444 0.0100 0.0100 0.0150
v -28.8270 25.2286 1.4054 0.0100 0.0100 0.0150
v -28.6945 25.5573 1.3674 0.0100 0.0100 0.0150
v -28.5875 25.9015 1.3284 0.0100 0.0100 0.0150
v -33.8052 -19.7717 0.7315 0.0100 0.0100 0.0150
v -30.9492 -19.7717 0.8008 0.0100 0.0100 0.0150
v -30.9203 -19.4466 0.7937 0.0100 0.0100 0.0150
v -30.9341 -19.1163 0.7793 0.0100 0.0100 0.0150
v -30.9954 -18.7885 0.7632 0.0100 0.0100 0.0150
v -31.1066 -18.4721 0.7479 0.0100 0.0100 0.0150
v -31.2669 -18.1767 0.7339 0.0100 0.0100 0.0150
v -31.4717 -17.9108 0.7167 0.0100 0.0100 0.0150
v -31.7143 -17.6808 0.7014 0.0100 0.0100 0.0150
v -31.9859 -17.4903 0.6873 0.0100 0.0100 0.0150
v -32.2773 -17.3399 0.6731 0.0100 0.0100 0.0150
v -32.5799 -17.2271 0.6620 0.0100 0.0100 0.0150
v -32.8871 -17.1476 0.6535 0.0100 0.0100 0.0150
v -33.1946 -17.0961 0.6464 0.0100 0.0100 0.0150
v -33.5006 -17.0676 0.6388 0.0100 0.0100 0.0150
v -33.8052 -17.0585 0.6323 0.0100 0.0100 0.0150
v -34.1099 -17.0676 0.6269 0.0100 0.0100 0.0150
v -34.4159 -17.0961 0.6224 0.0100 0.0100 0.0150
v -34.7234 -17.1476 0.6203 0.0100 0.0100 0.0150
v -35.0306 -17.2271 0.6186 0.0100 0.0100 0.0150
v -35.3332 -17.3399 0.6170 0.0100 0.0100 0.0150
v -35.6246 -17.4903 0.6153 0.0100 0.0100 0.0150
v -35.8961 -17.6808 0.6180 0.0100 0.0100 0.0150
v -36.1387 -17.9108 0.6193 0.0100 0.0100 0.0150
v -36.3436 -18.1767 0.6188 0.0100 0.0100 0.0150
v -36.5038 -18.4721 0.6168 0.0100 0.0100 0.0150
v -36.6151 -18.7885 0.6147 0.0100 0.0100 0.0150
v -36.6764 -19.1163 0.6129 0.0100 0.0100 0.0150
v -36.6902 -19.4466 0.6118 0.0100 0.0100 0.0150
v -36.6612 -19.7717 0.6111 0.0100 0.0100 0.0150
v -36.5964 -20.0862 0.6118 0.0100 0.0100 0.0150
v -36.5028 -20.3874 0.6140 0.0100 0.0100 0.0150
v -36.3869 -20.6750 0.6173 0.0100 0.0100 0.0150
v -36.2530 -20.9504 0.6203 0.0100 0.0100 0.0150
v -36.1033 -21.2157 0.6240 0.0100 0.0100 0.0150
v -35.9376 -21.4721 0.6284 0.0100 0.0100 0.0150
v -35.7533 -21.7198 0.6336 0.0100 0.0100 0.0150
v -35.5473 -21.9561 0.6407 0.0100 0.0100 0.0150
v -35.3162 -22.1764 0.6503 0.0100 0.0100 0.0150
v -35.0582 -22.3735 0.6609 0.0100 0.0100 0.0150
v -34.7736 -22.5391 0.6726 0.0100 0.0100 0.0150
v -34.4656 -22.6649 0.6853 0.0100 0.0100 0.0150
v -34.1401 -22.7436 0.7006 0.0100 0.0100 0.0150
v -33.8052 -22.7705 0.7174 0.0100 0.0100 0.0150
v -33.4704 -22.7436 0.7351 0.0100 0.0100 0.0150
v -33.1449 -22.6649 0.7530 0.0100 0.0100 0.0150
v -32.8369 -22.5391 0.7682 0.0100 0.0100 0.0150
v -32.5523 -22.3735 0.7825 0.0100 0.0100 0.0150
v -32.2943 -22.1764 0.7957 0.0100 0.0100 0.0150
v -32.0632 -21.9561 0.8076 0.0100 0.0100 0.0150
v -31.8571 -21.7198 0.8161 0.0100 0.0100 0.0150
v -31.6729 -21.4721 0.8176 0.0100 0.0100 0.0150
v -31.5072 -21.2157 0.8185 0.0100 0.0100 0.0150
v -31.3575 -20.9504 0.8188 0.0100 0.0100 0.0150
v -31.2236 -20.6750 0.8186 0.0100 0.0100 0.0150
v -31.1077 -20.3874 0.8138 0.0100 0.0100 0.0150
v -31.0141 -20.0862 0.8076 0.0100 0.0100 0.0150
v 64.7419 -63.1302 -6.3386 0.0100 0.0100 0.0150
v 75.6219 -63.1302 -2.7885 0.0100 0.0100 0.0150
v 75.7320 -61.8919 -2.5198 0.0100 0.0100 0.0150
v 75.6798 -60.6337 -2.2517 0.0100 0.0100 0.0150
v 75.4461 -59.3846 -1.9870 0.0100 0.0100 0.0150
v 75.0223 -58.1794 -1.7203 0.0100 0.0100 0.0150
v 74.4120 -57.0541 -1.4640 0.0100 0.0100 0.0150
v 73.6314 -56.0410 -1.2537 0.0100 0.0100 0.0150
v 72.7072 -55.1648 -1.0920 0.0100 0.0100 0.0150
v 71.6727 -54.4393 -0.9614 0.0100 0.0100 0.0150
v 70.5628 -53.8662 -0.8433 0.0100 0.0100 0.0150
v 69.4101 -53.4367 -0.7304 0.0100 0.0100 0.0150
v 68.2398 -53.1339 -0.6406 0.0100 0.0100 0.0150
v 67.0683 -52.9376 -0.5864 0.0100 0.0100 0.0150
v 65.9026 -52.8288 -0.5418 0.0100 0.0100 0.0150
v 64.7419 -52.7942 -0.4992 0.0100 0.0100 0.0150
v 63.5812 -52.8288 -0.4687 0.0100 0.0100 0.0150
v 62.4155 -52.9376 -0.4700 0.0100 0.0100 0.0150
v 61.2441 -53.1339 -0.5214 0.0100 0.0100 0.0150
v 60.0738 -53.4367 -0.6708 0.0100 0.0100 0.0150
v 58.9210 -53.8662 -0.8707 0.0100 0.0100 0.0150
v 57.8112 -54.4393 -1.1070 0.0100 0.0100 0.0150
v 56.7766 -55.1648 -1.4381 0.0100 0.0100 0.0150
v 55.8524 -56.0410 -1.7933 0.0100 0.0100 0.0150
v 55.0718 -57.0541 -2.2097 0.0100 0.0100 0.0150
v 54.4615 -58.1794 -2.6952 0.0100 0.0100 0.0150
v 54.0377 -59.3846 -3.2181 0.0100 0.0100 0.0150
v 53.8040 -60.6337 -3.7553 0.0100 0.0100 0.0150
v 53.7518 -61.8919 -4.2727 0.0100 0.0100 0.0150
v 53.8619 -63.1302 -4.7393 0.0100 0.0100 0.0150
v 54.1089 -64.3282 -5.1456 0.0100 0.0100 0.0150
v 54.4654 -65.4757 -5.4942 0.0100 0.0100 0.0150
v 54.9072 -66.5715 -5.7680 0.0100 0.0100 0.0150
v 55.4172 -67.6207 -5.9854 0.0100 0.0100 0.0150
v 55.9873 -68.6311 -6.1104 0.0100 0.0100 0.0150
v 56.6188 -69.6081 -6.1553 0.0100 0.0100 0.0150
v 57.3206 -70.5515 -6.1159 0.0100 0.0100 0.0150
v 58.1055 -71.4520 -6.0058 0.0100 0.0100 0.0150
v 58.9858 -72.2910 -5.8226 0.0100 0.0100 0.0150
v 59.9687 -73.0418 -5.5737 0.0100 0.0100 0.0150
v 61.0529 -73.6728 -5.2151 0.0100 0.0100 0.0150
v 62.2262 -74.1520 -4.7958 0.0100 0.0100 0.0150
v 63.4663 -74.4520 -4.3865 0.0100 0.0100 0.0150
v 64.7419 -74.5542 -4.0905 0.0100 0.0100 0.0150
v 66.0176 -74.4520 -3.9559 0.0100 0.0100 0.0150
v 67.2576 -74.1520 -3.9756 0.0100 0.0100 0.0150
v 68.4309 -73.6728 -4.0532 0.0100 0.0100 0.0150
v 69.5151 -73.0418 -4.0881 0.0100 0.0100 0.0150
v 70.4980 -72.2910 -4.0749 0.0100 0.0100 0.0150
v 71.3783 -71.4520 -4.0084 0.0100 0.0100 0.0150
v 72.1632 -70.5515 -3.8870 0.0100 0.0100 0.0150
v 72.8650 -69.6081 -3.7650 0.0100 0.0100 0.0150
v 73.4966 -68.6311 -3.6470 0.0100 0.0100 0.0150
v 74.0666 -67.6207 -3.5417 0.0100 0.0100 0.0150
v 74.5766 -66.5715 -3.4151 0.0100 0.0100 0.0150
v 75.0185 -65.4757 -3.2593 0.0100 0.0100 0.0150
v 75.3750 -64.3282 -3.0477 0.0100 0.0100 0.0150
v 1.7876 0.1174 0.0200 0.0350 0.0350 0.0420
v 1.3124 0.5226 0.0200 0.0350 0.0350 0.0420
v 1.0230 -0.5770 0.0200 0.0450 0.0450 0.0520
v 0.7474 -0.3419 0.0200 0.0450 0.0450 0.0520
v 0.5259 -0.9783 0.0200 0.1600 0.1600 0.1700
v 0.4295 -0.8960 0.0200 0.1600 0.1600 0.1700
v 5.2251 3.5374 0.4724 0.0350 0.0350 0.0420
v 4.3749 4.2626 0.6374 0.0350 0.0350 0.0420
v 4.1122 2.5942 0.4528 0.0450 0.0450 0.0520
v 3.6191 3.0149 0.4901 0.0450 0.0450 0.0520
v 3.3793 2.0595 0.2964 0.1600 0.1600 0.1700
v 3.2067 2.2068 0.3079 0.1600 0.1600 0.1700
v 5.8501 -6.1839 0.2966 0.0350 0.0350 0.0420
v 4.9499 -5.4161 0.1076 0.0350 0.0350 0.0420
v 4.7627 -7.0760 0.0403 0.0450 0.0450 0.0520
v 4.2405 -6.6306 -0.0602 0.0450 0.0450 0.0520
v 4.0423 -7.5768 -0.1290 0.1600 0.1600 0.1700
v 3.8596 -7.4210 -0.1563 0.1600 0.1600 0.1700
v 19.0314 -5.6533 -0.1405 0.0350 0.0350 0.0420
v 17.9686 -4.7467 -0.0857 0.0350 0.0350 0.0420
v 17.5864 -6.8954 -0.1604 0.0450 0.0450 0.0520
v 16.9699 -6.3696 -0.1060 0.0450 0.0450 0.0520
v 16.6372 -7.6025 -0.1288 0.1600 0.1600 0.1700
v 16.4214 -7.4185 -0.1098 0.1600 0.1600 0.1700
v 26.5627 8.0201 0.3001 0.0350 0.0350 0.0420
v 25.4373 8.9799 0.3236 0.0350 0.0350 0.0420
v 25.0326 6.7049 0.2427 0.0450 0.0450 0.0520
v 24.3799 7.2616 0.2380 0.0450 0.0450 0.0520
v 24.0276 5.9562 0.1961 0.1600 0.1600 0.1700
v 23.7991 6.1510 0.1918 0.1600 0.1600 0.1700
v 38.5939 -12.5066 -1.4551 0.0350 0.0350 0.0420
v 37.4061 -11.4934 -1.6718 0.0350 0.0350 0.0420
v 36.9789 -13.8949 -1.4105 0.0450 0.0450 0.0520
v 36.2899 -13.3072 -1.5495 0.0450 0.0450 0.0520
v 35.9180 -14.6852 -1.2967 0.1600 0.1600 0.1700
v 35.6769 -14.4795 -1.3678 0.1600 0.1600 0.1700
v -7.6866 5.1004 0.0528 0.0350 0.0350 0.0420
v -13.3134 9.8996 0.0841 0.0350 0.0350 0.0420
v -12.2822 2.1056 0.0731 0.0450 0.0450 0.0520
v -15.5457 4.8892 0.1030 0.0450 0.0450 0.0520
v -15.4353 0.5571 0.0735 0.1600 0.1600 0.1700
v -16.5775 1.5313 0.1459 0.1600 0.1600 0.1700
v 60.3757 23.9736 1.8579 0.0350 0.0350 0.0420
v 55.6243 28.0264 1.2181 0.0350 0.0350 0.0420
v 56.4311 21.3698 1.5469 0.0450 0.0450 0.0520
v 53.6753 23.7204 0.7495 0.0450 0.0450 0.0520
v 53.7294 20.0163 1.2073 0.1600 0.1600 0.1700
v 52.7648 20.8390 1.0691 0.1600 0.1600 0.1700
v 93.5630 56.6669 2.9995 0.0350 0.0350 0.0420
v 90.4370 59.3331 2.8809 0.0350 0.0350 0.0420
v 88.9535 52.5922 1.9298 0.0450 0.0450 0.0520
v 87.1404 54.1386 1.8836 0.0450 0.0450 0.0520
v 85.9414 50.2542 2.0133 0.1600 0.1600 0.1700
v 85.3069 50.7955 1.9701 0.1600 0.1600 0.1700
v 80.5008 -30.1330 1.7875 0.0350 0.0350 0.0420
v 75.4992 -25.8670 1.1936 0.0350 0.0350 0.0420
v 76.3958 -32.8184 1.7874 0.0450 0.0450 0.0520
v 73.4949 -30.3441 1.3320 0.0450 0.0450 0.0520
v 73.5809 -34.2092 1.9868 0.1600 0.1600 0.1700
v 72.5655 -33.3432 1.8604 0.1600 0.1600 0.1700
v -53.7493 46.0803 2.7390 0.0350 0.0350 0.0420
v -58.2507 49.9197 3.0121 0.0350 0.0350 0.0420
v -57.4977 43.6002 2.8012 0.0450 0.0450 0.0520
v -60.1085 45.8271 2.9017 0.0450 0.0450 0.0520
v -60.0642 42.3097 2.8325 0.1600 0.1600 0.1700
v -60.9780 43.0891 2.8849 0.1600 0.1600 0.1700
v -61.9994 -39.7064 2.0045 0.0350 0.0350 0.0420
v -66.0006 -36.2936 1.9598 0.0350 0.0350 0.0420
v -65.4271 -42.0233 2.0208 0.0450 0.0450 0.0520
v -67.7478 -40.0438 2.1898 0.0450 0.0450 0.0520
v -67.7672 -43.2392 1.9694 0.1600 0.1600 0.1700
v -68.5794 -42.5464 2.0583 0.1600 0.1600 0.1700
v 3.1500 -1.9500 0.0208 0.0120 0.0120 0.0180
v 4.5171 -2.2991 0.0947 0.0120 0.0120 0.0180
v 4.5917 -2.0287 0.1025 0.0120 0.0120 0.0180
v 4.3344 -1.7367 0.1108 0.0120 0.0120 0.0180
v 3.9089 -1.5298 0.0837 0.0120 0.0120 0.0180
v 3.4928 -1.4074 0.0512 0.0120 0.0120 0.0180
v 3.1099 -1.3193 0.0200 0.0120 0.0120 0.0180
v 2.7199 -1.2717 0.0200 0.0120 0.0120 0.0180
v 2.3602 -1.3136 0.0200 0.0120 0.0120 0.0180
v 2.1065 -1.4517 0.0200 0.0120 0.0120 0.0180
v 1.9628 -1.6469 0.0200 0.0120 0.0120 0.0180
v 1.9023 -1.8819 0.0199 0.0120 0.0120 0.0180
v 1.9798 -2.1608 0.0148 0.0120 0.0120 0.0180
v 2.2795 -2.4320 0.0108 0.0120 0.0120 0.0180
v 2.7462 -2.5892 0.0100 0.0120 0.0120 0.0180
v 3.1907 -2.5904 0.0151 0.0120 0.0120 0.0180
v 3.5118 -2.5206 0.0346 0.0120 0.0120 0.0180
v 3.8068 -2.4792 0.0526 0.0120 0.0120 0.0180
v 4.1787 -2.4412 0.0757 0.0120 0.0120 0.0180
v 2.0500 0.9500 0.0427 0.0120 0.0120 0.0180
v 3.2618 1.2210 0.1807 0.0120 0.0120 0.0180
v 3.2168 1.4434 0.1990 0.0120 0.0120 0.0180
v 2.9020 1.5547 0.1721 0.0120 0.0120 0.0180
v 2.4872 1.5408 0.1180 0.0120 0.0120 0.0180
v 2.1122 1.4699 0.0676 0.0120 0.0120 0.0180
v 1.7765 1.3871 0.0353 0.0120 0.0120 0.0180
v 1.4507 1.2725 0.0293 0.0120 0.0120 0.0180
v 1.1832 1.1053 0.0247 0.0120 0.0120 0.0180
v 1.0362 0.9094 0.0220 0.0120 0.0120 0.0180
v 0.9977 0.7147 0.0206 0.0120 0.0120 0.0180
v 1.0402 0.5230 0.0200 0.0120 0.0120 0.0180
v 1.2082 0.3526 0.0200 0.0120 0.0120 0.0180
v 1.5485 0.2723 0.0200 0.0120 0.0120 0.0180
v 1.9767 0.3375 0.0254 0.0120 0.0120 0.0180
v 2.3277 0.5062 0.0480 0.0120 0.0120 0.0180
v 2.5541 0.6787 0.0699 0.0120 0.0120 0.0180
v 2.7708 0.8209 0.0968 0.0120 0.0120 0.0180
v 3.0494 0.9900 0.1359 0.0120 0.0120 0.0180
v 12.2000 2.6000 -0.1223 0.0120 0.0120 0.0180
v 14.8787 2.1952 0.0288 0.0120 0.0120 0.0180
v 14.9659 2.7033 0.0288 0.0120 0.0120 0.0180
v 14.4157 3.1942 0.0247 0.0120 0.0120 0.0180
v 13.5620 3.5001 0.0144 0.0120 0.0120 0.0180
v 12.7434 3.6530 -0.0288 0.0120 0.0120 0.0180
v 11.9952 3.7487 -0.1011 0.0120 0.0120 0.0180
v 11.2415 3.7689 -0.1963 0.0120 0.0120 0.0180
v 10.5640 3.6303 -0.2938 0.0120 0.0120 0.0180
v 10.1081 3.3337 -0.3318 0.0120 0.0120 0.0180
v 9.8738 2.9516 -0.3746 0.0120 0.0120 0.0180
v 9.8064 2.5106 -0.4083 0.0120 0.0120 0.0180
v 10.0109 2.0129 -0.4367 0.0120 0.0120 0.0180
v 10.6377 1.5675 -0.4046 0.0120 0.0120 0.0180
v 11.5598 1.3596 -0.2324 0.0120 0.0120 0.0180
v 12.4079 1.4337 -0.1059 0.0120 0.0120 0.0180
v 13.0063 1.6167 -0.0250 0.0120 0.0120 0.0180
v 13.5605 1.7432 0.0034 0.0120 0.0120 0.0180
v 14.2621 1.8767 0.0225 0.0120 0.0120 0.0180
v 34.0000 -13.0000 -1.6123 0.0120 0.0120 0.0180
v 38.8217 -14.5979 -1.0210 0.0120 0.0120 0.0180
v 39.1514 -13.6644 -1.1733 0.0120 0.0120 0.0180
v 38.2960 -12.5655 -1.4914 0.0120 0.0120 0.0180
v 36.8179 -11.7220 -1.6907 0.0120 0.0120 0.0180
v 35.3541 -11.1786 -1.7393 0.0120 0.0120 0.0180
v 34.0016 -10.7651 -1.7491 0.0120 0.0120 0.0180
v 32.6138 -10.4926 -1.7292 0.0120 0.0120 0.0180
v 31.3144 -10.5440 -1.6507 0.0120 0.0120 0.0180
v 30.3729 -10.9629 -1.5078 0.0120 0.0120 0.0180
v 29.8129 -11.6124 -1.3369 0.0120 0.0120 0.0180
v 29.5420 -12.4250 -1.1554 0.0120 0.0120 0.0180
v 29.7556 -13.4292 -0.9981 0.0120 0.0120 0.0180
v 30.7677 -14.4659 -0.9584 0.0120 0.0120 0.0180
v 32.4048 -15.1456 -1.0164 0.0120 0.0120 0.0180
v 33.9984 -15.2691 -1.1283 0.0120 0.0120 0.0180
v 35.1660 -15.1092 -1.1945 0.0120 0.0120 0.0180
v 36.2332 -15.0424 -1.1779 0.0120 0.0120 0.0180
v 37.5755 -15.0081 -1.0822 0.0120 0.0120 0.0180
v 54.0000 -54.0000 -0.3684 0.0120 0.0120 0.0180
v 60.8211 -60.7478 -5.3036 0.0120 0.0120 0.0180
v 62.3551 -59.2488 -4.9426 0.0120 0.0120 0.0180
v 61.9801 -56.5189 -2.9683 0.0120 0.0120 0.0180
v 60.2512 -53.7853 -0.8664 0.0120 0.0120 0.0180
v 58.2402 -51.6272 0.1453 0.0120 0.0120 0.0180
v 56.2913 -49.7995 0.8943 0.0120 0.0120 0.0180
v 54.1363 -48.2098 1.6871 0.0120 0.0120 0.0180
v 51.8046 -47.2974 2.1683 0.0120 0.0120 0.0180
v 49.7241 -47.3540 2.2922 0.0120 0.0120 0.0180
v 48.0766 -48.1403 2.3414 0.0120 0.0120 0.0180
v 46.7695 -49.4576 2.2556 0.0120 0.0120 0.0180
v 46.1158 -51.5114 1.8352 0.0120 0.0120 0.0180
v 46.8294 -54.2463 0.7550 0.0120 0.0120 0.0180
v 49.0049 -56.7952 -0.4846 0.0120 0.0120 0.0180
v 51.6736 -58.2647 -1.5693 0.0120 0.0120 0.0180
v 53.8854 -58.8705 -2.8452 0.0120 0.0120 0.0180
v 55.8257 -59.5737 -4.0156 0.0120 0.0120 0.0180
v 58.2151 -60.5515 -4.9616 0.0120 0.0120 0.0180
v 64.0000 -64.0000 -6.3183 0.0120 0.0120 0.0180
v 80.3676 -64.0000 -2.2239 0.0120 0.0120 0.0180
v 80.4297 -58.0201 -0.2744 0.0120 0.0120 0.0180
v 76.6997 -53.3437 0.5293 0.0120 0.0120 0.0180
v 71.3235 -51.3154 0.4987 0.0120 0.0120 0.0180
v 66.2956 -50.9809 0.2964 0.0120 0.0120 0.0180
v 61.7394 -51.1797 0.2145 0.0120 0.0120 0.0180
v 57.2187 -52.2545 -0.0381 0.0120 0.0120 0.0180
v 53.2964 -55.0186 -0.6481 0.0120 0.0120 0.0180
v 50.8412 -59.2106 -1.6566 0.0120 0.0120 0.0180
v 49.7865 -64.0000 -2.9272 0.0120 0.0120 0.0180
v 49.7817 -69.1750 -3.7295 0.0120 0.0120 0.0180
v 51.4529 -74.5282 -4.2065 0.0120 0.0120 0.0180
v 55.5995 -78.5501 -4.6409 0.0120 0.0120 0.0180
v 61.2957 -79.3367 -3.9523 0.0120 0.0120 0.0180
v 66.2952 -77.0165 -3.4005 0.0120 0.0120 0.0180
v 69.7042 -73.8800 -4.0573 0.0120 0.0120 0.0180
v 72.9009 -71.4687 -4.0281 0.0120 0.0120 0.0180
v 76.9716 -68.7213 -3.7812 0.0120 0.0120 0.0180
vn -0.10877 -0.11078 0.98788
vn -0.10603 -0.11127 0.98812
vn -0.10603 -0.11149 0.98809
vn -0.10608 -0.11128 0.98811
vn -0.10352 -0.11830 0.98757
vn -0.09669 -0.13398 0.98626
vn -0.09146 -0.14406 0.98533
vn -0.08901 -0.14739 0.98506
vn -0.08597 -0.15075 0.98483
vn -0.08284 -0.15353 0.98467
vn -0.08016 -0.15546 0.98458
vn -0.07832 -0.15651 0.98457
vn -0.07748 -0.15690 0.98457
vn -0.07760 -0.15689 0.98456
vn -0.07861 -0.15673 0.98451
vn -0.10302 -0.15630 0.98232
vn -0.14389 -0.15745 0.97699
vn -0.16174 -0.15912 0.97392
vn -0.16332 -0.15953 0.97359
vn -0.16468 -0.16005 0.97328
vn -0.16575 -0.16062 0.97300
vn -0.16655 -0.16117 0.97277
vn -0.16713 -0.16168 0.97259
vn -0.16764 -0.16226 0.97240
vn -0.16820 -0.16310 0.97217
vn -0.15509 -0.13445 0.97871
vn -0.13044 -0.07242 0.98881
vn -0.11878 -0.03733 0.99222
vn -0.11827 -0.03479 0.99237
vn -0.11821 -0.03539 0.99236
vn -0.11796 -0.03859 0.99227
vn -0.11705 -0.04365 0.99217
vn -0.11524 -0.04980 0.99209
vn -0.11244 -0.05651 0.99205
vn -0.10858 -0.06346 0.99206
vn -0.10355 -0.07052 0.99212
vn -0.09889 -0.07591 0.99220
vn -0.09888 -0.07628 0.99217
vn -0.09539 -0.07820 0.99236
vn -0.08469 -0.08416 0.99285
vn -0.07381 -0.08874 0.99332
vn -0.06380 -0.09172 0.99374
vn -0.06549 -0.09205 0.99360
vn -0.08512 -0.09122 0.99219
vn -0.09644 -0.09089 0.99118
vn -0.09225 -0.09021 0.99164
vn -0.08801 -0.08902 0.99213
vn -0.08396 -0.08738 0.99263
vn -0.08031 -0.08539 0.99311
vn -0.08775 -0.09160 0.99192
vn -0.10030 -0.10220 0.98969
vn -0.10391 -0.10592 0.98893
vn -0.10464 -0.10695 0.98874
vn -0.10520 -0.10797 0.98857
vn -0.10560 -0.10896 0.98842
vn -0.10587 -0.10990 0.98829
vn -0.10600 -0.11070 0.98819
vn -0.13297 0.09832 0.98623
vn -0.11357 0.12112 0.98612
vn -0.11355 0.12123 0.98611
vn -0.11336 0.12026 0.98625
vn -0.11913 0.13706 0.98337
vn -0.12372 0.15171 0.98065
vn -0.12010 0.14528 0.98207
vn -0.11452 0.13741 0.98387
vn -0.10796 0.13006 0.98561
vn -0.10102 0.12386 0.98714
vn -0.09437 0.11915 0.98838
vn -0.08859 0.11595 0.98930
vn -0.08399 0.11405 0.98992
vn -0.08068 0.11308 0.99030
vn -0.07950 0.11281 0.99043
vn -0.09128 0.11271 0.98943
vn -0.10313 0.11255 0.98828
vn -0.10431 0.11230 0.98818
vn -0.10687 0.11149 0.98800
vn -0.11093 0.10970 0.98776
vn -0.11645 0.10653 0.98747
vn -0.12310 0.10169 0.98717
vn -0.13024 0.09519 0.98690
vn -0.13708 0.08747 0.98669
vn -0.14287 0.07932 0.98656
vn -0.14724 0.07145 0.98652
vn -0.15172 0.06014 0.98659
vn -0.15468 0.05126 0.98663
vn -0.15499 0.04983 0.98666
vn -0.15501 0.05048 0.98662
vn -0.15516 0.05285 0.98647
vn -0.15575 0.05643 0.98618
vn -0.15693 0.06070 0.98574
vn -0.15877 0.06530 0.98515
vn -0.16131 0.07003 0.98442
vn -0.16462 0.07481 0.98352
vn -0.16880 0.07958 0.98243
vn -0.17388 0.08419 0.98116
vn -0.17976 0.08839 0.97973
vn -0.17487 0.08651 0.98078
vn -0.17113 0.08417 0.98165
vn -0.18021 0.08664 0.97981
vn -0.19022 0.08824 0.97777
vn -0.16680 0.08919 0.98195
vn -0.14136 0.08918 0.98593
vn -0.15105 0.08720 0.98467
vn -0.16204 0.08396 0.98321
vn -0.14766 0.09176 0.98477
vn -0.12636 0.10256 0.98667
vn -0.12337 0.10470 0.98682
vn -0.12076 0.10704 0.98689
vn -0.11861 0.10943 0.98689
vn -0.11689 0.11182 0.98683
vn -0.11557 0.11417 0.98672
vn -0.11461 0.11642 0.98657
vn -0.11398 0.11846 0.98640
vn -0.11366 0.12011 0.98623
vn 0.19430 -0.12930 0.97238
vn 0.20091 -0.15600 0.96711
vn 0.19969 -0.13385 0.97067
vn 0.19800 -0.11584 0.97333
vn 0.19724 -0.11296 0.97383
vn 0.19611 -0.11002 0.97439
vn 0.19549 -0.10863 0.97467
vn 0.19725 -0.11093 0.97406
vn 0.19800 -0.11218 0.97376
vn 0.19604 -0.11038 0.97436
vn 0.19422 -0.10905 0.97488
vn 0.19274 -0.10821 0.97527
vn 0.19168 -0.10776 0.97552
vn 0.19107 -0.10758 0.97566
vn 0.19088 -0.10754 0.97571
vn 0.19105 -0.10753 0.97567
vn 0.19162 -0.10748 0.97557
vn 0.19263 -0.10726 0.97539
vn 0.18474 -0.11031 0.97658
vn 0.16472 -0.11934 0.97909
vn 0.15658 -0.12296 0.97998
vn 0.16329 -0.11803 0.97949
vn 0.17027 -0.11163 0.97905
vn 0.17691 -0.10407 0.97871
vn 0.18266 -0.09589 0.97849
vn 0.18714 -0.08783 0.97840
vn 0.19019 -0.08060 0.97843
vn 0.19195 -0.07481 0.97855
vn 0.18939 -0.09736 0.97706
vn 0.18590 -0.12885 0.97408
vn 0.18575 -0.13489 0.97329
vn 0.18584 -0.13537 0.97321
vn 0.18615 -0.13648 0.97300
vn 0.18674 -0.13799 0.97267
vn 0.18763 -0.13968 0.97226
vn 0.18884 -0.14143 0.97177
vn 0.19035 -0.14315 0.97122
vn 0.19211 -0.14474 0.97064
vn 0.19403 -0.14610 0.97005
vn 0.19899 -0.14856 0.96868
vn 0.20688 -0.15168 0.96654
vn 0.21094 -0.15299 0.96545
vn 0.21113 -0.15302 0.96541
vn 0.21111 -0.15303 0.96541
vn 0.21086 -0.15306 0.96546
vn 0.21039 -0.15316 0.96554
vn 0.20978 -0.15336 0.96565
vn 0.20908 -0.15368 0.96575
vn 0.20838 -0.15409 0.96583
vn 0.20774 -0.15456 0.96590
vn 0.20718 -0.15507 0.96593
vn 0.20673 -0.15558 0.96595
vn 0.20464 -0.15880 0.96587
vn 0.20060 -0.16605 0.96550
vn 0.19900 -0.16890 0.96534
vn 0.19990 -0.16602 0.96565
vn 0.20051 -0.16293 0.96605
vn 0.01376 -0.01741 0.99975
vn -0.01002 -0.04336 0.99901
vn -0.00992 -0.06075 0.99810
vn -0.01115 -0.05576 0.99838
vn -0.01131 -0.05337 0.99851
vn -0.00959 -0.05779 0.99828
vn -0.01106 -0.05576 0.99838
vn -0.01541 -0.04961 0.99865
vn -0.02099 -0.04346 0.99883
vn -0.01693 -0.04602 0.99880
vn -0.00681 -0.05366 0.99854
vn -0.00617 -0.05434 0.99850
vn -0.00481 -0.05455 0.99850
vn 0.00721 -0.05770 0.99831
vn 0.01449 -0.05952 0.99812
vn 0.01221 -0.05936 0.99816
vn 0.01577 -0.05887 0.99814
vn 0.02038 -0.05831 0.99809
vn 0.02180 -0.05785 0.99809
vn 0.01969 -0.05900 0.99806
vn 0.01696 -0.06027 0.99804
vn 0.01963 -0.05820 0.99811
vn 0.02646 -0.05185 0.99830
vn 0.02854 -0.05036 0.99832
vn 0.02826 -0.05002 0.99835
vn 0.03255 -0.04214 0.99858
vn 0.03700 -0.03122 0.99883
vn 0.03984 -0.02216 0.99896
vn 0.04085 -0.01611 0.99904
vn 0.04123 -0.00733 0.99912
vn 0.04103 0.00008 0.99916
vn 0.04046 0.00355 0.99917
vn 0.03877 0.00894 0.99921
vn 0.03685 0.01398 0.99922
vn 0.03733 0.01349 0.99921
vn 0.03672 0.01390 0.99923
vn 0.03293 0.01811 0.99929
vn 0.02870 0.02191 0.99935
vn 0.02481 0.02471 0.99939
vn 0.02284 0.02591 0.99940
vn 0.01951 0.02711 0.99944
vn 0.01455 0.02861 0.99948
vn 0.01193 0.02913 0.99950
vn 0.01038 0.02921 0.99952
vn 0.01167 0.02945 0.99950
vn 0.01174 0.02921 0.99950
vn 0.01162 0.02943 0.99950
vn 0.01681 0.03166 0.99936
vn 0.02212 0.03452 0.99916
vn 0.01748 0.03046 0.99938
vn 0.00869 0.02308 0.99970
vn 0.00673 0.02110 0.99975
vn 0.00656 0.02087 0.99976
vn 0.00544 0.01857 0.99981
vn -0.00221 -0.00247 0.99999
vn -0.00944 -0.02430 0.99966
vn -0.01010 -0.02682 0.99959
vn 0.04923 -0.08349 0.99529
vn 0.23023 -0.13857 0.96322
vn 0.23026 -0.15957 0.95996
vn 0.23236 -0.17514 0.95673
vn 0.23768 -0.19617 0.95133
vn 0.24531 -0.21761 0.94471
vn 0.24063 -0.21203 0.94717
vn 0.23107 -0.19606 0.95298
vn 0.22925 -0.19398 0.95384
vn 0.22144 -0.18755 0.95697
vn 0.18075 -0.16135 0.97021
vn 0.09389 -0.11537 0.98888
vn 0.03676 -0.08876 0.99537
vn 0.03202 -0.08729 0.99567
vn -0.00987 -0.08248 0.99654
vn -0.08486 -0.07761 0.99337
vn -0.11624 -0.07710 0.99022
vn -0.11046 -0.07609 0.99096
vn -0.12003 -0.07980 0.98956
vn -0.13796 -0.08669 0.98664
vn -0.13931 -0.08675 0.98644
vn -0.13811 -0.08645 0.98664
vn -0.13372 -0.08148 0.98766
vn -0.12199 -0.06832 0.99018
vn -0.11603 -0.06038 0.99141
vn -0.11498 -0.05867 0.99163
vn -0.11570 -0.06080 0.99142
vn -0.11585 -0.06030 0.99143
vn -0.11497 -0.05484 0.99185
vn -0.11468 -0.05059 0.99211
vn -0.11489 -0.04738 0.99225
vn -0.11553 -0.04374 0.99234
vn -0.11654 -0.04018 0.99237
vn -0.11826 -0.03615 0.99232
vn -0.12056 -0.03189 0.99219
vn -0.12253 -0.02900 0.99204
vn -0.12473 -0.02657 0.99184
vn -0.12783 -0.02378 0.99151
vn -0.13280 -0.02030 0.99094
vn -0.12721 -0.02258 0.99162
vn -0.07028 -0.04397 0.99656
vn -0.02253 -0.06075 0.99790
vn -0.02081 -0.06097 0.99792
vn 0.04005 -0.06110 0.99733
vn 0.15408 -0.05416 0.98657
vn 0.21296 -0.04620 0.97597
vn 0.22285 -0.04308 0.97390
vn 0.25306 -0.02821 0.96704
vn 0.28337 -0.01154 0.95894
vn 0.28527 -0.01085 0.95838
vn 0.27900 -0.01690 0.96014
vn 0.27401 -0.02289 0.96146
vn 0.26304 -0.04071 0.96392
vn 0.24542 -0.07437 0.96656
vn 0.23587 -0.09515 0.96712
vn 0.23415 -0.10128 0.96691
vn 0.23193 -0.11476 0.96594
vn -0.02343 0.00501 0.99971
vn 0.07135 -0.01883 0.99727
vn 0.07125 -0.02220 0.99721
vn 0.07113 -0.02125 0.99724
vn 0.07358 -0.02829 0.99689
vn 0.07626 -0.03581 0.99644
vn 0.07724 -0.03752 0.99631
vn 0.08356 -0.04574 0.99545
vn 0.09109 -0.05476 0.99434
vn 0.09263 -0.05639 0.99410
vn 0.08452 -0.05122 0.99510
vn 0.06153 -0.03899 0.99734
vn 0.04340 -0.03061 0.99859
vn 0.00794 -0.02222 0.99972
vn -0.06769 -0.00978 0.99766
vn -0.10930 -0.00497 0.99400
vn -0.14828 -0.00946 0.98890
vn -0.22537 -0.02291 0.97400
vn -0.25256 -0.02805 0.96717
vn -0.25348 -0.02985 0.96688
vn -0.26775 -0.03780 0.96275
vn -0.25497 -0.02614 0.96659
vn -0.22250 0.00465 0.97492
vn -0.19097 0.04172 0.98071
vn -0.16130 0.08434 0.98329
vn -0.13704 0.12762 0.98231
vn -0.11938 0.16801 0.97853
vn -0.10797 0.20365 0.97307
vn -0.10268 0.22727 0.96840
vn -0.10210 0.21633 0.97097
vn -0.10229 0.19499 0.97546
vn -0.09924 0.17945 0.97875
vn -0.08108 0.12153 0.98927
vn -0.06120 0.06711 0.99587
vn -0.04445 0.03841 0.99827
vn -0.01275 -0.00570 0.99990
vn 0.01158 -0.03475 0.99933
vn 0.01654 -0.03982 0.99907
vn 0.02018 -0.04201 0.99891
vn 0.02976 -0.04720 0.99844
vn 0.03097 -0.04833 0.99835
vn 0.02625 -0.04677 0.99856
vn 0.02887 -0.04698 0.99848
vn 0.03114 -0.04735 0.99839
vn 0.03258 -0.04707 0.99836
vn 0.03852 -0.04599 0.99820
vn 0.04646 -0.04363 0.99797
vn 0.05143 -0.04182 0.99780
vn 0.05379 -0.04041 0.99773
vn 0.05916 -0.03643 0.99758
vn 0.06543 -0.03086 0.99738
vn 0.06875 -0.02740 0.99726
vn 0.06824 -0.02840 0.99726
vn 0.06847 -0.02740 0.99728
vn 0.06965 -0.02504 0.99726
vn 0.07012 -0.02282 0.99728
vn 0.07103 -0.01733 0.99732
vn 0.05093 0.03367 0.99813
vn 0.08340 0.08206 0.99313
vn 0.08405 0.07466 0.99366
vn 0.08640 0.06203 0.99433
vn 0.08819 0.05449 0.99461
vn 0.08818 0.05444 0.99462
vn 0.09429 0.04475 0.99454
vn 0.10034 0.03502 0.99434
vn 0.09290 0.04256 0.99477
vn 0.08354 0.05159 0.99517
vn 0.07978 0.05430 0.99533
vn 0.07573 0.05654 0.99552
vn 0.07061 0.05866 0.99578
vn 0.06667 0.05993 0.99597
vn 0.06481 0.06026 0.99608
vn 0.06067 0.06037 0.99633
vn 0.05558 0.06019 0.99664
vn 0.05282 0.05978 0.99681
vn 0.04833 0.05833 0.99713
vn 0.03088 0.05043 0.99825
vn 0.01602 0.04310 0.99894
vn 0.01335 0.04119 0.99906
vn 0.00821 0.03633 0.99931
vn 0.00022 0.02726 0.99963
vn 0.00973 0.04381 0.99899
vn 0.02548 0.06985 0.99723
vn 0.02896 0.07814 0.99652
vn 0.03183 0.08861 0.99556
vn 0.03381 0.09953 0.99446
vn 0.03429 0.10541 0.99384
vn 0.03517 0.09940 0.99443
vn 0.04333 0.06038 0.99723
vn 0.05073 0.02818 0.99831
vn 0.05086 0.02793 0.99832
vn 0.05936 0.01431 0.99813
vn 0.09717 -0.03622 0.99461
vn 0.12139 -0.06811 0.99027
vn 0.11142 -0.05922 0.99201
vn 0.09899 -0.05044 0.99381
vn 0.08324 -0.04186 0.99565
vn 0.08212 -0.04030 0.99581
vn 0.06968 -0.03840 0.99683
vn 0.03012 -0.03174 0.99904
vn -0.00940 -0.02952 0.99952
vn -0.04244 -0.03100 0.99862
vn -0.06553 -0.03468 0.99725
vn -0.04483 -0.02625 0.99865
vn -0.00456 -0.01102 0.99993
vn 0.00826 -0.00429 0.99996
vn 0.01592 0.00116 0.99987
vn 0.02476 0.00921 0.99965
vn 0.05345 0.04395 0.99760
vn 0.08035 0.07883 0.99364
vn 0.08321 0.08330 0.99304
vn 0.08273 0.08210 0.99318
vn 0.08308 0.08405 0.99299
vn 0.08352 0.08538 0.99284
vn -0.03315 0.01572 0.99933
vn -0.02427 0.02528 0.99939
vn -0.02531 0.03341 0.99912
vn -0.02652 0.04329 0.99871
vn -0.02590 0.04182 0.99879
vn -0.02395 0.03713 0.99902
vn -0.02539 0.03887 0.99892
vn -0.02669 0.04138 0.99879
vn -0.02503 0.03939 0.99891
vn -0.02598 0.04007 0.99886
vn -0.02493 0.03964 0.99890
vn -0.02043 0.03711 0.99910
vn -0.01769 0.03588 0.99920
vn -0.01929 0.03617 0.99916
vn -0.02078 0.03660 0.99911
vn -0.01952 0.03651 0.99914
vn -0.01854 0.03657 0.99916
vn -0.01549 0.03720 0.99919
vn -0.01412 0.03739 0.99920
vn -0.01683 0.03622 0.99920
vn -0.02069 0.03403 0.99921
vn -0.01958 0.03528 0.99919
vn -0.02012 0.03410 0.99922
vn -0.02722 0.02612 0.99929
vn -0.03343 0.01739 0.99929
vn -0.03767 0.00993 0.99924
vn -0.03994 0.00459 0.99919
vn -0.04117 0.00042 0.99915
vn -0.04186 -0.00372 0.99912
vn -0.04212 -0.00618 0.99909
vn -0.04214 -0.00608 0.99909
vn -0.04218 -0.00582 0.99909
vn -0.04164 -0.00735 0.99911
vn -0.04104 -0.00902 0.99912
vn -0.04097 -0.00916 0.99912
vn -0.04087 -0.00929 0.99912
vn -0.04179 -0.00839 0.99909
vn -0.04442 -0.00609 0.99899
vn -0.04558 -0.00509 0.99895
vn -0.04471 -0.00558 0.99898
vn -0.04410 -0.00584 0.99901
vn -0.04591 -0.00545 0.99893
vn -0.04930 -0.00484 0.99877
vn -0.05144 -0.00468 0.99866
vn -0.05300 -0.00477 0.99858
vn -0.05094 -0.00421 0.99869
vn -0.04804 -0.00355 0.99884
vn -0.04813 -0.00358 0.99883
vn -0.04813 -0.00358 0.99883
vn -0.04534 -0.00136 0.99897
vn -0.03550 0.00793 0.99934
vn -0.02834 0.01508 0.99948
vn -0.02844 0.01494 0.99948
vn -0.02856 0.01471 0.99948
vn -0.02653 0.02056 0.99944
vn -0.02427 0.02731 0.99933
vn -0.02418 0.02730 0.99933
vn -0.08585 -0.20625 0.97473
vn -0.30629 -0.15849 0.93865
vn -0.30248 -0.19363 0.93328
vn -0.29395 -0.23063 0.92758
vn -0.27840 -0.27392 0.92058
vn -0.25650 -0.31861 0.91252
vn -0.23605 -0.35122 0.90605
vn -0.21759 -0.37385 0.90160
vn -0.19209 -0.39861 0.89678
vn -0.15539 -0.42719 0.89071
vn -0.11114 -0.45444 0.88382
vn -0.07252 -0.47307 0.87803
vn -0.04885 -0.48167 0.87499
vn -0.02661 -0.48670 0.87316
vn 0.00241 -0.49062 0.87137
vn 0.02742 -0.49171 0.87033
vn 0.04121 -0.49116 0.87009
vn 0.04443 -0.49085 0.87011
vn 0.03092 -0.49463 0.86856
vn 0.02562 -0.49537 0.86831
vn 0.04696 -0.48569 0.87287
vn 0.05899 -0.47989 0.87534
vn 0.07399 -0.46785 0.88071
vn 0.09587 -0.44929 0.88823
vn 0.10244 -0.44240 0.89095
vn 0.10759 -0.43463 0.89416
vn 0.11554 -0.41982 0.90022
vn 0.12425 -0.39672 0.90949
vn 0.13288 -0.36077 0.92314
vn 0.13798 -0.31606 0.93865
vn 0.13745 -0.27123 0.95265
vn 0.13005 -0.22186 0.96637
vn 0.11697 -0.17208 0.97811
vn 0.09313 -0.11558 0.98892
vn 0.05765 -0.05038 0.99706
vn 0.01600 0.00824 0.99984
vn -0.02821 0.05816 0.99791
vn -0.07276 0.09772 0.99255
vn -0.11784 0.12951 0.98455
vn -0.17794 0.16062 0.97084
vn -0.23768 0.18479 0.95360
vn -0.26259 0.19229 0.94555
vn -0.23660 0.19092 0.95266
vn -0.16335 0.19050 0.96800
vn -0.07613 0.19712 0.97742
vn -0.02633 0.20381 0.97866
vn -0.04747 0.19572 0.97951
vn -0.10472 0.17199 0.97952
vn -0.16128 0.14007 0.97692
vn -0.21480 0.10073 0.97145
vn -0.24732 0.07188 0.96626
vn -0.25849 0.05893 0.96421
vn -0.26389 0.05132 0.96319
vn -0.27194 0.03432 0.96170
vn -0.28487 0.00023 0.95857
vn -0.29720 -0.05038 0.95348
vn -0.30525 -0.11133 0.94574
vn 0.00000 0.00000 1.00000
vn 0.00000 0.00000 1.00000
vn 0.00000 0.00000 1.00000
vn 0.00000 0.00000 1.00000
vn 0.00000 0.00000 1.00000
vn 0.00000 0.00000 1.00000
vn 0.08691 -0.12306 0.98859
vn 0.04916 -0.11748 0.99186
vn 0.02551 -0.12910 0.99130
vn -0.04571 -0.14004 0.98909
vn -0.08047 -0.17861 0.98062
vn -0.08574 -0.17725 0.98042
vn -0.21769 -0.01499 0.97590
vn -0.21226 -0.01565 0.97709
vn -0.21203 -0.01770 0.97710
vn -0.20253 -0.02223 0.97902
vn -0.20213 -0.02880 0.97894
vn -0.17648 -0.03452 0.98370
vn 0.01905 -0.03814 0.99909
vn 0.03069 -0.04020 0.99872
vn 0.03585 -0.03912 0.99859
vn 0.05436 -0.03946 0.99774
vn 0.05874 -0.03430 0.99768
vn 0.05871 -0.03429 0.99769
vn -0.00816 -0.03410 0.99938
vn -0.01711 -0.03251 0.99932
vn -0.01912 -0.03104 0.99934
vn -0.03163 -0.02708 0.99913
vn -0.03054 -0.02384 0.99925
vn -0.03766 -0.02191 0.99905
vn -0.07701 0.12140 0.98961
vn -0.08305 0.12240 0.98900
vn -0.07442 0.13492 0.98806
vn -0.07613 0.15629 0.98477
vn -0.05526 0.19455 0.97934
vn -0.10927 0.20779 0.97205
vn 0.00492 -0.00076 0.99999
vn 0.00640 -0.00057 0.99998
vn 0.00585 -0.00170 0.99998
vn 0.01296 -0.00301 0.99991
vn 0.01779 -0.00636 0.99982
vn 0.05881 -0.00531 0.99826
vn -0.10258 0.03667 0.99405
vn -0.16421 0.02880 0.98601
vn -0.16757 0.04535 0.98482
vn -0.21246 0.06215 0.97519
vn -0.14528 0.11928 0.98217
vn -0.03806 0.12204 0.99180
vn -0.13130 -0.11011 0.98521
vn -0.12757 -0.11098 0.98560
vn -0.10427 -0.08514 0.99090
vn -0.06985 -0.04624 0.99649
vn -0.00637 0.03534 0.99936
vn -0.03122 0.04298 0.99859
vn -0.05132 0.07842 0.99560
vn -0.06697 0.07633 0.99483
vn -0.05695 0.09314 0.99402
vn -0.05316 0.11578 0.99185
vn -0.00408 0.16695 0.98596
vn 0.02009 0.16744 0.98568
vn 0.03581 -0.02906 0.99894
vn 0.02676 -0.03015 0.99919
vn 0.02587 -0.02817 0.99927
vn 0.01827 -0.02627 0.99949
vn 0.02687 -0.01933 0.99945
vn 0.04100 -0.01914 0.99898
vn -0.00228 0.01042 0.99994
vn 0.03140 0.01379 0.99941
vn 0.02819 -0.00142 0.99960
vn 0.05945 -0.02052 0.99802
vn 0.02331 -0.06892 0.99735
vn 0.05021 -0.06901 0.99635
vn -0.03261 -0.01443 0.99936
vn -0.05613 -0.00864 0.99839
vn -0.05908 -0.04783 0.99711
vn -0.06617 -0.05297 0.99640
vn -0.07557 -0.01259 0.99706
vn -0.08069 -0.00480 0.99673
vn -0.04055 -0.00125 0.99918
vn 0.00001 0.00124 1.00000
vn -0.00028 0.00096 1.00000
vn -0.00051 0.00061 1.00000
vn -0.00070 0.00003 1.00000
vn -0.00132 -0.01009 0.99995
vn -0.00193 -0.01778 0.99984
vn -0.00264 -0.01602 0.99987
vn -0.00690 -0.01260 0.99990
vn -0.03109 -0.01092 0.99946
vn -0.05846 -0.01307 0.99820
vn -0.05987 -0.01430 0.99810
vn -0.05705 -0.00798 0.99834
vn -0.05842 -0.03722 0.99760
vn -0.08933 -0.10503 0.99045
vn -0.09877 -0.08064 0.99184
vn -0.11658 -0.04792 0.99202
vn -0.12771 -0.03178 0.99130
vn -0.10807 -0.03459 0.99354
vn -0.05289 -0.01622 0.99847
vn -0.02000 0.00432 0.99979
vn -0.02026 0.00304 0.99979
vn -0.02036 -0.00083 0.99979
vn -0.01981 -0.00550 0.99979
vn -0.01751 -0.01179 0.99978
vn -0.01106 -0.02243 0.99969
vn -0.00751 -0.02796 0.99958
vn -0.02840 -0.02494 0.99929
vn -0.06133 -0.02654 0.99776
vn -0.07786 -0.04483 0.99596
vn -0.08734 -0.07148 0.99361
vn -0.08837 -0.09952 0.99110
vn -0.09666 -0.02689 0.99495
vn -0.05090 0.03573 0.99806
vn -0.05376 -0.02082 0.99834
vn -0.04819 -0.06685 0.99660
vn -0.05184 -0.07278 0.99600
vn -0.08080 -0.04670 0.99564
vn -0.11374 -0.03857 0.99276
vn -0.12976 -0.04363 0.99059
vn -0.11323 -0.01440 0.99346
vn -0.10405 -0.01261 0.99449
vn -0.11517 -0.04994 0.99209
vn -0.11522 -0.08231 0.98992
vn -0.11567 -0.09810 0.98843
vn -0.14909 -0.04453 0.98782
vn -0.16651 -0.00160 0.98604
vn -0.13998 -0.01104 0.99009
vn -0.09895 0.01726 0.99494
vn -0.05117 0.06490 0.99658
vn -0.04431 0.07313 0.99634
vn 0.03262 0.15403 0.98753
vn -0.07112 0.15027 0.98608
vn -0.05589 0.21140 0.97580
vn -0.04803 0.20280 0.97804
vn -0.02694 0.12026 0.99238
vn 0.00236 0.06785 0.99769
vn 0.01900 0.06107 0.99795
vn 0.04223 0.06980 0.99667
vn 0.07706 0.09979 0.99202
vn 0.10662 0.13933 0.98449
vn 0.11992 0.16765 0.97853
vn 0.12303 0.17818 0.97628
vn 0.12439 0.16908 0.97772
vn 0.11911 0.17343 0.97762
vn 0.10013 0.19645 0.97539
vn 0.06022 0.20818 0.97623
vn 0.00195 0.19536 0.98073
vn -0.05238 0.15263 0.98689
vn -0.08030 0.11828 0.98973
vn 0.14593 -0.39925 0.90515
vn 0.14776 -0.48219 0.86351
vn 0.14523 -0.50848 0.84874
vn 0.08367 -0.57499 0.81387
vn 0.08596 -0.48738 0.86895
vn 0.07597 -0.33879 0.93779
vn 0.08116 -0.32728 0.94143
vn 0.07965 -0.33515 0.93879
vn 0.06396 -0.33484 0.94010
vn 0.11302 -0.30574 0.94538
vn 0.17487 -0.26211 0.94906
vn 0.18682 -0.25125 0.94972
vn 0.17059 -0.29269 0.94087
vn 0.15729 -0.32363 0.93302
vn 0.16633 -0.33576 0.92714
vn 0.26078 -0.39083 0.88275
vn 0.35351 -0.43062 0.83042
vn 0.22788 -0.47978 0.84728
vn 0.09233 -0.53110 0.84226
vn -0.02359 -0.18034 0.98332
vn -0.23600 -0.23290 0.94343
vn -0.22437 -0.31545 0.92204
vn -0.18879 -0.36168 0.91299
vn -0.11508 -0.41788 0.90119
vn -0.03283 -0.44811 0.89337
vn 0.03018 -0.44958 0.89273
vn 0.10051 -0.42338 0.90036
vn 0.17255 -0.37054 0.91265
vn 0.21194 -0.31737 0.92431
vn 0.22631 -0.22139 0.94856
vn 0.20847 -0.08539 0.97429
vn 0.16215 0.00469 0.98676
vn 0.02366 0.10100 0.99460
vn -0.13812 0.17475 0.97488
vn -0.11616 0.19771 0.97335
vn -0.06415 0.18728 0.98021
vn -0.13585 0.13889 0.98095
vn -0.20341 -0.03303 0.97854
f 1//1 2//2 3//3
f 1//1 3//3 4//4
f 1//1 4//4 5//5
f 1//1 5//5 6//6
f 1//1 6//6 7//7
f 1//1 7//7 8//8
f 1//1 8//8 9//9
f 1//1 9//9 10//10
f 1//1 10//10 11//11
f 1//1 11//11 12//12
f 1//1 12//12 13//13
f 1//1 13//13 14//14
f 1//1 14//14 15//15
f 1//1 15//15 16//16
f 1//1 16//16 17//17
f 1//1 17//17 18//18
f 1//1 18//18 19//19
f 1//1 19//19 20//20
f 1//1 20//20 21//21
f 1//1 21//21 22//22
f 1//1 22//22 23//23
f 1//1 23//23 24//24
f 1//1 24//24 25//25
f 1//1 25//25 26//26
f 1//1 26//26 27//27
f 1//1 27//27 28//28
f 1//1 28//28 29//29
f 1//1 29//29 30//30
f 1//1 30//30 31//31
f 1//1 31//31 32//32
f 1//1 32//32 33//33
f 1//1 33//33 34//34
f 1//1 34//34 35//35
f 1//1 35//35 36//36
f 1//1 36//36 37//37
f 1//1 37//37 38//38
f 1//1 38//38 39//39
f 1//1 39//39 40//40
f 1//1 40//40 41//41
f 1//1 41//41 42//42
f 1//1 42//42 43//43
f 1//1 43//43 44//44
f 1//1 44//44 45//45
f 1//1 45//45 46//46
f 1//1 46//46 47//47
f 1//1 47//47 48//48
f 1//1 48//48 49//49
f 1//1 49//49 50//50
f 1//1 50//50 51//51
f 1//1 51//51 52//52
f 1//1 52//52 53//53
f 1//1 53//53 54//54
f 1//1 54//54 55//55
f 1//1 55//55 56//56
f 1//1 56//56 57//57
f 1//1 57//57 2//2
f 58//58 59//59 60//60
f 58//58 60//60 61//61
f 58//58 61//61 62//62
f 58//58 62//62 63//63
f 58//58 63//63 64//64
f 58//58 64//64 65//65
f 58//58 65//65 66//66
f 58//58 66//66 67//67
f 58//58 67//67 68//68
f 58//58 68//68 69//69
f 58//58 69//69 70//70
f 58//58 70//70 71//71
f 58//58 71//71 72//72
f 58//58 72//72 73//73
f 58//58 73//73 74//74
f 58//58 74//74 75//75
f 58//58 75//75 76//76
f 58//58 76//76 77//77
f 58//58 77//77 78//78
f 58//58 78//78 79//79
f 58//58 79//79 80//80
f 58//58 80//80 81//81
f 58//58 81//81 82//82
f 58//58 82//82 83//83
f 58//58 83//83 84//84
f 58//58 84//84 85//85
f 58//58 85//85 86//86
f 58//58 86//86 87//87
f 58//58 87//87 88//88
f 58//58 88//88 89//89
f 58//58 89//89 90//90
f 58//58 90//90 91//91
f 58//58 91//91 92//92
f 58//58 92//92 93//93
f 58//58 93//93 94//94
f 58//58 94//94 95//95
f 58//58 95//95 96//96
f 58//58 96//96 97//97
f 58//58 97//97 98//98
f 58//58 98//98 99//99
f 58//58 99//99 100//100
f 58//58 100//100 101//101
f 58//58 101//101 102//102
f 58//58 102//102 103//103
f 58//58 103//103 104//104
f 58//58 104//104 105//105
f 58//58 105//105 106//106
f 58//58 106//106 107//107
f 58//58 107//107 108//108
f 58//58 108//108 109//109
f 58//58 109//109 110//110
f 58//58 110//110 111//111
f 58//58 111//111 112//112
f 58//58 112//112 113//113
f 58//58 113//113 114//114
f 58//58 114//114 59//59
f 115//115 116//116 117//117
f 115//115 117//117 118//118
f 115//115 118//118 119//119
f 115//115 119//119 120//120
f 115//115 120//120 121//121
f 115//115 121//121 122//122
f 115//115 122//122 123//123
f 115//115 123//123 124//124
f 115//115 124//124 125//125
f 115//115 125//125 126//126
f 115//115 126//126 127//127
f 115//115 127//127 128//128
f 115//115 128//128 129//129
f 115//115 129//129 130//130
f 115//115 130//130 131//131
f 115//115 131//131 132//132
f 115//115 132//132 133//133
f 115//115 133//133 134//134
f 115//115 134//134 135//135
f 115//115 135//135 136//136
f 115//115 136//136 137//137
f 115//115 137//137 138//138
f 115//115 138//138 139//139
f 115//115 139//139 140//140
f 115//115 140//140 141//141
f 115//115 141//141 142//142
f 115//115 142//142 143//143
f 115//115 143//143 144//144
f 115//115 144//144 145//145
f 115//115 145//145 146//146
f 115//115 146//146 147//147
f 115//115 147//147 148//148
f 115//115 148//148 149//149
f 115//115 149//149 150//150
f 115//115 150//150 151//151
f 115//115 151//151 152//152
f 115//115 152//152 153//153
f 115//115 153//153 154//154
f 115//115 154//154 155//155
f 115//115 155//155 156//156
f 115//115 156//156 157//157
f 115//115 157//157 158//158
f 115//115 158//158 159//159
f 115//115 159//159 160//160
f 115//115 160//160 161//161
f 115//115 161//161 162//162
f 115//115 162//162 163//163
f 115//115 163//163 164//164
f 115//115 164//164 165//165
f 115//115 165//165 166//166
f 115//115 166//166 167//167
f 115//115 167//167 168//168
f 115//115 168//168 169//169
f 115//115 169//169 170//170
f 115//115 170//170 171//171
f 115//115 171//171 116//116
f 172//172 173//173 174//174
f 172//172 174//174 175//175
f 172//172 175//175 176//176
f 172//172 176//176 177//177
f 172//172 177//177 178//178
f 172//172 178//178 179//179
f 172//172 179//179 180//180
f 172//172 180//180 181//181
f 172//172 181//181 182//182
f 172//172 182//182 183//183
f 172//172 183//183 184//184
f 172//172 184//184 185//185
f 172//172 185//185 186//186
f 172//172 186//186 187//187
f 172//172 187//187 188//188
f 172//172 188//188 189//189
f 172//172 189//189 190//190
f 172//172 190//190 191//191
f 172//172 191//191 192//192
f 172//172 192//192 193//193
f 172//172 193//193 194//194
f 172//172 194//194 195//195
f 172//172 195//195 196//196
f 172//172 196//196 197//197
f 172//172 197//197 198//198
f 172//172 198//198 199//199
f 172//172 199//199 200//200
f 172//172 200//200 201//201
f 172//172 201//201 202//202
f 172//172 202//202 203//203
f 172//172 203//203 204//204
f 172//172 204//204 205//205
f 172//172 205//205 206//206
f 172//172 206//206 207//207
f 172//172 207//207 208//208
f 172//172 208//208 209//209
f 172//172 209//209 210//210
f 172//172 210//210 211//211
f 172//172 211//211 212//212
f 172//172 212//212 213//213
f 172//172 213//213 214//214
f 172//172 214//214 215//215
f 172//172 215//215 216//216
f 172//172 216//216 217//217
f 172//172 217//217 218//218
f 172//172 218//218 219//219
f 172//172 219//219 220//220
f 172//172 220//220 221//221
f 172//172 221//221 222//222
f 172//172 222//222 223//223
f 172//172 223//223 224//224
f 172//172 224//224 225//225
f 172//172 225//225 226//226
f 172//172 226//226 227//227
f 172//172 227//227 228//228
f 172//172 228//228 173//173
f 229//229 230//230 231//231
f 229//229 231//231 232//232
f 229//229 232//232 233//233
f 229//229 233//233 234//234
f 229//229 234//234 235//235
f 229//229 235//235 236//236
f 229//229 236//236 237//237
f 229//229 237//237 238//238
f 229//229 238//238 239//239
f 229//229 239//239 240//240
f 229//229 240//240 241//241
f 229//229 241//241 242//242
f 229//229 242//242 243//243
f 229//229 243//243 244//244
f 229//229 244//244 245//245
f 229//229 245//245 246//246
f 229//229 246//246 247//247
f 229//229 247//247 248//248
f 229//229 248//248 249//249
f 229//229 249//249 250//250
f 229//229 250//250 251//251
f 229//229 251//251 252//252
f 229//229 252//252 253//253
f 229//229 253//253 254//254
f 229//229 254//254 255//255
f 229//229 255//255 256//256
f 229//229 256//256 257//257
f 229//229 257//257 258//258
f 229//229 258//258 259//259
f 229//229 259//259 260//260
f 229//229 260//260 261//261
f 229//229 261//261 262//262
f 229//229 262//262 263//263
f 229//229 263//263 264//264
f 229//229 264//264 265//265
f 229//229 265//265 266//266
f 229//229 266//266 267//267
f 229//229 267//267 268//268
f 229//229 268//268 269//269
f 229//229 269//269 270//270
f 229//229 270//270 271//271
f 229//229 271//271 272//272
f 229//229 272//272 273//273
f 229//229 273//273 274//274
f 229//229 274//274 275//275
f 229//229 275//275 276//276
f 229//229 276//276 277//277
f 229//229 277//277 278//278
f 229//229 278//278 279//279
f 229//229 279//279 280//280
f 229//229 280//280 281//281
f 229//229 281//281 282//282
f 229//229 282//282 283//283
f 229//229 283//283 284//284
f 229//229 284//284 285//285
f 229//229 285//285 230//230
f 286//286 287//287 288//288
f 286//286 288//288 289//289
f 286//286 289//289 290//290
f 286//286 290//290 291//291
f 286//286 291//291 292//292
f 286//286 292//292 293//293
f 286//286 293//293 294//294
f 286//286 294//294 295//295
f 286//286 295//295 296//296
f 286//286 296//296 297//297
f 286//286 297//297 298//298
f 286//286 298//298 299//299
f 286//286 299//299 300//300
f 286//286 300//300 301//301
f 286//286 301//301 302//302
f 286//286 302//302 303//303
f 286//286 303//303 304//304
f 286//286 304//304 305//305
f 286//286 305//305 306//306
f 286//286 306//306 307//307
f 286//286 307//307 308//308
f 286//286 308//308 309//309
f 286//286 309//309 310//310
f 286//286 310//310 311//311
f 286//286 311//311 312//312
f 286//286 312//312 313//313
f 286//286 313//313 314//314
f 286//286 314//314 315//315
f 286//286 315//315 316//316
f 286//286 316//316 317//317
f 286//286 317//317 318//318
f 286//286 318//318 319//319
f 286//286 319//319 320//320
f 286//286 320//320 321//321
f 286//286 321//321 322//322
f 286//286 322//322 323//323
f 286//286 323//323 324//324
f 286//286 324//324 325//325
f 286//286 325//325 326//326
f 286//286 326//326 327//327
f 286//286 327//327 328//328
f 286//286 328//328 329//329
f 286//286 329//329 330//330
f 286//286 330//330 331//331
f 286//286 331//331 332//332
f 286//286 332//332 333//333
f 286//286 333//333 334//334
f 286//286 334//334 335//335
f 286//286 335//335 336//336
f 286//286 336//336 337//337
f 286//286 337//337 338//338
f 286//286 338//338 339//339
f 286//286 339//339 340//340
f 286//286 340//340 341//341
f 286//286 341//341 342//342
f 286//286 342//342 287//287
f 343//343 344//344 345//345
f 343//343 345//345 346//346
f 343//343 346//346 347//347
f 343//343 347//347 348//348
f 343//343 348//348 349//349
f 343//343 349//349 350//350
f 343//343 350//350 351//351
f 343//343 351//351 352//352
f 343//343 352//352 353//353
f 343//343 353//353 354//354
f 343//343 354//354 355//355
f 343//343 355//355 356//356
f 343//343 356//356 357//357
f 343//343 357//357 358//358
f 343//343 358//358 359//359
f 343//343 359//359 360//360
f 343//343 360//360 361//361
f 343//343 361//361 362//362
f 343//343 362//362 363//363
f 343//343 363//363 364//364
f 343//343 364//364 365//365
f 343//343 365//365 366//366
f 343//343 366//366 367//367
f 343//343 367//367 368//368
f 343//343 368//368 369//369
f 343//343 369//369 370//370
f 343//343 370//370 371//371
f 343//343 371//371 372//372
f 343//343 372//372 373//373
f 343//343 373//373 374//374
f 343//343 374//374 375//375
f 343//343 375//375 376//376
f 343//343 376//376 377//377
f 343//343 377//377 378//378
f 343//343 378//378 379//379
f 343//343 379//379 380//380
f 343//343 380//380 381//381
f 343//343 381//381 382//382
f 343//343 382//382 383//383
f 343//343 383//383 384//384
f 343//343 384//384 385//385
f 343//343 385//385 386//386
f 343//343 386//386 387//387
f 343//343 387//387 388//388
f 343//343 388//388 389//389
f 343//343 389//389 390//390
f 343//343 390//390 391//391
f 343//343 391//391 392//392
f 343//343 392//392 393//393
f 343//343 393//393 394//394
f 343//343 394//394 395//395
f 343//343 395//395 396//396
f 343//343 396//396 397//397
f 343//343 397//397 398//398
f 343//343 398//398 399//399
f 343//343 399//399 344//344
f 400//400 401//401 402//402
f 400//400 402//402 403//403
f 400//400 403//403 404//404
f 400//400 404//404 405//405
f 400//400 405//405 406//406
f 400//400 406//406 407//407
f 400//400 407//407 408//408
f 400//400 408//408 409//409
f 400//400 409//409 410//410
f 400//400 410//410 411//411
f 400//400 411//411 412//412
f 400//400 412//412 413//413
f 400//400 413//413 414//414
f 400//400 414//414 415//415
f 400//400 415//415 416//416
f 400//400 416//416 417//417
f 400//400 417//417 418//418
f 400//400 418//418 419//419
f 400//400 419//419 420//420
f 400//400 420//420 421//421
f 400//400 421//421 422//422
f 400//400 422//422 423//423
f 400//400 423//423 424//424
f 400//400 424//424 425//425
f 400//400 425//425 426//426
f 400//400 426//426 427//427
f 400//400 427//427 428//428
f 400//400 428//428 429//429
f 400//400 429//429 430//430
f 400//400 430//430 431//431
f 400//400 431//431 432//432
f 400//400 432//432 433//433
f 400//400 433//433 434//434
f 400//400 434//434 435//435
f 400//400 435//435 436//436
f 400//400 436//436 437//437
f 400//400 437//437 438//438
f 400//400 438//438 439//439
f 400//400 439//439 440//440
f 400//400 440//440 441//441
f 400//400 441//441 442//442
f 400//400 442//442 443//443
f 400//400 443//443 444//444
f 400//400 444//444 445//445
f 400//400 445//445 446//446
f 400//400 446//446 447//447
f 400//400 447//447 448//448
f 400//400 448//448 449//449
f 400//400 449//449 450//450
f 400//400 450//450 451//451
f 400//400 451//451 452//452
f 400//400 452//452 453//453
f 400//400 453//453 454//454
f 400//400 454//454 455//455
f 400//400 455//455 456//456
f 400//400 456//456 401//401
f 457//457 458//458 459//459
f 457//457 459//459 460//460
f 457//457 460//460 461//461
f 457//457 461//461 462//462
f 457//457 462//462 463//463
f 457//457 463//463 464//464
f 457//457 464//464 465//465
f 457//457 465//465 466//466
f 457//457 466//466 467//467
f 457//457 467//467 468//468
f 457//457 468//468 469//469
f 457//457 469//469 470//470
f 457//457 470//470 471//471
f 457//457 471//471 472//472
f 457//457 472//472 473//473
f 457//457 473//473 474//474
f 457//457 474//474 475//475
f 457//457 475//475 476//476
f 457//457 476//476 477//477
f 457//457 477//477 478//478
f 457//457 478//478 479//479
f 457//457 479//479 480//480
f 457//457 480//480 481//481
f 457//457 481//481 482//482
f 457//457 482//482 483//483
f 457//457 483//483 484//484
f 457//457 484//484 485//485
f 457//457 485//485 486//486
f 457//457 486//486 487//487
f 457//457 487//487 488//488
f 457//457 488//488 489//489
f 457//457 489//489 490//490
f 457//457 490//490 491//491
f 457//457 491//491 492//492
f 457//457 492//492 493//493
f 457//457 493//493 494//494
f 457//457 494//494 495//495
f 457//457 495//495 496//496
f 457//457 496//496 497//497
f 457//457 497//497 498//498
f 457//457 498//498 499//499
f 457//457 499//499 500//500
f 457//457 500//500 501//501
f 457//457 501//501 502//502
f 457//457 502//502 503//503
f 457//457 503//503 504//504
f 457//457 504//504 505//505
f 457//457 505//505 506//506
f 457//457 506//506 507//507
f 457//457 507//507 508//508
f 457//457 508//508 509//509
f 457//457 509//509 510//510
f 457//457 510//510 511//511
f 457//457 511//511 512//512
f 457//457 512//512 513//513
f 457//457 513//513 458//458
f 514//514 515//515 516//516
f 515//515 517//517 516//516
f 516//516 517//517 518//518
f 517//517 519//519 518//518
f 520//520 521//521 522//522
f 521//521 523//523 522//522
f 522//522 523//523 524//524
f 523//523 525//525 524//524
f 526//526 527//527 528//528
f 527//527 529//529 528//528
f 528//528 529//529 530//530
f 529//529 531//531 530//530
f 532//532 533//533 534//534
f 533//533 535//535 534//534
f 534//534 535//535 536//536
f 535//535 537//537 536//536
f 538//538 539//539 540//540
f 539//539 541//541 540//540
f 540//540 541//541 542//542
f 541//541 543//543 542//542
f 544//544 545//545 546//546
f 545//545 547//547 546//546
f 546//546 547//547 548//548
f 547//547 549//549 548//548
f 550//550 551//551 552//552
f 551//551 553//553 552//552
f 552//552 553//553 554//554
f 553//553 555//555 554//554
f 556//556 557//557 558//558
f 557//557 559//559 558//558
f 558//558 559//559 560//560
f 559//559 561//561 560//560
f 562//562 563//563 564//564
f 563//563 565//565 564//564
f 564//564 565//565 566//566
f 565//565 567//567 566//566
f 568//568 569//569 570//570
f 569//569 571//571 570//570
f 570//570 571//571 572//572
f 571//571 573//573 572//572
f 574//574 575//575 576//576
f 575//575 577//577 576//576
f 576//576 577//577 578//578
f 577//577 579//579 578//578
f 580//580 581//581 582//582
f 581//581 583//583 582//582
f 582//582 583//583 584//584
f 583//583 585//585 584//584
f 586//586 587//587 588//588
f 586//586 588//588 589//589
f 586//586 589//589 590//590
f 586//586 590//590 591//591
f 586//586 591//591 592//592
f 586//586 592//592 593//593
f 586//586 593//593 594//594
f 586//586 594//594 595//595
f 586//586 595//595 596//596
f 586//586 596//596 597//597
f 586//586 597//597 598//598
f 586//586 598//598 599//599
f 586//586 599//599 600//600
f 586//586 600//600 601//601
f 586//586 601//601 602//602
f 586//586 602//602 603//603
f 586//586 603//603 604//604
f 586//586 604//604 587//587
f 605//605 606//606 607//607
f 605//605 607//607 608//608
f 605//605 608//608 609//609
f 605//605 609//609 610//610
f 605//605 610//610 611//611
f 605//605 611//611 612//612
f 605//605 612//612 613//613
f 605//605 613//613 614//614
f 605//605 614//614 615//615
f 605//605 615//615 616//616
f 605//605 616//616 617//617
f 605//605 617//617 618//618
f 605//605 618//618 619//619
f 605//605 619//619 620//620
f 605//605 620//620 621//621
f 605//605 621//621 622//622
f 605//605 622//622 623//623
f 605//605 623//623 606//606
f 624//624 625//625 626//626
f 624//624 626//626 627//627
f 624//624 627//627 628//628
f 624//624 628//628 629//629
f 624//624 629//629 630//630
f 624//624 630//630 631//631
f 624//624 631//631 632//632
f 624//624 632//632 633//633
f 624//624 633//633 634//634
f 624//624 634//634 635//635
f 624//624 635//635 636//636
f 624//624 636//636 637//637
f 624//624 637//637 638//638
f 624//624 638//638 639//639
f 624//624 639//639 640//640
f 624//624 640//640 641//641
f 624//624 641//641 642//642
f 624//624 642//642 625//625
f 643//643 644//644 645//645
f 643//643 645//645 646//646
f 643//643 646//646 647//647
f 643//643 647//647 648//648
f 643//643 648//648 649//649
f 643//643 649//649 650//650
f 643//643 650//650 651//651
f 643//643 651//651 652//652
f 643//643 652//652 653//653
f 643//643 653//653 654//654
f 643//643 654//654 655//655
f 643//643 655//655 656//656
f 643//643 656//656 657//657
f 643//643 657//657 658//658
f 643//643 658//658 659//659
f 643//643 659//659 660//660
f 643//643 660//660 661//661
f 643//643 661//661 644//644
f 662//662 663//663 664//664
f 662//662 664//664 665//665
f 662//662 665//665 666//666
f 662//662 666//666 667//667
f 662//662 667//667 668//668
f 662//662 668//668 669//669
f 662//662 669//669 670//670
f 662//662 670//670 671//671
f 662//662 671//671 672//672
f 662//662 672//672 673//673
f 662//662 673//673 674//674
f 662//662 674//674 675//675
f 662//662 675//675 676//676
f 662//662 676//676 677//677
f 662//662 677//677 678//678
f 662//662 678//678 679//679
f 662//662 679//679 680//680
f 662//662 680//680 663//663
f 681//681 682//682 683//683
f 681//681 683//683 684//684
f 681//681 684//684 685//685
f 681//681 685//685 686//686
f 681//681 686//686 687//687
f 681//681 687//687 688//688
f 681//681 688//688 689//689
f 681//681 689//689 690//690
f 681//681 690//690 691//691
f 681//681 691//691 692//692
f 681//681 692//692 693//693
f 681//681 693//693 694//694
f 681//681 694//694 695//695
f 681//681 695//695 696//696
f 681//681 696//696 697//697
f 681//681 697//697 698//698
f 681//681 698//698 699//699
f 681//681 699//699 682//682
