# Inward-facing black skydome
o lunar_black_skydome
v 0.0000 0.0000 240.0000 0.0040 0.0040 0.0070
v 46.4519 0.0000 235.4617 0.0040 0.0040 0.0070
v 44.8691 12.0226 235.4617 0.0040 0.0040 0.0070
v 40.2285 23.2259 235.4617 0.0040 0.0040 0.0070
v 32.8464 32.8464 235.4617 0.0040 0.0040 0.0070
v 23.2259 40.2285 235.4617 0.0040 0.0040 0.0070
v 12.0226 44.8691 235.4617 0.0040 0.0040 0.0070
v 0.0000 46.4519 235.4617 0.0040 0.0040 0.0070
v -12.0226 44.8691 235.4617 0.0040 0.0040 0.0070
v -23.2259 40.2285 235.4617 0.0040 0.0040 0.0070
v -32.8464 32.8464 235.4617 0.0040 0.0040 0.0070
v -40.2285 23.2259 235.4617 0.0040 0.0040 0.0070
v -44.8691 12.0226 235.4617 0.0040 0.0040 0.0070
v -46.4519 0.0000 235.4617 0.0040 0.0040 0.0070
v -44.8691 -12.0226 235.4617 0.0040 0.0040 0.0070
v -40.2285 -23.2259 235.4617 0.0040 0.0040 0.0070
v -32.8464 -32.8464 235.4617 0.0040 0.0040 0.0070
v -23.2259 -40.2285 235.4617 0.0040 0.0040 0.0070
v -12.0226 -44.8691 235.4617 0.0040 0.0040 0.0070
v -0.0000 -46.4519 235.4617 0.0040 0.0040 0.0070
v 12.0226 -44.8691 235.4617 0.0040 0.0040 0.0070
v 23.2259 -40.2285 235.4617 0.0040 0.0040 0.0070
v 32.8464 -32.8464 235.4617 0.0040 0.0040 0.0070
v 40.2285 -23.2259 235.4617 0.0040 0.0040 0.0070
v 44.8691 -12.0226 235.4617 0.0040 0.0040 0.0070
v 91.1470 0.0000 222.0185 0.0040 0.0040 0.0070
v 88.0412 23.5906 222.0185 0.0040 0.0040 0.0070
v 78.9356 45.5735 222.0185 0.0040 0.0040 0.0070
v 64.4506 64.4506 222.0185 0.0040 0.0040 0.0070
v 45.5735 78.9356 222.0185 0.0040 0.0040 0.0070
v 23.5906 88.0412 222.0185 0.0040 0.0040 0.0070
v 0.0000 91.1470 222.0185 0.0040 0.0040 0.0070
v -23.5906 88.0412 222.0185 0.0040 0.0040 0.0070
v -45.5735 78.9356 222.0185 0.0040 0.0040 0.0070
v -64.4506 64.4506 222.0185 0.0040 0.0040 0.0070
v -78.9356 45.5735 222.0185 0.0040 0.0040 0.0070
v -88.0412 23.5906 222.0185 0.0040 0.0040 0.0070
v -91.1470 0.0000 222.0185 0.0040 0.0040 0.0070
v -88.0412 -23.5906 222.0185 0.0040 0.0040 0.0070
v -78.9356 -45.5735 222.0185 0.0040 0.0040 0.0070
v -64.4506 -64.4506 222.0185 0.0040 0.0040 0.0070
v -45.5735 -78.9356 222.0185 0.0040 0.0040 0.0070
v -23.5906 -88.0412 222.0185 0.0040 0.0040 0.0070
v -0.0000 -91.1470 222.0185 0.0040 0.0040 0.0070
v 23.5906 -88.0412 222.0185 0.0040 0.0040 0.0070
v 45.5735 -78.9356 222.0185 0.0040 0.0040 0.0070
v 64.4506 -64.4506 222.0185 0.0040 0.0040 0.0070
v 78.9356 -45.5735 222.0185 0.0040 0.0040 0.0070
v 88.0412 -23.5906 222.0185 0.0040 0.0040 0.0070
v 132.3950 0.0000 200.1788 0.0040 0.0040 0.0070
v 127.8838 34.2663 200.1788 0.0040 0.0040 0.0070
v 114.6574 66.1975 200.1788 0.0040 0.0040 0.0070
v 93.6174 93.6174 200.1788 0.0040 0.0040 0.0070
v 66.1975 114.6574 200.1788 0.0040 0.0040 0.0070
v 34.2663 127.8838 200.1788 0.0040 0.0040 0.0070
v 0.0000 132.3950 200.1788 0.0040 0.0040 0.0070
v -34.2663 127.8838 200.1788 0.0040 0.0040 0.0070
v -66.1975 114.6574 200.1788 0.0040 0.0040 0.0070
v -93.6174 93.6174 200.1788 0.0040 0.0040 0.0070
v -114.6574 66.1975 200.1788 0.0040 0.0040 0.0070
v -127.8838 34.2663 200.1788 0.0040 0.0040 0.0070
v -132.3950 0.0000 200.1788 0.0040 0.0040 0.0070
v -127.8838 -34.2663 200.1788 0.0040 0.0040 0.0070
v -114.6574 -66.1975 200.1788 0.0040 0.0040 0.0070
v -93.6174 -93.6174 200.1788 0.0040 0.0040 0.0070
v -66.1975 -114.6574 200.1788 0.0040 0.0040 0.0070
v -34.2663 -127.8838 200.1788 0.0040 0.0040 0.0070
v -0.0000 -132.3950 200.1788 0.0040 0.0040 0.0070
v 34.2663 -127.8838 200.1788 0.0040 0.0040 0.0070
v 66.1975 -114.6574 200.1788 0.0040 0.0040 0.0070
v 93.6174 -93.6174 200.1788 0.0040 0.0040 0.0070
v 114.6574 -66.1975 200.1788 0.0040 0.0040 0.0070
v 127.8838 -34.2663 200.1788 0.0040 0.0040 0.0070
v 168.6360 0.0000 170.7686 0.0040 0.0040 0.0070
v 162.8899 43.6462 170.7686 0.0040 0.0040 0.0070
v 146.0431 84.3180 170.7686 0.0040 0.0040 0.0070
v 119.2437 119.2437 170.7686 0.0040 0.0040 0.0070
v 84.3180 146.0431 170.7686 0.0040 0.0040 0.0070
v 43.6462 162.8899 170.7686 0.0040 0.0040 0.0070
v 0.0000 168.6360 170.7686 0.0040 0.0040 0.0070
v -43.6462 162.8899 170.7686 0.0040 0.0040 0.0070
v -84.3180 146.0431 170.7686 0.0040 0.0040 0.0070
v -119.2437 119.2437 170.7686 0.0040 0.0040 0.0070
v -146.0431 84.3180 170.7686 0.0040 0.0040 0.0070
v -162.8899 43.6462 170.7686 0.0040 0.0040 0.0070
v -168.6360 0.0000 170.7686 0.0040 0.0040 0.0070
v -162.8899 -43.6462 170.7686 0.0040 0.0040 0.0070
v -146.0431 -84.3180 170.7686 0.0040 0.0040 0.0070
v -119.2437 -119.2437 170.7686 0.0040 0.0040 0.0070
v -84.3180 -146.0431 170.7686 0.0040 0.0040 0.0070
v -43.6462 -162.8899 170.7686 0.0040 0.0040 0.0070
v -0.0000 -168.6360 170.7686 0.0040 0.0040 0.0070
v 43.6462 -162.8899 170.7686 0.0040 0.0040 0.0070
v 84.3180 -146.0431 170.7686 0.0040 0.0040 0.0070
v 119.2437 -119.2437 170.7686 0.0040 0.0040 0.0070
v 146.0431 -84.3180 170.7686 0.0040 0.0040 0.0070
v 162.8899 -43.6462 170.7686 0.0040 0.0040 0.0070
v 198.4993 0.0000 134.9000 0.0040 0.0040 0.0070
v 191.7356 51.3754 134.9000 0.0040 0.0040 0.0070
v 171.9055 99.2497 134.9000 0.0040 0.0040 0.0070
v 140.3602 140.3602 134.9000 0.0040 0.0040 0.0070
v 99.2497 171.9055 134.9000 0.0040 0.0040 0.0070
v 51.3754 191.7356 134.9000 0.0040 0.0040 0.0070
v 0.0000 198.4993 134.9000 0.0040 0.0040 0.0070
v -51.3754 191.7356 134.9000 0.0040 0.0040 0.0070
v -99.2497 171.9055 134.9000 0.0040 0.0040 0.0070
v -140.3602 140.3602 134.9000 0.0040 0.0040 0.0070
v -171.9055 99.2497 134.9000 0.0040 0.0040 0.0070
v -191.7356 51.3754 134.9000 0.0040 0.0040 0.0070
v -198.4993 0.0000 134.9000 0.0040 0.0040 0.0070
v -191.7356 -51.3754 134.9000 0.0040 0.0040 0.0070
v -171.9055 -99.2497 134.9000 0.0040 0.0040 0.0070
v -140.3602 -140.3602 134.9000 0.0040 0.0040 0.0070
v -99.2497 -171.9055 134.9000 0.0040 0.0040 0.0070
v -51.3754 -191.7356 134.9000 0.0040 0.0040 0.0070
v -0.0000 -198.4993 134.9000 0.0040 0.0040 0.0070
v 51.3754 -191.7356 134.9000 0.0040 0.0040 0.0070
v 99.2497 -171.9055 134.9000 0.0040 0.0040 0.0070
v 140.3602 -140.3602 134.9000 0.0040 0.0040 0.0070
v 171.9055 -99.2497 134.9000 0.0040 0.0040 0.0070
v 191.7356 -51.3754 134.9000 0.0040 0.0040 0.0070
v 220.8556 0.0000 93.9297 0.0040 0.0040 0.0070
v 213.3302 57.1616 93.9297 0.0040 0.0040 0.0070
v 191.2666 110.4278 93.9297 0.0040 0.0040 0.0070
v 156.1685 156.1685 93.9297 0.0040 0.0040 0.0070
v 110.4278 191.2666 93.9297 0.0040 0.0040 0.0070
v 57.1616 213.3302 93.9297 0.0040 0.0040 0.0070
v 0.0000 220.8556 93.9297 0.0040 0.0040 0.0070
v -57.1616 213.3302 93.9297 0.0040 0.0040 0.0070
v -110.4278 191.2666 93.9297 0.0040 0.0040 0.0070
v -156.1685 156.1685 93.9297 0.0040 0.0040 0.0070
v -191.2666 110.4278 93.9297 0.0040 0.0040 0.0070
v -213.3302 57.1616 93.9297 0.0040 0.0040 0.0070
v -220.8556 0.0000 93.9297 0.0040 0.0040 0.0070
v -213.3302 -57.1616 93.9297 0.0040 0.0040 0.0070
v -191.2666 -110.4278 93.9297 0.0040 0.0040 0.0070
v -156.1685 -156.1685 93.9297 0.0040 0.0040 0.0070
v -110.4278 -191.2666 93.9297 0.0040 0.0040 0.0070
v -57.1616 -213.3302 93.9297 0.0040 0.0040 0.0070
v -0.0000 -220.8556 93.9297 0.0040 0.0040 0.0070
v 57.1616 -213.3302 93.9297 0.0040 0.0040 0.0070
v 110.4278 -191.2666 93.9297 0.0040 0.0040 0.0070
v 156.1685 -156.1685 93.9297 0.0040 0.0040 0.0070
v 191.2666 -110.4278 93.9297 0.0040 0.0040 0.0070
v 213.3302 -57.1616 93.9297 0.0040 0.0040 0.0070
v 234.8594 0.0000 49.4070 0.0040 0.0040 0.0070
v 226.8568 60.7861 49.4070 0.0040 0.0040 0.0070
v 203.3942 117.4297 49.4070 0.0040 0.0040 0.0070
v 166.0707 166.0707 49.4070 0.0040 0.0040 0.0070
v 117.4297 203.3942 49.4070 0.0040 0.0040 0.0070
v 60.7861 226.8568 49.4070 0.0040 0.0040 0.0070
v 0.0000 234.8594 49.4070 0.0040 0.0040 0.0070
v -60.7861 226.8568 49.4070 0.0040 0.0040 0.0070
v -117.4297 203.3942 49.4070 0.0040 0.0040 0.0070
v -166.0707 166.0707 49.4070 0.0040 0.0040 0.0070
v -203.3942 117.4297 49.4070 0.0040 0.0040 0.0070
v -226.8568 60.7861 49.4070 0.0040 0.0040 0.0070
v -234.8594 0.0000 49.4070 0.0040 0.0040 0.0070
v -226.8568 -60.7861 49.4070 0.0040 0.0040 0.0070
v -203.3942 -117.4297 49.4070 0.0040 0.0040 0.0070
v -166.0707 -166.0707 49.4070 0.0040 0.0040 0.0070
v -117.4297 -203.3942 49.4070 0.0040 0.0040 0.0070
v -60.7861 -226.8568 49.4070 0.0040 0.0040 0.0070
v -0.0000 -234.8594 49.4070 0.0040 0.0040 0.0070
v 60.7861 -226.8568 49.4070 0.0040 0.0040 0.0070
v 117.4297 -203.3942 49.4070 0.0040 0.0040 0.0070
v 166.0707 -166.0707 49.4070 0.0040 0.0040 0.0070
v 203.3942 -117.4297 49.4070 0.0040 0.0040 0.0070
v 226.8568 -60.7861 49.4070 0.0040 0.0040 0.0070
v 239.9811 0.0000 3.0158 0.0040 0.0040 0.0070
v 231.8039 62.1117 3.0158 0.0040 0.0040 0.0070
v 207.8297 119.9905 3.0158 0.0040 0.0040 0.0070
v 169.6922 169.6922 3.0158 0.0040 0.0040 0.0070
v 119.9905 207.8297 3.0158 0.0040 0.0040 0.0070
v 62.1117 231.8039 3.0158 0.0040 0.0040 0.0070
v 0.0000 239.9811 3.0158 0.0040 0.0040 0.0070
v -62.1117 231.8039 3.0158 0.0040 0.0040 0.0070
v -119.9905 207.8297 3.0158 0.0040 0.0040 0.0070
v -169.6922 169.6922 3.0158 0.0040 0.0040 0.0070
v -207.8297 119.9905 3.0158 0.0040 0.0040 0.0070
v -231.8039 62.1117 3.0158 0.0040 0.0040 0.0070
v -239.9811 0.0000 3.0158 0.0040 0.0040 0.0070
v -231.8039 -62.1117 3.0158 0.0040 0.0040 0.0070
v -207.8297 -119.9905 3.0158 0.0040 0.0040 0.0070
v -169.6922 -169.6922 3.0158 0.0040 0.0040 0.0070
v -119.9905 -207.8297 3.0158 0.0040 0.0040 0.0070
v -62.1117 -231.8039 3.0158 0.0040 0.0040 0.0070
v -0.0000 -239.9811 3.0158 0.0040 0.0040 0.0070
v 62.1117 -231.8039 3.0158 0.0040 0.0040 0.0070
v 119.9905 -207.8297 3.0158 0.0040 0.0040 0.0070
v 169.6922 -169.6922 3.0158 0.0040 0.0040 0.0070
v 207.8297 -119.9905 3.0158 0.0040 0.0040 0.0070
v 231.8039 -62.1117 3.0158 0.0040 0.0040 0.0070
v 236.0268 0.0000 -43.4894 0.0040 0.0040 0.0070
v 227.9844 61.0882 -43.4894 0.0040 0.0040 0.0070
v 204.4052 118.0134 -43.4894 0.0040 0.0040 0.0070
v 166.8962 166.8962 -43.4894 0.0040 0.0040 0.0070
v 118.0134 204.4052 -43.4894 0.0040 0.0040 0.0070
v 61.0882 227.9844 -43.4894 0.0040 0.0040 0.0070
v 0.0000 236.0268 -43.4894 0.0040 0.0040 0.0070
v -61.0882 227.9844 -43.4894 0.0040 0.0040 0.0070
v -118.0134 204.4052 -43.4894 0.0040 0.0040 0.0070
v -166.8962 166.8962 -43.4894 0.0040 0.0040 0.0070
v -204.4052 118.0134 -43.4894 0.0040 0.0040 0.0070
v -227.9844 61.0882 -43.4894 0.0040 0.0040 0.0070
v -236.0268 0.0000 -43.4894 0.0040 0.0040 0.0070
v -227.9844 -61.0882 -43.4894 0.0040 0.0040 0.0070
v -204.4052 -118.0134 -43.4894 0.0040 0.0040 0.0070
v -166.8962 -166.8962 -43.4894 0.0040 0.0040 0.0070
v -118.0134 -204.4052 -43.4894 0.0040 0.0040 0.0070
v -61.0882 -227.9844 -43.4894 0.0040 0.0040 0.0070
v -0.0000 -236.0268 -43.4894 0.0040 0.0040 0.0070
v 61.0882 -227.9844 -43.4894 0.0040 0.0040 0.0070
v 118.0134 -204.4052 -43.4894 0.0040 0.0040 0.0070
v 166.8962 -166.8962 -43.4894 0.0040 0.0040 0.0070
v 204.4052 -118.0134 -43.4894 0.0040 0.0040 0.0070
v 227.9844 -61.0882 -43.4894 0.0040 0.0040 0.0070
v 223.1464 0.0000 -88.3499 0.0040 0.0040 0.0070
v 215.5428 57.7545 -88.3499 0.0040 0.0040 0.0070
v 193.2504 111.5732 -88.3499 0.0040 0.0040 0.0070
v 157.7883 157.7883 -88.3499 0.0040 0.0040 0.0070
v 111.5732 193.2504 -88.3499 0.0040 0.0040 0.0070
v 57.7545 215.5428 -88.3499 0.0040 0.0040 0.0070
v 0.0000 223.1464 -88.3499 0.0040 0.0040 0.0070
v -57.7545 215.5428 -88.3499 0.0040 0.0040 0.0070
v -111.5732 193.2504 -88.3499 0.0040 0.0040 0.0070
v -157.7883 157.7883 -88.3499 0.0040 0.0040 0.0070
v -193.2504 111.5732 -88.3499 0.0040 0.0040 0.0070
v -215.5428 57.7545 -88.3499 0.0040 0.0040 0.0070
v -223.1464 0.0000 -88.3499 0.0040 0.0040 0.0070
v -215.5428 -57.7545 -88.3499 0.0040 0.0040 0.0070
v -193.2504 -111.5732 -88.3499 0.0040 0.0040 0.0070
v -157.7883 -157.7883 -88.3499 0.0040 0.0040 0.0070
v -111.5732 -193.2504 -88.3499 0.0040 0.0040 0.0070
v -57.7545 -215.5428 -88.3499 0.0040 0.0040 0.0070
v -0.0000 -223.1464 -88.3499 0.0040 0.0040 0.0070
v 57.7545 -215.5428 -88.3499 0.0040 0.0040 0.0070
v 111.5732 -193.2504 -88.3499 0.0040 0.0040 0.0070
v 157.7883 -157.7883 -88.3499 0.0040 0.0040 0.0070
v 193.2504 -111.5732 -88.3499 0.0040 0.0040 0.0070
v 215.5428 -57.7545 -88.3499 0.0040 0.0040 0.0070
vn -0.0972 -0.0128 -0.9952
vn -0.0906 -0.0375 -0.9952
vn -0.0778 -0.0597 -0.9952
vn -0.0597 -0.0778 -0.9952
vn -0.0375 -0.0906 -0.9952
vn -0.0128 -0.0972 -0.9952
vn 0.0128 -0.0972 -0.9952
vn 0.0375 -0.0906 -0.9952
vn 0.0597 -0.0778 -0.9952
vn 0.0778 -0.0597 -0.9952
vn 0.0906 -0.0375 -0.9952
vn 0.0972 -0.0128 -0.9952
vn 0.0972 0.0128 -0.9952
vn 0.0906 0.0375 -0.9952
vn 0.0778 0.0597 -0.9952
vn 0.0597 0.0778 -0.9952
vn 0.0375 0.0906 -0.9952
vn 0.0128 0.0972 -0.9952
vn -0.0128 0.0972 -0.9952
vn -0.0375 0.0906 -0.9952
vn -0.0597 0.0778 -0.9952
vn -0.0778 0.0597 -0.9952
vn -0.0906 0.0375 -0.9952
vn -0.0972 0.0128 -0.9952
vn -0.2878 -0.0379 -0.9569
vn -0.2878 -0.0379 -0.9569
vn -0.2682 -0.1111 -0.9569
vn -0.2682 -0.1111 -0.9569
vn -0.2303 -0.1767 -0.9569
vn -0.2303 -0.1767 -0.9569
vn -0.1767 -0.2303 -0.9569
vn -0.1767 -0.2303 -0.9569
vn -0.1111 -0.2682 -0.9569
vn -0.1111 -0.2682 -0.9569
vn -0.0379 -0.2878 -0.9569
vn -0.0379 -0.2878 -0.9569
vn 0.0379 -0.2878 -0.9569
vn 0.0379 -0.2878 -0.9569
vn 0.1111 -0.2682 -0.9569
vn 0.1111 -0.2682 -0.9569
vn 0.1767 -0.2303 -0.9569
vn 0.1767 -0.2303 -0.9569
vn 0.2303 -0.1767 -0.9569
vn 0.2303 -0.1767 -0.9569
vn 0.2682 -0.1111 -0.9569
vn 0.2682 -0.1111 -0.9569
vn 0.2878 -0.0379 -0.9569
vn 0.2878 -0.0379 -0.9569
vn 0.2878 0.0379 -0.9569
vn 0.2878 0.0379 -0.9569
vn 0.2682 0.1111 -0.9569
vn 0.2682 0.1111 -0.9569
vn 0.2303 0.1767 -0.9569
vn 0.2303 0.1767 -0.9569
vn 0.1767 0.2303 -0.9569
vn 0.1767 0.2303 -0.9569
vn 0.1111 0.2682 -0.9569
vn 0.1111 0.2682 -0.9569
vn 0.0379 0.2878 -0.9569
vn 0.0379 0.2878 -0.9569
vn -0.0379 0.2878 -0.9569
vn -0.0379 0.2878 -0.9569
vn -0.1111 0.2682 -0.9569
vn -0.1111 0.2682 -0.9569
vn -0.1767 0.2303 -0.9569
vn -0.1767 0.2303 -0.9569
vn -0.2303 0.1767 -0.9569
vn -0.2303 0.1767 -0.9569
vn -0.2682 0.1111 -0.9569
vn -0.2682 0.1111 -0.9569
vn -0.2878 0.0379 -0.9569
vn -0.2878 0.0379 -0.9569
vn -0.4670 -0.0615 -0.8821
vn -0.4670 -0.0615 -0.8821
vn -0.4352 -0.1803 -0.8821
vn -0.4352 -0.1803 -0.8821
vn -0.3737 -0.2868 -0.8821
vn -0.3737 -0.2868 -0.8821
vn -0.2868 -0.3737 -0.8821
vn -0.2868 -0.3737 -0.8821
vn -0.1803 -0.4352 -0.8821
vn -0.1803 -0.4352 -0.8821
vn -0.0615 -0.4670 -0.8821
vn -0.0615 -0.4670 -0.8821
vn 0.0615 -0.4670 -0.8821
vn 0.0615 -0.4670 -0.8821
vn 0.1803 -0.4352 -0.8821
vn 0.1803 -0.4352 -0.8821
vn 0.2868 -0.3737 -0.8821
vn 0.2868 -0.3737 -0.8821
vn 0.3737 -0.2868 -0.8821
vn 0.3737 -0.2868 -0.8821
vn 0.4352 -0.1803 -0.8821
vn 0.4352 -0.1803 -0.8821
vn 0.4670 -0.0615 -0.8821
vn 0.4670 -0.0615 -0.8821
vn 0.4670 0.0615 -0.8821
vn 0.4670 0.0615 -0.8821
vn 0.4352 0.1803 -0.8821
vn 0.4352 0.1803 -0.8821
vn 0.3737 0.2868 -0.8821
vn 0.3737 0.2868 -0.8821
vn 0.2868 0.3737 -0.8821
vn 0.2868 0.3737 -0.8821
vn 0.1803 0.4352 -0.8821
vn 0.1803 0.4352 -0.8821
vn 0.0615 0.4670 -0.8821
vn 0.0615 0.4670 -0.8821
vn -0.0615 0.4670 -0.8821
vn -0.0615 0.4670 -0.8821
vn -0.1803 0.4352 -0.8821
vn -0.1803 0.4352 -0.8821
vn -0.2868 0.3737 -0.8821
vn -0.2868 0.3737 -0.8821
vn -0.3737 0.2868 -0.8821
vn -0.3737 0.2868 -0.8821
vn -0.4352 0.1803 -0.8821
vn -0.4352 0.1803 -0.8821
vn -0.4670 0.0615 -0.8821
vn -0.4670 0.0615 -0.8821
vn -0.6280 -0.0827 -0.7738
vn -0.6280 -0.0827 -0.7738
vn -0.5852 -0.2424 -0.7738
vn -0.5852 -0.2424 -0.7738
vn -0.5025 -0.3856 -0.7738
vn -0.5025 -0.3856 -0.7738
vn -0.3856 -0.5025 -0.7738
vn -0.3856 -0.5025 -0.7738
vn -0.2424 -0.5852 -0.7738
vn -0.2424 -0.5852 -0.7738
vn -0.0827 -0.6280 -0.7738
vn -0.0827 -0.6280 -0.7738
vn 0.0827 -0.6280 -0.7738
vn 0.0827 -0.6280 -0.7738
vn 0.2424 -0.5852 -0.7738
vn 0.2424 -0.5852 -0.7738
vn 0.3856 -0.5025 -0.7738
vn 0.3856 -0.5025 -0.7738
vn 0.5025 -0.3856 -0.7738
vn 0.5025 -0.3856 -0.7738
vn 0.5852 -0.2424 -0.7738
vn 0.5852 -0.2424 -0.7738
vn 0.6280 -0.0827 -0.7738
vn 0.6280 -0.0827 -0.7738
vn 0.6280 0.0827 -0.7738
vn 0.6280 0.0827 -0.7738
vn 0.5852 0.2424 -0.7738
vn 0.5852 0.2424 -0.7738
vn 0.5025 0.3856 -0.7738
vn 0.5025 0.3856 -0.7738
vn 0.3856 0.5025 -0.7738
vn 0.3856 0.5025 -0.7738
vn 0.2424 0.5852 -0.7738
vn 0.2424 0.5852 -0.7738
vn 0.0827 0.6280 -0.7738
vn 0.0827 0.6280 -0.7738
vn -0.0827 0.6280 -0.7738
vn -0.0827 0.6280 -0.7738
vn -0.2424 0.5852 -0.7738
vn -0.2424 0.5852 -0.7738
vn -0.3856 0.5025 -0.7738
vn -0.3856 0.5025 -0.7738
vn -0.5025 0.3856 -0.7738
vn -0.5025 0.3856 -0.7738
vn -0.5852 0.2424 -0.7738
vn -0.5852 0.2424 -0.7738
vn -0.6280 0.0827 -0.7738
vn -0.6280 0.0827 -0.7738
vn -0.7646 -0.1007 -0.6366
vn -0.7646 -0.1007 -0.6366
vn -0.7125 -0.2951 -0.6366
vn -0.7125 -0.2951 -0.6366
vn -0.6118 -0.4695 -0.6366
vn -0.6118 -0.4695 -0.6366
vn -0.4695 -0.6118 -0.6366
vn -0.4695 -0.6118 -0.6366
vn -0.2951 -0.7125 -0.6366
vn -0.2951 -0.7125 -0.6366
vn -0.1007 -0.7646 -0.6366
vn -0.1007 -0.7646 -0.6366
vn 0.1007 -0.7646 -0.6366
vn 0.1007 -0.7646 -0.6366
vn 0.2951 -0.7125 -0.6366
vn 0.2951 -0.7125 -0.6366
vn 0.4695 -0.6118 -0.6366
vn 0.4695 -0.6118 -0.6366
vn 0.6118 -0.4695 -0.6366
vn 0.6118 -0.4695 -0.6366
vn 0.7125 -0.2951 -0.6366
vn 0.7125 -0.2951 -0.6366
vn 0.7646 -0.1007 -0.6366
vn 0.7646 -0.1007 -0.6366
vn 0.7646 0.1007 -0.6366
vn 0.7646 0.1007 -0.6366
vn 0.7125 0.2951 -0.6366
vn 0.7125 0.2951 -0.6366
vn 0.6118 0.4695 -0.6366
vn 0.6118 0.4695 -0.6366
vn 0.4695 0.6118 -0.6366
vn 0.4695 0.6118 -0.6366
vn 0.2951 0.7125 -0.6366
vn 0.2951 0.7125 -0.6366
vn 0.1007 0.7646 -0.6366
vn 0.1007 0.7646 -0.6366
vn -0.1007 0.7646 -0.6366
vn -0.1007 0.7646 -0.6366
vn -0.2951 0.7125 -0.6366
vn -0.2951 0.7125 -0.6366
vn -0.4695 0.6118 -0.6366
vn -0.4695 0.6118 -0.6366
vn -0.6118 0.4695 -0.6366
vn -0.6118 0.4695 -0.6366
vn -0.7125 0.2951 -0.6366
vn -0.7125 0.2951 -0.6366
vn -0.7646 0.1007 -0.6366
vn -0.7646 0.1007 -0.6366
vn -0.8720 -0.1148 -0.4758
vn -0.8720 -0.1148 -0.4758
vn -0.8126 -0.3366 -0.4758
vn -0.8126 -0.3366 -0.4758
vn -0.6978 -0.5354 -0.4758
vn -0.6978 -0.5354 -0.4758
vn -0.5354 -0.6978 -0.4758
vn -0.5354 -0.6978 -0.4758
vn -0.3366 -0.8126 -0.4758
vn -0.3366 -0.8126 -0.4758
vn -0.1148 -0.8720 -0.4758
vn -0.1148 -0.8720 -0.4758
vn 0.1148 -0.8720 -0.4758
vn 0.1148 -0.8720 -0.4758
vn 0.3366 -0.8126 -0.4758
vn 0.3366 -0.8126 -0.4758
vn 0.5354 -0.6978 -0.4758
vn 0.5354 -0.6978 -0.4758
vn 0.6978 -0.5354 -0.4758
vn 0.6978 -0.5354 -0.4758
vn 0.8126 -0.3366 -0.4758
vn 0.8126 -0.3366 -0.4758
vn 0.8720 -0.1148 -0.4758
vn 0.8720 -0.1148 -0.4758
vn 0.8720 0.1148 -0.4758
vn 0.8720 0.1148 -0.4758
vn 0.8126 0.3366 -0.4758
vn 0.8126 0.3366 -0.4758
vn 0.6978 0.5354 -0.4758
vn 0.6978 0.5354 -0.4758
vn 0.5354 0.6978 -0.4758
vn 0.5354 0.6978 -0.4758
vn 0.3366 0.8126 -0.4758
vn 0.3366 0.8126 -0.4758
vn 0.1148 0.8720 -0.4758
vn 0.1148 0.8720 -0.4758
vn -0.1148 0.8720 -0.4758
vn -0.1148 0.8720 -0.4758
vn -0.3366 0.8126 -0.4758
vn -0.3366 0.8126 -0.4758
vn -0.5354 0.6978 -0.4758
vn -0.5354 0.6978 -0.4758
vn -0.6978 0.5354 -0.4758
vn -0.6978 0.5354 -0.4758
vn -0.8126 0.3366 -0.4758
vn -0.8126 0.3366 -0.4758
vn -0.8720 0.1148 -0.4758
vn -0.8720 0.1148 -0.4758
vn -0.9465 -0.1246 -0.2977
vn -0.9465 -0.1246 -0.2977
vn -0.8820 -0.3653 -0.2977
vn -0.8820 -0.3653 -0.2977
vn -0.7574 -0.5812 -0.2977
vn -0.7574 -0.5812 -0.2977
vn -0.5812 -0.7574 -0.2977
vn -0.5812 -0.7574 -0.2977
vn -0.3653 -0.8820 -0.2977
vn -0.3653 -0.8820 -0.2977
vn -0.1246 -0.9465 -0.2977
vn -0.1246 -0.9465 -0.2977
vn 0.1246 -0.9465 -0.2977
vn 0.1246 -0.9465 -0.2977
vn 0.3653 -0.8820 -0.2977
vn 0.3653 -0.8820 -0.2977
vn 0.5812 -0.7574 -0.2977
vn 0.5812 -0.7574 -0.2977
vn 0.7574 -0.5812 -0.2977
vn 0.7574 -0.5812 -0.2977
vn 0.8820 -0.3653 -0.2977
vn 0.8820 -0.3653 -0.2977
vn 0.9465 -0.1246 -0.2977
vn 0.9465 -0.1246 -0.2977
vn 0.9465 0.1246 -0.2977
vn 0.9465 0.1246 -0.2977
vn 0.8820 0.3653 -0.2977
vn 0.8820 0.3653 -0.2977
vn 0.7574 0.5812 -0.2977
vn 0.7574 0.5812 -0.2977
vn 0.5812 0.7574 -0.2977
vn 0.5812 0.7574 -0.2977
vn 0.3653 0.8820 -0.2977
vn 0.3653 0.8820 -0.2977
vn 0.1246 0.9465 -0.2977
vn 0.1246 0.9465 -0.2977
vn -0.1246 0.9465 -0.2977
vn -0.1246 0.9465 -0.2977
vn -0.3653 0.8820 -0.2977
vn -0.3653 0.8820 -0.2977
vn -0.5812 0.7574 -0.2977
vn -0.5812 0.7574 -0.2977
vn -0.7574 0.5812 -0.2977
vn -0.7574 0.5812 -0.2977
vn -0.8820 0.3653 -0.2977
vn -0.8820 0.3653 -0.2977
vn -0.9465 0.1246 -0.2977
vn -0.9465 0.1246 -0.2977
vn -0.9856 -0.1298 -0.1088
vn -0.9856 -0.1298 -0.1088
vn -0.9184 -0.3804 -0.1088
vn -0.9184 -0.3804 -0.1088
vn -0.7886 -0.6051 -0.1088
vn -0.7886 -0.6051 -0.1088
vn -0.6051 -0.7886 -0.1088
vn -0.6051 -0.7886 -0.1088
vn -0.3804 -0.9184 -0.1088
vn -0.3804 -0.9184 -0.1088
vn -0.1298 -0.9856 -0.1088
vn -0.1298 -0.9856 -0.1088
vn 0.1298 -0.9856 -0.1088
vn 0.1298 -0.9856 -0.1088
vn 0.3804 -0.9184 -0.1088
vn 0.3804 -0.9184 -0.1088
vn 0.6051 -0.7886 -0.1088
vn 0.6051 -0.7886 -0.1088
vn 0.7886 -0.6051 -0.1088
vn 0.7886 -0.6051 -0.1088
vn 0.9184 -0.3804 -0.1088
vn 0.9184 -0.3804 -0.1088
vn 0.9856 -0.1298 -0.1088
vn 0.9856 -0.1298 -0.1088
vn 0.9856 0.1298 -0.1088
vn 0.9856 0.1298 -0.1088
vn 0.9184 0.3804 -0.1088
vn 0.9184 0.3804 -0.1088
vn 0.7886 0.6051 -0.1088
vn 0.7886 0.6051 -0.1088
vn 0.6051 0.7886 -0.1088
vn 0.6051 0.7886 -0.1088
vn 0.3804 0.9184 -0.1088
vn 0.3804 0.9184 -0.1088
vn 0.1298 0.9856 -0.1088
vn 0.1298 0.9856 -0.1088
vn -0.1298 0.9856 -0.1088
vn -0.1298 0.9856 -0.1088
vn -0.3804 0.9184 -0.1088
vn -0.3804 0.9184 -0.1088
vn -0.6051 0.7886 -0.1088
vn -0.6051 0.7886 -0.1088
vn -0.7886 0.6051 -0.1088
vn -0.7886 0.6051 -0.1088
vn -0.9184 0.3804 -0.1088
vn -0.9184 0.3804 -0.1088
vn -0.9856 0.1298 -0.1088
vn -0.9856 0.1298 -0.1088
vn -0.9879 -0.1301 0.0840
vn -0.9879 -0.1301 0.0840
vn -0.9206 -0.3813 0.0840
vn -0.9206 -0.3813 0.0840
vn -0.7905 -0.6066 0.0840
vn -0.7905 -0.6066 0.0840
vn -0.6066 -0.7905 0.0840
vn -0.6066 -0.7905 0.0840
vn -0.3813 -0.9206 0.0840
vn -0.3813 -0.9206 0.0840
vn -0.1301 -0.9879 0.0840
vn -0.1301 -0.9879 0.0840
vn 0.1301 -0.9879 0.0840
vn 0.1301 -0.9879 0.0840
vn 0.3813 -0.9206 0.0840
vn 0.3813 -0.9206 0.0840
vn 0.6066 -0.7905 0.0840
vn 0.6066 -0.7905 0.0840
vn 0.7905 -0.6066 0.0840
vn 0.7905 -0.6066 0.0840
vn 0.9206 -0.3813 0.0840
vn 0.9206 -0.3813 0.0840
vn 0.9879 -0.1301 0.0840
vn 0.9879 -0.1301 0.0840
vn 0.9879 0.1301 0.0840
vn 0.9879 0.1301 0.0840
vn 0.9206 0.3813 0.0840
vn 0.9206 0.3813 0.0840
vn 0.7905 0.6066 0.0840
vn 0.7905 0.6066 0.0840
vn 0.6066 0.7905 0.0840
vn 0.6066 0.7905 0.0840
vn 0.3813 0.9206 0.0840
vn 0.3813 0.9206 0.0840
vn 0.1301 0.9879 0.0840
vn 0.1301 0.9879 0.0840
vn -0.1301 0.9879 0.0840
vn -0.1301 0.9879 0.0840
vn -0.3813 0.9206 0.0840
vn -0.3813 0.9206 0.0840
vn -0.6066 0.7905 0.0840
vn -0.6066 0.7905 0.0840
vn -0.7905 0.6066 0.0840
vn -0.7905 0.6066 0.0840
vn -0.9206 0.3813 0.0840
vn -0.9206 0.3813 0.0840
vn -0.9879 0.1301 0.0840
vn -0.9879 0.1301 0.0840
vn -0.9536 -0.1255 0.2738
vn -0.9536 -0.1255 0.2738
vn -0.8886 -0.3681 0.2738
vn -0.8886 -0.3681 0.2738
vn -0.7630 -0.5855 0.2738
vn -0.7630 -0.5855 0.2738
vn -0.5855 -0.7630 0.2738
vn -0.5855 -0.7630 0.2738
vn -0.3681 -0.8886 0.2738
vn -0.3681 -0.8886 0.2738
vn -0.1255 -0.9536 0.2738
vn -0.1255 -0.9536 0.2738
vn 0.1255 -0.9536 0.2738
vn 0.1255 -0.9536 0.2738
vn 0.3681 -0.8886 0.2738
vn 0.3681 -0.8886 0.2738
vn 0.5855 -0.7630 0.2738
vn 0.5855 -0.7630 0.2738
vn 0.7630 -0.5855 0.2738
vn 0.7630 -0.5855 0.2738
vn 0.8886 -0.3681 0.2738
vn 0.8886 -0.3681 0.2738
vn 0.9536 -0.1255 0.2738
vn 0.9536 -0.1255 0.2738
vn 0.9536 0.1255 0.2738
vn 0.9536 0.1255 0.2738
vn 0.8886 0.3681 0.2738
vn 0.8886 0.3681 0.2738
vn 0.7630 0.5855 0.2738
vn 0.7630 0.5855 0.2738
vn 0.5855 0.7630 0.2738
vn 0.5855 0.7630 0.2738
vn 0.3681 0.8886 0.2738
vn 0.3681 0.8886 0.2738
vn 0.1255 0.9536 0.2738
vn 0.1255 0.9536 0.2738
vn -0.1255 0.9536 0.2738
vn -0.1255 0.9536 0.2738
vn -0.3681 0.8886 0.2738
vn -0.3681 0.8886 0.2738
vn -0.5855 0.7630 0.2738
vn -0.5855 0.7630 0.2738
vn -0.7630 0.5855 0.2738
vn -0.7630 0.5855 0.2738
vn -0.8886 0.3681 0.2738
vn -0.8886 0.3681 0.2738
vn -0.9536 0.1255 0.2738
vn -0.9536 0.1255 0.2738
f 1//1 3//1 2//1
f 1//2 4//2 3//2
f 1//3 5//3 4//3
f 1//4 6//4 5//4
f 1//5 7//5 6//5
f 1//6 8//6 7//6
f 1//7 9//7 8//7
f 1//8 10//8 9//8
f 1//9 11//9 10//9
f 1//10 12//10 11//10
f 1//11 13//11 12//11
f 1//12 14//12 13//12
f 1//13 15//13 14//13
f 1//14 16//14 15//14
f 1//15 17//15 16//15
f 1//16 18//16 17//16
f 1//17 19//17 18//17
f 1//18 20//18 19//18
f 1//19 21//19 20//19
f 1//20 22//20 21//20
f 1//21 23//21 22//21
f 1//22 24//22 23//22
f 1//23 25//23 24//23
f 1//24 2//24 25//24
f 2//25 27//25 26//25
f 2//26 3//26 27//26
f 3//27 28//27 27//27
f 3//28 4//28 28//28
f 4//29 29//29 28//29
f 4//30 5//30 29//30
f 5//31 30//31 29//31
f 5//32 6//32 30//32
f 6//33 31//33 30//33
f 6//34 7//34 31//34
f 7//35 32//35 31//35
f 7//36 8//36 32//36
f 8//37 33//37 32//37
f 8//38 9//38 33//38
f 9//39 34//39 33//39
f 9//40 10//40 34//40
f 10//41 35//41 34//41
f 10//42 11//42 35//42
f 11//43 36//43 35//43
f 11//44 12//44 36//44
f 12//45 37//45 36//45
f 12//46 13//46 37//46
f 13//47 38//47 37//47
f 13//48 14//48 38//48
f 14//49 39//49 38//49
f 14//50 15//50 39//50
f 15//51 40//51 39//51
f 15//52 16//52 40//52
f 16//53 41//53 40//53
f 16//54 17//54 41//54
f 17//55 42//55 41//55
f 17//56 18//56 42//56
f 18//57 43//57 42//57
f 18//58 19//58 43//58
f 19//59 44//59 43//59
f 19//60 20//60 44//60
f 20//61 45//61 44//61
f 20//62 21//62 45//62
f 21//63 46//63 45//63
f 21//64 22//64 46//64
f 22//65 47//65 46//65
f 22//66 23//66 47//66
f 23//67 48//67 47//67
f 23//68 24//68 48//68
f 24//69 49//69 48//69
f 24//70 25//70 49//70
f 25//71 26//71 49//71
f 25//72 2//72 26//72
f 26//73 51//73 50//73
f 26//74 27//74 51//74
f 27//75 52//75 51//75
f 27//76 28//76 52//76
f 28//77 53//77 52//77
f 28//78 29//78 53//78
f 29//79 54//79 53//79
f 29//80 30//80 54//80
f 30//81 55//81 54//81
f 30//82 31//82 55//82
f 31//83 56//83 55//83
f 31//84 32//84 56//84
f 32//85 57//85 56//85
f 32//86 33//86 57//86
f 33//87 58//87 57//87
f 33//88 34//88 58//88
f 34//89 59//89 58//89
f 34//90 35//90 59//90
f 35//91 60//91 59//91
f 35//92 36//92 60//92
f 36//93 61//93 60//93
f 36//94 37//94 61//94
f 37//95 62//95 61//95
f 37//96 38//96 62//96
f 38//97 63//97 62//97
f 38//98 39//98 63//98
f 39//99 64//99 63//99
f 39//100 40//100 64//100
f 40//101 65//101 64//101
f 40//102 41//102 65//102
f 41//103 66//103 65//103
f 41//104 42//104 66//104
f 42//105 67//105 66//105
f 42//106 43//106 67//106
f 43//107 68//107 67//107
f 43//108 44//108 68//108
f 44//109 69//109 68//109
f 44//110 45//110 69//110
f 45//111 70//111 69//111
f 45//112 46//112 70//112
f 46//113 71//113 70//113
f 46//114 47//114 71//114
f 47//115 72//115 71//115
f 47//116 48//116 72//116
f 48//117 73//117 72//117
f 48//118 49//118 73//118
f 49//119 50//119 73//119
f 49//120 26//120 50//120
f 50//121 75//121 74//121
f 50//122 51//122 75//122
f 51//123 76//123 75//123
f 51//124 52//124 76//124
f 52//125 77//125 76//125
f 52//126 53//126 77//126
f 53//127 78//127 77//127
f 53//128 54//128 78//128
f 54//129 79//129 78//129
f 54//130 55//130 79//130
f 55//131 80//131 79//131
f 55//132 56//132 80//132
f 56//133 81//133 80//133
f 56//134 57//134 81//134
f 57//135 82//135 81//135
f 57//136 58//136 82//136
f 58//137 83//137 82//137
f 58//138 59//138 83//138
f 59//139 84//139 83//139
f 59//140 60//140 84//140
f 60//141 85//141 84//141
f 60//142 61//142 85//142
f 61//143 86//143 85//143
f 61//144 62//144 86//144
f 62//145 87//145 86//145
f 62//146 63//146 87//146
f 63//147 88//147 87//147
f 63//148 64//148 88//148
f 64//149 89//149 88//149
f 64//150 65//150 89//150
f 65//151 90//151 89//151
f 65//152 66//152 90//152
f 66//153 91//153 90//153
f 66//154 67//154 91//154
f 67//155 92//155 91//155
f 67//156 68//156 92//156
f 68//157 93//157 92//157
f 68//158 69//158 93//158
f 69//159 94//159 93//159
f 69//160 70//160 94//160
f 70//161 95//161 94//161
f 70//162 71//162 95//162
f 71//163 96//163 95//163
f 71//164 72//164 96//164
f 72//165 97//165 96//165
f 72//166 73//166 97//166
f 73//167 74//167 97//167
f 73//168 50//168 74//168
f 74//169 99//169 98//169
f 74//170 75//170 99//170
f 75//171 100//171 99//171
f 75//172 76//172 100//172
f 76//173 101//173 100//173
f 76//174 77//174 101//174
f 77//175 102//175 101//175
f 77//176 78//176 102//176
f 78//177 103//177 102//177
f 78//178 79//178 103//178
f 79//179 104//179 103//179
f 79//180 80//180 104//180
f 80//181 105//181 104//181
f 80//182 81//182 105//182
f 81//183 106//183 105//183
f 81//184 82//184 106//184
f 82//185 107//185 106//185
f 82//186 83//186 107//186
f 83//187 108//187 107//187
f 83//188 84//188 108//188
f 84//189 109//189 108//189
f 84//190 85//190 109//190
f 85//191 110//191 109//191
f 85//192 86//192 110//192
f 86//193 111//193 110//193
f 86//194 87//194 111//194
f 87//195 112//195 111//195
f 87//196 88//196 112//196
f 88//197 113//197 112//197
f 88//198 89//198 113//198
f 89//199 114//199 113//199
f 89//200 90//200 114//200
f 90//201 115//201 114//201
f 90//202 91//202 115//202
f 91//203 116//203 115//203
f 91//204 92//204 116//204
f 92//205 117//205 116//205
f 92//206 93//206 117//206
f 93//207 118//207 117//207
f 93//208 94//208 118//208
f 94//209 119//209 118//209
f 94//210 95//210 119//210
f 95//211 120//211 119//211
f 95//212 96//212 120//212
f 96//213 121//213 120//213
f 96//214 97//214 121//214
f 97//215 98//215 121//215
f 97//216 74//216 98//216
f 98//217 123//217 122//217
f 98//218 99//218 123//218
f 99//219 124//219 123//219
f 99//220 100//220 124//220
f 100//221 125//221 124//221
f 100//222 101//222 125//222
f 101//223 126//223 125//223
f 101//224 102//224 126//224
f 102//225 127//225 126//225
f 102//226 103//226 127//226
f 103//227 128//227 127//227
f 103//228 104//228 128//228
f 104//229 129//229 128//229
f 104//230 105//230 129//230
f 105//231 130//231 129//231
f 105//232 106//232 130//232
f 106//233 131//233 130//233
f 106//234 107//234 131//234
f 107//235 132//235 131//235
f 107//236 108//236 132//236
f 108//237 133//237 132//237
f 108//238 109//238 133//238
f 109//239 134//239 133//239
f 109//240 110//240 134//240
f 110//241 135//241 134//241
f 110//242 111//242 135//242
f 111//243 136//243 135//243
f 111//244 112//244 136//244
f 112//245 137//245 136//245
f 112//246 113//246 137//246
f 113//247 138//247 137//247
f 113//248 114//248 138//248
f 114//249 139//249 138//249
f 114//250 115//250 139//250
f 115//251 140//251 139//251
f 115//252 116//252 140//252
f 116//253 141//253 140//253
f 116//254 117//254 141//254
f 117//255 142//255 141//255
f 117//256 118//256 142//256
f 118//257 143//257 142//257
f 118//258 119//258 143//258
f 119//259 144//259 143//259
f 119//260 120//260 144//260
f 120//261 145//261 144//261
f 120//262 121//262 145//262
f 121//263 122//263 145//263
f 121//264 98//264 122//264
f 122//265 147//265 146//265
f 122//266 123//266 147//266
f 123//267 148//267 147//267
f 123//268 124//268 148//268
f 124//269 149//269 148//269
f 124//270 125//270 149//270
f 125//271 150//271 149//271
f 125//272 126//272 150//272
f 126//273 151//273 150//273
f 126//274 127//274 151//274
f 127//275 152//275 151//275
f 127//276 128//276 152//276
f 128//277 153//277 152//277
f 128//278 129//278 153//278
f 129//279 154//279 153//279
f 129//280 130//280 154//280
f 130//281 155//281 154//281
f 130//282 131//282 155//282
f 131//283 156//283 155//283
f 131//284 132//284 156//284
f 132//285 157//285 156//285
f 132//286 133//286 157//286
f 133//287 158//287 157//287
f 133//288 134//288 158//288
f 134//289 159//289 158//289
f 134//290 135//290 159//290
f 135//291 160//291 159//291
f 135//292 136//292 160//292
f 136//293 161//293 160//293
f 136//294 137//294 161//294
f 137//295 162//295 161//295
f 137//296 138//296 162//296
f 138//297 163//297 162//297
f 138//298 139//298 163//298
f 139//299 164//299 163//299
f 139//300 140//300 164//300
f 140//301 165//301 164//301
f 140//302 141//302 165//302
f 141//303 166//303 165//303
f 141//304 142//304 166//304
f 142//305 167//305 166//305
f 142//306 143//306 167//306
f 143//307 168//307 167//307
f 143//308 144//308 168//308
f 144//309 169//309 168//309
f 144//310 145//310 169//310
f 145//311 146//311 169//311
f 145//312 122//312 146//312
f 146//313 171//313 170//313
f 146//314 147//314 171//314
f 147//315 172//315 171//315
f 147//316 148//316 172//316
f 148//317 173//317 172//317
f 148//318 149//318 173//318
f 149//319 174//319 173//319
f 149//320 150//320 174//320
f 150//321 175//321 174//321
f 150//322 151//322 175//322
f 151//323 176//323 175//323
f 151//324 152//324 176//324
f 152//325 177//325 176//325
f 152//326 153//326 177//326
f 153//327 178//327 177//327
f 153//328 154//328 178//328
f 154//329 179//329 178//329
f 154//330 155//330 179//330
f 155//331 180//331 179//331
f 155//332 156//332 180//332
f 156//333 181//333 180//333
f 156//334 157//334 181//334
f 157//335 182//335 181//335
f 157//336 158//336 182//336
f 158//337 183//337 182//337
f 158//338 159//338 183//338
f 159//339 184//339 183//339
f 159//340 160//340 184//340
f 160//341 185//341 184//341
f 160//342 161//342 185//342
f 161//343 186//343 185//343
f 161//344 162//344 186//344
f 162//345 187//345 186//345
f 162//346 163//346 187//346
f 163//347 188//347 187//347
f 163//348 164//348 188//348
f 164//349 189//349 188//349
f 164//350 165//350 189//350
f 165//351 190//351 189//351
f 165//352 166//352 190//352
f 166//353 191//353 190//353
f 166//354 167//354 191//354
f 167//355 192//355 191//355
f 167//356 168//356 192//356
f 168//357 193//357 192//357
f 168//358 169//358 193//358
f 169//359 170//359 193//359
f 169//360 146//360 170//360
f 170//361 195//361 194//361
f 170//362 171//362 195//362
f 171//363 196//363 195//363
f 171//364 172//364 196//364
f 172//365 197//365 196//365
f 172//366 173//366 197//366
f 173//367 198//367 197//367
f 173//368 174//368 198//368
f 174//369 199//369 198//369
f 174//370 175//370 199//370
f 175//371 200//371 199//371
f 175//372 176//372 200//372
f 176//373 201//373 200//373
f 176//374 177//374 201//374
f 177//375 202//375 201//375
f 177//376 178//376 202//376
f 178//377 203//377 202//377
f 178//378 179//378 203//378
f 179//379 204//379 203//379
f 179//380 180//380 204//380
f 180//381 205//381 204//381
f 180//382 181//382 205//382
f 181//383 206//383 205//383
f 181//384 182//384 206//384
f 182//385 207//385 206//385
f 182//386 183//386 207//386
f 183//387 208//387 207//387
f 183//388 184//388 208//388
f 184//389 209//389 208//389
f 184//390 185//390 209//390
f 185//391 210//391 209//391
f 185//392 186//392 210//392
f 186//393 211//393 210//393
f 186//394 187//394 211//394
f 187//395 212//395 211//395
f 187//396 188//396 212//396
f 188//397 213//397 212//397
f 188//398 189//398 213//398
f 189//399 214//399 213//399
f 189//400 190//400 214//400
f 190//401 215//401 214//401
f 190//402 191//402 215//402
f 191//403 216//403 215//403
f 191//404 192//404 216//404
f 192//405 217//405 216//405
f 192//406 193//406 217//406
f 193//407 194//407 217//407
f 193//408 170//408 194//408
f 194//409 219//409 218//409
f 194//410 195//410 219//410
f 195//411 220//411 219//411
f 195//412 196//412 220//412
f 196//413 221//413 220//413
f 196//414 197//414 221//414
f 197//415 222//415 221//415
f 197//416 198//416 222//416
f 198//417 223//417 222//417
f 198//418 199//418 223//418
f 199//419 224//419 223//419
f 199//420 200//420 224//420
f 200//421 225//421 224//421
f 200//422 201//422 225//422
f 201//423 226//423 225//423
f 201//424 202//424 226//424
f 202//425 227//425 226//425
f 202//426 203//426 227//426
f 203//427 228//427 227//427
f 203//428 204//428 228//428
f 204//429 229//429 228//429
f 204//430 205//430 229//430
f 205//431 230//431 229//431
f 205//432 206//432 230//432
f 206//433 231//433 230//433
f 206//434 207//434 231//434
f 207//435 232//435 231//435
f 207//436 208//436 232//436
f 208//437 233//437 232//437
f 208//438 209//438 233//438
f 209//439 234//439 233//439
f 209//440 210//440 234//440
f 210//441 235//441 234//441
f 210//442 211//442 235//442
f 211//443 236//443 235//443
f 211//444 212//444 236//444
f 212//445 237//445 236//445
f 212//446 213//446 237//446
f 213//447 238//447 237//447
f 213//448 214//448 238//448
f 214//449 239//449 238//449
f 214//450 215//450 239//450
f 215//451 240//451 239//451
f 215//452 216//452 240//452
f 216//453 241//453 240//453
f 216//454 217//454 241//454
f 217//455 218//455 241//455
f 217//456 194//456 218//456
