# Angular faceted lunar boulder (lunar_boulder_primary.obj)
o lunar_boulder_primary
v 0.0070 -0.0249 1.0600 0.2922 0.3013 0.3196
v 0.0755 -0.0106 0.9698 0.2931 0.3022 0.3206
v 0.0668 0.0284 0.9454 0.2799 0.2887 0.3062
v 0.0332 0.0482 1.0840 0.2817 0.2905 0.3081
v 0.0003 0.0613 1.0126 0.2083 0.2148 0.2278
v -0.0258 0.0383 1.0851 0.2037 0.2101 0.2228
v -0.0444 0.0194 1.0516 0.1755 0.1809 0.1919
v -0.0465 -0.0061 1.0940 0.1495 0.1542 0.1635
v -0.0518 -0.0420 0.9560 0.1327 0.1369 0.1452
v -0.0131 -0.0415 0.9341 0.1865 0.1924 0.2040
v 0.0224 -0.0735 1.0999 0.2515 0.2593 0.2751
v 0.0337 -0.0279 1.0366 0.3594 0.3707 0.3931
v 0.1666 0.0153 0.9311 0.3098 0.3195 0.3388
v 0.1243 0.0927 1.0182 0.1632 0.1683 0.1785
v 0.0350 0.0962 0.8657 0.2438 0.2514 0.2666
v -0.0343 0.1325 1.0632 0.2424 0.2500 0.2652
v -0.0657 0.0589 1.0234 0.2170 0.2238 0.2374
v -0.1029 0.0185 1.0437 0.1179 0.1216 0.1290
v -0.0901 -0.0342 1.0438 0.0961 0.0991 0.1051
v -0.0841 -0.1120 0.9628 0.0854 0.0881 0.0934
v -0.0041 -0.0857 1.0823 0.2833 0.2922 0.3099
v 0.0758 -0.1235 0.8741 0.3389 0.3495 0.3707
v 0.0803 -0.0389 0.9403 0.1950 0.2011 0.2132
v 0.2230 -0.0101 0.9105 0.2397 0.2471 0.2621
v 0.2156 0.1174 0.7941 0.4095 0.4223 0.4479
v 0.0745 0.1364 0.9423 0.3129 0.3227 0.3422
v -0.0181 0.1802 0.7628 0.1940 0.2001 0.2122
v -0.0979 0.1177 0.7458 0.1412 0.1456 0.1544
v -0.1498 0.0490 0.8364 0.1104 0.1139 0.1208
v -0.1605 -0.0367 0.7917 0.0466 0.0481 0.0510
v -0.1441 -0.1426 0.8554 0.0510 0.0526 0.0558
v -0.0269 -0.1317 0.9333 0.0469 0.0483 0.0512
v 0.0901 -0.2128 0.9247 0.2904 0.2994 0.3176
v 0.0968 -0.0652 0.7881 0.2288 0.2359 0.2502
v 0.2895 -0.0028 0.5843 0.2504 0.2582 0.2738
v 0.2516 0.1493 0.6347 0.4647 0.4793 0.5083
v 0.1033 0.2080 0.6717 0.4414 0.4552 0.4828
v -0.0362 0.2563 0.6505 0.1987 0.2049 0.2173
v -0.1281 0.1425 0.6148 0.0992 0.1023 0.1085
v -0.1975 0.0569 0.6028 0.0747 0.0770 0.0817
v -0.1979 -0.0528 0.6115 0.0427 0.0440 0.0467
v -0.1625 -0.1735 0.7189 0.0545 0.0562 0.0596
v -0.0295 -0.1805 0.6686 0.0465 0.0480 0.0509
v 0.1322 -0.2809 0.7124 0.1917 0.1977 0.2097
v 0.1444 -0.0896 0.7175 0.2859 0.2948 0.3127
v 0.3542 -0.0210 0.3554 0.2290 0.2362 0.2505
v 0.3181 0.1675 0.3732 0.3825 0.3944 0.4183
v 0.1453 0.2567 0.3942 0.3940 0.4063 0.4310
v -0.0276 0.3240 0.3427 0.3114 0.3211 0.3406
v -0.1543 0.1912 0.4046 0.0955 0.0985 0.1045
v -0.2243 0.0769 0.3831 0.0473 0.0488 0.0517
v -0.2638 -0.0565 0.3559 0.0465 0.0479 0.0508
v -0.2238 -0.2151 0.3384 0.0554 0.0572 0.0606
v -0.0459 -0.2080 0.3397 0.0452 0.0466 0.0495
v 0.1301 -0.3208 0.3831 0.1702 0.1755 0.1861
v 0.1810 -0.1257 0.3979 0.1626 0.1677 0.1778
v 0.4743 0.0222 0.0000 0.1884 0.1884 0.1929
v 0.3911 0.2641 0.0000 0.4524 0.4524 0.4632
v 0.1465 0.3475 0.0000 0.4820 0.4820 0.4934
v -0.0888 0.4307 0.0000 0.3594 0.3594 0.3680
v -0.2469 0.2437 0.0000 0.1193 0.1193 0.1222
v -0.3229 0.0734 0.0000 0.0300 0.0300 0.0300
v -0.3112 -0.1024 0.0000 0.0300 0.0300 0.0300
v -0.2844 -0.3429 0.0000 0.0300 0.0300 0.0300
v -0.0333 -0.3362 0.0000 0.0300 0.0300 0.0300
v 0.2333 -0.4254 0.0000 0.0413 0.0413 0.0423
v 0.2753 -0.1495 0.0000 0.2243 0.2243 0.2297
v 0.3112 0.0773 0.1837 0.2333 0.2406 0.2552
v 0.3597 0.0756 0.1332 0.3214 0.3314 0.3515
v 0.3508 0.1012 0.1159 0.5109 0.5269 0.5588
v 0.3133 0.1031 0.1342 0.3428 0.3536 0.3750
v 0.2829 0.0886 0.1123 0.0854 0.0881 0.0934
v 0.2913 0.0642 0.1255 0.0454 0.0468 0.0496
v 0.3174 0.0581 0.1163 0.0494 0.0509 0.0540
v 0.3396 0.0604 0.1381 0.0773 0.0798 0.0846
v 0.4037 0.0856 0.0619 0.3006 0.3100 0.3288
v 0.3636 0.1293 0.0673 0.3783 0.3902 0.4138
v 0.2918 0.1276 0.0609 0.3681 0.3796 0.4026
v 0.2324 0.0935 0.0692 0.1493 0.1539 0.1633
v 0.2715 0.0489 0.0715 0.0578 0.0596 0.0633
v 0.3199 0.0366 0.0745 0.0563 0.0581 0.0616
v 0.3564 0.0539 0.0696 0.0556 0.0574 0.0609
v 0.4581 0.0682 0.0000 0.2219 0.2219 0.2272
v 0.4234 0.1535 0.0000 0.4736 0.4736 0.4849
v 0.3027 0.1690 0.0000 0.3993 0.3993 0.4088
v 0.2025 0.1248 0.0000 0.0651 0.0651 0.0666
v 0.2125 0.0442 0.0000 0.0300 0.0300 0.0300
v 0.2990 0.0201 0.0000 0.0300 0.0300 0.0300
v 0.3654 0.0305 0.0000 0.0300 0.0300 0.0300
v 0.1533 0.2240 0.2862 0.2254 0.2325 0.2466
v 0.2182 0.2234 0.1933 0.3511 0.3621 0.3840
v 0.1876 0.2504 0.1985 0.4658 0.4804 0.5095
v 0.1527 0.2453 0.2064 0.3355 0.3460 0.3670
v 0.1093 0.2358 0.2029 0.1471 0.1517 0.1609
v 0.1171 0.1960 0.1849 0.0443 0.0457 0.0484
v 0.1568 0.1797 0.1765 0.0437 0.0451 0.0478
v 0.1901 0.1956 0.1781 0.0511 0.0527 0.0559
v 0.2731 0.2196 0.1030 0.2940 0.3032 0.3215
v 0.2280 0.2880 0.0958 0.3801 0.3920 0.4158
v 0.1454 0.2821 0.1133 0.4200 0.4332 0.4594
v 0.0577 0.2609 0.1044 0.2273 0.2344 0.2486
v 0.0703 0.1812 0.1107 0.0574 0.0592 0.0628
v 0.1441 0.1477 0.1102 0.0519 0.0535 0.0567
v 0.2050 0.1756 0.0981 0.0636 0.0656 0.0696
v 0.3357 0.2185 0.0000 0.2188 0.2188 0.2240
v 0.2680 0.3281 0.0000 0.4670 0.4670 0.4782
v 0.1373 0.3152 0.0000 0.3975 0.3975 0.4069
v -0.0081 0.2888 0.0000 0.0735 0.0735 0.0752
v 0.0023 0.1551 0.0000 0.0300 0.0300 0.0300
v 0.1229 0.0751 0.0000 0.0300 0.0300 0.0300
v 0.2410 0.1366 0.0000 0.0300 0.0300 0.0300
v -0.2545 0.1161 0.2747 0.1901 0.1961 0.2080
v -0.2210 0.1198 0.1811 0.2487 0.2564 0.2720
v -0.2291 0.1418 0.2068 0.3777 0.3895 0.4131
v -0.2483 0.1494 0.2078 0.2476 0.2553 0.2708
v -0.2665 0.1391 0.1810 0.0873 0.0900 0.0955
v -0.2732 0.1152 0.1824 0.0570 0.0587 0.0623
v -0.2597 0.0879 0.1810 0.0571 0.0589 0.0625
v -0.2358 0.1034 0.1795 0.0780 0.0805 0.0854
v -0.1839 0.1179 0.0918 0.3082 0.3178 0.3371
v -0.2103 0.1657 0.0883 0.3864 0.3985 0.4226
v -0.2525 0.1716 0.1093 0.3462 0.3570 0.3787
v -0.2833 0.1481 0.0987 0.1183 0.1220 0.1294
v -0.2949 0.1042 0.0905 0.0490 0.0505 0.0536
v -0.2685 0.0503 0.1089 0.0820 0.0846 0.0897
v -0.2240 0.0866 0.0922 0.0699 0.0721 0.0765
v -0.1483 0.1306 0.0000 0.2370 0.2370 0.2426
v -0.1989 0.1986 0.0000 0.4814 0.4814 0.4929
v -0.2693 0.2090 0.0000 0.3603 0.3603 0.3689
v -0.3181 0.1562 0.0000 0.0360 0.0360 0.0369
v -0.3287 0.0738 0.0000 0.0300 0.0300 0.0300
v -0.2660 -0.0047 0.0000 0.0300 0.0300 0.0300
v -0.1985 0.0656 0.0000 0.0351 0.0351 0.0360
v -0.2483 -0.2644 0.1915 0.2477 0.2554 0.2709
v -0.1887 -0.2658 0.1235 0.3527 0.3638 0.3858
v -0.2131 -0.2418 0.1294 0.4782 0.4931 0.5230
v -0.2409 -0.2161 0.1173 0.3942 0.4065 0.4312
v -0.2770 -0.2379 0.1414 0.1597 0.1646 0.1746
v -0.2788 -0.2740 0.1467 0.0430 0.0443 0.0470
v -0.2495 -0.2956 0.1309 0.0471 0.0485 0.0515
v -0.2197 -0.2831 0.1230 0.0661 0.0682 0.0723
v -0.1492 -0.2611 0.0774 0.2823 0.2911 0.3087
v -0.1965 -0.2186 0.0744 0.5036 0.5194 0.5509
v -0.2591 -0.1699 0.0638 0.3784 0.3902 0.4139
v -0.3160 -0.2270 0.0644 0.1463 0.1508 0.1600
v -0.3140 -0.2939 0.0661 0.0516 0.0532 0.0564
v -0.2541 -0.3320 0.0683 0.0506 0.0522 0.0553
v -0.1943 -0.3060 0.0651 0.1016 0.1048 0.1112
v -0.0968 -0.2497 0.0000 0.2664 0.2664 0.2728
v -0.1770 -0.1833 0.0000 0.5105 0.5105 0.5227
v -0.2909 -0.1136 0.0000 0.4143 0.4143 0.4241
v -0.3828 -0.2132 0.0000 0.0480 0.0480 0.0491
v -0.3613 -0.3271 0.0000 0.0300 0.0300 0.0300
v -0.2518 -0.3690 0.0000 0.0300 0.0300 0.0300
v -0.1557 -0.3332 0.0000 0.1088 0.1088 0.1114
v 0.1362 -0.2222 0.1719 0.2427 0.2503 0.2655
v 0.1798 -0.2238 0.1115 0.4418 0.4556 0.4832
v 0.1614 -0.2069 0.1063 0.4277 0.4411 0.4678
v 0.1333 -0.2031 0.1181 0.2155 0.2223 0.2358
v 0.1190 -0.2192 0.1087 0.0606 0.0625 0.0663
v 0.1169 -0.2367 0.1255 0.0558 0.0575 0.0610
v 0.1391 -0.2460 0.1173 0.0570 0.0588 0.0624
v 0.1746 -0.2496 0.1137 0.2450 0.2527 0.2680
v 0.2220 -0.2292 0.0574 0.4171 0.4301 0.4562
v 0.1858 -0.1924 0.0643 0.5130 0.5290 0.5611
v 0.1316 -0.1762 0.0676 0.3412 0.3519 0.3732
v 0.1008 -0.2091 0.0696 0.1013 0.1045 0.1108
v 0.0896 -0.2415 0.0555 0.0448 0.0462 0.0490
v 0.1281 -0.2628 0.0659 0.0577 0.0595 0.0631
v 0.1964 -0.2792 0.0581 0.1451 0.1496 0.1587
v 0.2545 -0.2283 0.0000 0.3659 0.3659 0.3746
v 0.2084 -0.1716 0.0000 0.5008 0.5008 0.5128
v 0.1195 -0.1403 0.0000 0.3811 0.3811 0.3902
v 0.0677 -0.1981 0.0000 0.0376 0.0376 0.0385
v 0.0391 -0.2586 0.0000 0.0300 0.0300 0.0300
v 0.1205 -0.2878 0.0000 0.0300 0.0300 0.0300
v 0.2347 -0.3123 0.0000 0.0420 0.0420 0.0430
vn 0.6487 0.5018 0.5721
vn 0.8751 -0.4018 0.2697
vn -0.8828 0.1721 0.4371
vn 0.8675 0.2896 0.4043
vn -0.5676 -0.5406 0.6210
vn 0.5383 0.7106 0.4532
vn -0.1734 -0.9515 0.2542
vn 0.0793 -0.9899 0.1175
vn -0.9708 -0.1624 0.1768
vn 0.5521 0.6268 0.5498
vn 0.5184 0.6914 0.5032
vn 0.4544 -0.5449 0.7047
vn -0.8350 0.1453 0.5307
vn -0.8453 0.1902 0.4993
vn 0.8332 0.5386 0.1255
vn 0.7540 0.6402 0.1472
vn -0.7843 -0.5647 0.2569
vn 0.1565 -0.5209 0.8391
vn 0.0166 0.9516 0.3070
vn -0.4688 0.7009 0.5375
vn -0.0562 -0.8557 0.5145
vn -0.1332 -0.0309 0.9906
vn -0.7448 0.5872 0.3171
vn -0.2964 -0.7000 0.6498
vn 0.9085 -0.4117 0.0719
vn -0.7973 0.4099 0.4431
vn 0.1438 0.9506 0.2751
vn 0.7244 0.6714 0.1565
vn -0.6767 -0.7363 0.0029
vn 0.9231 -0.2666 0.2772
vn 0.8673 0.3175 0.3834
vn 0.5257 -0.7782 0.3436
vn -0.2311 0.9672 0.1052
vn 0.4994 0.5999 0.6251
vn 0.9209 0.0728 0.3829
vn 0.3879 0.8856 0.2556
vn -0.8590 -0.1082 0.5005
vn -0.8885 0.0001 0.4588
vn 0.7474 0.6487 0.1433
vn -0.6256 0.7750 0.0894
vn -0.9362 0.3057 0.1735
vn -0.6051 0.7617 0.2316
vn -0.6458 0.7207 0.2521
vn -0.9751 0.0065 0.2215
vn -0.9374 -0.2271 0.2641
vn -0.9631 0.0123 0.2689
vn -0.6252 -0.5857 0.5159
vn -0.1428 -0.9281 0.3439
vn -0.1612 -0.9358 0.3135
vn -0.5228 -0.7887 0.3234
vn 0.9051 0.3096 0.2914
vn 0.8004 0.3871 0.4577
vn 0.9787 -0.1565 0.1328
vn 0.2321 -0.9540 0.1896
vn 0.2423 -0.2263 0.9435
vn 0.9642 0.1737 0.2005
vn 0.9167 0.2972 0.2670
vn 0.4114 0.8713 0.2676
vn 0.4053 0.8722 0.2738
vn 0.2772 0.9212 0.2732
vn -0.6769 0.5541 0.4846
vn -0.7599 0.4746 0.4441
vn -0.6277 0.7256 0.2819
vn -0.7636 0.5791 0.2855
vn -0.6733 0.7214 0.1620
vn -0.9794 0.0190 0.2010
vn -0.9793 0.0173 0.2018
vn -0.9726 -0.0978 0.2107
vn -0.9869 -0.0641 0.1479
vn 0.0306 -0.9757 0.2171
vn -0.0296 -0.9829 0.1817
vn -0.5513 -0.8195 0.1565
vn -0.5554 -0.8175 0.1522
vn 0.9742 -0.0679 0.2151
vn 0.8263 0.3618 0.4317
vn 0.7366 -0.3067 0.6028
vn 0.3566 -0.9328 0.0517
vn 0.9533 0.1586 0.2569
vn 0.9550 0.1539 0.2534
vn 0.4686 0.8651 0.1791
vn 0.4054 0.8880 0.2172
vn 0.2999 0.9308 0.2088
vn 0.2904 0.9328 0.2133
vn -0.6832 0.7170 0.1385
vn -0.7910 0.5669 0.2300
vn -0.8502 0.4796 0.2172
vn -0.7782 0.6098 0.1504
vn -0.9569 0.2547 0.1398
vn -0.9682 0.0228 0.2492
vn -0.9336 -0.2622 0.2444
vn -0.9761 -0.1334 0.1718
vn 0.0388 -0.9940 0.1024
vn -0.0207 -0.9962 0.0843
vn -0.5538 -0.8270 0.0968
vn -0.5449 -0.8320 0.1042
vn 0.9668 -0.2542 0.0247
vn 0.9904 -0.0664 0.1211
vn 0.5387 -0.8281 0.1552
vn 0.6517 -0.7190 0.2414
vn 0.8900 0.3062 0.3379
vn 0.9596 0.1623 0.2297
vn 0.3085 0.9045 0.2944
vn 0.4687 0.8605 0.1996
vn 0.3257 0.9212 0.2131
vn 0.2901 0.9272 0.2369
vn -0.7235 0.6118 0.3198
vn -0.6431 0.7267 0.2414
vn -0.8834 0.3942 0.2533
vn -0.8505 0.4803 0.2145
vn -0.9663 -0.0641 0.2493
vn -0.9597 0.2649 0.0939
vn -0.9833 -0.1096 0.1453
vn -0.9275 -0.2630 0.2655
vn 0.0249 -0.9367 0.3493
vn 0.0345 -0.9346 0.3540
vn -0.2997 -0.8962 0.3271
vn -0.5515 -0.8305 0.0782
vn 0.9450 -0.1439 0.2938
vn 0.9354 -0.2622 0.2372
vn 0.6404 -0.7426 0.1961
vn 0.5294 -0.8449 0.0763
vn 0.5960 0.5812 0.5540
vn 0.2632 0.8508 0.4548
vn -0.5957 0.7224 0.3512
vn -0.9284 -0.1320 0.3475
vn -0.1312 -0.9566 0.2603
vn -0.1553 -0.9538 0.2573
vn 0.5777 -0.5792 0.5752
vn 0.6707 0.5557 0.4913
vn 0.6581 0.5648 0.4979
vn -0.0631 0.8718 0.4858
vn 0.1757 0.9478 0.2660
vn -0.4158 0.8185 0.3964
vn -0.6294 0.1771 0.7566
vn -0.5938 -0.4870 0.6405
vn -0.9212 -0.1166 0.3713
vn -0.2511 -0.9034 0.3475
vn -0.0464 -0.8894 0.4548
vn 0.4331 -0.7905 0.4330
vn 0.0080 -0.9954 0.0958
vn 0.5676 -0.7948 0.2146
vn 0.6214 -0.7314 0.2809
vn 0.7558 0.3075 0.5781
vn 0.5806 0.4500 0.6785
vn 0.1153 0.8976 0.4254
vn -0.0681 0.8310 0.5521
vn -0.3535 0.8021 0.4814
vn -0.3736 0.7733 0.5123
vn -0.9296 -0.1158 0.3499
vn -0.6370 -0.5293 0.5605
vn -0.2582 -0.9263 0.2746
vn -0.2528 -0.9270 0.2769
vn 0.1522 -0.9730 0.1733
vn 0.4399 -0.8323 0.3373
vn 0.3547 -0.8712 0.3394
vn 0.5058 -0.6052 0.6147
vn 0.6351 0.6352 0.4395
vn -0.0808 0.9626 0.2586
vn -0.2270 0.9403 0.2537
vn -0.8487 -0.3467 0.3993
vn -0.2900 -0.8908 0.3497
vn 0.3888 -0.8503 0.3548
vn 0.5375 -0.7529 0.3798
vn 0.7344 0.5296 0.4245
vn 0.6267 0.6193 0.4730
vn 0.0068 0.9382 0.3461
vn -0.0505 0.9275 0.3705
vn -0.2540 0.8925 0.3728
vn -0.2277 0.9084 0.3507
vn -0.8915 -0.1065 0.4402
vn -0.7410 -0.3917 0.5454
vn -0.3761 -0.8341 0.4035
vn -0.2505 -0.8517 0.4602
vn 0.4464 -0.8361 0.3187
vn 0.4005 -0.8685 0.2922
vn 0.5034 -0.8114 0.2971
vn 0.5471 -0.7539 0.3639
vn 0.7577 0.4678 0.4551
vn 0.6949 0.5121 0.5049
vn -0.0919 0.9315 0.3520
vn -0.0085 0.9596 0.2811
vn -0.1714 0.9423 0.2876
vn -0.2539 0.8825 0.3958
vn -0.8521 -0.0667 0.5192
vn -0.8391 -0.0905 0.5364
vn -0.4875 -0.7344 0.4722
vn -0.3388 -0.7545 0.5621
vn 0.4141 -0.7946 0.4441
vn 0.4434 -0.7651 0.4669
vn 0.5753 -0.6653 0.4757
vn 0.4998 -0.8076 0.3129
vn 0.9412 -0.0437 0.3351
vn 0.3515 0.8247 0.4431
vn -0.7283 0.6381 0.2497
vn -0.9422 0.2769 0.1885
vn -0.8772 -0.4443 0.1821
vn 0.5398 -0.8139 0.2147
vn 0.7111 -0.6650 0.2284
vn 0.8158 0.4757 0.3290
vn 0.9724 0.1446 0.1831
vn 0.2461 0.9418 0.2291
vn 0.3709 0.9092 0.1892
vn -0.6365 0.7461 0.1956
vn -0.7034 0.6766 0.2178
vn -0.9529 0.2115 0.2176
vn -0.9421 0.2769 0.1890
vn -0.9000 -0.3538 0.2545
vn -0.8393 -0.4331 0.3286
vn 0.6683 -0.6897 0.2788
vn 0.5387 -0.8109 0.2286
vn 0.6004 -0.7664 0.2283
vn 0.6925 -0.6555 0.3013
vn 0.7462 0.5558 0.3663
vn 0.8293 0.4800 0.2861
vn 0.1370 0.9224 0.3611
vn 0.2666 0.9237 0.2752
vn -0.6944 0.6413 0.3264
vn -0.6415 0.7124 0.2846
vn -0.9330 0.1202 0.3392
vn -0.9384 0.1950 0.2854
vn -0.6980 -0.5580 0.4489
vn -0.9066 -0.3846 0.1736
vn 0.6776 -0.6502 0.3436
vn 0.6685 -0.6636 0.3358
vn 0.7453 -0.5753 0.3370
vn 0.6109 -0.7813 0.1282
vn 0.6467 0.5217 0.5565
vn 0.4468 0.7289 0.5187
vn -0.1511 0.8356 0.5281
vn -0.8326 0.1216 0.5403
vn -0.3738 -0.8217 0.4303
vn 0.4430 -0.8007 0.4033
vn 0.4398 -0.8028 0.4025
vn 0.5465 0.6455 0.5336
vn 0.6789 0.5804 0.4497
vn 0.4950 0.7370 0.4603
vn 0.4745 0.7395 0.4774
vn -0.5353 0.5409 0.6487
vn -0.3392 0.8923 0.2980
vn -0.8929 -0.0153 0.4499
vn -0.9208 0.1021 0.3764
vn -0.5014 -0.7636 0.4069
vn -0.3284 -0.8058 0.4927
vn 0.3769 -0.8124 0.4450
vn 0.4447 -0.7486 0.4917
vn 0.5368 -0.6769 0.5036
vn 0.4588 -0.8337 0.3073
vn 0.5594 0.6768 0.4786
vn 0.5742 0.6717 0.4682
vn 0.4597 0.7501 0.4754
vn 0.5166 0.7531 0.4074
vn -0.5287 0.4874 0.6949
vn -0.5275 0.5332 0.6614
vn -0.7020 -0.1323 0.6998
vn -0.8106 -0.0095 0.5855
vn -0.2893 -0.7559 0.5874
vn -0.5031 -0.7669 0.3984
vn 0.3105 -0.8312 0.4612
vn 0.3611 -0.7652 0.5329
vn 0.6613 -0.4674 0.5867
vn 0.6241 -0.7137 0.3179
vn 0.5615 0.7319 0.3861
vn 0.2552 0.9155 0.3109
vn -0.7904 0.5628 0.2422
vn -0.8979 0.3541 0.2614
vn -0.2369 -0.8952 0.3775
vn -0.0531 -0.9164 0.3966
vn 0.8036 -0.1133 0.5842
vn 0.6722 0.5745 0.4671
vn 0.4892 0.6964 0.5251
vn 0.2811 0.8447 0.4555
vn 0.3003 0.8456 0.4414
vn -0.6682 0.6467 0.3677
vn -0.7772 0.4197 0.4688
vn -0.8890 0.1162 0.4429
vn -0.8634 0.3973 0.3109
vn -0.5202 -0.8137 0.2592
vn -0.2507 -0.9030 0.3488
vn -0.1823 -0.9224 0.3405
vn -0.0443 -0.8892 0.4554
vn 0.7701 -0.3866 0.5074
vn 0.7795 -0.1056 0.6174
vn 0.7080 0.5752 0.4097
vn 0.6818 0.5907 0.4315
vn 0.3060 0.8688 0.3894
vn 0.2849 0.8667 0.4094
vn -0.6692 0.6002 0.4380
vn -0.6533 0.6354 0.4116
vn -0.8097 0.3818 0.4457
vn -0.7338 -0.0395 0.6782
vn -0.2900 -0.8081 0.5127
vn -0.5241 -0.7745 0.3543
vn -0.1947 -0.9094 0.3676
vn -0.1702 -0.9004 0.4005
vn 0.7705 -0.1809 0.6112
vn 0.7994 -0.4025 0.4461
f 1//1 2//1 3//1
f 1//2 3//2 4//2
f 1//3 4//3 5//3
f 1//4 5//4 6//4
f 1//5 6//5 7//5
f 1//6 7//6 8//6
f 1//7 8//7 9//7
f 1//8 9//8 10//8
f 1//9 10//9 11//9
f 1//10 11//10 12//10
f 1//11 12//11 2//11
f 2//12 13//12 14//12
f 2//13 14//13 3//13
f 3//14 14//14 15//14
f 3//15 15//15 4//15
f 4//16 15//16 16//16
f 4//17 16//17 5//17
f 5//18 16//18 17//18
f 5//19 17//19 6//19
f 6//20 17//20 18//20
f 6//21 18//21 7//21
f 7//22 18//22 19//22
f 7//23 19//23 8//23
f 8//24 19//24 20//24
f 8//25 20//25 9//25
f 9//26 20//26 21//26
f 9//27 21//27 10//27
f 10//28 21//28 22//28
f 10//29 22//29 11//29
f 11//30 22//30 23//30
f 11//31 23//31 12//31
f 12//32 23//32 13//32
f 12//33 13//33 2//33
f 13//34 24//34 25//34
f 13//35 25//35 14//35
f 14//36 25//36 26//36
f 14//37 26//37 15//37
f 15//38 26//38 27//38
f 15//39 27//39 16//39
f 16//40 27//40 28//40
f 16//41 28//41 17//41
f 17//42 28//42 29//42
f 17//43 29//43 18//43
f 18//44 29//44 30//44
f 18//45 30//45 19//45
f 19//46 30//46 31//46
f 19//47 31//47 20//47
f 20//48 31//48 32//48
f 20//49 32//49 21//49
f 21//50 32//50 33//50
f 21//51 33//51 22//51
f 22//52 33//52 34//52
f 22//53 34//53 23//53
f 23//54 34//54 24//54
f 23//55 24//55 13//55
f 24//56 35//56 36//56
f 24//57 36//57 25//57
f 25//58 36//58 37//58
f 25//59 37//59 26//59
f 26//60 37//60 38//60
f 26//61 38//61 27//61
f 27//62 38//62 39//62
f 27//63 39//63 28//63
f 28//64 39//64 40//64
f 28//65 40//65 29//65
f 29//66 40//66 41//66
f 29//67 41//67 30//67
f 30//68 41//68 42//68
f 30//69 42//69 31//69
f 31//70 42//70 43//70
f 31//71 43//71 32//71
f 32//72 43//72 44//72
f 32//73 44//73 33//73
f 33//74 44//74 45//74
f 33//75 45//75 34//75
f 34//76 45//76 35//76
f 34//77 35//77 24//77
f 35//78 46//78 47//78
f 35//79 47//79 36//79
f 36//80 47//80 48//80
f 36//81 48//81 37//81
f 37//82 48//82 49//82
f 37//83 49//83 38//83
f 38//84 49//84 50//84
f 38//85 50//85 39//85
f 39//86 50//86 51//86
f 39//87 51//87 40//87
f 40//88 51//88 52//88
f 40//89 52//89 41//89
f 41//90 52//90 53//90
f 41//91 53//91 42//91
f 42//92 53//92 54//92
f 42//93 54//93 43//93
f 43//94 54//94 55//94
f 43//95 55//95 44//95
f 44//96 55//96 56//96
f 44//97 56//97 45//97
f 45//98 56//98 46//98
f 45//99 46//99 35//99
f 46//100 57//100 58//100
f 46//101 58//101 47//101
f 47//102 58//102 59//102
f 47//103 59//103 48//103
f 48//104 59//104 60//104
f 48//105 60//105 49//105
f 49//106 60//106 61//106
f 49//107 61//107 50//107
f 50//108 61//108 62//108
f 50//109 62//109 51//109
f 51//110 62//110 63//110
f 51//111 63//111 52//111
f 52//112 63//112 64//112
f 52//113 64//113 53//113
f 53//114 64//114 65//114
f 53//115 65//115 54//115
f 54//116 65//116 66//116
f 54//117 66//117 55//117
f 55//118 66//118 67//118
f 55//119 67//119 56//119
f 56//120 67//120 57//120
f 56//121 57//121 46//121
f 68//122 69//122 70//122
f 68//123 70//123 71//123
f 68//124 71//124 72//124
f 68//125 72//125 73//125
f 68//126 73//126 74//126
f 68//127 74//127 75//127
f 68//128 75//128 69//128
f 69//129 76//129 77//129
f 69//130 77//130 70//130
f 70//131 77//131 78//131
f 70//132 78//132 71//132
f 71//133 78//133 79//133
f 71//134 79//134 72//134
f 72//135 79//135 80//135
f 72//136 80//136 73//136
f 73//137 80//137 81//137
f 73//138 81//138 74//138
f 74//139 81//139 82//139
f 74//140 82//140 75//140
f 75//141 82//141 76//141
f 75//142 76//142 69//142
f 76//143 83//143 84//143
f 76//144 84//144 77//144
f 77//145 84//145 85//145
f 77//146 85//146 78//146
f 78//147 85//147 86//147
f 78//148 86//148 79//148
f 79//149 86//149 87//149
f 79//150 87//150 80//150
f 80//151 87//151 88//151
f 80//152 88//152 81//152
f 81//153 88//153 89//153
f 81//154 89//154 82//154
f 82//155 89//155 83//155
f 82//156 83//156 76//156
f 90//157 91//157 92//157
f 90//158 92//158 93//158
f 90//159 93//159 94//159
f 90//160 94//160 95//160
f 90//161 95//161 96//161
f 90//162 96//162 97//162
f 90//163 97//163 91//163
f 91//164 98//164 99//164
f 91//165 99//165 92//165
f 92//166 99//166 100//166
f 92//167 100//167 93//167
f 93//168 100//168 101//168
f 93//169 101//169 94//169
f 94//170 101//170 102//170
f 94//171 102//171 95//171
f 95//172 102//172 103//172
f 95//173 103//173 96//173
f 96//174 103//174 104//174
f 96//175 104//175 97//175
f 97//176 104//176 98//176
f 97//177 98//177 91//177
f 98//178 105//178 106//178
f 98//179 106//179 99//179
f 99//180 106//180 107//180
f 99//181 107//181 100//181
f 100//182 107//182 108//182
f 100//183 108//183 101//183
f 101//184 108//184 109//184
f 101//185 109//185 102//185
f 102//186 109//186 110//186
f 102//187 110//187 103//187
f 103//188 110//188 111//188
f 103//189 111//189 104//189
f 104//190 111//190 105//190
f 104//191 105//191 98//191
f 112//192 113//192 114//192
f 112//193 114//193 115//193
f 112//194 115//194 116//194
f 112//195 116//195 117//195
f 112//196 117//196 118//196
f 112//197 118//197 119//197
f 112//198 119//198 113//198
f 113//199 120//199 121//199
f 113//200 121//200 114//200
f 114//201 121//201 122//201
f 114//202 122//202 115//202
f 115//203 122//203 123//203
f 115//204 123//204 116//204
f 116//205 123//205 124//205
f 116//206 124//206 117//206
f 117//207 124//207 125//207
f 117//208 125//208 118//208
f 118//209 125//209 126//209
f 118//210 126//210 119//210
f 119//211 126//211 120//211
f 119//212 120//212 113//212
f 120//213 127//213 128//213
f 120//214 128//214 121//214
f 121//215 128//215 129//215
f 121//216 129//216 122//216
f 122//217 129//217 130//217
f 122//218 130//218 123//218
f 123//219 130//219 131//219
f 123//220 131//220 124//220
f 124//221 131//221 132//221
f 124//222 132//222 125//222
f 125//223 132//223 133//223
f 125//224 133//224 126//224
f 126//225 133//225 127//225
f 126//226 127//226 120//226
f 134//227 135//227 136//227
f 134//228 136//228 137//228
f 134//229 137//229 138//229
f 134//230 138//230 139//230
f 134//231 139//231 140//231
f 134//232 140//232 141//232
f 134//233 141//233 135//233
f 135//234 142//234 143//234
f 135//235 143//235 136//235
f 136//236 143//236 144//236
f 136//237 144//237 137//237
f 137//238 144//238 145//238
f 137//239 145//239 138//239
f 138//240 145//240 146//240
f 138//241 146//241 139//241
f 139//242 146//242 147//242
f 139//243 147//243 140//243
f 140//244 147//244 148//244
f 140//245 148//245 141//245
f 141//246 148//246 142//246
f 141//247 142//247 135//247
f 142//248 149//248 150//248
f 142//249 150//249 143//249
f 143//250 150//250 151//250
f 143//251 151//251 144//251
f 144//252 151//252 152//252
f 144//253 152//253 145//253
f 145//254 152//254 153//254
f 145//255 153//255 146//255
f 146//256 153//256 154//256
f 146//257 154//257 147//257
f 147//258 154//258 155//258
f 147//259 155//259 148//259
f 148//260 155//260 149//260
f 148//261 149//261 142//261
f 156//262 157//262 158//262
f 156//263 158//263 159//263
f 156//264 159//264 160//264
f 156//265 160//265 161//265
f 156//266 161//266 162//266
f 156//267 162//267 163//267
f 156//268 163//268 157//268
f 157//269 164//269 165//269
f 157//270 165//270 158//270
f 158//271 165//271 166//271
f 158//272 166//272 159//272
f 159//273 166//273 167//273
f 159//274 167//274 160//274
f 160//275 167//275 168//275
f 160//276 168//276 161//276
f 161//277 168//277 169//277
f 161//278 169//278 162//278
f 162//279 169//279 170//279
f 162//280 170//280 163//280
f 163//281 170//281 164//281
f 163//282 164//282 157//282
f 164//283 171//283 172//283
f 164//284 172//284 165//284
f 165//285 172//285 173//285
f 165//286 173//286 166//286
f 166//287 173//287 174//287
f 166//288 174//288 167//288
f 167//289 174//289 175//289
f 167//290 175//290 168//290
f 168//291 175//291 176//291
f 168//292 176//292 169//292
f 169//293 176//293 177//293
f 169//294 177//294 170//294
f 170//295 177//295 171//295
f 170//296 171//296 164//296
