# Angular faceted lunar boulder (lunar_boulder_anorthosite.obj)
o lunar_boulder_anorthosite
v -0.0589 0.0496 0.6600 0.2609 0.2609 0.2677
v 0.0938 0.0099 0.5933 0.4339 0.4339 0.4454
v 0.1109 0.0791 0.6059 0.4764 0.4764 0.4889
v 0.0334 0.0909 0.5905 0.5191 0.5191 0.5327
v -0.0386 0.1215 0.6013 0.2512 0.2512 0.2578
v -0.0899 0.0695 0.5159 0.0513 0.0513 0.0527
v -0.0866 0.0122 0.6247 0.1052 0.1052 0.1080
v -0.1408 -0.0522 0.6128 0.1008 0.1008 0.1034
v -0.0773 -0.0987 0.4922 0.0912 0.0912 0.0936
v -0.0022 -0.0972 0.5472 0.0693 0.0693 0.0711
v 0.0564 -0.0786 0.6076 0.2147 0.2147 0.2203
v 0.1231 -0.0507 0.5741 0.4736 0.4736 0.4860
v 0.1807 0.0263 0.4428 0.5772 0.5772 0.5924
v 0.1948 0.1524 0.4122 0.4614 0.4614 0.4736
v 0.0477 0.1538 0.4737 0.5202 0.5202 0.5339
v -0.0931 0.2481 0.5016 0.3858 0.3858 0.3960
v -0.1827 0.1288 0.4544 0.0870 0.0870 0.0893
v -0.1539 0.0155 0.4285 0.1294 0.1294 0.1328
v -0.2879 -0.1205 0.4197 0.1097 0.1097 0.1126
v -0.1577 -0.2227 0.4301 0.0919 0.0919 0.0943
v 0.0051 -0.1716 0.4530 0.0619 0.0619 0.0636
v 0.1354 -0.1707 0.4190 0.0521 0.0521 0.0535
v 0.2655 -0.0969 0.4789 0.3675 0.3675 0.3771
v 0.2708 0.0365 0.3473 0.4003 0.4003 0.4108
v 0.3141 0.2395 0.3487 0.4128 0.4128 0.4237
v 0.0809 0.2479 0.3776 0.6051 0.6051 0.6210
v -0.1225 0.3412 0.3606 0.4293 0.4293 0.4406
v -0.3059 0.2213 0.3438 0.1751 0.1751 0.1797
v -0.2558 0.0286 0.3179 0.1661 0.1661 0.1705
v -0.4392 -0.1779 0.3193 0.1610 0.1610 0.1652
v -0.2332 -0.3200 0.3221 0.0701 0.0701 0.0720
v 0.0040 -0.2636 0.3106 0.1063 0.1063 0.1091
v 0.1781 -0.2309 0.3205 0.1271 0.1271 0.1305
v 0.3674 -0.1389 0.3330 0.2782 0.2782 0.2855
v 0.3918 -0.0304 0.2647 0.4883 0.4883 0.5012
v 0.4299 0.1923 0.2518 0.5594 0.5594 0.5741
v 0.2151 0.3229 0.2539 0.6032 0.6032 0.6191
v -0.0281 0.4588 0.2289 0.4092 0.4092 0.4199
v -0.2919 0.3477 0.2684 0.2470 0.2470 0.2535
v -0.2827 0.0956 0.2253 0.1756 0.1756 0.1802
v -0.5969 -0.1012 0.2223 0.1747 0.1747 0.1793
v -0.4496 -0.3711 0.2256 0.0563 0.0563 0.0578
v -0.1091 -0.3939 0.2516 0.0755 0.0755 0.0775
v 0.1606 -0.3914 0.2642 0.1445 0.1445 0.1483
v 0.4000 -0.2669 0.2460 0.3616 0.3616 0.3711
v 0.4514 -0.0675 0.1121 0.4130 0.4130 0.4239
v 0.6129 0.2211 0.1266 0.3796 0.3796 0.3896
v 0.3050 0.3811 0.1270 0.6060 0.6060 0.6219
v 0.0201 0.5729 0.1194 0.4958 0.4958 0.5089
v -0.2995 0.4272 0.1376 0.2150 0.2150 0.2207
v -0.3628 0.1535 0.1418 0.1966 0.1966 0.2018
v -0.8026 -0.0779 0.1268 0.1825 0.1825 0.1873
v -0.5795 -0.4050 0.1196 0.0575 0.0575 0.0590
v -0.1866 -0.4898 0.1409 0.0682 0.0682 0.0700
v 0.1561 -0.5122 0.1369 0.1061 0.1061 0.1089
v 0.4774 -0.3767 0.1333 0.2639 0.2639 0.2709
v 0.6872 -0.0467 0.0000 0.3716 0.3716 0.3805
v 0.7799 0.3584 0.0000 0.3380 0.3380 0.3460
v 0.3074 0.4739 0.0000 0.4851 0.4851 0.4967
v -0.0620 0.8326 0.0000 0.4327 0.4327 0.4430
v -0.5397 0.6279 0.0000 0.2509 0.2509 0.2568
v -0.4920 0.1610 0.0000 0.0364 0.0364 0.0373
v -0.9536 -0.1713 0.0000 0.0482 0.0482 0.0493
v -0.6997 -0.5907 0.0000 0.0300 0.0300 0.0300
v -0.1534 -0.5829 0.0000 0.0300 0.0300 0.0300
v 0.2951 -0.6943 0.0000 0.0300 0.0300 0.0300
v 0.7103 -0.4631 0.0000 0.2256 0.2256 0.2310
v 0.6694 0.0951 0.1347 0.3136 0.3136 0.3218
v 0.7027 0.0837 0.0937 0.3563 0.3563 0.3657
v 0.7015 0.1292 0.0851 0.4766 0.4766 0.4891
v 0.6405 0.1218 0.0967 0.3905 0.3905 0.4008
v 0.5967 0.1057 0.0899 0.2739 0.2739 0.2811
v 0.5906 0.0659 0.0919 0.1098 0.1098 0.1127
v 0.6326 0.0368 0.0881 0.0626 0.0626 0.0642
v 0.6826 0.0528 0.0984 0.2107 0.2107 0.2162
v 0.7533 0.0790 0.0519 0.4196 0.4196 0.4306
v 0.7435 0.1584 0.0472 0.4747 0.4747 0.4872
v 0.6360 0.1560 0.0509 0.4020 0.4020 0.4126
v 0.5305 0.1365 0.0546 0.2136 0.2136 0.2192
v 0.5187 0.0478 0.0505 0.0917 0.0917 0.0941
v 0.6061 -0.0177 0.0444 0.0861 0.0861 0.0884
v 0.7085 0.0214 0.0480 0.1671 0.1671 0.1715
v 0.8244 0.1022 0.0000 0.3081 0.3081 0.3154
v 0.7786 0.2426 0.0000 0.4092 0.4092 0.4190
v 0.5938 0.1957 0.0000 0.3812 0.3812 0.3903
v 0.4495 0.1332 0.0000 0.0711 0.0711 0.0728
v 0.4689 -0.0025 0.0000 0.0300 0.0300 0.0300
v 0.6288 -0.0853 0.0000 0.0300 0.0300 0.0300
v 0.7739 -0.0022 0.0000 0.1732 0.1732 0.1773
v 0.2383 0.5966 0.1603 0.2751 0.2751 0.2823
v 0.3107 0.5955 0.1102 0.4142 0.4142 0.4251
v 0.2681 0.6321 0.1143 0.4952 0.4952 0.5082
v 0.2100 0.6183 0.1039 0.3198 0.3198 0.3282
v 0.1812 0.5973 0.0976 0.1366 0.1366 0.1402
v 0.1852 0.5690 0.0976 0.0673 0.0673 0.0691
v 0.2239 0.5531 0.1167 0.0540 0.0540 0.0554
v 0.2822 0.5549 0.1154 0.2335 0.2335 0.2397
v 0.3780 0.6005 0.0560 0.4524 0.4524 0.4643
v 0.3154 0.6816 0.0525 0.4549 0.4549 0.4668
v 0.1923 0.6504 0.0587 0.3529 0.3529 0.3622
v 0.1452 0.6055 0.0560 0.1579 0.1579 0.1621
v 0.1436 0.5519 0.0635 0.0571 0.0571 0.0586
v 0.2173 0.5125 0.0530 0.0593 0.0593 0.0609
v 0.3384 0.5189 0.0616 0.2143 0.2143 0.2199
v 0.4755 0.6142 0.0000 0.3695 0.3695 0.3783
v 0.3478 0.7266 0.0000 0.4496 0.4496 0.4603
v 0.1623 0.6923 0.0000 0.3282 0.3282 0.3360
v 0.0955 0.6130 0.0000 0.0442 0.0442 0.0452
v 0.0721 0.5167 0.0000 0.0300 0.0300 0.0300
v 0.2175 0.4740 0.0000 0.0300 0.0300 0.0300
v 0.4256 0.4722 0.0000 0.1422 0.1422 0.1456
v -0.5068 0.2601 0.1288 0.2714 0.2714 0.2786
v -0.4255 0.2654 0.0916 0.3380 0.3380 0.3469
v -0.4401 0.3041 0.0889 0.5519 0.5519 0.5665
v -0.4921 0.3106 0.0787 0.3608 0.3608 0.3703
v -0.5417 0.2990 0.0957 0.2449 0.2449 0.2513
v -0.5615 0.2574 0.0786 0.0540 0.0540 0.0554
v -0.5091 0.2370 0.0922 0.0549 0.0549 0.0563
v -0.4642 0.2417 0.0828 0.0768 0.0768 0.0788
v -0.3568 0.2875 0.0442 0.3235 0.3235 0.3320
v -0.4285 0.3482 0.0437 0.4426 0.4426 0.4542
v -0.5334 0.3520 0.0519 0.4549 0.4549 0.4669
v -0.6294 0.3028 0.0414 0.2425 0.2425 0.2489
v -0.6049 0.2154 0.0436 0.0815 0.0815 0.0836
v -0.4959 0.1976 0.0488 0.0858 0.0858 0.0881
v -0.4204 0.2282 0.0445 0.1696 0.1696 0.1740
v -0.2526 0.2952 0.0000 0.2710 0.2710 0.2774
v -0.3718 0.4117 0.0000 0.4265 0.4265 0.4367
v -0.5588 0.4060 0.0000 0.3886 0.3886 0.3979
v -0.7013 0.3221 0.0000 0.0681 0.0681 0.0698
v -0.7044 0.1716 0.0000 0.0300 0.0300 0.0300
v -0.5076 0.1258 0.0000 0.0300 0.0300 0.0300
v -0.3811 0.1992 0.0000 0.1228 0.1228 0.1258
v -0.5947 -0.2046 0.1551 0.3163 0.3163 0.3246
v -0.5093 -0.1855 0.0985 0.4671 0.4671 0.4793
v -0.5682 -0.1635 0.1025 0.5814 0.5814 0.5967
v -0.6164 -0.1485 0.0975 0.4990 0.4990 0.5121
v -0.6796 -0.1728 0.1049 0.2403 0.2403 0.2466
v -0.6528 -0.2211 0.1094 0.0683 0.0683 0.0701
v -0.6011 -0.2517 0.1001 0.0682 0.0682 0.0700
v -0.5571 -0.2184 0.1183 0.1514 0.1514 0.1554
v -0.4461 -0.2055 0.0606 0.3807 0.3807 0.3907
v -0.5218 -0.1423 0.0626 0.5553 0.5553 0.5699
v -0.6076 -0.1002 0.0519 0.4512 0.4512 0.4631
v -0.7293 -0.1317 0.0502 0.2377 0.2377 0.2440
v -0.7317 -0.2277 0.0569 0.0585 0.0585 0.0601
v -0.6467 -0.3015 0.0573 0.0934 0.0934 0.0958
v -0.5378 -0.2570 0.0499 0.0890 0.0890 0.0914
v -0.3020 -0.1925 0.0000 0.2103 0.2103 0.2153
v -0.4926 -0.1021 0.0000 0.4849 0.4849 0.4965
v -0.6380 -0.0553 0.0000 0.4597 0.4597 0.4707
v -0.8881 -0.0925 0.0000 0.0798 0.0798 0.0817
v -0.7786 -0.2578 0.0000 0.0300 0.0300 0.0300
v -0.6540 -0.3870 0.0000 0.0300 0.0300 0.0300
v -0.4858 -0.2892 0.0000 0.0328 0.0328 0.0336
v 0.0788 -0.6092 0.1662 0.3359 0.3359 0.3448
v 0.1254 -0.5910 0.1096 0.4454 0.4454 0.4571
v 0.1060 -0.5612 0.1102 0.5378 0.5378 0.5519
v 0.0663 -0.5501 0.1245 0.4953 0.4953 0.5083
v 0.0066 -0.5659 0.1050 0.1648 0.1648 0.1691
v 0.0214 -0.6215 0.1064 0.0630 0.0630 0.0647
v 0.0654 -0.6675 0.1071 0.0963 0.0963 0.0988
v 0.1160 -0.6289 0.1265 0.3229 0.3229 0.3314
v 0.1827 -0.5827 0.0640 0.5478 0.5478 0.5622
v 0.1286 -0.5247 0.0670 0.6006 0.6006 0.6165
v 0.0477 -0.5120 0.0668 0.4382 0.4382 0.4498
v -0.0663 -0.5482 0.0539 0.2445 0.2445 0.2510
v -0.0330 -0.6562 0.0625 0.0675 0.0675 0.0693
v 0.0611 -0.7455 0.0583 0.0931 0.0931 0.0956
v 0.1620 -0.6651 0.0636 0.2220 0.2220 0.2278
v 0.2562 -0.6078 0.0000 0.3698 0.3698 0.3786
v 0.1952 -0.4877 0.0000 0.4777 0.4777 0.4890
v 0.0593 -0.4532 0.0000 0.4456 0.4456 0.4563
v -0.1358 -0.4781 0.0000 0.0759 0.0759 0.0777
v -0.1471 -0.6675 0.0000 0.0300 0.0300 0.0300
v -0.0093 -0.8328 0.0000 0.0300 0.0300 0.0300
v 0.1918 -0.7439 0.0000 0.0487 0.0487 0.0499
vn 0.3330 -0.2477 0.9098
vn 0.0228 0.8457 0.5332
vn 0.3424 0.5346 0.7726
vn -0.8613 0.4443 0.2466
vn -0.8755 0.4161 0.2457
vn -0.7521 0.6514 -0.1002
vn 0.5226 -0.6666 0.5316
vn -0.4425 -0.6475 0.6205
vn -0.4367 -0.6480 0.6240
vn 0.4391 0.0275 0.8980
vn 0.3732 -0.1116 0.9210
vn 0.8647 0.0247 0.5017
vn 0.9151 -0.2790 0.2910
vn 0.1823 0.8909 0.4160
vn 0.0388 0.8779 0.4773
vn 0.5574 0.7007 0.4452
vn 0.3791 0.6677 0.6407
vn -0.6861 0.2439 0.6854
vn -0.6682 -0.3853 0.6365
vn -0.6576 -0.3228 0.6807
vn -0.8161 0.5007 0.2885
vn -0.6974 0.6714 0.2507
vn -0.7433 0.5577 0.3693
vn -0.5197 -0.6003 0.6079
vn 0.5591 -0.6315 0.5373
vn 0.0184 -0.4570 0.8893
vn -0.3902 -0.7372 0.5516
vn 0.1667 -0.7674 0.6191
vn -0.1182 -0.9108 0.3956
vn 0.2381 -0.8296 0.5051
vn 0.5025 -0.1896 0.8435
vn 0.5768 0.5684 0.5867
vn 0.8292 0.2401 0.5047
vn 0.7263 -0.1597 0.6685
vn 0.3545 0.1829 0.9170
vn 0.1253 0.4665 0.8756
vn 0.3061 0.6251 0.7180
vn 0.2384 0.6513 0.7204
vn 0.5665 0.7370 0.3685
vn -0.4920 0.6759 0.5487
vn -0.6011 0.1399 0.7869
vn -0.7483 -0.2756 0.6033
vn -0.7144 -0.3236 0.6204
vn -0.5915 0.5293 0.6082
vn -0.5965 0.5502 0.5843
vn -0.3469 -0.4872 0.8014
vn -0.4439 -0.4891 0.7508
vn 0.2168 -0.7957 0.5655
vn 0.1844 -0.8263 0.5322
vn 0.1258 -0.8338 0.5375
vn 0.1523 -0.8126 0.5626
vn 0.3206 -0.7400 0.5913
vn 0.2804 -0.8524 0.4413
vn 0.8001 0.4048 0.4428
vn 0.5689 0.5660 0.5967
vn 0.5462 -0.0450 0.8365
vn 0.6034 -0.1343 0.7861
vn 0.5104 0.8358 0.2022
vn 0.1025 0.7974 0.5947
vn 0.2888 0.6470 0.7057
vn 0.2309 0.6377 0.7349
vn -0.2594 0.8052 0.5333
vn -0.3985 0.5022 0.7675
vn -0.9820 -0.0034 -0.1886
vn -0.9609 -0.2619 0.0897
vn -0.4257 0.6700 0.6082
vn -0.3704 0.3347 0.8665
vn -0.6046 -0.3211 0.7289
vn -0.2910 -0.4049 0.8668
vn -0.0999 -0.7693 0.6310
vn 0.1647 -0.5214 0.8372
vn -0.0393 -0.3831 0.9229
vn 0.0083 -0.3321 0.9432
vn 0.2481 -0.3450 0.9052
vn 0.1961 -0.5167 0.8334
vn 0.9392 0.0056 0.3434
vn 0.6451 0.2981 0.7036
vn 0.7837 -0.4596 0.4178
vn 0.5692 -0.0498 0.8207
vn 0.3469 0.6659 0.6605
vn 0.4177 0.6768 0.6062
vn 0.4311 0.6648 0.6101
vn 0.2626 0.6081 0.7491
vn -0.2942 0.7237 0.6243
vn -0.2673 0.8164 0.5120
vn -0.9555 0.2238 0.1921
vn -0.7606 -0.1362 0.6348
vn -0.3363 0.5921 0.7323
vn -0.3185 0.4959 0.8078
vn -0.4287 -0.3112 0.8482
vn -0.5567 -0.2944 0.7768
vn -0.2073 -0.8291 0.5193
vn -0.1009 -0.7159 0.6909
vn -0.0404 -0.7410 0.6703
vn -0.0252 -0.7248 0.6885
vn 0.3012 -0.6970 0.6508
vn 0.3416 -0.5453 0.7655
vn 0.8651 0.1065 0.4902
vn 0.9318 0.0038 0.3629
vn 0.4342 -0.0994 0.8953
vn 0.7436 -0.4414 0.5022
vn 0.1402 0.5737 0.8070
vn 0.3861 0.7414 0.5488
vn 0.6137 0.6320 0.4732
vn 0.2975 0.4748 0.8283
vn -0.1588 0.3705 0.9152
vn -0.1469 0.4338 0.8890
vn -0.5302 -0.0542 0.8461
vn -0.7227 0.1771 0.6681
vn -0.5063 0.7035 0.4987
vn -0.4605 0.8819 -0.1010
vn -0.4973 -0.3011 0.8136
vn -0.4048 -0.2953 0.8654
vn 0.0077 -0.5449 0.8384
vn -0.2084 -0.8380 0.5044
vn -0.2081 -0.8380 0.5044
vn -0.0308 -0.6154 0.7876
vn 0.2514 -0.4516 0.8561
vn 0.2451 -0.5601 0.7914
vn 0.5043 0.0280 0.8631
vn 0.4201 0.0973 0.9023
vn 0.7870 0.1360 0.6017
vn 0.0084 0.8216 0.5700
vn -0.3394 0.6287 0.6997
vn -0.5076 0.1223 0.8529
vn -0.2667 -0.4927 0.8283
vn 0.0489 -0.6418 0.7653
vn 0.6793 -0.3447 0.6478
vn 0.6395 0.1229 0.7589
vn 0.5937 0.1657 0.7875
vn 0.0036 0.7903 0.6127
vn 0.0160 0.8016 0.5976
vn -0.1248 0.7889 0.6018
vn -0.2814 0.3963 0.8740
vn -0.4626 0.0201 0.8863
vn -0.5190 0.1237 0.8458
vn -0.3286 -0.5123 0.7934
vn -0.2826 -0.5133 0.8103
vn 0.2329 -0.6754 0.6997
vn 0.1405 -0.8060 0.5750
vn 0.5969 -0.5063 0.6224
vn 0.5974 -0.2756 0.7531
vn 0.5415 0.1769 0.8219
vn 0.6766 0.1255 0.7256
vn -0.1334 0.5263 0.8398
vn 0.0036 0.7895 0.6137
vn -0.2746 0.6341 0.7229
vn -0.1714 0.9652 0.1974
vn -0.5552 -0.0793 0.8280
vn -0.7428 0.0675 0.6661
vn -0.2753 -0.5313 0.8012
vn -0.3955 -0.5929 0.7014
vn 0.2659 -0.4647 0.8446
vn 0.2423 -0.6977 0.6741
vn 0.5129 -0.2479 0.8218
vn 0.6086 -0.5141 0.6044
vn 0.4972 0.5015 0.7080
vn -0.2818 0.8396 0.4645
vn -0.5732 0.6259 0.5289
vn -0.7360 -0.1022 0.6692
vn -0.5395 -0.4994 0.6779
vn 0.0380 -0.7132 0.6999
vn 0.5430 -0.2808 0.7914
vn 0.5406 0.4479 0.7121
vn 0.4751 0.4719 0.7427
vn -0.1842 0.8306 0.5255
vn -0.2839 0.7256 0.6268
vn -0.5634 0.5533 0.6135
vn -0.5551 0.5815 0.5947
vn -0.7396 0.1148 0.6632
vn -0.6108 -0.0850 0.7872
vn -0.2711 -0.6864 0.6748
vn -0.5277 -0.6903 0.4950
vn 0.0065 -0.8434 0.5372
vn 0.0385 -0.8110 0.5838
vn 0.5900 -0.2329 0.7730
vn 0.6063 -0.3342 0.7216
vn 0.3965 0.4503 0.8000
vn 0.5384 0.4463 0.7148
vn -0.1468 0.7943 0.5896
vn -0.1617 0.7623 0.6267
vn -0.5827 0.4904 0.6480
vn -0.5761 0.5681 0.5876
vn -0.7244 0.1761 0.6665
vn -0.6915 0.1202 0.7123
vn -0.2146 -0.7315 0.6472
vn -0.3303 -0.7647 0.5533
vn -0.0070 -0.8095 0.5871
vn -0.0006 -0.7975 0.6033
vn 0.5031 -0.1766 0.8460
vn 0.5090 -0.1891 0.8397
vn 0.3950 0.2118 0.8939
vn -0.0486 0.7106 0.7019
vn 0.0850 0.6892 0.7195
vn -0.6769 0.0199 0.7359
vn -0.4225 -0.7550 0.5015
vn 0.1936 -0.8352 0.5148
vn 0.3186 -0.7400 0.5923
vn 0.3926 0.4713 0.7898
vn 0.7838 0.3324 0.5246
vn 0.0807 0.7030 0.7066
vn -0.1150 0.4569 0.8820
vn -0.2653 0.3241 0.9081
vn -0.1284 0.9533 0.2733
vn -0.5258 -0.1264 0.8412
vn -0.6041 -0.0390 0.7959
vn -0.1297 -0.5532 0.8229
vn -0.4221 -0.7308 0.5363
vn 0.3053 -0.6568 0.6895
vn 0.1937 -0.8349 0.5151
vn 0.4746 -0.5053 0.7207
vn 0.4580 -0.8479 0.2671
vn 0.3437 0.3517 0.8708
vn 0.2910 0.3520 0.8896
vn -0.0176 0.5775 0.8162
vn 0.0804 0.7101 0.6995
vn -0.3338 0.5671 0.7530
vn -0.3360 0.4831 0.8085
vn -0.4969 0.0103 0.8677
vn -0.3698 -0.0808 0.9256
vn -0.1259 -0.5412 0.8314
vn -0.1284 -0.5430 0.8298
vn 0.3292 -0.5669 0.7552
vn 0.3041 -0.6534 0.6932
vn 0.4129 -0.5528 0.7238
vn 0.3824 -0.4058 0.8301
vn 0.2970 0.6740 0.6764
vn 0.1606 0.7367 0.6569
vn -0.1743 0.6716 0.7201
vn -0.5584 -0.2361 0.7953
vn -0.3035 -0.7057 0.6402
vn 0.3125 -0.7394 0.5964
vn 0.5680 -0.3882 0.7257
vn 0.5373 0.6260 0.5652
vn 0.2929 0.6604 0.6914
vn 0.2577 0.6965 0.6697
vn 0.1314 0.6681 0.7324
vn -0.1887 0.6925 0.6963
vn -0.1869 0.6961 0.6932
vn -0.7132 0.0665 0.6978
vn -0.5283 -0.2170 0.8209
vn -0.4467 -0.5100 0.7351
vn -0.1752 -0.5447 0.8202
vn 0.3523 -0.7743 0.5257
vn 0.3589 -0.7661 0.5332
vn 0.3659 -0.7627 0.5333
vn 0.4699 -0.1604 0.8680
vn 0.2729 0.5750 0.7713
vn 0.5121 0.5941 0.6204
vn 0.2444 0.7601 0.6021
vn 0.3302 0.8008 0.4996
vn -0.1070 0.7198 0.6859
vn -0.1431 0.5078 0.8495
vn -0.3440 -0.2279 0.9109
vn -0.7859 0.0625 0.6152
vn -0.5187 -0.5004 0.6932
vn -0.4208 -0.4800 0.7697
vn 0.3177 -0.5468 0.7747
vn 0.3041 -0.6238 0.7200
vn 0.3200 -0.6082 0.7265
vn 0.3262 -0.7107 0.6233
vn 0.6378 0.4041 0.6557
vn 0.4154 0.5814 0.6996
vn -0.3844 0.4765 0.7907
vn -0.6939 -0.1675 0.7003
vn -0.5584 -0.5236 0.6435
vn 0.3011 -0.7115 0.6349
vn 0.7508 0.1035 0.6524
vn 0.5179 0.4445 0.7309
vn 0.6293 0.3984 0.6673
vn 0.1122 0.7283 0.6760
vn 0.3826 0.8228 0.4203
vn -0.3040 0.7470 0.5912
vn -0.3873 0.5464 0.7426
vn -0.5887 -0.1183 0.7997
vn -0.5702 -0.1316 0.8109
vn -0.3789 -0.4374 0.8155
vn -0.4793 -0.4463 0.7557
vn 0.3645 -0.5087 0.7800
vn 0.3031 -0.7129 0.6324
vn 0.7378 -0.1884 0.6482
vn 0.5928 0.1997 0.7802
vn 0.6803 0.3453 0.6465
vn 0.5074 0.4341 0.7444
vn 0.1937 0.7645 0.6148
vn 0.1135 0.7361 0.6673
vn -0.0964 0.7556 0.6479
vn -0.2360 0.4349 0.8690
vn -0.5904 0.0354 0.8063
vn -0.4731 -0.0764 0.8777
vn -0.4225 -0.3522 0.8351
vn -0.2963 -0.3538 0.8872
vn 0.3031 -0.6862 0.6613
vn 0.3576 -0.5006 0.7884
vn 0.6540 -0.3093 0.6903
vn 0.6168 -0.1586 0.7710
f 1//1 2//1 3//1
f 1//2 3//2 4//2
f 1//3 4//3 5//3
f 1//4 5//4 6//4
f 1//5 6//5 7//5
f 1//6 7//6 8//6
f 1//7 8//7 9//7
f 1//8 9//8 10//8
f 1//9 10//9 11//9
f 1//10 11//10 12//10
f 1//11 12//11 2//11
f 2//12 13//12 14//12
f 2//13 14//13 3//13
f 3//14 14//14 15//14
f 3//15 15//15 4//15
f 4//16 15//16 16//16
f 4//17 16//17 5//17
f 5//18 16//18 17//18
f 5//19 17//19 6//19
f 6//20 17//20 18//20
f 6//21 18//21 7//21
f 7//22 18//22 19//22
f 7//23 19//23 8//23
f 8//24 19//24 20//24
f 8//25 20//25 9//25
f 9//26 20//26 21//26
f 9//27 21//27 10//27
f 10//28 21//28 22//28
f 10//29 22//29 11//29
f 11//30 22//30 23//30
f 11//31 23//31 12//31
f 12//32 23//32 13//32
f 12//33 13//33 2//33
f 13//34 24//34 25//34
f 13//35 25//35 14//35
f 14//36 25//36 26//36
f 14//37 26//37 15//37
f 15//38 26//38 27//38
f 15//39 27//39 16//39
f 16//40 27//40 28//40
f 16//41 28//41 17//41
f 17//42 28//42 29//42
f 17//43 29//43 18//43
f 18//44 29//44 30//44
f 18//45 30//45 19//45
f 19//46 30//46 31//46
f 19//47 31//47 20//47
f 20//48 31//48 32//48
f 20//49 32//49 21//49
f 21//50 32//50 33//50
f 21//51 33//51 22//51
f 22//52 33//52 34//52
f 22//53 34//53 23//53
f 23//54 34//54 24//54
f 23//55 24//55 13//55
f 24//56 35//56 36//56
f 24//57 36//57 25//57
f 25//58 36//58 37//58
f 25//59 37//59 26//59
f 26//60 37//60 38//60
f 26//61 38//61 27//61
f 27//62 38//62 39//62
f 27//63 39//63 28//63
f 28//64 39//64 40//64
f 28//65 40//65 29//65
f 29//66 40//66 41//66
f 29//67 41//67 30//67
f 30//68 41//68 42//68
f 30//69 42//69 31//69
f 31//70 42//70 43//70
f 31//71 43//71 32//71
f 32//72 43//72 44//72
f 32//73 44//73 33//73
f 33//74 44//74 45//74
f 33//75 45//75 34//75
f 34//76 45//76 35//76
f 34//77 35//77 24//77
f 35//78 46//78 47//78
f 35//79 47//79 36//79
f 36//80 47//80 48//80
f 36//81 48//81 37//81
f 37//82 48//82 49//82
f 37//83 49//83 38//83
f 38//84 49//84 50//84
f 38//85 50//85 39//85
f 39//86 50//86 51//86
f 39//87 51//87 40//87
f 40//88 51//88 52//88
f 40//89 52//89 41//89
f 41//90 52//90 53//90
f 41//91 53//91 42//91
f 42//92 53//92 54//92
f 42//93 54//93 43//93
f 43//94 54//94 55//94
f 43//95 55//95 44//95
f 44//96 55//96 56//96
f 44//97 56//97 45//97
f 45//98 56//98 46//98
f 45//99 46//99 35//99
f 46//100 57//100 58//100
f 46//101 58//101 47//101
f 47//102 58//102 59//102
f 47//103 59//103 48//103
f 48//104 59//104 60//104
f 48//105 60//105 49//105
f 49//106 60//106 61//106
f 49//107 61//107 50//107
f 50//108 61//108 62//108
f 50//109 62//109 51//109
f 51//110 62//110 63//110
f 51//111 63//111 52//111
f 52//112 63//112 64//112
f 52//113 64//113 53//113
f 53//114 64//114 65//114
f 53//115 65//115 54//115
f 54//116 65//116 66//116
f 54//117 66//117 55//117
f 55//118 66//118 67//118
f 55//119 67//119 56//119
f 56//120 67//120 57//120
f 56//121 57//121 46//121
f 68//122 69//122 70//122
f 68//123 70//123 71//123
f 68//124 71//124 72//124
f 68//125 72//125 73//125
f 68//126 73//126 74//126
f 68//127 74//127 75//127
f 68//128 75//128 69//128
f 69//129 76//129 77//129
f 69//130 77//130 70//130
f 70//131 77//131 78//131
f 70//132 78//132 71//132
f 71//133 78//133 79//133
f 71//134 79//134 72//134
f 72//135 79//135 80//135
f 72//136 80//136 73//136
f 73//137 80//137 81//137
f 73//138 81//138 74//138
f 74//139 81//139 82//139
f 74//140 82//140 75//140
f 75//141 82//141 76//141
f 75//142 76//142 69//142
f 76//143 83//143 84//143
f 76//144 84//144 77//144
f 77//145 84//145 85//145
f 77//146 85//146 78//146
f 78//147 85//147 86//147
f 78//148 86//148 79//148
f 79//149 86//149 87//149
f 79//150 87//150 80//150
f 80//151 87//151 88//151
f 80//152 88//152 81//152
f 81//153 88//153 89//153
f 81//154 89//154 82//154
f 82//155 89//155 83//155
f 82//156 83//156 76//156
f 90//157 91//157 92//157
f 90//158 92//158 93//158
f 90//159 93//159 94//159
f 90//160 94//160 95//160
f 90//161 95//161 96//161
f 90//162 96//162 97//162
f 90//163 97//163 91//163
f 91//164 98//164 99//164
f 91//165 99//165 92//165
f 92//166 99//166 100//166
f 92//167 100//167 93//167
f 93//168 100//168 101//168
f 93//169 101//169 94//169
f 94//170 101//170 102//170
f 94//171 102//171 95//171
f 95//172 102//172 103//172
f 95//173 103//173 96//173
f 96//174 103//174 104//174
f 96//175 104//175 97//175
f 97//176 104//176 98//176
f 97//177 98//177 91//177
f 98//178 105//178 106//178
f 98//179 106//179 99//179
f 99//180 106//180 107//180
f 99//181 107//181 100//181
f 100//182 107//182 108//182
f 100//183 108//183 101//183
f 101//184 108//184 109//184
f 101//185 109//185 102//185
f 102//186 109//186 110//186
f 102//187 110//187 103//187
f 103//188 110//188 111//188
f 103//189 111//189 104//189
f 104//190 111//190 105//190
f 104//191 105//191 98//191
f 112//192 113//192 114//192
f 112//193 114//193 115//193
f 112//194 115//194 116//194
f 112//195 116//195 117//195
f 112//196 117//196 118//196
f 112//197 118//197 119//197
f 112//198 119//198 113//198
f 113//199 120//199 121//199
f 113//200 121//200 114//200
f 114//201 121//201 122//201
f 114//202 122//202 115//202
f 115//203 122//203 123//203
f 115//204 123//204 116//204
f 116//205 123//205 124//205
f 116//206 124//206 117//206
f 117//207 124//207 125//207
f 117//208 125//208 118//208
f 118//209 125//209 126//209
f 118//210 126//210 119//210
f 119//211 126//211 120//211
f 119//212 120//212 113//212
f 120//213 127//213 128//213
f 120//214 128//214 121//214
f 121//215 128//215 129//215
f 121//216 129//216 122//216
f 122//217 129//217 130//217
f 122//218 130//218 123//218
f 123//219 130//219 131//219
f 123//220 131//220 124//220
f 124//221 131//221 132//221
f 124//222 132//222 125//222
f 125//223 132//223 133//223
f 125//224 133//224 126//224
f 126//225 133//225 127//225
f 126//226 127//226 120//226
f 134//227 135//227 136//227
f 134//228 136//228 137//228
f 134//229 137//229 138//229
f 134//230 138//230 139//230
f 134//231 139//231 140//231
f 134//232 140//232 141//232
f 134//233 141//233 135//233
f 135//234 142//234 143//234
f 135//235 143//235 136//235
f 136//236 143//236 144//236
f 136//237 144//237 137//237
f 137//238 144//238 145//238
f 137//239 145//239 138//239
f 138//240 145//240 146//240
f 138//241 146//241 139//241
f 139//242 146//242 147//242
f 139//243 147//243 140//243
f 140//244 147//244 148//244
f 140//245 148//245 141//245
f 141//246 148//246 142//246
f 141//247 142//247 135//247
f 142//248 149//248 150//248
f 142//249 150//249 143//249
f 143//250 150//250 151//250
f 143//251 151//251 144//251
f 144//252 151//252 152//252
f 144//253 152//253 145//253
f 145//254 152//254 153//254
f 145//255 153//255 146//255
f 146//256 153//256 154//256
f 146//257 154//257 147//257
f 147//258 154//258 155//258
f 147//259 155//259 148//259
f 148//260 155//260 149//260
f 148//261 149//261 142//261
f 156//262 157//262 158//262
f 156//263 158//263 159//263
f 156//264 159//264 160//264
f 156//265 160//265 161//265
f 156//266 161//266 162//266
f 156//267 162//267 163//267
f 156//268 163//268 157//268
f 157//269 164//269 165//269
f 157//270 165//270 158//270
f 158//271 165//271 166//271
f 158//272 166//272 159//272
f 159//273 166//273 167//273
f 159//274 167//274 160//274
f 160//275 167//275 168//275
f 160//276 168//276 161//276
f 161//277 168//277 169//277
f 161//278 169//278 162//278
f 162//279 169//279 170//279
f 162//280 170//280 163//280
f 163//281 170//281 164//281
f 163//282 164//282 157//282
f 164//283 171//283 172//283
f 164//284 172//284 165//284
f 165//285 172//285 173//285
f 165//286 173//286 166//286
f 166//287 173//287 174//287
f 166//288 174//288 167//288
f 167//289 174//289 175//289
f 167//290 175//290 168//290
f 168//291 175//291 176//291
f 168//292 176//292 169//292
f 169//293 176//293 177//293
f 169//294 177//294 170//294
f 170//295 177//295 171//295
f 170//296 171//296 164//296
