# Angular faceted lunar boulder (lunar_boulder_ejecta_left.obj)
o lunar_boulder_ejecta_left
v 0.0431 0.0202 0.6200 0.2915 0.2915 0.2996
v 0.1112 0.0008 0.4660 0.4383 0.4383 0.4505
v 0.0727 0.0406 0.5207 0.4755 0.4755 0.4887
v 0.0491 0.0937 0.4671 0.4900 0.4900 0.5036
v -0.0238 0.1334 0.5583 0.2127 0.2127 0.2186
v -0.0680 0.0659 0.4836 0.2437 0.2437 0.2505
v -0.1235 0.0300 0.4774 0.1308 0.1308 0.1344
v -0.0807 -0.0208 0.4863 0.0845 0.0845 0.0869
v -0.0719 -0.0720 0.5431 0.0661 0.0661 0.0679
v -0.0118 -0.0743 0.5702 0.1539 0.1539 0.1581
v 0.0453 -0.0828 0.5053 0.1267 0.1267 0.1302
v 0.0964 -0.0519 0.5097 0.3277 0.3277 0.3368
v 0.2147 0.0245 0.4115 0.4495 0.4495 0.4620
v 0.1409 0.1021 0.4115 0.4552 0.4552 0.4679
v 0.0805 0.2253 0.4359 0.3525 0.3525 0.3623
v -0.0875 0.2640 0.4751 0.2812 0.2812 0.2890
v -0.1775 0.1339 0.3865 0.2643 0.2643 0.2716
v -0.2562 0.0337 0.4643 0.2209 0.2209 0.2271
v -0.1590 -0.0603 0.4067 0.0635 0.0635 0.0653
v -0.1378 -0.1790 0.3889 0.0540 0.0540 0.0555
v -0.0019 -0.1582 0.3894 0.0483 0.0483 0.0496
v 0.1085 -0.1473 0.4113 0.1128 0.1128 0.1160
v 0.2183 -0.0873 0.4376 0.2373 0.2373 0.2439
v 0.2942 -0.0157 0.3328 0.4331 0.4331 0.4451
v 0.2162 0.1029 0.2932 0.5057 0.5057 0.5198
v 0.1948 0.3109 0.3274 0.3980 0.3980 0.4091
v -0.0334 0.3529 0.3419 0.4110 0.4110 0.4225
v -0.1851 0.2070 0.3251 0.2251 0.2251 0.2314
v -0.3945 0.1221 0.3478 0.2299 0.2299 0.2363
v -0.2464 -0.0477 0.3068 0.0729 0.0729 0.0750
v -0.2410 -0.2094 0.3358 0.0603 0.0603 0.0620
v -0.0555 -0.2276 0.3371 0.0517 0.0517 0.0531
v 0.1226 -0.2727 0.2899 0.0635 0.0635 0.0653
v 0.3194 -0.2001 0.3392 0.2396 0.2396 0.2463
v 0.4547 -0.0522 0.2361 0.4427 0.4427 0.4550
v 0.3230 0.1288 0.2459 0.5056 0.5056 0.5196
v 0.2683 0.3633 0.2187 0.4277 0.4277 0.4396
v -0.0050 0.4717 0.2312 0.4205 0.4205 0.4322
v -0.2500 0.3254 0.2229 0.3065 0.3065 0.3150
v -0.5126 0.1949 0.2122 0.2407 0.2407 0.2474
v -0.3236 -0.0422 0.2149 0.0589 0.0589 0.0606
v -0.3695 -0.2781 0.2501 0.0737 0.0737 0.0758
v -0.1077 -0.3236 0.2423 0.0542 0.0542 0.0557
v 0.1290 -0.3626 0.2238 0.0555 0.0555 0.0570
v 0.3766 -0.2733 0.2285 0.2286 0.2286 0.2349
v 0.5167 -0.0056 0.1329 0.4757 0.4757 0.4889
v 0.3938 0.2099 0.1115 0.5886 0.5886 0.6050
v 0.2791 0.5044 0.1231 0.4349 0.4349 0.4469
v -0.0899 0.5856 0.1106 0.4306 0.4306 0.4425
v -0.3448 0.3481 0.1250 0.3458 0.3458 0.3554
v -0.7047 0.1848 0.1132 0.1818 0.1818 0.1869
v -0.4192 -0.1001 0.1090 0.0662 0.0662 0.0681
v -0.3752 -0.3600 0.1056 0.0530 0.0530 0.0544
v -0.0747 -0.4069 0.1166 0.0508 0.0508 0.0522
v 0.2088 -0.4033 0.1064 0.0905 0.0905 0.0930
v 0.4930 -0.2778 0.1244 0.2122 0.2122 0.2181
v 0.6844 0.0453 0.0000 0.4090 0.4090 0.4188
v 0.4949 0.3200 0.0000 0.4637 0.4637 0.4747
v 0.2812 0.6553 0.0000 0.4659 0.4659 0.4770
v -0.2248 0.8563 0.0000 0.3650 0.3650 0.3737
v -0.4920 0.4146 0.0000 0.2757 0.2757 0.2823
v -0.9583 0.1726 0.0000 0.0662 0.0662 0.0677
v -0.5170 -0.1675 0.0000 0.0300 0.0300 0.0300
v -0.4527 -0.5224 0.0000 0.0300 0.0300 0.0300
v -0.0419 -0.5458 0.0000 0.0300 0.0300 0.0300
v 0.3564 -0.5488 0.0000 0.0300 0.0300 0.0300
v 0.7788 -0.3575 0.0000 0.2224 0.2224 0.2276
v 0.5739 0.0865 0.1635 0.2929 0.2929 0.3011
v 0.6400 0.0639 0.1200 0.3748 0.3748 0.3852
v 0.6104 0.1051 0.1252 0.5108 0.5108 0.5250
v 0.5519 0.1341 0.1043 0.4517 0.4517 0.4643
v 0.4814 0.1064 0.1184 0.2301 0.2301 0.2365
v 0.4838 0.0498 0.1050 0.0649 0.0649 0.0667
v 0.5328 0.0081 0.1038 0.0521 0.0521 0.0536
v 0.6040 0.0223 0.1149 0.1659 0.1659 0.1705
v 0.7045 0.0745 0.0659 0.3367 0.3367 0.3461
v 0.6492 0.1565 0.0595 0.5666 0.5666 0.5824
v 0.5125 0.2011 0.0623 0.3917 0.3917 0.4026
v 0.3818 0.1259 0.0553 0.1881 0.1881 0.1933
v 0.4379 0.0215 0.0576 0.0644 0.0644 0.0662
v 0.5296 -0.0602 0.0533 0.0593 0.0593 0.0609
v 0.6688 -0.0184 0.0598 0.1756 0.1756 0.1804
v 0.8436 0.0454 0.0000 0.3187 0.3187 0.3262
v 0.7179 0.1809 0.0000 0.4798 0.4798 0.4912
v 0.5304 0.2899 0.0000 0.4319 0.4319 0.4422
v 0.2772 0.2019 0.0000 0.0665 0.0665 0.0680
v 0.3380 0.0145 0.0000 0.0300 0.0300 0.0300
v 0.4700 -0.1164 0.0000 0.0300 0.0300 0.0300
v 0.6961 -0.0868 0.0000 0.0300 0.0300 0.0300
v 0.1724 0.5743 0.1400 0.2713 0.2713 0.2788
v 0.2339 0.5585 0.0970 0.3699 0.3699 0.3802
v 0.2224 0.6078 0.0993 0.5243 0.5243 0.5389
v 0.1620 0.6105 0.1026 0.3906 0.3906 0.4014
v 0.1043 0.6007 0.1024 0.2384 0.2384 0.2450
v 0.0926 0.5498 0.0859 0.0509 0.0509 0.0523
v 0.1287 0.4947 0.0863 0.0978 0.0978 0.1005
v 0.1949 0.5264 0.0902 0.1407 0.1407 0.1446
v 0.2891 0.5515 0.0554 0.2919 0.2919 0.3000
v 0.2804 0.6495 0.0551 0.3845 0.3845 0.3952
v 0.1581 0.6563 0.0495 0.4569 0.4569 0.4696
v 0.0563 0.6269 0.0500 0.2382 0.2382 0.2448
v 0.0269 0.5343 0.0500 0.0795 0.0795 0.0817
v 0.0980 0.4344 0.0517 0.1318 0.1318 0.1355
v 0.2249 0.4846 0.0477 0.1979 0.1979 0.2034
v 0.3774 0.5680 0.0000 0.2913 0.2913 0.2983
v 0.3263 0.7277 0.0000 0.4146 0.4146 0.4244
v 0.1207 0.7181 0.0000 0.3836 0.3836 0.3927
v -0.0312 0.6407 0.0000 0.0774 0.0774 0.0793
v -0.0418 0.4871 0.0000 0.0300 0.0300 0.0300
v 0.0880 0.2914 0.0000 0.0300 0.0300 0.0304
v 0.3030 0.4330 0.0000 0.0618 0.0618 0.0632
v -0.4703 0.3703 0.1534 0.2458 0.2458 0.2526
v -0.3834 0.3732 0.1027 0.3389 0.3389 0.3483
v -0.3879 0.4086 0.1169 0.4529 0.4529 0.4655
v -0.4576 0.4273 0.0942 0.4421 0.4421 0.4544
v -0.5189 0.4020 0.1084 0.1931 0.1931 0.1985
v -0.5250 0.3646 0.1050 0.0531 0.0531 0.0546
v -0.4789 0.3351 0.1086 0.0553 0.0553 0.0569
v -0.4154 0.3484 0.1037 0.1537 0.1537 0.1580
v -0.3166 0.3900 0.0528 0.3116 0.3116 0.3202
v -0.3675 0.4563 0.0534 0.5328 0.5328 0.5476
v -0.5233 0.4710 0.0515 0.4637 0.4637 0.4765
v -0.6390 0.4060 0.0607 0.2133 0.2133 0.2192
v -0.5754 0.3299 0.0585 0.0508 0.0508 0.0522
v -0.4580 0.2824 0.0507 0.0728 0.0728 0.0748
v -0.3590 0.3359 0.0571 0.1581 0.1581 0.1625
v -0.2618 0.3632 0.0000 0.2664 0.2664 0.2727
v -0.2239 0.4884 0.0000 0.3950 0.3950 0.4044
v -0.4734 0.5438 0.0000 0.4129 0.4129 0.4227
v -0.7137 0.4723 0.0000 0.2540 0.2540 0.2601
v -0.7171 0.3337 0.0000 0.0300 0.0300 0.0300
v -0.5525 0.2374 0.0000 0.0300 0.0300 0.0300
v -0.3371 0.2764 0.0000 0.0343 0.0343 0.0351
v -0.5807 -0.2444 0.1217 0.2954 0.2954 0.3036
v -0.5154 -0.2560 0.0909 0.3536 0.3536 0.3634
v -0.5381 -0.2160 0.0816 0.4640 0.4640 0.4769
v -0.5844 -0.2029 0.0818 0.4445 0.4445 0.4569
v -0.6296 -0.2199 0.0757 0.2233 0.2233 0.2295
v -0.6344 -0.2601 0.0888 0.0866 0.0866 0.0890
v -0.5995 -0.2842 0.0837 0.0750 0.0750 0.0771
v -0.5593 -0.2786 0.0936 0.1095 0.1095 0.1125
v -0.4560 -0.2363 0.0460 0.2916 0.2916 0.2997
v -0.5157 -0.1641 0.0434 0.5579 0.5579 0.5734
v -0.6168 -0.1640 0.0422 0.4336 0.4336 0.4456
v -0.7090 -0.2109 0.0466 0.1987 0.1987 0.2043
v -0.6673 -0.2909 0.0412 0.0635 0.0635 0.0653
v -0.5942 -0.3399 0.0435 0.0829 0.0829 0.0852
v -0.5133 -0.3024 0.0407 0.1469 0.1469 0.1510
v -0.3602 -0.2367 0.0000 0.2784 0.2784 0.2850
v -0.4760 -0.1269 0.0000 0.4610 0.4610 0.4720
v -0.6315 -0.1077 0.0000 0.4018 0.4018 0.4114
v -0.7970 -0.1759 0.0000 0.0692 0.0692 0.0709
v -0.7554 -0.3259 0.0000 0.0300 0.0300 0.0300
v -0.6077 -0.3774 0.0000 0.0300 0.0300 0.0300
v -0.4856 -0.3330 0.0000 0.0300 0.0300 0.0300
v 0.3039 -0.4094 0.1145 0.2945 0.2945 0.3027
v 0.3680 -0.4109 0.0799 0.4338 0.4338 0.4459
v 0.3276 -0.3660 0.0706 0.5362 0.5362 0.5511
v 0.2777 -0.3700 0.0797 0.3791 0.3791 0.3896
v 0.2368 -0.4029 0.0703 0.1547 0.1547 0.1590
v 0.2481 -0.4587 0.0811 0.0707 0.0707 0.0727
v 0.2940 -0.4729 0.0759 0.0486 0.0486 0.0499
v 0.3478 -0.4722 0.0840 0.2700 0.2700 0.2775
v 0.4327 -0.4218 0.0447 0.4272 0.4272 0.4390
v 0.3714 -0.3222 0.0399 0.4105 0.4105 0.4219
v 0.2753 -0.3220 0.0447 0.3869 0.3869 0.3976
v 0.2015 -0.3739 0.0375 0.2140 0.2140 0.2200
v 0.1884 -0.4793 0.0426 0.0790 0.0790 0.0812
v 0.2778 -0.5161 0.0437 0.0627 0.0627 0.0644
v 0.3785 -0.5303 0.0440 0.1662 0.1662 0.1708
v 0.5288 -0.4044 0.0000 0.3470 0.3470 0.3553
v 0.4111 -0.2448 0.0000 0.4147 0.4147 0.4246
v 0.2464 -0.2455 0.0000 0.3685 0.3685 0.3772
v 0.1039 -0.3412 0.0000 0.0684 0.0684 0.0701
v 0.1168 -0.5336 0.0000 0.0305 0.0305 0.0312
v 0.2712 -0.6061 0.0000 0.0300 0.0300 0.0300
v 0.4605 -0.6110 0.0000 0.0454 0.0454 0.0464
vn 0.8646 0.3740 0.3354
vn 0.6851 0.6454 0.3377
vn 0.7294 0.6047 0.3199
vn -0.7903 -0.1420 0.5961
vn -0.4797 0.6365 0.6040
vn -0.6111 -0.3943 0.6864
vn -0.7177 0.4590 0.5236
vn -0.4068 -0.2297 0.8842
vn 0.5495 -0.6164 0.5640
vn 0.3638 -0.6897 0.6261
vn 0.9155 0.0712 0.3960
vn 0.3709 0.3531 0.8589
vn 0.8341 0.0506 0.5494
vn 0.7526 0.2485 0.6099
vn -0.7093 0.3182 0.6289
vn 0.2597 0.1639 0.9517
vn 0.7411 0.5787 0.3406
vn -0.7439 0.0611 0.6655
vn -0.7236 -0.2414 0.6466
vn -0.1900 0.6907 0.6978
vn -0.0989 -0.0192 0.9949
vn -0.0956 -0.5901 0.8016
vn -0.5733 -0.3534 0.7392
vn -0.6370 -0.2240 0.7376
vn -0.9430 0.1617 0.2908
vn 0.1263 -0.8396 0.5283
vn -0.2143 -0.8905 0.4015
vn 0.0062 -0.9069 0.4212
vn 0.7070 -0.2635 0.6562
vn 0.2364 -0.7198 0.6527
vn 0.2842 -0.5776 0.7653
vn 0.5415 0.2077 0.8146
vn 0.2788 0.5655 0.7762
vn 0.6977 0.5932 0.4018
vn 0.6569 0.6247 0.4222
vn 0.8437 -0.0013 0.5368
vn 0.6188 0.1510 0.7709
vn 0.1706 0.6785 0.7145
vn 0.3103 0.7275 0.6120
vn -0.6918 0.6981 0.1846
vn -0.8494 0.2845 0.4444
vn -0.1699 0.6231 0.7635
vn -0.1640 0.6820 0.7127
vn -0.6808 -0.6671 0.3025
vn -0.5266 -0.7681 0.3643
vn -0.7432 0.0943 0.6623
vn -0.3993 -0.2050 0.8936
vn -0.0816 -0.7882 0.6099
vn 0.0958 -0.6454 0.7578
vn 0.0482 -0.6248 0.7793
vn -0.0722 -0.6978 0.7127
vn 0.0734 -0.6893 0.7208
vn 0.1271 -0.5848 0.8012
vn 0.7607 0.1263 0.6367
vn 0.7363 0.1763 0.6533
vn 0.5405 0.3518 0.7643
vn 0.2646 0.4577 0.8488
vn 0.3586 0.1898 0.9140
vn 0.8297 -0.0062 0.5582
vn 0.3234 0.7483 0.5792
vn 0.1672 0.6508 0.7406
vn -0.4209 0.6704 0.6110
vn -0.4789 0.4084 0.7771
vn -0.2943 0.5270 0.7973
vn -0.2390 0.7532 0.6128
vn -0.7401 -0.5862 0.3294
vn -0.6056 -0.6420 0.4702
vn -0.7368 0.2380 0.6328
vn -0.5956 0.1229 0.7938
vn -0.1001 -0.6976 0.7095
vn -0.0719 -0.6807 0.7290
vn -0.0562 -0.6859 0.7255
vn 0.0645 -0.5884 0.8060
vn 0.1913 -0.5728 0.7971
vn 0.1421 -0.7905 0.5957
vn 0.7598 -0.2883 0.5828
vn 0.5303 0.1019 0.8417
vn 0.6676 0.4405 0.6002
vn 0.6549 0.4432 0.6121
vn 0.7709 0.2776 0.5733
vn 0.8470 0.2521 0.4681
vn 0.0937 0.5534 0.8276
vn 0.3373 0.7914 0.5099
vn -0.4180 0.4951 0.7616
vn -0.4322 0.6912 0.5792
vn -0.3646 0.7650 0.5309
vn -0.3639 0.6803 0.6363
vn -0.3998 -0.4129 0.8183
vn -0.5438 -0.4253 0.7234
vn -0.7004 -0.1278 0.7022
vn -0.9813 0.1815 -0.0644
vn -0.1517 -0.8574 0.4919
vn -0.1307 -0.8420 0.5233
vn 0.0305 -0.8297 0.5574
vn -0.1395 -0.9610 0.2386
vn 0.3236 -0.8040 0.4988
vn 0.3072 -0.8722 0.3806
vn 0.6630 -0.0812 0.7442
vn 0.8689 -0.3197 0.3778
vn 0.5126 0.3538 0.7823
vn 0.4883 0.3577 0.7960
vn 0.5154 0.3283 0.7916
vn 0.8574 0.3180 0.4047
vn 0.2427 0.6111 0.7535
vn 0.0574 0.4018 0.9139
vn -0.3397 0.2055 0.9178
vn -0.4201 0.4973 0.7591
vn -0.3234 0.6232 0.7121
vn -0.3278 0.6744 0.6617
vn -0.3462 -0.4492 0.8236
vn -0.4770 -0.4889 0.7304
vn -0.6982 -0.1265 0.7046
vn -0.6962 -0.1271 0.7065
vn -0.0305 -0.5346 0.8445
vn -0.1294 -0.6550 0.7444
vn -0.0048 -0.6433 0.7656
vn 0.0367 -0.5653 0.8241
vn 0.1988 -0.4389 0.8763
vn 0.1954 -0.5578 0.8066
vn 0.4199 0.0984 0.9022
vn 0.6338 -0.0794 0.7694
vn 0.5954 0.3373 0.7292
vn 0.1931 0.7989 0.5697
vn -0.1595 0.7400 0.6534
vn -0.4652 -0.2224 0.8568
vn -0.3548 -0.4411 0.8243
vn -0.0027 -0.6045 0.7966
vn 0.3857 -0.4352 0.8135
vn 0.5409 0.4219 0.7276
vn 0.6386 0.3756 0.6717
vn 0.2394 0.6908 0.6822
vn -0.0559 0.5064 0.8605
vn -0.2721 0.3908 0.8793
vn -0.2010 0.8005 0.5647
vn -0.5524 -0.2796 0.7853
vn -0.6406 -0.2024 0.7407
vn -0.4335 -0.5252 0.7323
vn -0.4282 -0.5247 0.7358
vn 0.1407 -0.5936 0.7924
vn 0.0555 -0.7702 0.6354
vn 0.5276 -0.2558 0.8101
vn 0.5798 -0.5743 0.5780
vn 0.4586 0.4254 0.7802
vn 0.5119 0.4048 0.7577
vn 0.3670 0.6312 0.6833
vn 0.1921 0.5370 0.8214
vn -0.2048 0.5894 0.7815
vn -0.2403 0.3325 0.9120
vn -0.5593 -0.1816 0.8088
vn -0.4730 -0.2355 0.8490
vn -0.4278 -0.4311 0.7945
vn -0.3425 -0.4286 0.8361
vn 0.0964 -0.7360 0.6701
vn 0.1485 -0.6166 0.7731
vn 0.4366 -0.4871 0.7564
vn 0.3834 -0.2063 0.9003
vn 0.5873 0.0985 0.8033
vn 0.0703 0.7258 0.6843
vn -0.1209 0.6957 0.7080
vn -0.5224 -0.1530 0.8389
vn -0.4707 -0.3009 0.8294
vn 0.2612 -0.6340 0.7279
vn 0.3572 -0.5873 0.7263
vn 0.6049 0.0564 0.7943
vn 0.5615 0.0916 0.8224
vn 0.0084 0.7218 0.6920
vn 0.0698 0.7582 0.6483
vn -0.2084 0.7333 0.6472
vn -0.1425 0.8269 0.5441
vn -0.6660 0.2112 0.7154
vn -0.4370 -0.1861 0.8800
vn -0.4096 -0.2768 0.8692
vn -0.4313 -0.2749 0.8593
vn 0.2520 -0.5760 0.7777
vn 0.2431 -0.6004 0.7619
vn 0.4142 -0.4855 0.7699
vn 0.4111 -0.6372 0.6519
vn 0.5025 0.1610 0.8495
vn 0.7181 0.0662 0.6928
vn -0.0274 0.5863 0.8096
vn -0.0010 0.6246 0.7809
vn -0.2570 0.5045 0.8243
vn -0.2196 0.7715 0.5971
vn -0.4916 0.0339 0.8702
vn -0.6654 0.2110 0.7160
vn -0.4283 -0.2842 0.8578
vn -0.4178 -0.2827 0.8634
vn 0.2271 -0.3448 0.9108
vn 0.2126 -0.4702 0.8566
vn 0.3988 -0.2199 0.8903
vn 0.5114 -0.5649 0.6475
vn 0.4922 -0.2684 0.8280
vn -0.0304 0.7232 0.6900
vn -0.1461 0.7280 0.6698
vn -0.6647 0.0405 0.7460
vn -0.4635 -0.6516 0.6004
vn 0.2101 -0.7884 0.5782
vn 0.4381 -0.5384 0.7199
vn 0.4942 0.3717 0.7859
vn 0.9524 -0.0012 0.3048
vn 0.0671 0.7874 0.6128
vn -0.0816 0.6309 0.7716
vn -0.2137 0.4991 0.8398
vn -0.1987 0.7984 0.5683
vn -0.3585 -0.3251 0.8751
vn -0.6951 0.0480 0.7174
vn -0.2167 -0.6553 0.7236
vn -0.4994 -0.7230 0.4774
vn 0.3044 -0.6476 0.6986
vn 0.2151 -0.8458 0.4882
vn 0.5432 -0.3655 0.7559
vn 0.5409 -0.6804 0.4945
vn 0.6308 -0.1912 0.7520
vn 0.2967 0.2188 0.9296
vn 0.1408 0.6342 0.7602
vn 0.0428 0.5576 0.8290
vn -0.1940 0.6520 0.7330
vn -0.2213 0.5113 0.8304
vn -0.6223 0.0154 0.7826
vn -0.3674 -0.3323 0.8687
vn -0.3284 -0.5618 0.7593
vn -0.1709 -0.5566 0.8130
vn 0.1568 -0.8651 0.4765
vn 0.2808 -0.6090 0.7419
vn 0.5415 -0.4700 0.6970
vn 0.5456 -0.3675 0.7531
vn 0.4470 0.4337 0.7823
vn 0.1978 0.6884 0.6978
vn -0.3342 0.6375 0.6942
vn -0.5617 0.3163 0.7645
vn -0.2925 -0.5858 0.7558
vn -0.0897 -0.6665 0.7401
vn 0.3011 -0.4872 0.8197
vn 0.4603 0.4083 0.7883
vn 0.4101 0.4193 0.8100
vn -0.0092 0.5949 0.8037
vn 0.2234 0.7803 0.5841
vn -0.2566 0.5765 0.7757
vn -0.2726 0.4112 0.8699
vn -0.3586 -0.2473 0.9001
vn -0.8649 0.2463 0.4374
vn -0.4235 -0.5992 0.6794
vn -0.2860 -0.5781 0.7642
vn 0.2798 -0.5440 0.7911
vn 0.0214 -0.9048 0.4253
vn 0.5232 -0.5090 0.6835
vn 0.4561 -0.8609 0.2253
vn 0.3947 0.4163 0.8191
vn 0.4671 0.4137 0.7815
vn 0.0885 0.7154 0.6931
vn -0.0092 0.5982 0.8013
vn -0.2248 0.5460 0.8070
vn -0.2268 0.5223 0.8220
vn -0.5057 -0.1404 0.8512
vn -0.3333 -0.2350 0.9131
vn -0.1819 -0.5219 0.8334
vn -0.4319 -0.6126 0.6619
vn 0.2795 -0.7685 0.5756
vn 0.3207 -0.6388 0.6993
vn 0.4280 -0.5576 0.7113
vn 0.3936 -0.4077 0.8239
vn 0.4133 0.5259 0.7433
vn 0.0769 0.6876 0.7220
vn -0.4845 0.3753 0.7902
vn -0.5462 0.0507 0.8361
vn -0.0623 -0.5115 0.8570
vn -0.1212 -0.5019 0.8564
vn 0.4713 -0.0977 0.8766
vn 0.4935 0.3419 0.7997
vn 0.2318 0.3928 0.8899
vn 0.0432 0.5449 0.8374
vn 0.0992 0.5901 0.8012
vn -0.4358 0.5163 0.7372
vn -0.4684 0.3493 0.8116
vn -0.6243 0.1153 0.7727
vn -0.5528 0.0485 0.8319
vn -0.2640 -0.6182 0.7404
vn -0.0866 -0.5743 0.8140
vn -0.0833 -0.5753 0.8137
vn -0.1100 -0.6020 0.7909
vn 0.5315 -0.2705 0.8027
vn 0.4636 -0.0949 0.8809
vn 0.3654 0.2696 0.8909
vn 0.3691 0.2697 0.8894
vn -0.0019 0.4590 0.8884
vn 0.0441 0.5166 0.8551
vn -0.2730 0.4066 0.8719
vn -0.2708 0.2550 0.9283
vn -0.3653 -0.0244 0.9306
vn -0.5684 0.1105 0.8153
vn -0.2006 -0.4272 0.8816
vn -0.1838 -0.4188 0.8893
vn -0.0113 -0.4365 0.8997
vn -0.0780 -0.5374 0.8397
vn 0.3727 -0.1231 0.9198
vn 0.4445 -0.2274 0.8664
f 1//1 2//1 3//1
f 1//2 3//2 4//2
f 1//3 4//3 5//3
f 1//4 5//4 6//4
f 1//5 6//5 7//5
f 1//6 7//6 8//6
f 1//7 8//7 9//7
f 1//8 9//8 10//8
f 1//9 10//9 11//9
f 1//10 11//10 12//10
f 1//11 12//11 2//11
f 2//12 13//12 14//12
f 2//13 14//13 3//13
f 3//14 14//14 15//14
f 3//15 15//15 4//15
f 4//16 15//16 16//16
f 4//17 16//17 5//17
f 5//18 16//18 17//18
f 5//19 17//19 6//19
f 6//20 17//20 18//20
f 6//21 18//21 7//21
f 7//22 18//22 19//22
f 7//23 19//23 8//23
f 8//24 19//24 20//24
f 8//25 20//25 9//25
f 9//26 20//26 21//26
f 9//27 21//27 10//27
f 10//28 21//28 22//28
f 10//29 22//29 11//29
f 11//30 22//30 23//30
f 11//31 23//31 12//31
f 12//32 23//32 13//32
f 12//33 13//33 2//33
f 13//34 24//34 25//34
f 13//35 25//35 14//35
f 14//36 25//36 26//36
f 14//37 26//37 15//37
f 15//38 26//38 27//38
f 15//39 27//39 16//39
f 16//40 27//40 28//40
f 16//41 28//41 17//41
f 17//42 28//42 29//42
f 17//43 29//43 18//43
f 18//44 29//44 30//44
f 18//45 30//45 19//45
f 19//46 30//46 31//46
f 19//47 31//47 20//47
f 20//48 31//48 32//48
f 20//49 32//49 21//49
f 21//50 32//50 33//50
f 21//51 33//51 22//51
f 22//52 33//52 34//52
f 22//53 34//53 23//53
f 23//54 34//54 24//54
f 23//55 24//55 13//55
f 24//56 35//56 36//56
f 24//57 36//57 25//57
f 25//58 36//58 37//58
f 25//59 37//59 26//59
f 26//60 37//60 38//60
f 26//61 38//61 27//61
f 27//62 38//62 39//62
f 27//63 39//63 28//63
f 28//64 39//64 40//64
f 28//65 40//65 29//65
f 29//66 40//66 41//66
f 29//67 41//67 30//67
f 30//68 41//68 42//68
f 30//69 42//69 31//69
f 31//70 42//70 43//70
f 31//71 43//71 32//71
f 32//72 43//72 44//72
f 32//73 44//73 33//73
f 33//74 44//74 45//74
f 33//75 45//75 34//75
f 34//76 45//76 35//76
f 34//77 35//77 24//77
f 35//78 46//78 47//78
f 35//79 47//79 36//79
f 36//80 47//80 48//80
f 36//81 48//81 37//81
f 37//82 48//82 49//82
f 37//83 49//83 38//83
f 38//84 49//84 50//84
f 38//85 50//85 39//85
f 39//86 50//86 51//86
f 39//87 51//87 40//87
f 40//88 51//88 52//88
f 40//89 52//89 41//89
f 41//90 52//90 53//90
f 41//91 53//91 42//91
f 42//92 53//92 54//92
f 42//93 54//93 43//93
f 43//94 54//94 55//94
f 43//95 55//95 44//95
f 44//96 55//96 56//96
f 44//97 56//97 45//97
f 45//98 56//98 46//98
f 45//99 46//99 35//99
f 46//100 57//100 58//100
f 46//101 58//101 47//101
f 47//102 58//102 59//102
f 47//103 59//103 48//103
f 48//104 59//104 60//104
f 48//105 60//105 49//105
f 49//106 60//106 61//106
f 49//107 61//107 50//107
f 50//108 61//108 62//108
f 50//109 62//109 51//109
f 51//110 62//110 63//110
f 51//111 63//111 52//111
f 52//112 63//112 64//112
f 52//113 64//113 53//113
f 53//114 64//114 65//114
f 53//115 65//115 54//115
f 54//116 65//116 66//116
f 54//117 66//117 55//117
f 55//118 66//118 67//118
f 55//119 67//119 56//119
f 56//120 67//120 57//120
f 56//121 57//121 46//121
f 68//122 69//122 70//122
f 68//123 70//123 71//123
f 68//124 71//124 72//124
f 68//125 72//125 73//125
f 68//126 73//126 74//126
f 68//127 74//127 75//127
f 68//128 75//128 69//128
f 69//129 76//129 77//129
f 69//130 77//130 70//130
f 70//131 77//131 78//131
f 70//132 78//132 71//132
f 71//133 78//133 79//133
f 71//134 79//134 72//134
f 72//135 79//135 80//135
f 72//136 80//136 73//136
f 73//137 80//137 81//137
f 73//138 81//138 74//138
f 74//139 81//139 82//139
f 74//140 82//140 75//140
f 75//141 82//141 76//141
f 75//142 76//142 69//142
f 76//143 83//143 84//143
f 76//144 84//144 77//144
f 77//145 84//145 85//145
f 77//146 85//146 78//146
f 78//147 85//147 86//147
f 78//148 86//148 79//148
f 79//149 86//149 87//149
f 79//150 87//150 80//150
f 80//151 87//151 88//151
f 80//152 88//152 81//152
f 81//153 88//153 89//153
f 81//154 89//154 82//154
f 82//155 89//155 83//155
f 82//156 83//156 76//156
f 90//157 91//157 92//157
f 90//158 92//158 93//158
f 90//159 93//159 94//159
f 90//160 94//160 95//160
f 90//161 95//161 96//161
f 90//162 96//162 97//162
f 90//163 97//163 91//163
f 91//164 98//164 99//164
f 91//165 99//165 92//165
f 92//166 99//166 100//166
f 92//167 100//167 93//167
f 93//168 100//168 101//168
f 93//169 101//169 94//169
f 94//170 101//170 102//170
f 94//171 102//171 95//171
f 95//172 102//172 103//172
f 95//173 103//173 96//173
f 96//174 103//174 104//174
f 96//175 104//175 97//175
f 97//176 104//176 98//176
f 97//177 98//177 91//177
f 98//178 105//178 106//178
f 98//179 106//179 99//179
f 99//180 106//180 107//180
f 99//181 107//181 100//181
f 100//182 107//182 108//182
f 100//183 108//183 101//183
f 101//184 108//184 109//184
f 101//185 109//185 102//185
f 102//186 109//186 110//186
f 102//187 110//187 103//187
f 103//188 110//188 111//188
f 103//189 111//189 104//189
f 104//190 111//190 105//190
f 104//191 105//191 98//191
f 112//192 113//192 114//192
f 112//193 114//193 115//193
f 112//194 115//194 116//194
f 112//195 116//195 117//195
f 112//196 117//196 118//196
f 112//197 118//197 119//197
f 112//198 119//198 113//198
f 113//199 120//199 121//199
f 113//200 121//200 114//200
f 114//201 121//201 122//201
f 114//202 122//202 115//202
f 115//203 122//203 123//203
f 115//204 123//204 116//204
f 116//205 123//205 124//205
f 116//206 124//206 117//206
f 117//207 124//207 125//207
f 117//208 125//208 118//208
f 118//209 125//209 126//209
f 118//210 126//210 119//210
f 119//211 126//211 120//211
f 119//212 120//212 113//212
f 120//213 127//213 128//213
f 120//214 128//214 121//214
f 121//215 128//215 129//215
f 121//216 129//216 122//216
f 122//217 129//217 130//217
f 122//218 130//218 123//218
f 123//219 130//219 131//219
f 123//220 131//220 124//220
f 124//221 131//221 132//221
f 124//222 132//222 125//222
f 125//223 132//223 133//223
f 125//224 133//224 126//224
f 126//225 133//225 127//225
f 126//226 127//226 120//226
f 134//227 135//227 136//227
f 134//228 136//228 137//228
f 134//229 137//229 138//229
f 134//230 138//230 139//230
f 134//231 139//231 140//231
f 134//232 140//232 141//232
f 134//233 141//233 135//233
f 135//234 142//234 143//234
f 135//235 143//235 136//235
f 136//236 143//236 144//236
f 136//237 144//237 137//237
f 137//238 144//238 145//238
f 137//239 145//239 138//239
f 138//240 145//240 146//240
f 138//241 146//241 139//241
f 139//242 146//242 147//242
f 139//243 147//243 140//243
f 140//244 147//244 148//244
f 140//245 148//245 141//245
f 141//246 148//246 142//246
f 141//247 142//247 135//247
f 142//248 149//248 150//248
f 142//249 150//249 143//249
f 143//250 150//250 151//250
f 143//251 151//251 144//251
f 144//252 151//252 152//252
f 144//253 152//253 145//253
f 145//254 152//254 153//254
f 145//255 153//255 146//255
f 146//256 153//256 154//256
f 146//257 154//257 147//257
f 147//258 154//258 155//258
f 147//259 155//259 148//259
f 148//260 155//260 149//260
f 148//261 149//261 142//261
f 156//262 157//262 158//262
f 156//263 158//263 159//263
f 156//264 159//264 160//264
f 156//265 160//265 161//265
f 156//266 161//266 162//266
f 156//267 162//267 163//267
f 156//268 163//268 157//268
f 157//269 164//269 165//269
f 157//270 165//270 158//270
f 158//271 165//271 166//271
f 158//272 166//272 159//272
f 159//273 166//273 167//273
f 159//274 167//274 160//274
f 160//275 167//275 168//275
f 160//276 168//276 161//276
f 161//277 168//277 169//277
f 161//278 169//278 162//278
f 162//279 169//279 170//279
f 162//280 170//280 163//280
f 163//281 170//281 164//281
f 163//282 164//282 157//282
f 164//283 171//283 172//283
f 164//284 172//284 165//284
f 165//285 172//285 173//285
f 165//286 173//286 166//286
f 166//287 173//287 174//287
f 166//288 174//288 167//288
f 167//289 174//289 175//289
f 167//290 175//290 168//290
f 168//291 175//291 176//291
f 168//292 176//292 169//292
f 169//293 176//293 177//293
f 169//294 177//294 170//294
f 170//295 177//295 171//295
f 170//296 171//296 164//296
